M48
;DRILL file {KiCad 4.0.2+e4-6225~38~ubuntu15.10.1-stable} date Seg 30 Mai 2016 09:09:44 BRT
;FORMAT={-:-/ absolute / inch / decimal}
FMAT,2
INCH,TZ
T1C0.024
T2C0.032
T3C0.040
T4C0.043
T5C0.125
T6C0.130
%
G90
G05
M72
T1
X4.505Y-4.77
X4.57Y-4.75
X4.675Y-4.715
X4.7Y-4.01
X4.72Y-4.05
X4.72Y-4.27
X4.77Y-4.695
X4.782Y-4.488
X4.845Y-4.655
X4.916Y-4.468
X4.945Y-4.36
X4.99Y-3.85
X5.1025Y-4.615
X5.114Y-4.506
X5.15Y-3.91
X5.196Y-4.266
X5.285Y-3.64
X5.29Y-4.01
X5.33Y-4.175
X5.35Y-4.5
X5.352Y-3.686
X5.6Y-4.328
X5.892Y-4.274
X5.93Y-4.04
X5.965Y-3.68
X6.066Y-4.714
X6.238Y-3.814
X6.372Y-3.866
X6.392Y-4.036
X6.454Y-3.837
X6.625Y-3.32
X6.647Y-3.579
X6.6634Y-3.9866
X6.671Y-4.427
X6.714Y-4.634
X6.756Y-3.57
X6.78Y-3.626
T2
X6.08Y-3.498
X6.18Y-3.498
X6.319Y-3.497
X6.419Y-3.497
X6.9784Y-2.8838
X6.9784Y-2.9838
X6.9784Y-3.0838
X6.9784Y-3.4738
X6.9784Y-3.5738
X6.9784Y-3.6738
X7.0784Y-2.8338
X7.0784Y-2.9338
X7.0784Y-3.0338
X7.0784Y-3.4238
X7.0784Y-3.5238
X7.0784Y-3.6238
T3
X4.962Y-4.818
X4.962Y-4.918
X5.062Y-4.818
X5.062Y-4.918
X5.162Y-4.818
X5.162Y-4.918
X5.262Y-4.818
X5.262Y-4.918
X5.362Y-4.818
X5.362Y-4.918
T4
X4.5715Y-3.134
X4.5715Y-3.234
X4.5715Y-5.034
X4.5715Y-5.134
X4.6715Y-3.134
X4.6715Y-3.234
X4.6715Y-5.034
X4.6715Y-5.134
X4.7715Y-3.134
X4.7715Y-3.234
X4.7715Y-5.034
X4.7715Y-5.134
X4.8715Y-3.134
X4.8715Y-3.234
X4.8715Y-5.034
X4.8715Y-5.134
X4.9715Y-3.134
X4.9715Y-3.234
X4.9715Y-5.034
X4.9715Y-5.134
X5.0715Y-3.134
X5.0715Y-3.234
X5.0715Y-5.034
X5.0715Y-5.134
X5.1715Y-3.134
X5.1715Y-3.234
X5.1715Y-5.034
X5.1715Y-5.134
X5.2715Y-3.134
X5.2715Y-3.234
X5.2715Y-5.034
X5.2715Y-5.134
X5.3715Y-3.134
X5.3715Y-3.234
X5.3715Y-5.034
X5.3715Y-5.134
X5.4715Y-3.134
X5.4715Y-3.234
X5.4715Y-5.034
X5.4715Y-5.134
X5.5715Y-3.134
X5.5715Y-3.234
X5.6715Y-3.134
X5.6715Y-3.234
X5.7715Y-3.134
X5.7715Y-3.234
X5.8715Y-3.134
X5.8715Y-3.234
X5.9715Y-3.134
X5.9715Y-3.234
X6.0715Y-3.134
X6.0715Y-3.234
X6.1715Y-3.134
X6.1715Y-3.234
X6.2715Y-3.134
X6.2715Y-3.234
X6.3715Y-3.134
X6.3715Y-3.234
X6.4715Y-3.134
X6.4715Y-3.234
X6.5715Y-3.134
X6.5715Y-3.234
X6.6715Y-3.134
X6.6715Y-3.234
X6.7715Y-3.134
X6.7715Y-3.234
T5
X4.3715Y-3.309
X4.3715Y-4.959
T6
X7.3354Y-3.1642
X7.3354Y-3.7542
X7.3355Y-2.7558
X7.3355Y-3.3458
T0
M30
