G04 #@! TF.FileFunction,Copper,L2,Bot,Signal*
%FSLAX46Y46*%
G04 Gerber Fmt 4.6, Leading zero omitted, Abs format (unit mm)*
G04 Created by KiCad (PCBNEW 4.0.2+e4-6225~38~ubuntu15.10.1-stable) date Seg 30 Mai 2016 09:09:38 BRT*
%MOMM*%
G01*
G04 APERTURE LIST*
%ADD10C,0.100000*%
%ADD11C,0.250000*%
%ADD12C,0.381000*%
%ADD13C,1.524000*%
%ADD14C,3.300000*%
%ADD15C,4.572000*%
%ADD16R,1.800000X1.800000*%
%ADD17C,1.800000*%
%ADD18C,1.600000*%
%ADD19R,0.800100X0.800100*%
%ADD20R,1.000000X1.250000*%
%ADD21R,1.250000X1.000000*%
%ADD22R,0.700000X1.300000*%
%ADD23R,5.000000X2.500000*%
%ADD24R,5.000000X1.800000*%
%ADD25R,1.300000X0.700000*%
%ADD26C,1.397000*%
%ADD27R,1.727200X1.727200*%
%ADD28O,1.727200X1.727200*%
%ADD29C,0.900000*%
%ADD30C,0.600000*%
%ADD31C,1.000000*%
%ADD32C,0.800000*%
%ADD33C,0.600000*%
%ADD34C,0.400000*%
%ADD35C,1.500000*%
%ADD36C,0.254000*%
G04 APERTURE END LIST*
D10*
D11*
X110112819Y-104968705D02*
X111112819Y-104968705D01*
X111112819Y-104587752D01*
X111065200Y-104492514D01*
X111017581Y-104444895D01*
X110922343Y-104397276D01*
X110779486Y-104397276D01*
X110684248Y-104444895D01*
X110636629Y-104492514D01*
X110589010Y-104587752D01*
X110589010Y-104968705D01*
X110112819Y-103540133D02*
X110636629Y-103540133D01*
X110731867Y-103587752D01*
X110779486Y-103682990D01*
X110779486Y-103873467D01*
X110731867Y-103968705D01*
X110160438Y-103540133D02*
X110112819Y-103635371D01*
X110112819Y-103873467D01*
X110160438Y-103968705D01*
X110255676Y-104016324D01*
X110350914Y-104016324D01*
X110446152Y-103968705D01*
X110493771Y-103873467D01*
X110493771Y-103635371D01*
X110541390Y-103540133D01*
X110779486Y-103206800D02*
X110779486Y-102825848D01*
X111112819Y-103063943D02*
X110255676Y-103063943D01*
X110160438Y-103016324D01*
X110112819Y-102921086D01*
X110112819Y-102825848D01*
X110112819Y-102492514D02*
X110779486Y-102492514D01*
X110589010Y-102492514D02*
X110684248Y-102444895D01*
X110731867Y-102397276D01*
X110779486Y-102302038D01*
X110779486Y-102206799D01*
X110112819Y-101873466D02*
X110779486Y-101873466D01*
X111160438Y-101778228D02*
X111017581Y-101921085D01*
X110160438Y-100968704D02*
X110112819Y-101063942D01*
X110112819Y-101254419D01*
X110160438Y-101349657D01*
X110208057Y-101397276D01*
X110303295Y-101444895D01*
X110589010Y-101444895D01*
X110684248Y-101397276D01*
X110731867Y-101349657D01*
X110779486Y-101254419D01*
X110779486Y-101063942D01*
X110731867Y-100968704D01*
X110112819Y-100540133D02*
X110779486Y-100540133D01*
X111112819Y-100540133D02*
X111065200Y-100587752D01*
X111017581Y-100540133D01*
X111065200Y-100492514D01*
X111112819Y-100540133D01*
X111017581Y-100540133D01*
X110112819Y-99635371D02*
X110636629Y-99635371D01*
X110731867Y-99682990D01*
X110779486Y-99778228D01*
X110779486Y-99968705D01*
X110731867Y-100063943D01*
X110160438Y-99635371D02*
X110112819Y-99730609D01*
X110112819Y-99968705D01*
X110160438Y-100063943D01*
X110255676Y-100111562D01*
X110350914Y-100111562D01*
X110446152Y-100063943D01*
X110493771Y-99968705D01*
X110493771Y-99730609D01*
X110541390Y-99635371D01*
X110112819Y-98397276D02*
X111112819Y-98397276D01*
X110112819Y-97825847D01*
X111112819Y-97825847D01*
X110112819Y-96921085D02*
X110636629Y-96921085D01*
X110731867Y-96968704D01*
X110779486Y-97063942D01*
X110779486Y-97254419D01*
X110731867Y-97349657D01*
X110160438Y-96921085D02*
X110112819Y-97016323D01*
X110112819Y-97254419D01*
X110160438Y-97349657D01*
X110255676Y-97397276D01*
X110350914Y-97397276D01*
X110446152Y-97349657D01*
X110493771Y-97254419D01*
X110493771Y-97016323D01*
X110541390Y-96921085D01*
X110112819Y-96302038D02*
X110160438Y-96397276D01*
X110255676Y-96444895D01*
X111112819Y-96444895D01*
X110112819Y-95778228D02*
X110160438Y-95873466D01*
X110255676Y-95921085D01*
X111112819Y-95921085D01*
X110112819Y-95397275D02*
X110779486Y-95397275D01*
X111112819Y-95397275D02*
X111065200Y-95444894D01*
X111017581Y-95397275D01*
X111065200Y-95349656D01*
X111112819Y-95397275D01*
X111017581Y-95397275D01*
X110779486Y-94921085D02*
X110112819Y-94921085D01*
X110684248Y-94921085D02*
X110731867Y-94873466D01*
X110779486Y-94778228D01*
X110779486Y-94635370D01*
X110731867Y-94540132D01*
X110636629Y-94492513D01*
X110112819Y-94492513D01*
X106908057Y-104397276D02*
X106860438Y-104444895D01*
X106812819Y-104587752D01*
X106812819Y-104682990D01*
X106860438Y-104825848D01*
X106955676Y-104921086D01*
X107050914Y-104968705D01*
X107241390Y-105016324D01*
X107384248Y-105016324D01*
X107574724Y-104968705D01*
X107669962Y-104921086D01*
X107765200Y-104825848D01*
X107812819Y-104682990D01*
X107812819Y-104587752D01*
X107765200Y-104444895D01*
X107717581Y-104397276D01*
X107812819Y-103778229D02*
X107812819Y-103587752D01*
X107765200Y-103492514D01*
X107669962Y-103397276D01*
X107479486Y-103349657D01*
X107146152Y-103349657D01*
X106955676Y-103397276D01*
X106860438Y-103492514D01*
X106812819Y-103587752D01*
X106812819Y-103778229D01*
X106860438Y-103873467D01*
X106955676Y-103968705D01*
X107146152Y-104016324D01*
X107479486Y-104016324D01*
X107669962Y-103968705D01*
X107765200Y-103873467D01*
X107812819Y-103778229D01*
X106812819Y-102921086D02*
X107812819Y-102921086D01*
X106812819Y-102349657D01*
X107812819Y-102349657D01*
X107812819Y-102016324D02*
X107812819Y-101444895D01*
X106812819Y-101730610D02*
X107812819Y-101730610D01*
X106812819Y-100540133D02*
X107289010Y-100873467D01*
X106812819Y-101111562D02*
X107812819Y-101111562D01*
X107812819Y-100730609D01*
X107765200Y-100635371D01*
X107717581Y-100587752D01*
X107622343Y-100540133D01*
X107479486Y-100540133D01*
X107384248Y-100587752D01*
X107336629Y-100635371D01*
X107289010Y-100730609D01*
X107289010Y-101111562D01*
X107812819Y-99921086D02*
X107812819Y-99730609D01*
X107765200Y-99635371D01*
X107669962Y-99540133D01*
X107479486Y-99492514D01*
X107146152Y-99492514D01*
X106955676Y-99540133D01*
X106860438Y-99635371D01*
X106812819Y-99730609D01*
X106812819Y-99921086D01*
X106860438Y-100016324D01*
X106955676Y-100111562D01*
X107146152Y-100159181D01*
X107479486Y-100159181D01*
X107669962Y-100111562D01*
X107765200Y-100016324D01*
X107812819Y-99921086D01*
X106812819Y-98587752D02*
X106812819Y-99063943D01*
X107812819Y-99063943D01*
X107336629Y-98254419D02*
X107336629Y-97921085D01*
X106812819Y-97778228D02*
X106812819Y-98254419D01*
X107812819Y-98254419D01*
X107812819Y-97778228D01*
X107717581Y-96635371D02*
X107765200Y-96587752D01*
X107812819Y-96492514D01*
X107812819Y-96254418D01*
X107765200Y-96159180D01*
X107717581Y-96111561D01*
X107622343Y-96063942D01*
X107527105Y-96063942D01*
X107384248Y-96111561D01*
X106812819Y-96682990D01*
X106812819Y-96063942D01*
X107812819Y-95444895D02*
X107812819Y-95349656D01*
X107765200Y-95254418D01*
X107717581Y-95206799D01*
X107622343Y-95159180D01*
X107431867Y-95111561D01*
X107193771Y-95111561D01*
X107003295Y-95159180D01*
X106908057Y-95206799D01*
X106860438Y-95254418D01*
X106812819Y-95349656D01*
X106812819Y-95444895D01*
X106860438Y-95540133D01*
X106908057Y-95587752D01*
X107003295Y-95635371D01*
X107193771Y-95682990D01*
X107431867Y-95682990D01*
X107622343Y-95635371D01*
X107717581Y-95587752D01*
X107765200Y-95540133D01*
X107812819Y-95444895D01*
X106812819Y-94159180D02*
X106812819Y-94730609D01*
X106812819Y-94444895D02*
X107812819Y-94444895D01*
X107669962Y-94540133D01*
X107574724Y-94635371D01*
X107527105Y-94730609D01*
X107812819Y-93302037D02*
X107812819Y-93492514D01*
X107765200Y-93587752D01*
X107717581Y-93635371D01*
X107574724Y-93730609D01*
X107384248Y-93778228D01*
X107003295Y-93778228D01*
X106908057Y-93730609D01*
X106860438Y-93682990D01*
X106812819Y-93587752D01*
X106812819Y-93397275D01*
X106860438Y-93302037D01*
X106908057Y-93254418D01*
X107003295Y-93206799D01*
X107241390Y-93206799D01*
X107336629Y-93254418D01*
X107384248Y-93302037D01*
X107431867Y-93397275D01*
X107431867Y-93587752D01*
X107384248Y-93682990D01*
X107336629Y-93730609D01*
X107241390Y-93778228D01*
D12*
X107035600Y-106502200D02*
X106654600Y-106502200D01*
X106654600Y-106502200D02*
X106654600Y-106375200D01*
X107924600Y-107391200D02*
X107035600Y-106502200D01*
X107035600Y-106502200D02*
X107035600Y-106248200D01*
X111099600Y-112090200D02*
X110972600Y-112471200D01*
X111099600Y-112090200D02*
X111480600Y-112090200D01*
X110718600Y-111582200D02*
X111099600Y-112090200D01*
X107035600Y-111836200D02*
X106527600Y-111836200D01*
X107035600Y-111836200D02*
X107035600Y-112217200D01*
X107924600Y-110820200D02*
X107035600Y-111836200D01*
X111226600Y-106248200D02*
X111353600Y-105740200D01*
X111226600Y-106248200D02*
X111734600Y-106248200D01*
X110718600Y-106883200D02*
X111226600Y-106248200D01*
X107797600Y-109042200D02*
X107543600Y-109042200D01*
X107924600Y-109677200D02*
X107924600Y-108534200D01*
X107924600Y-108534200D02*
X107416600Y-108534200D01*
X107416600Y-108534200D02*
X107416600Y-109677200D01*
X107416600Y-109677200D02*
X107924600Y-109677200D01*
X109732581Y-110185200D02*
G75*
G03X109732581Y-110185200I-283981J0D01*
G01*
X109732581Y-108153200D02*
G75*
G03X109732581Y-108153200I-283981J0D01*
G01*
X109448600Y-109169200D02*
X108686600Y-108915200D01*
X108686600Y-108915200D02*
X108686600Y-109423200D01*
X108686600Y-109423200D02*
X109448600Y-109169200D01*
X107162600Y-110185200D02*
X106908600Y-110058200D01*
X106908600Y-110058200D02*
X106654600Y-109804200D01*
X106654600Y-109804200D02*
X106527600Y-109423200D01*
X108305600Y-108026200D02*
X107543600Y-108026200D01*
X107543600Y-108026200D02*
X107162600Y-108026200D01*
X107162600Y-108026200D02*
X106781600Y-108153200D01*
X106781600Y-108153200D02*
X106654600Y-108534200D01*
X106654600Y-108534200D02*
X106527600Y-109042200D01*
X106527600Y-109042200D02*
X106527600Y-109423200D01*
X107162600Y-110185200D02*
X107543600Y-110185200D01*
X107543600Y-110185200D02*
X108305600Y-110185200D01*
X109067600Y-111709200D02*
X108813600Y-111582200D01*
X108813600Y-111582200D02*
X108559600Y-111455200D01*
X108559600Y-111455200D02*
X108432600Y-110947200D01*
X108432600Y-110947200D02*
X108305600Y-110312200D01*
X108305600Y-110312200D02*
X108305600Y-109931200D01*
X109067600Y-111709200D02*
X109321600Y-111709200D01*
X109321600Y-111709200D02*
X109829600Y-111582200D01*
X109829600Y-111582200D02*
X110464600Y-111328200D01*
X110464600Y-111328200D02*
X110972600Y-110820200D01*
X110972600Y-110820200D02*
X111353600Y-110185200D01*
X111353600Y-110185200D02*
X111607600Y-109550200D01*
X111607600Y-109550200D02*
X111607600Y-109042200D01*
X111607600Y-109042200D02*
X111480600Y-108407200D01*
X111480600Y-108407200D02*
X111226600Y-107772200D01*
X111226600Y-107772200D02*
X110718600Y-107264200D01*
X110718600Y-107264200D02*
X110337600Y-107010200D01*
X110337600Y-107010200D02*
X109829600Y-106756200D01*
X109829600Y-106756200D02*
X109448600Y-106629200D01*
X109448600Y-106629200D02*
X109067600Y-106629200D01*
X109067600Y-106629200D02*
X108686600Y-106756200D01*
X108686600Y-106756200D02*
X108559600Y-107010200D01*
X108559600Y-107010200D02*
X108305600Y-107518200D01*
X108305600Y-107518200D02*
X108305600Y-107899200D01*
X108305600Y-107899200D02*
X108305600Y-108280200D01*
D13*
X177251340Y-75788520D03*
X177251340Y-73248520D03*
X177251340Y-78328520D03*
X179791340Y-71978520D03*
X179791340Y-74518520D03*
X179791340Y-77058520D03*
D14*
X186319140Y-80370680D03*
X186321680Y-69997320D03*
D15*
X111036100Y-84048600D03*
X111036100Y-125958600D03*
D16*
X171996100Y-79603600D03*
D17*
X171996100Y-82143600D03*
X169456100Y-79603600D03*
X169456100Y-82143600D03*
X166916100Y-79603600D03*
X166916100Y-82143600D03*
X164376100Y-79603600D03*
X164376100Y-82143600D03*
X161836100Y-79603600D03*
X161836100Y-82143600D03*
X159296100Y-79603600D03*
X159296100Y-82143600D03*
X156756100Y-79603600D03*
X156756100Y-82143600D03*
X154216100Y-79603600D03*
X154216100Y-82143600D03*
X151676100Y-79603600D03*
X151676100Y-82143600D03*
X149136100Y-79603600D03*
X149136100Y-82143600D03*
X146596100Y-79603600D03*
X146596100Y-82143600D03*
X144056100Y-79603600D03*
X144056100Y-82143600D03*
X141516100Y-79603600D03*
X141516100Y-82143600D03*
X138976100Y-79603600D03*
X138976100Y-82143600D03*
X136436100Y-79603600D03*
X136436100Y-82143600D03*
X133896100Y-79603600D03*
X133896100Y-82143600D03*
X131356100Y-79603600D03*
X131356100Y-82143600D03*
X128816100Y-79603600D03*
X128816100Y-82143600D03*
X126276100Y-79603600D03*
X126276100Y-82143600D03*
X123736100Y-79603600D03*
X123736100Y-82143600D03*
X121196100Y-79603600D03*
X121196100Y-82143600D03*
X118656100Y-79603600D03*
X118656100Y-82143600D03*
X116116100Y-79603600D03*
X116116100Y-82143600D03*
D18*
X138976100Y-127863600D03*
D17*
X138976100Y-130403600D03*
D18*
X136436100Y-127863600D03*
X136436100Y-130403600D03*
X133896100Y-127863600D03*
X133896100Y-130403600D03*
X131356100Y-127863600D03*
D17*
X131356100Y-130403600D03*
D18*
X128816100Y-127863600D03*
D17*
X128816100Y-130403600D03*
X126276100Y-127863600D03*
X126276100Y-130403600D03*
X123736100Y-127863600D03*
X123736100Y-130403600D03*
X121196100Y-127863600D03*
X121196100Y-130403600D03*
X118656100Y-127863600D03*
X118656100Y-130403600D03*
X116116100Y-127863600D03*
X116116100Y-130403600D03*
D19*
X126278640Y-116850200D03*
X126278640Y-114950200D03*
X128277620Y-115900200D03*
D20*
X130540000Y-110490000D03*
X128540000Y-110490000D03*
X117840000Y-99060000D03*
X115840000Y-99060000D03*
X117840000Y-101600000D03*
X115840000Y-101600000D03*
D21*
X130810000Y-95520000D03*
X130810000Y-97520000D03*
D20*
X122920000Y-110490000D03*
X120920000Y-110490000D03*
D21*
X128270000Y-97520000D03*
X128270000Y-95520000D03*
D22*
X139735600Y-93573600D03*
X137835600Y-93573600D03*
D13*
X177251340Y-90774520D03*
X177251340Y-88234520D03*
X177251340Y-93314520D03*
X179791340Y-86964520D03*
X179791340Y-89504520D03*
X179791340Y-92044520D03*
D14*
X186319140Y-95356680D03*
X186321680Y-84983320D03*
D23*
X188976000Y-122301000D03*
D24*
X188976000Y-124741000D03*
X188976000Y-119861000D03*
D25*
X142240000Y-127950000D03*
X142240000Y-126050000D03*
D26*
X154432000Y-88849200D03*
X156972000Y-88849200D03*
X163042600Y-88823800D03*
X160502600Y-88823800D03*
D27*
X136194800Y-122377200D03*
D28*
X136194800Y-124917200D03*
X133654800Y-122377200D03*
X133654800Y-124917200D03*
X131114800Y-122377200D03*
X131114800Y-124917200D03*
X128574800Y-122377200D03*
X128574800Y-124917200D03*
X126034800Y-122377200D03*
X126034800Y-124917200D03*
D19*
X137213340Y-117243900D03*
X137213340Y-115343900D03*
X139212320Y-116293900D03*
X131206240Y-117624900D03*
X131206240Y-115724900D03*
X133205220Y-116674900D03*
D25*
X140614400Y-118074400D03*
X140614400Y-119974400D03*
D22*
X137200600Y-113487200D03*
X139100600Y-113487200D03*
X133492200Y-119684800D03*
X135392200Y-119684800D03*
X131180800Y-113893600D03*
X133080800Y-113893600D03*
D25*
X128320800Y-118887200D03*
X128320800Y-120787200D03*
D22*
X126278600Y-113449100D03*
X128178600Y-113449100D03*
D29*
X142240000Y-109931200D03*
X170535600Y-117703600D03*
X169249600Y-101260400D03*
X151511000Y-93472000D03*
X163931600Y-97459800D03*
X161848800Y-98196400D03*
X169443400Y-112445800D03*
X158445200Y-96875600D03*
X162356800Y-102514400D03*
X149656800Y-108559600D03*
X150622000Y-102616000D03*
X131978400Y-108356400D03*
X121462800Y-113995200D03*
D30*
X130810000Y-99314000D03*
X126746000Y-97790000D03*
X119380000Y-101854000D03*
D29*
X168275000Y-84328000D03*
D30*
X119888000Y-102870000D03*
D29*
X119888000Y-108458000D03*
X135940800Y-93624400D03*
X172212000Y-92100400D03*
X171602400Y-90678000D03*
X134366000Y-101854000D03*
X135382000Y-106045000D03*
X123063000Y-118237000D03*
X121158000Y-119253000D03*
X118745000Y-119761000D03*
X116078000Y-120650000D03*
X114427000Y-121158000D03*
X129603500Y-117221000D03*
X154076400Y-119735600D03*
X134239000Y-92456000D03*
X125603000Y-110744000D03*
X135890000Y-114300000D03*
X129895600Y-114452400D03*
X124866400Y-113487200D03*
X168833800Y-90906600D03*
D31*
X164376100Y-79603600D02*
X164376100Y-82143600D01*
X164376100Y-82143600D02*
X160718500Y-85801200D01*
X139735600Y-88585000D02*
X139735600Y-107477600D01*
X142519400Y-85801200D02*
X139735600Y-88585000D01*
X160718500Y-85801200D02*
X142519400Y-85801200D01*
D32*
X142240000Y-109931200D02*
X142214600Y-109956600D01*
X142214600Y-109956600D02*
X142240000Y-109931200D01*
X142240000Y-109931200D02*
X142240000Y-109982000D01*
D31*
X170535600Y-117703600D02*
X168910000Y-116078000D01*
X139735600Y-93573600D02*
X139735600Y-93055400D01*
X168910000Y-116078000D02*
X148336000Y-116078000D01*
X148336000Y-116078000D02*
X142240000Y-109982000D01*
X142240000Y-109982000D02*
X139735600Y-107477600D01*
X139735600Y-107477600D02*
X139735600Y-93573600D01*
D33*
X169249600Y-101260400D02*
X169265600Y-101244400D01*
D31*
X163042600Y-88823800D02*
X163042600Y-96570800D01*
X167716200Y-101244400D02*
X169265600Y-101244400D01*
X151511000Y-93472000D02*
X152781000Y-93472000D01*
X152781000Y-93472000D02*
X160553400Y-101244400D01*
X160553400Y-101244400D02*
X169265600Y-101244400D01*
X154584400Y-88798400D02*
X153822400Y-88798400D01*
X151511000Y-91109800D02*
X151511000Y-93472000D01*
X153822400Y-88798400D02*
X151511000Y-91109800D01*
X157480000Y-98171000D02*
X152781000Y-93472000D01*
X163042600Y-96570800D02*
X163931600Y-97485200D01*
X163931600Y-97485200D02*
X167716200Y-101244400D01*
D34*
X163931600Y-97459800D02*
X163918900Y-97472500D01*
X163918900Y-97472500D02*
X163931600Y-97459800D01*
X163931600Y-97459800D02*
X163931600Y-97485200D01*
X162356800Y-102514400D02*
X162356800Y-102666800D01*
X149656800Y-108585000D02*
X149733000Y-108585000D01*
X149656800Y-108559600D02*
X149656800Y-108585000D01*
D31*
X149733000Y-108585000D02*
X149606000Y-108585000D01*
X150622000Y-107696000D02*
X149733000Y-108585000D01*
X150622000Y-107315000D02*
X150622000Y-107696000D01*
X150622000Y-102616000D02*
X150622000Y-107315000D01*
D32*
X179039520Y-89758520D02*
X177769520Y-88488520D01*
D31*
X132029200Y-110490000D02*
X130540000Y-110490000D01*
X132537200Y-109982000D02*
X132029200Y-110490000D01*
X132537200Y-108915200D02*
X132537200Y-109982000D01*
X131978400Y-108356400D02*
X132537200Y-108915200D01*
X169456100Y-79603600D02*
X169456100Y-83146900D01*
X169456100Y-83146900D02*
X168275000Y-84328000D01*
X136194800Y-122377200D02*
X126034800Y-122377200D01*
X126034800Y-122377200D02*
X125831600Y-122174000D01*
X125831600Y-122174000D02*
X125831600Y-118364000D01*
X125831600Y-118364000D02*
X121462800Y-113995200D01*
D34*
X130810000Y-99314000D02*
X130810000Y-97520000D01*
X127016000Y-97520000D02*
X128270000Y-97520000D01*
X126746000Y-97790000D02*
X127016000Y-97520000D01*
X118364000Y-99060000D02*
X117840000Y-99060000D01*
X118745000Y-99441000D02*
X118364000Y-99060000D01*
X118745000Y-100711000D02*
X118745000Y-99441000D01*
X119380000Y-101854000D02*
X118745000Y-100711000D01*
D32*
X169456100Y-82143600D02*
X169456100Y-79603600D01*
X169456100Y-83146900D02*
X168275000Y-84328000D01*
X169456100Y-82143600D02*
X169456100Y-83146900D01*
D34*
X118618000Y-102378000D02*
X117840000Y-101600000D01*
X118618000Y-102616000D02*
X118618000Y-102378000D01*
X118872000Y-102870000D02*
X118618000Y-102616000D01*
X119888000Y-102870000D02*
X118872000Y-102870000D01*
D32*
X123571000Y-107569000D02*
X120777000Y-107569000D01*
X124841000Y-106299000D02*
X123571000Y-107569000D01*
X124841000Y-95250000D02*
X124841000Y-106299000D01*
X120777000Y-107569000D02*
X119888000Y-108458000D01*
X119888000Y-110236000D02*
X120142000Y-110490000D01*
X120142000Y-110490000D02*
X120920000Y-110490000D01*
X119888000Y-108458000D02*
X119888000Y-110236000D01*
D34*
X161836100Y-82143600D02*
X162331400Y-82143600D01*
D32*
X135788400Y-84302600D02*
X124841000Y-95250000D01*
X160172400Y-84302600D02*
X135788400Y-84302600D01*
X162331400Y-82143600D02*
X160172400Y-84302600D01*
D31*
X135991600Y-93573600D02*
X137835600Y-93573600D01*
X135940800Y-93624400D02*
X135991600Y-93573600D01*
D34*
X179791340Y-92044520D02*
X180370480Y-92044520D01*
X180370480Y-92044520D02*
X181483000Y-90932000D01*
X179791340Y-78780660D02*
X179791340Y-77058520D01*
X178435000Y-80137000D02*
X179791340Y-78780660D01*
X178435000Y-87630000D02*
X178435000Y-80137000D01*
X179070000Y-88265000D02*
X178435000Y-87630000D01*
X180721000Y-88265000D02*
X179070000Y-88265000D01*
X181483000Y-89027000D02*
X180721000Y-88265000D01*
X181483000Y-90932000D02*
X181483000Y-89027000D01*
D33*
X172267880Y-92044520D02*
X179791340Y-92044520D01*
X172212000Y-92100400D02*
X172267880Y-92044520D01*
D31*
X177251340Y-75788520D02*
X176560480Y-75788520D01*
X176560480Y-75788520D02*
X174879000Y-77470000D01*
X174879000Y-77470000D02*
X174879000Y-89027000D01*
X174879000Y-89027000D02*
X176626520Y-90774520D01*
X176626520Y-90774520D02*
X177251340Y-90774520D01*
D33*
X171602400Y-90678000D02*
X171571920Y-90647520D01*
X171571920Y-90647520D02*
X177218340Y-90647520D01*
X134366000Y-101854000D02*
X135382000Y-102870000D01*
X135382000Y-102870000D02*
X135382000Y-106045000D01*
X123063000Y-118237000D02*
X123736100Y-118910100D01*
X123736100Y-118910100D02*
X123736100Y-127863600D01*
D34*
X121196100Y-119291100D02*
X121158000Y-119253000D01*
D33*
X121196100Y-127863600D02*
X121196100Y-119291100D01*
X118656100Y-119849900D02*
X118656100Y-127863600D01*
D34*
X118745000Y-119761000D02*
X118656100Y-119849900D01*
D33*
X116116100Y-127863600D02*
X116116100Y-120688100D01*
D34*
X116116100Y-120688100D02*
X116078000Y-120650000D01*
D33*
X114427000Y-121158000D02*
X114427000Y-128905000D01*
X114427000Y-128905000D02*
X115925600Y-130403600D01*
D34*
X115925600Y-130403600D02*
X116116100Y-130403600D01*
D35*
X181488080Y-122301000D02*
X188976000Y-122301000D01*
X138734800Y-128005840D02*
X175783240Y-128005840D01*
X138976100Y-127764540D02*
X138734800Y-128005840D01*
X175783240Y-128005840D02*
X181488080Y-122301000D01*
D31*
X138976100Y-127863600D02*
X138976100Y-127764540D01*
D32*
X138976100Y-127863600D02*
X138976100Y-127825500D01*
D33*
X146596100Y-79603600D02*
X146596100Y-78981300D01*
D32*
X131206240Y-115724900D02*
X130426500Y-115724900D01*
X129603500Y-116547900D02*
X129603500Y-117221000D01*
X130426500Y-115724900D02*
X129603500Y-116547900D01*
X137213340Y-115343900D02*
X136725700Y-115343900D01*
X136725700Y-115343900D02*
X135356600Y-116713000D01*
D33*
X154076400Y-119735600D02*
X154063700Y-119722900D01*
X154063700Y-119722900D02*
X154101800Y-119684800D01*
D32*
X152908000Y-120878600D02*
X154101800Y-119684800D01*
X152908000Y-123444000D02*
X152908000Y-120878600D01*
D34*
X130810000Y-95520000D02*
X131175000Y-95520000D01*
X131175000Y-95520000D02*
X134239000Y-92456000D01*
X125349000Y-110490000D02*
X125603000Y-110744000D01*
X122920000Y-110490000D02*
X125349000Y-110490000D01*
X140614400Y-119974400D02*
X140614400Y-124434600D01*
X140614400Y-124434600D02*
X137706100Y-127342900D01*
X137706100Y-127342900D02*
X137706100Y-129133600D01*
X137706100Y-129133600D02*
X138976100Y-130403600D01*
X138976100Y-130403600D02*
X138976100Y-130340100D01*
X138531600Y-120142000D02*
X135318500Y-120142000D01*
X139090400Y-120700800D02*
X138531600Y-120142000D01*
X139090400Y-125039120D02*
X139090400Y-120700800D01*
X136207500Y-127922020D02*
X139090400Y-125039120D01*
X136436100Y-127863600D02*
X136436100Y-127469900D01*
X123736100Y-130403600D02*
X123736100Y-131330700D01*
X134609840Y-131963160D02*
X135178800Y-131394200D01*
X124368560Y-131963160D02*
X134609840Y-131963160D01*
X123736100Y-131330700D02*
X124368560Y-131963160D01*
X135813800Y-126403100D02*
X136842500Y-126403100D01*
X135178800Y-127038100D02*
X135813800Y-126403100D01*
X135178800Y-131394200D02*
X135178800Y-127038100D01*
X136842500Y-126403100D02*
X138176000Y-125069600D01*
X137398800Y-120787200D02*
X128320800Y-120787200D01*
X138176000Y-121564400D02*
X137398800Y-120787200D01*
X138176000Y-125069600D02*
X138176000Y-121564400D01*
X136194800Y-124917200D02*
X135763000Y-124917200D01*
X135763000Y-124917200D02*
X133896100Y-126784100D01*
X133896100Y-126784100D02*
X133896100Y-127863600D01*
X133896100Y-127876300D02*
X133896100Y-127863600D01*
X133654800Y-124917200D02*
X133654800Y-125336300D01*
X132638800Y-126352300D02*
X132638800Y-129146300D01*
X132638800Y-129146300D02*
X133896100Y-130403600D01*
X133654800Y-125336300D02*
X132638800Y-126352300D01*
X131356100Y-127863600D02*
X131356100Y-126174500D01*
X131114800Y-125933200D02*
X131114800Y-124917200D01*
X131356100Y-126174500D02*
X131114800Y-125933200D01*
X131114800Y-127622300D02*
X131356100Y-127863600D01*
X128625600Y-125780800D02*
X128625600Y-124968000D01*
X128625600Y-124968000D02*
X128574800Y-124917200D01*
X130098800Y-129146300D02*
X131356100Y-130403600D01*
X130098800Y-127254000D02*
X130098800Y-129146300D01*
X128574800Y-125730000D02*
X128625600Y-125780800D01*
X128625600Y-125780800D02*
X130098800Y-127254000D01*
X126034800Y-125069600D02*
X128816100Y-127850900D01*
X128816100Y-127863600D02*
X128816100Y-127863600D01*
D32*
X139212320Y-116293900D02*
X139212320Y-113598920D01*
X139212320Y-113598920D02*
X139100600Y-113487200D01*
X140614400Y-118074400D02*
X138043840Y-118074400D01*
X138043840Y-118074400D02*
X137213340Y-117243900D01*
X133080760Y-115087400D02*
X133080760Y-116550440D01*
X133080760Y-116550440D02*
X133205220Y-116674900D01*
X133080760Y-113893640D02*
X133080800Y-113893600D01*
X133080760Y-115178800D02*
X133080760Y-115087400D01*
X133080760Y-115087400D02*
X133080760Y-113893640D01*
X131206240Y-117624900D02*
X131206240Y-118125240D01*
X132765800Y-119684800D02*
X133492200Y-119684800D01*
X131206240Y-118125240D02*
X132765800Y-119684800D01*
X128277620Y-115900200D02*
X128277620Y-113548120D01*
X128277620Y-113548120D02*
X128178600Y-113449100D01*
X128320800Y-118887200D02*
X128315640Y-118887200D01*
X128315640Y-118887200D02*
X126278640Y-116850200D01*
D34*
X128305560Y-118871960D02*
X128320800Y-118887200D01*
D31*
X137200600Y-113487200D02*
X136702800Y-113487200D01*
X136702800Y-113487200D02*
X135890000Y-114300000D01*
D32*
X129895600Y-114452400D02*
X130454400Y-113893600D01*
X130454400Y-113893600D02*
X131180800Y-113893600D01*
D34*
X131180800Y-113893600D02*
X130454400Y-113893600D01*
D32*
X126278600Y-113449100D02*
X124904500Y-113449100D01*
X124904500Y-113449100D02*
X124866400Y-113487200D01*
D11*
X168859200Y-90932000D02*
X168884600Y-90932000D01*
X168833800Y-90906600D02*
X168859200Y-90932000D01*
D36*
G36*
X184385681Y-68701281D02*
X184037077Y-69540811D01*
X184036284Y-70449841D01*
X184383422Y-71289978D01*
X185025641Y-71933319D01*
X185865171Y-72281923D01*
X186774201Y-72282716D01*
X187614338Y-71935578D01*
X188257679Y-71293359D01*
X188606283Y-70453829D01*
X188607076Y-69544799D01*
X188259938Y-68704662D01*
X187678292Y-68122000D01*
X191085000Y-68122000D01*
X191085000Y-76686954D01*
X191065000Y-76787500D01*
X191065000Y-97990000D01*
X171425000Y-97990000D01*
X171162862Y-98042143D01*
X170940632Y-98190632D01*
X170792143Y-98412862D01*
X170740000Y-98675000D01*
X170740000Y-116302867D01*
X169712566Y-115275434D01*
X169344346Y-115029397D01*
X168910000Y-114943000D01*
X150706423Y-114943000D01*
X143383000Y-104480967D01*
X143383000Y-91109800D01*
X150376000Y-91109800D01*
X150376000Y-93472000D01*
X150462397Y-93906346D01*
X150708434Y-94274566D01*
X151076654Y-94520603D01*
X151511000Y-94607000D01*
X152310868Y-94607000D01*
X155779502Y-98075634D01*
X159750833Y-102046966D01*
X159972981Y-102195400D01*
X160119054Y-102293003D01*
X160553400Y-102379400D01*
X169265600Y-102379400D01*
X169435710Y-102345563D01*
X169464473Y-102345588D01*
X169491290Y-102334507D01*
X169699946Y-102293003D01*
X170068166Y-102046966D01*
X170314203Y-101678746D01*
X170400600Y-101244400D01*
X170314203Y-100810054D01*
X170068166Y-100441834D01*
X169699946Y-100195797D01*
X169265600Y-100109400D01*
X168184095Y-100109400D01*
X164738488Y-96686918D01*
X164177600Y-96110004D01*
X164177600Y-95809201D01*
X184033744Y-95809201D01*
X184380882Y-96649338D01*
X185023101Y-97292679D01*
X185862631Y-97641283D01*
X186771661Y-97642076D01*
X187611798Y-97294938D01*
X188255139Y-96652719D01*
X188603743Y-95813189D01*
X188604536Y-94904159D01*
X188257398Y-94064022D01*
X187615179Y-93420681D01*
X186775649Y-93072077D01*
X185866619Y-93071284D01*
X185026482Y-93418422D01*
X184383141Y-94060641D01*
X184034537Y-94900171D01*
X184033744Y-95809201D01*
X164177600Y-95809201D01*
X164177600Y-94294733D01*
X176450732Y-94294733D01*
X176520197Y-94536917D01*
X177043642Y-94723664D01*
X177598708Y-94695882D01*
X177982483Y-94536917D01*
X178051948Y-94294733D01*
X177251340Y-93494125D01*
X176450732Y-94294733D01*
X164177600Y-94294733D01*
X164177600Y-91121473D01*
X167748612Y-91121473D01*
X167913446Y-91520400D01*
X168218395Y-91825882D01*
X168617033Y-91991411D01*
X169048673Y-91991788D01*
X169447600Y-91826954D01*
X169753082Y-91522005D01*
X169918611Y-91123367D01*
X169918812Y-90892873D01*
X170517212Y-90892873D01*
X170682046Y-91291800D01*
X170986995Y-91597282D01*
X171207988Y-91689046D01*
X171127189Y-91883633D01*
X171126812Y-92315273D01*
X171291646Y-92714200D01*
X171596595Y-93019682D01*
X171995233Y-93185211D01*
X172426873Y-93185588D01*
X172825800Y-93020754D01*
X172867106Y-92979520D01*
X175887613Y-92979520D01*
X175842196Y-93106822D01*
X175869978Y-93661888D01*
X176028943Y-94045663D01*
X176271127Y-94115128D01*
X177071735Y-93314520D01*
X177057593Y-93300378D01*
X177237198Y-93120773D01*
X177251340Y-93134915D01*
X177265483Y-93120773D01*
X177445088Y-93300378D01*
X177430945Y-93314520D01*
X178231553Y-94115128D01*
X178473737Y-94045663D01*
X178660484Y-93522218D01*
X178633321Y-92979520D01*
X178750775Y-92979520D01*
X178998970Y-93228149D01*
X179512240Y-93441277D01*
X180068001Y-93441762D01*
X180581643Y-93229530D01*
X180974969Y-92836890D01*
X181128342Y-92467526D01*
X182073434Y-91522434D01*
X182080842Y-91511347D01*
X182254439Y-91251541D01*
X182318000Y-90932000D01*
X182318000Y-89027000D01*
X182305799Y-88965663D01*
X182254440Y-88707460D01*
X182073434Y-88436566D01*
X181311434Y-87674566D01*
X181244736Y-87630000D01*
X181074806Y-87516456D01*
X181188097Y-87243620D01*
X181188582Y-86687859D01*
X180976350Y-86174217D01*
X180583710Y-85780891D01*
X180070440Y-85567763D01*
X179514679Y-85567278D01*
X179270000Y-85668377D01*
X179270000Y-85435841D01*
X184036284Y-85435841D01*
X184383422Y-86275978D01*
X185025641Y-86919319D01*
X185865171Y-87267923D01*
X186774201Y-87268716D01*
X187614338Y-86921578D01*
X188257679Y-86279359D01*
X188606283Y-85439829D01*
X188607076Y-84530799D01*
X188259938Y-83690662D01*
X187617719Y-83047321D01*
X186778189Y-82698717D01*
X185869159Y-82697924D01*
X185029022Y-83045062D01*
X184385681Y-83687281D01*
X184037077Y-84526811D01*
X184036284Y-85435841D01*
X179270000Y-85435841D01*
X179270000Y-80823201D01*
X184033744Y-80823201D01*
X184380882Y-81663338D01*
X185023101Y-82306679D01*
X185862631Y-82655283D01*
X186771661Y-82656076D01*
X187611798Y-82308938D01*
X188255139Y-81666719D01*
X188603743Y-80827189D01*
X188604536Y-79918159D01*
X188257398Y-79078022D01*
X187615179Y-78434681D01*
X186775649Y-78086077D01*
X185866619Y-78085284D01*
X185026482Y-78432422D01*
X184383141Y-79074641D01*
X184034537Y-79914171D01*
X184033744Y-80823201D01*
X179270000Y-80823201D01*
X179270000Y-80482868D01*
X180381774Y-79371094D01*
X180431329Y-79296930D01*
X180562779Y-79100201D01*
X180626340Y-78780660D01*
X180626340Y-78198911D01*
X180974969Y-77850890D01*
X181188097Y-77337620D01*
X181188582Y-76781859D01*
X180976350Y-76268217D01*
X180583710Y-75874891D01*
X180391613Y-75795125D01*
X180522483Y-75740917D01*
X180591948Y-75498733D01*
X179791340Y-74698125D01*
X178990732Y-75498733D01*
X179060197Y-75740917D01*
X179200658Y-75791029D01*
X179001037Y-75873510D01*
X178607711Y-76266150D01*
X178394583Y-76779420D01*
X178394098Y-77335181D01*
X178606330Y-77848823D01*
X178956340Y-78199445D01*
X178956340Y-78434792D01*
X178552645Y-78838487D01*
X178660484Y-78536218D01*
X178632702Y-77981152D01*
X178473737Y-77597377D01*
X178231553Y-77527912D01*
X177430945Y-78328520D01*
X177445088Y-78342663D01*
X177265483Y-78522268D01*
X177251340Y-78508125D01*
X176450732Y-79308733D01*
X176520197Y-79550917D01*
X177043642Y-79737664D01*
X177598708Y-79709882D01*
X177787768Y-79631571D01*
X177663561Y-79817459D01*
X177600000Y-80137000D01*
X177600000Y-86875666D01*
X177459038Y-86825376D01*
X176903972Y-86853158D01*
X176520197Y-87012123D01*
X176450732Y-87254307D01*
X177251340Y-88054915D01*
X177265483Y-88040773D01*
X177445088Y-88220378D01*
X177430945Y-88234520D01*
X178231553Y-89035128D01*
X178473737Y-88965663D01*
X178506615Y-88873508D01*
X178528099Y-88887862D01*
X178382196Y-89296822D01*
X178409978Y-89851888D01*
X178568943Y-90235663D01*
X178811127Y-90305128D01*
X179611735Y-89504520D01*
X179597593Y-89490378D01*
X179777198Y-89310773D01*
X179791340Y-89324915D01*
X179805483Y-89310773D01*
X179985088Y-89490378D01*
X179970945Y-89504520D01*
X179985088Y-89518663D01*
X179805483Y-89698268D01*
X179791340Y-89684125D01*
X178990732Y-90484733D01*
X179060197Y-90726917D01*
X179200658Y-90777029D01*
X179001037Y-90859510D01*
X178750590Y-91109520D01*
X178624885Y-91109520D01*
X178648097Y-91053620D01*
X178648582Y-90497859D01*
X178436350Y-89984217D01*
X178043710Y-89590891D01*
X177851613Y-89511125D01*
X177982483Y-89456917D01*
X178051948Y-89214733D01*
X177251340Y-88414125D01*
X177237198Y-88428268D01*
X177057593Y-88248663D01*
X177071735Y-88234520D01*
X176271127Y-87433912D01*
X176028943Y-87503377D01*
X176014000Y-87545262D01*
X176014000Y-79023587D01*
X176028943Y-79059663D01*
X176271127Y-79129128D01*
X177071735Y-78328520D01*
X177057593Y-78314378D01*
X177237198Y-78134773D01*
X177251340Y-78148915D01*
X178051948Y-77348307D01*
X177982483Y-77106123D01*
X177842022Y-77056011D01*
X178041643Y-76973530D01*
X178434969Y-76580890D01*
X178648097Y-76067620D01*
X178648582Y-75511859D01*
X178436350Y-74998217D01*
X178043710Y-74604891D01*
X177851613Y-74525125D01*
X177982483Y-74470917D01*
X178028402Y-74310822D01*
X178382196Y-74310822D01*
X178409978Y-74865888D01*
X178568943Y-75249663D01*
X178811127Y-75319128D01*
X179611735Y-74518520D01*
X179970945Y-74518520D01*
X180771553Y-75319128D01*
X181013737Y-75249663D01*
X181200484Y-74726218D01*
X181172702Y-74171152D01*
X181013737Y-73787377D01*
X180771553Y-73717912D01*
X179970945Y-74518520D01*
X179611735Y-74518520D01*
X178811127Y-73717912D01*
X178568943Y-73787377D01*
X178382196Y-74310822D01*
X178028402Y-74310822D01*
X178051948Y-74228733D01*
X177251340Y-73428125D01*
X176450732Y-74228733D01*
X176520197Y-74470917D01*
X176660658Y-74521029D01*
X176461037Y-74603510D01*
X176373727Y-74690668D01*
X176126134Y-74739917D01*
X175757914Y-74985954D01*
X174076434Y-76667434D01*
X173830397Y-77035654D01*
X173744000Y-77470000D01*
X173744000Y-89027000D01*
X173830397Y-89461346D01*
X173998226Y-89712520D01*
X172106548Y-89712520D01*
X171819167Y-89593189D01*
X171387527Y-89592812D01*
X170988600Y-89757646D01*
X170683118Y-90062595D01*
X170517589Y-90461233D01*
X170517212Y-90892873D01*
X169918812Y-90892873D01*
X169918988Y-90691727D01*
X169754154Y-90292800D01*
X169449205Y-89987318D01*
X169050567Y-89821789D01*
X168618927Y-89821412D01*
X168220000Y-89986246D01*
X167914518Y-90291195D01*
X167748989Y-90689833D01*
X167748612Y-91121473D01*
X164177600Y-91121473D01*
X164177600Y-89567695D01*
X164375868Y-89090213D01*
X164376331Y-88559714D01*
X164173746Y-88069420D01*
X163798953Y-87693973D01*
X163309013Y-87490532D01*
X162778514Y-87490069D01*
X162288220Y-87692654D01*
X161912773Y-88067447D01*
X161772506Y-88405246D01*
X161633746Y-88069420D01*
X161258953Y-87693973D01*
X160769013Y-87490532D01*
X160238514Y-87490069D01*
X159748220Y-87692654D01*
X159372773Y-88067447D01*
X159169332Y-88557387D01*
X159168869Y-89087886D01*
X159371454Y-89578180D01*
X159746247Y-89953627D01*
X160236187Y-90157068D01*
X160766686Y-90157531D01*
X161256980Y-89954946D01*
X161632427Y-89580153D01*
X161772694Y-89242354D01*
X161907600Y-89568853D01*
X161907600Y-96570800D01*
X161949272Y-96780298D01*
X161987984Y-96990335D01*
X161992409Y-96997164D01*
X161993997Y-97005146D01*
X162112661Y-97182740D01*
X162228811Y-97361984D01*
X163117811Y-98276384D01*
X163126113Y-98282102D01*
X163131741Y-98290464D01*
X164962967Y-100109400D01*
X161023533Y-100109400D01*
X157468949Y-96554816D01*
X153583566Y-92669434D01*
X153531963Y-92634954D01*
X153215346Y-92423397D01*
X152781000Y-92337000D01*
X152646000Y-92337000D01*
X152646000Y-91579932D01*
X154079295Y-90146637D01*
X154165587Y-90182468D01*
X154696086Y-90182931D01*
X155186380Y-89980346D01*
X155561827Y-89605553D01*
X155702094Y-89267754D01*
X155840854Y-89603580D01*
X156215647Y-89979027D01*
X156705587Y-90182468D01*
X157236086Y-90182931D01*
X157726380Y-89980346D01*
X158101827Y-89605553D01*
X158305268Y-89115613D01*
X158305731Y-88585114D01*
X158103146Y-88094820D01*
X157728353Y-87719373D01*
X157238413Y-87515932D01*
X156707914Y-87515469D01*
X156217620Y-87718054D01*
X155842173Y-88092847D01*
X155701906Y-88430646D01*
X155563146Y-88094820D01*
X155188353Y-87719373D01*
X154698413Y-87515932D01*
X154167914Y-87515469D01*
X153798283Y-87668197D01*
X153388054Y-87749797D01*
X153095224Y-87945460D01*
X153019834Y-87995834D01*
X150708434Y-90307234D01*
X150462397Y-90675454D01*
X150376000Y-91109800D01*
X143383000Y-91109800D01*
X143383000Y-86936200D01*
X160718500Y-86936200D01*
X161152846Y-86849803D01*
X161521066Y-86603766D01*
X162399832Y-85725000D01*
X173609000Y-85725000D01*
X173658410Y-85714994D01*
X173700035Y-85686553D01*
X173727315Y-85644159D01*
X173736000Y-85598000D01*
X173736000Y-77216000D01*
X173725994Y-77166590D01*
X173697553Y-77124965D01*
X173655159Y-77097685D01*
X173609000Y-77089000D01*
X172846476Y-77089000D01*
X172897000Y-76835000D01*
X172884369Y-76771500D01*
X172897000Y-76708000D01*
X172897000Y-73040822D01*
X175842196Y-73040822D01*
X175869978Y-73595888D01*
X176028943Y-73979663D01*
X176271127Y-74049128D01*
X177071735Y-73248520D01*
X177430945Y-73248520D01*
X178231553Y-74049128D01*
X178473737Y-73979663D01*
X178660484Y-73456218D01*
X178632702Y-72901152D01*
X178473737Y-72517377D01*
X178231553Y-72447912D01*
X177430945Y-73248520D01*
X177071735Y-73248520D01*
X176271127Y-72447912D01*
X176028943Y-72517377D01*
X175842196Y-73040822D01*
X172897000Y-73040822D01*
X172897000Y-72268307D01*
X176450732Y-72268307D01*
X177251340Y-73068915D01*
X178051948Y-72268307D01*
X178048184Y-72255181D01*
X178394098Y-72255181D01*
X178606330Y-72768823D01*
X178998970Y-73162149D01*
X179191067Y-73241915D01*
X179060197Y-73296123D01*
X178990732Y-73538307D01*
X179791340Y-74338915D01*
X180591948Y-73538307D01*
X180522483Y-73296123D01*
X180382022Y-73246011D01*
X180581643Y-73163530D01*
X180974969Y-72770890D01*
X181188097Y-72257620D01*
X181188582Y-71701859D01*
X180976350Y-71188217D01*
X180583710Y-70794891D01*
X180070440Y-70581763D01*
X179514679Y-70581278D01*
X179001037Y-70793510D01*
X178607711Y-71186150D01*
X178394583Y-71699420D01*
X178394098Y-72255181D01*
X178048184Y-72255181D01*
X177982483Y-72026123D01*
X177459038Y-71839376D01*
X176903972Y-71867158D01*
X176520197Y-72026123D01*
X176450732Y-72268307D01*
X172897000Y-72268307D01*
X172897000Y-68122000D01*
X184965974Y-68122000D01*
X184385681Y-68701281D01*
X184385681Y-68701281D01*
G37*
X184385681Y-68701281D02*
X184037077Y-69540811D01*
X184036284Y-70449841D01*
X184383422Y-71289978D01*
X185025641Y-71933319D01*
X185865171Y-72281923D01*
X186774201Y-72282716D01*
X187614338Y-71935578D01*
X188257679Y-71293359D01*
X188606283Y-70453829D01*
X188607076Y-69544799D01*
X188259938Y-68704662D01*
X187678292Y-68122000D01*
X191085000Y-68122000D01*
X191085000Y-76686954D01*
X191065000Y-76787500D01*
X191065000Y-97990000D01*
X171425000Y-97990000D01*
X171162862Y-98042143D01*
X170940632Y-98190632D01*
X170792143Y-98412862D01*
X170740000Y-98675000D01*
X170740000Y-116302867D01*
X169712566Y-115275434D01*
X169344346Y-115029397D01*
X168910000Y-114943000D01*
X150706423Y-114943000D01*
X143383000Y-104480967D01*
X143383000Y-91109800D01*
X150376000Y-91109800D01*
X150376000Y-93472000D01*
X150462397Y-93906346D01*
X150708434Y-94274566D01*
X151076654Y-94520603D01*
X151511000Y-94607000D01*
X152310868Y-94607000D01*
X155779502Y-98075634D01*
X159750833Y-102046966D01*
X159972981Y-102195400D01*
X160119054Y-102293003D01*
X160553400Y-102379400D01*
X169265600Y-102379400D01*
X169435710Y-102345563D01*
X169464473Y-102345588D01*
X169491290Y-102334507D01*
X169699946Y-102293003D01*
X170068166Y-102046966D01*
X170314203Y-101678746D01*
X170400600Y-101244400D01*
X170314203Y-100810054D01*
X170068166Y-100441834D01*
X169699946Y-100195797D01*
X169265600Y-100109400D01*
X168184095Y-100109400D01*
X164738488Y-96686918D01*
X164177600Y-96110004D01*
X164177600Y-95809201D01*
X184033744Y-95809201D01*
X184380882Y-96649338D01*
X185023101Y-97292679D01*
X185862631Y-97641283D01*
X186771661Y-97642076D01*
X187611798Y-97294938D01*
X188255139Y-96652719D01*
X188603743Y-95813189D01*
X188604536Y-94904159D01*
X188257398Y-94064022D01*
X187615179Y-93420681D01*
X186775649Y-93072077D01*
X185866619Y-93071284D01*
X185026482Y-93418422D01*
X184383141Y-94060641D01*
X184034537Y-94900171D01*
X184033744Y-95809201D01*
X164177600Y-95809201D01*
X164177600Y-94294733D01*
X176450732Y-94294733D01*
X176520197Y-94536917D01*
X177043642Y-94723664D01*
X177598708Y-94695882D01*
X177982483Y-94536917D01*
X178051948Y-94294733D01*
X177251340Y-93494125D01*
X176450732Y-94294733D01*
X164177600Y-94294733D01*
X164177600Y-91121473D01*
X167748612Y-91121473D01*
X167913446Y-91520400D01*
X168218395Y-91825882D01*
X168617033Y-91991411D01*
X169048673Y-91991788D01*
X169447600Y-91826954D01*
X169753082Y-91522005D01*
X169918611Y-91123367D01*
X169918812Y-90892873D01*
X170517212Y-90892873D01*
X170682046Y-91291800D01*
X170986995Y-91597282D01*
X171207988Y-91689046D01*
X171127189Y-91883633D01*
X171126812Y-92315273D01*
X171291646Y-92714200D01*
X171596595Y-93019682D01*
X171995233Y-93185211D01*
X172426873Y-93185588D01*
X172825800Y-93020754D01*
X172867106Y-92979520D01*
X175887613Y-92979520D01*
X175842196Y-93106822D01*
X175869978Y-93661888D01*
X176028943Y-94045663D01*
X176271127Y-94115128D01*
X177071735Y-93314520D01*
X177057593Y-93300378D01*
X177237198Y-93120773D01*
X177251340Y-93134915D01*
X177265483Y-93120773D01*
X177445088Y-93300378D01*
X177430945Y-93314520D01*
X178231553Y-94115128D01*
X178473737Y-94045663D01*
X178660484Y-93522218D01*
X178633321Y-92979520D01*
X178750775Y-92979520D01*
X178998970Y-93228149D01*
X179512240Y-93441277D01*
X180068001Y-93441762D01*
X180581643Y-93229530D01*
X180974969Y-92836890D01*
X181128342Y-92467526D01*
X182073434Y-91522434D01*
X182080842Y-91511347D01*
X182254439Y-91251541D01*
X182318000Y-90932000D01*
X182318000Y-89027000D01*
X182305799Y-88965663D01*
X182254440Y-88707460D01*
X182073434Y-88436566D01*
X181311434Y-87674566D01*
X181244736Y-87630000D01*
X181074806Y-87516456D01*
X181188097Y-87243620D01*
X181188582Y-86687859D01*
X180976350Y-86174217D01*
X180583710Y-85780891D01*
X180070440Y-85567763D01*
X179514679Y-85567278D01*
X179270000Y-85668377D01*
X179270000Y-85435841D01*
X184036284Y-85435841D01*
X184383422Y-86275978D01*
X185025641Y-86919319D01*
X185865171Y-87267923D01*
X186774201Y-87268716D01*
X187614338Y-86921578D01*
X188257679Y-86279359D01*
X188606283Y-85439829D01*
X188607076Y-84530799D01*
X188259938Y-83690662D01*
X187617719Y-83047321D01*
X186778189Y-82698717D01*
X185869159Y-82697924D01*
X185029022Y-83045062D01*
X184385681Y-83687281D01*
X184037077Y-84526811D01*
X184036284Y-85435841D01*
X179270000Y-85435841D01*
X179270000Y-80823201D01*
X184033744Y-80823201D01*
X184380882Y-81663338D01*
X185023101Y-82306679D01*
X185862631Y-82655283D01*
X186771661Y-82656076D01*
X187611798Y-82308938D01*
X188255139Y-81666719D01*
X188603743Y-80827189D01*
X188604536Y-79918159D01*
X188257398Y-79078022D01*
X187615179Y-78434681D01*
X186775649Y-78086077D01*
X185866619Y-78085284D01*
X185026482Y-78432422D01*
X184383141Y-79074641D01*
X184034537Y-79914171D01*
X184033744Y-80823201D01*
X179270000Y-80823201D01*
X179270000Y-80482868D01*
X180381774Y-79371094D01*
X180431329Y-79296930D01*
X180562779Y-79100201D01*
X180626340Y-78780660D01*
X180626340Y-78198911D01*
X180974969Y-77850890D01*
X181188097Y-77337620D01*
X181188582Y-76781859D01*
X180976350Y-76268217D01*
X180583710Y-75874891D01*
X180391613Y-75795125D01*
X180522483Y-75740917D01*
X180591948Y-75498733D01*
X179791340Y-74698125D01*
X178990732Y-75498733D01*
X179060197Y-75740917D01*
X179200658Y-75791029D01*
X179001037Y-75873510D01*
X178607711Y-76266150D01*
X178394583Y-76779420D01*
X178394098Y-77335181D01*
X178606330Y-77848823D01*
X178956340Y-78199445D01*
X178956340Y-78434792D01*
X178552645Y-78838487D01*
X178660484Y-78536218D01*
X178632702Y-77981152D01*
X178473737Y-77597377D01*
X178231553Y-77527912D01*
X177430945Y-78328520D01*
X177445088Y-78342663D01*
X177265483Y-78522268D01*
X177251340Y-78508125D01*
X176450732Y-79308733D01*
X176520197Y-79550917D01*
X177043642Y-79737664D01*
X177598708Y-79709882D01*
X177787768Y-79631571D01*
X177663561Y-79817459D01*
X177600000Y-80137000D01*
X177600000Y-86875666D01*
X177459038Y-86825376D01*
X176903972Y-86853158D01*
X176520197Y-87012123D01*
X176450732Y-87254307D01*
X177251340Y-88054915D01*
X177265483Y-88040773D01*
X177445088Y-88220378D01*
X177430945Y-88234520D01*
X178231553Y-89035128D01*
X178473737Y-88965663D01*
X178506615Y-88873508D01*
X178528099Y-88887862D01*
X178382196Y-89296822D01*
X178409978Y-89851888D01*
X178568943Y-90235663D01*
X178811127Y-90305128D01*
X179611735Y-89504520D01*
X179597593Y-89490378D01*
X179777198Y-89310773D01*
X179791340Y-89324915D01*
X179805483Y-89310773D01*
X179985088Y-89490378D01*
X179970945Y-89504520D01*
X179985088Y-89518663D01*
X179805483Y-89698268D01*
X179791340Y-89684125D01*
X178990732Y-90484733D01*
X179060197Y-90726917D01*
X179200658Y-90777029D01*
X179001037Y-90859510D01*
X178750590Y-91109520D01*
X178624885Y-91109520D01*
X178648097Y-91053620D01*
X178648582Y-90497859D01*
X178436350Y-89984217D01*
X178043710Y-89590891D01*
X177851613Y-89511125D01*
X177982483Y-89456917D01*
X178051948Y-89214733D01*
X177251340Y-88414125D01*
X177237198Y-88428268D01*
X177057593Y-88248663D01*
X177071735Y-88234520D01*
X176271127Y-87433912D01*
X176028943Y-87503377D01*
X176014000Y-87545262D01*
X176014000Y-79023587D01*
X176028943Y-79059663D01*
X176271127Y-79129128D01*
X177071735Y-78328520D01*
X177057593Y-78314378D01*
X177237198Y-78134773D01*
X177251340Y-78148915D01*
X178051948Y-77348307D01*
X177982483Y-77106123D01*
X177842022Y-77056011D01*
X178041643Y-76973530D01*
X178434969Y-76580890D01*
X178648097Y-76067620D01*
X178648582Y-75511859D01*
X178436350Y-74998217D01*
X178043710Y-74604891D01*
X177851613Y-74525125D01*
X177982483Y-74470917D01*
X178028402Y-74310822D01*
X178382196Y-74310822D01*
X178409978Y-74865888D01*
X178568943Y-75249663D01*
X178811127Y-75319128D01*
X179611735Y-74518520D01*
X179970945Y-74518520D01*
X180771553Y-75319128D01*
X181013737Y-75249663D01*
X181200484Y-74726218D01*
X181172702Y-74171152D01*
X181013737Y-73787377D01*
X180771553Y-73717912D01*
X179970945Y-74518520D01*
X179611735Y-74518520D01*
X178811127Y-73717912D01*
X178568943Y-73787377D01*
X178382196Y-74310822D01*
X178028402Y-74310822D01*
X178051948Y-74228733D01*
X177251340Y-73428125D01*
X176450732Y-74228733D01*
X176520197Y-74470917D01*
X176660658Y-74521029D01*
X176461037Y-74603510D01*
X176373727Y-74690668D01*
X176126134Y-74739917D01*
X175757914Y-74985954D01*
X174076434Y-76667434D01*
X173830397Y-77035654D01*
X173744000Y-77470000D01*
X173744000Y-89027000D01*
X173830397Y-89461346D01*
X173998226Y-89712520D01*
X172106548Y-89712520D01*
X171819167Y-89593189D01*
X171387527Y-89592812D01*
X170988600Y-89757646D01*
X170683118Y-90062595D01*
X170517589Y-90461233D01*
X170517212Y-90892873D01*
X169918812Y-90892873D01*
X169918988Y-90691727D01*
X169754154Y-90292800D01*
X169449205Y-89987318D01*
X169050567Y-89821789D01*
X168618927Y-89821412D01*
X168220000Y-89986246D01*
X167914518Y-90291195D01*
X167748989Y-90689833D01*
X167748612Y-91121473D01*
X164177600Y-91121473D01*
X164177600Y-89567695D01*
X164375868Y-89090213D01*
X164376331Y-88559714D01*
X164173746Y-88069420D01*
X163798953Y-87693973D01*
X163309013Y-87490532D01*
X162778514Y-87490069D01*
X162288220Y-87692654D01*
X161912773Y-88067447D01*
X161772506Y-88405246D01*
X161633746Y-88069420D01*
X161258953Y-87693973D01*
X160769013Y-87490532D01*
X160238514Y-87490069D01*
X159748220Y-87692654D01*
X159372773Y-88067447D01*
X159169332Y-88557387D01*
X159168869Y-89087886D01*
X159371454Y-89578180D01*
X159746247Y-89953627D01*
X160236187Y-90157068D01*
X160766686Y-90157531D01*
X161256980Y-89954946D01*
X161632427Y-89580153D01*
X161772694Y-89242354D01*
X161907600Y-89568853D01*
X161907600Y-96570800D01*
X161949272Y-96780298D01*
X161987984Y-96990335D01*
X161992409Y-96997164D01*
X161993997Y-97005146D01*
X162112661Y-97182740D01*
X162228811Y-97361984D01*
X163117811Y-98276384D01*
X163126113Y-98282102D01*
X163131741Y-98290464D01*
X164962967Y-100109400D01*
X161023533Y-100109400D01*
X157468949Y-96554816D01*
X153583566Y-92669434D01*
X153531963Y-92634954D01*
X153215346Y-92423397D01*
X152781000Y-92337000D01*
X152646000Y-92337000D01*
X152646000Y-91579932D01*
X154079295Y-90146637D01*
X154165587Y-90182468D01*
X154696086Y-90182931D01*
X155186380Y-89980346D01*
X155561827Y-89605553D01*
X155702094Y-89267754D01*
X155840854Y-89603580D01*
X156215647Y-89979027D01*
X156705587Y-90182468D01*
X157236086Y-90182931D01*
X157726380Y-89980346D01*
X158101827Y-89605553D01*
X158305268Y-89115613D01*
X158305731Y-88585114D01*
X158103146Y-88094820D01*
X157728353Y-87719373D01*
X157238413Y-87515932D01*
X156707914Y-87515469D01*
X156217620Y-87718054D01*
X155842173Y-88092847D01*
X155701906Y-88430646D01*
X155563146Y-88094820D01*
X155188353Y-87719373D01*
X154698413Y-87515932D01*
X154167914Y-87515469D01*
X153798283Y-87668197D01*
X153388054Y-87749797D01*
X153095224Y-87945460D01*
X153019834Y-87995834D01*
X150708434Y-90307234D01*
X150462397Y-90675454D01*
X150376000Y-91109800D01*
X143383000Y-91109800D01*
X143383000Y-86936200D01*
X160718500Y-86936200D01*
X161152846Y-86849803D01*
X161521066Y-86603766D01*
X162399832Y-85725000D01*
X173609000Y-85725000D01*
X173658410Y-85714994D01*
X173700035Y-85686553D01*
X173727315Y-85644159D01*
X173736000Y-85598000D01*
X173736000Y-77216000D01*
X173725994Y-77166590D01*
X173697553Y-77124965D01*
X173655159Y-77097685D01*
X173609000Y-77089000D01*
X172846476Y-77089000D01*
X172897000Y-76835000D01*
X172884369Y-76771500D01*
X172897000Y-76708000D01*
X172897000Y-73040822D01*
X175842196Y-73040822D01*
X175869978Y-73595888D01*
X176028943Y-73979663D01*
X176271127Y-74049128D01*
X177071735Y-73248520D01*
X177430945Y-73248520D01*
X178231553Y-74049128D01*
X178473737Y-73979663D01*
X178660484Y-73456218D01*
X178632702Y-72901152D01*
X178473737Y-72517377D01*
X178231553Y-72447912D01*
X177430945Y-73248520D01*
X177071735Y-73248520D01*
X176271127Y-72447912D01*
X176028943Y-72517377D01*
X175842196Y-73040822D01*
X172897000Y-73040822D01*
X172897000Y-72268307D01*
X176450732Y-72268307D01*
X177251340Y-73068915D01*
X178051948Y-72268307D01*
X178048184Y-72255181D01*
X178394098Y-72255181D01*
X178606330Y-72768823D01*
X178998970Y-73162149D01*
X179191067Y-73241915D01*
X179060197Y-73296123D01*
X178990732Y-73538307D01*
X179791340Y-74338915D01*
X180591948Y-73538307D01*
X180522483Y-73296123D01*
X180382022Y-73246011D01*
X180581643Y-73163530D01*
X180974969Y-72770890D01*
X181188097Y-72257620D01*
X181188582Y-71701859D01*
X180976350Y-71188217D01*
X180583710Y-70794891D01*
X180070440Y-70581763D01*
X179514679Y-70581278D01*
X179001037Y-70793510D01*
X178607711Y-71186150D01*
X178394583Y-71699420D01*
X178394098Y-72255181D01*
X178048184Y-72255181D01*
X177982483Y-72026123D01*
X177459038Y-71839376D01*
X176903972Y-71867158D01*
X176520197Y-72026123D01*
X176450732Y-72268307D01*
X172897000Y-72268307D01*
X172897000Y-68122000D01*
X184965974Y-68122000D01*
X184385681Y-68701281D01*
G36*
X170435993Y-78156230D02*
X169976972Y-78157811D01*
X169762770Y-78068867D01*
X169152109Y-78068335D01*
X168926803Y-78161430D01*
X167457874Y-78166491D01*
X167222770Y-78068867D01*
X166612109Y-78068335D01*
X166365445Y-78170254D01*
X164938775Y-78175170D01*
X164682770Y-78068867D01*
X164072109Y-78068335D01*
X163804088Y-78179079D01*
X162419677Y-78183849D01*
X162142770Y-78068867D01*
X161532109Y-78068335D01*
X161242731Y-78187904D01*
X159900578Y-78192528D01*
X159602770Y-78068867D01*
X158992109Y-78068335D01*
X158681373Y-78196728D01*
X157381480Y-78201207D01*
X157062770Y-78068867D01*
X156452109Y-78068335D01*
X156120016Y-78205553D01*
X154862381Y-78209886D01*
X154522770Y-78068867D01*
X153912109Y-78068335D01*
X153558659Y-78214378D01*
X152343283Y-78218565D01*
X151982770Y-78068867D01*
X151372109Y-78068335D01*
X150997301Y-78223202D01*
X149824185Y-78227244D01*
X149442770Y-78068867D01*
X148832109Y-78068335D01*
X148435944Y-78232027D01*
X147305086Y-78235923D01*
X146902770Y-78068867D01*
X146708701Y-78068698D01*
X146596100Y-78046300D01*
X146484481Y-78068503D01*
X146292109Y-78068335D01*
X145874587Y-78240852D01*
X144785988Y-78244602D01*
X144362770Y-78068867D01*
X143752109Y-78068335D01*
X143313229Y-78249676D01*
X142266889Y-78253281D01*
X141822770Y-78068867D01*
X141212109Y-78068335D01*
X140647729Y-78301532D01*
X140245777Y-78702782D01*
X139846743Y-78303049D01*
X139282770Y-78068867D01*
X138672109Y-78068335D01*
X138107729Y-78301532D01*
X137705777Y-78702782D01*
X137306743Y-78303049D01*
X136742770Y-78068867D01*
X136132109Y-78068335D01*
X135567729Y-78301532D01*
X135165777Y-78702782D01*
X134766743Y-78303049D01*
X134202770Y-78068867D01*
X133592109Y-78068335D01*
X133027729Y-78301532D01*
X132625777Y-78702782D01*
X132226743Y-78303049D01*
X131662770Y-78068867D01*
X131052109Y-78068335D01*
X130487729Y-78301532D01*
X130085777Y-78702782D01*
X129686743Y-78303049D01*
X129122770Y-78068867D01*
X128512109Y-78068335D01*
X127947729Y-78301532D01*
X127545777Y-78702782D01*
X127146743Y-78303049D01*
X126582770Y-78068867D01*
X125972109Y-78068335D01*
X125407729Y-78301532D01*
X125005777Y-78702782D01*
X124606743Y-78303049D01*
X124042770Y-78068867D01*
X123432109Y-78068335D01*
X122867729Y-78301532D01*
X122465777Y-78702782D01*
X122066743Y-78303049D01*
X121502770Y-78068867D01*
X120892109Y-78068335D01*
X120327729Y-78301532D01*
X119925777Y-78702782D01*
X119526743Y-78303049D01*
X118962770Y-78068867D01*
X118352109Y-78068335D01*
X117787729Y-78301532D01*
X117355549Y-78732957D01*
X117346897Y-78753794D01*
X117196259Y-78703046D01*
X116295705Y-79603600D01*
X117196259Y-80504154D01*
X117346427Y-80453565D01*
X117354032Y-80471971D01*
X117755282Y-80873923D01*
X117355549Y-81272957D01*
X117346897Y-81293794D01*
X117196259Y-81243046D01*
X116295705Y-82143600D01*
X117196259Y-83044154D01*
X117346427Y-82993565D01*
X117354032Y-83011971D01*
X117785457Y-83444151D01*
X118349430Y-83678333D01*
X118960091Y-83678865D01*
X119524471Y-83445668D01*
X119926423Y-83044418D01*
X120325457Y-83444151D01*
X120889430Y-83678333D01*
X121500091Y-83678865D01*
X122064471Y-83445668D01*
X122466423Y-83044418D01*
X122865457Y-83444151D01*
X123429430Y-83678333D01*
X124040091Y-83678865D01*
X124604471Y-83445668D01*
X125006423Y-83044418D01*
X125405457Y-83444151D01*
X125969430Y-83678333D01*
X126580091Y-83678865D01*
X127144471Y-83445668D01*
X127546423Y-83044418D01*
X127945457Y-83444151D01*
X128509430Y-83678333D01*
X129120091Y-83678865D01*
X129684471Y-83445668D01*
X130086423Y-83044418D01*
X130485457Y-83444151D01*
X131049430Y-83678333D01*
X131660091Y-83678865D01*
X132224471Y-83445668D01*
X132626423Y-83044418D01*
X133025457Y-83444151D01*
X133589430Y-83678333D01*
X134200091Y-83678865D01*
X134764471Y-83445668D01*
X135166423Y-83044418D01*
X135455347Y-83333848D01*
X135392323Y-83346385D01*
X135056544Y-83570744D01*
X135056542Y-83570747D01*
X124109144Y-94518144D01*
X123884785Y-94853923D01*
X123805999Y-95250000D01*
X123806000Y-95250005D01*
X123806000Y-105870289D01*
X123142288Y-106534000D01*
X120777005Y-106534000D01*
X120777000Y-106533999D01*
X120380923Y-106612785D01*
X120045144Y-106837144D01*
X120045142Y-106837147D01*
X119394243Y-107488045D01*
X119274200Y-107537646D01*
X118968718Y-107842595D01*
X118803189Y-108241233D01*
X118802812Y-108672873D01*
X118853000Y-108794337D01*
X118853000Y-110235995D01*
X118852999Y-110236000D01*
X118931785Y-110632077D01*
X119156144Y-110967856D01*
X119410142Y-111221853D01*
X119410144Y-111221856D01*
X119558755Y-111321154D01*
X119745922Y-111446215D01*
X119898014Y-111476468D01*
X119955910Y-111566441D01*
X120168110Y-111711431D01*
X120420000Y-111762440D01*
X121420000Y-111762440D01*
X121655317Y-111718162D01*
X121871441Y-111579090D01*
X121917969Y-111510994D01*
X122060302Y-111653327D01*
X122293691Y-111750000D01*
X122634250Y-111750000D01*
X122793000Y-111591250D01*
X122793000Y-110617000D01*
X123047000Y-110617000D01*
X123047000Y-111591250D01*
X123205750Y-111750000D01*
X123546309Y-111750000D01*
X123779698Y-111653327D01*
X123958327Y-111474699D01*
X124055000Y-111241310D01*
X124055000Y-110775750D01*
X127405000Y-110775750D01*
X127405000Y-111241310D01*
X127501673Y-111474699D01*
X127680302Y-111653327D01*
X127913691Y-111750000D01*
X128254250Y-111750000D01*
X128413000Y-111591250D01*
X128413000Y-110617000D01*
X127563750Y-110617000D01*
X127405000Y-110775750D01*
X124055000Y-110775750D01*
X123896250Y-110617000D01*
X123047000Y-110617000D01*
X122793000Y-110617000D01*
X122773000Y-110617000D01*
X122773000Y-110363000D01*
X122793000Y-110363000D01*
X122793000Y-109388750D01*
X123047000Y-109388750D01*
X123047000Y-110363000D01*
X123896250Y-110363000D01*
X124055000Y-110204250D01*
X124055000Y-109738690D01*
X127405000Y-109738690D01*
X127405000Y-110204250D01*
X127563750Y-110363000D01*
X128413000Y-110363000D01*
X128413000Y-109388750D01*
X128667000Y-109388750D01*
X128667000Y-110363000D01*
X128687000Y-110363000D01*
X128687000Y-110617000D01*
X128667000Y-110617000D01*
X128667000Y-111591250D01*
X128825750Y-111750000D01*
X129166309Y-111750000D01*
X129399698Y-111653327D01*
X129540936Y-111512090D01*
X129575910Y-111566441D01*
X129788110Y-111711431D01*
X130040000Y-111762440D01*
X131040000Y-111762440D01*
X131275317Y-111718162D01*
X131420095Y-111625000D01*
X132029200Y-111625000D01*
X132463546Y-111538603D01*
X132831766Y-111292566D01*
X133339766Y-110784567D01*
X133585803Y-110416346D01*
X133596414Y-110363000D01*
X133672200Y-109982000D01*
X133672200Y-108915200D01*
X133647584Y-108791445D01*
X133585804Y-108480855D01*
X133339767Y-108112634D01*
X132780966Y-107553834D01*
X132412745Y-107307797D01*
X131978400Y-107221400D01*
X131544055Y-107307797D01*
X131175834Y-107553834D01*
X130929797Y-107922055D01*
X130843400Y-108356400D01*
X130929797Y-108790745D01*
X131175834Y-109158966D01*
X131283798Y-109266930D01*
X131040000Y-109217560D01*
X130040000Y-109217560D01*
X129804683Y-109261838D01*
X129588559Y-109400910D01*
X129542031Y-109469006D01*
X129399698Y-109326673D01*
X129166309Y-109230000D01*
X128825750Y-109230000D01*
X128667000Y-109388750D01*
X128413000Y-109388750D01*
X128254250Y-109230000D01*
X127913691Y-109230000D01*
X127680302Y-109326673D01*
X127501673Y-109505301D01*
X127405000Y-109738690D01*
X124055000Y-109738690D01*
X123958327Y-109505301D01*
X123779698Y-109326673D01*
X123546309Y-109230000D01*
X123205750Y-109230000D01*
X123047000Y-109388750D01*
X122793000Y-109388750D01*
X122634250Y-109230000D01*
X122293691Y-109230000D01*
X122060302Y-109326673D01*
X121919064Y-109467910D01*
X121884090Y-109413559D01*
X121671890Y-109268569D01*
X121420000Y-109217560D01*
X120923000Y-109217560D01*
X120923000Y-108886712D01*
X121205711Y-108604000D01*
X123570995Y-108604000D01*
X123571000Y-108604001D01*
X123967077Y-108525215D01*
X124302856Y-108300856D01*
X125572853Y-107030858D01*
X125572856Y-107030856D01*
X125722108Y-106807483D01*
X125797215Y-106695078D01*
X125876001Y-106299000D01*
X125876000Y-106298995D01*
X125876000Y-102068873D01*
X133280812Y-102068873D01*
X133445646Y-102467800D01*
X133750595Y-102773282D01*
X134113814Y-102924104D01*
X134447000Y-103257290D01*
X134447000Y-105467448D01*
X134297189Y-105828233D01*
X134296812Y-106259873D01*
X134461646Y-106658800D01*
X134766595Y-106964282D01*
X135165233Y-107129811D01*
X135596873Y-107130188D01*
X135995800Y-106965354D01*
X136301282Y-106660405D01*
X136466811Y-106261767D01*
X136467188Y-105830127D01*
X136317000Y-105466646D01*
X136317000Y-102870000D01*
X136245827Y-102512191D01*
X136043145Y-102208855D01*
X135435536Y-101601246D01*
X135286354Y-101240200D01*
X134981405Y-100934718D01*
X134582767Y-100769189D01*
X134151127Y-100768812D01*
X133752200Y-100933646D01*
X133446718Y-101238595D01*
X133281189Y-101637233D01*
X133280812Y-102068873D01*
X125876000Y-102068873D01*
X125876000Y-98132871D01*
X125952883Y-98318943D01*
X126215673Y-98582192D01*
X126559201Y-98724838D01*
X126931167Y-98725162D01*
X127274943Y-98583117D01*
X127303147Y-98554962D01*
X127393110Y-98616431D01*
X127645000Y-98667440D01*
X128895000Y-98667440D01*
X129130317Y-98623162D01*
X129346441Y-98484090D01*
X129491431Y-98271890D01*
X129539910Y-98032491D01*
X129581838Y-98255317D01*
X129720910Y-98471441D01*
X129933110Y-98616431D01*
X129975000Y-98624914D01*
X129975000Y-98886766D01*
X129875162Y-99127201D01*
X129874838Y-99499167D01*
X130016883Y-99842943D01*
X130279673Y-100106192D01*
X130623201Y-100248838D01*
X130995167Y-100249162D01*
X131338943Y-100107117D01*
X131602192Y-99844327D01*
X131744838Y-99500799D01*
X131745162Y-99128833D01*
X131645000Y-98886422D01*
X131645000Y-98627926D01*
X131670317Y-98623162D01*
X131886441Y-98484090D01*
X132031431Y-98271890D01*
X132082440Y-98020000D01*
X132082440Y-97020000D01*
X132038162Y-96784683D01*
X131899090Y-96568559D01*
X131830994Y-96522031D01*
X131973327Y-96379698D01*
X132070000Y-96146309D01*
X132070000Y-95805750D01*
X131911250Y-95647000D01*
X130937000Y-95647000D01*
X130937000Y-95667000D01*
X130683000Y-95667000D01*
X130683000Y-95647000D01*
X129708750Y-95647000D01*
X129550000Y-95805750D01*
X129550000Y-96146309D01*
X129646673Y-96379698D01*
X129787910Y-96520936D01*
X129733559Y-96555910D01*
X129588569Y-96768110D01*
X129540090Y-97007509D01*
X129498162Y-96784683D01*
X129359090Y-96568559D01*
X129290994Y-96522031D01*
X129433327Y-96379698D01*
X129530000Y-96146309D01*
X129530000Y-95805750D01*
X129371250Y-95647000D01*
X128397000Y-95647000D01*
X128397000Y-95667000D01*
X128143000Y-95667000D01*
X128143000Y-95647000D01*
X127168750Y-95647000D01*
X127010000Y-95805750D01*
X127010000Y-96146309D01*
X127106673Y-96379698D01*
X127247910Y-96520936D01*
X127193559Y-96555910D01*
X127105356Y-96685000D01*
X127016000Y-96685000D01*
X126696460Y-96748560D01*
X126499439Y-96880205D01*
X126217057Y-96996883D01*
X125953808Y-97259673D01*
X125876000Y-97447055D01*
X125876000Y-95678712D01*
X126661020Y-94893691D01*
X127010000Y-94893691D01*
X127010000Y-95234250D01*
X127168750Y-95393000D01*
X128143000Y-95393000D01*
X128143000Y-94543750D01*
X128397000Y-94543750D01*
X128397000Y-95393000D01*
X129371250Y-95393000D01*
X129530000Y-95234250D01*
X129530000Y-94893691D01*
X129550000Y-94893691D01*
X129550000Y-95234250D01*
X129708750Y-95393000D01*
X130683000Y-95393000D01*
X130683000Y-94543750D01*
X130937000Y-94543750D01*
X130937000Y-95393000D01*
X131911250Y-95393000D01*
X132070000Y-95234250D01*
X132070000Y-94893691D01*
X131973327Y-94660302D01*
X131794699Y-94481673D01*
X131561310Y-94385000D01*
X131095750Y-94385000D01*
X130937000Y-94543750D01*
X130683000Y-94543750D01*
X130524250Y-94385000D01*
X130058690Y-94385000D01*
X129825301Y-94481673D01*
X129646673Y-94660302D01*
X129550000Y-94893691D01*
X129530000Y-94893691D01*
X129433327Y-94660302D01*
X129254699Y-94481673D01*
X129021310Y-94385000D01*
X128555750Y-94385000D01*
X128397000Y-94543750D01*
X128143000Y-94543750D01*
X127984250Y-94385000D01*
X127518690Y-94385000D01*
X127285301Y-94481673D01*
X127106673Y-94660302D01*
X127010000Y-94893691D01*
X126661020Y-94893691D01*
X136217111Y-85337600D01*
X140970000Y-85337600D01*
X140970000Y-85745468D01*
X138933034Y-87782434D01*
X138686997Y-88150654D01*
X138600600Y-88585000D01*
X138600600Y-92438617D01*
X138437490Y-92327169D01*
X138185600Y-92276160D01*
X137485600Y-92276160D01*
X137250283Y-92320438D01*
X137066654Y-92438600D01*
X135991600Y-92438600D01*
X135557254Y-92524997D01*
X135289289Y-92704046D01*
X135189034Y-92771034D01*
X135138234Y-92821834D01*
X134892197Y-93190055D01*
X134805800Y-93624400D01*
X134892197Y-94058745D01*
X135138234Y-94426966D01*
X135506455Y-94673003D01*
X135940800Y-94759400D01*
X136196188Y-94708600D01*
X137070625Y-94708600D01*
X137233710Y-94820031D01*
X137485600Y-94871040D01*
X138185600Y-94871040D01*
X138420917Y-94826762D01*
X138600600Y-94711139D01*
X138600600Y-107477600D01*
X138686997Y-107911946D01*
X138889562Y-108215105D01*
X138933034Y-108280166D01*
X141437433Y-110784566D01*
X141437436Y-110784568D01*
X147533434Y-116880566D01*
X147901654Y-117126603D01*
X148336000Y-117213000D01*
X149134045Y-117213000D01*
X152803666Y-122500411D01*
X152840058Y-122535298D01*
X152908000Y-122555000D01*
X173863000Y-122555000D01*
X173912410Y-122544994D01*
X173954035Y-122516553D01*
X173981315Y-122474159D01*
X173990000Y-122428000D01*
X173990000Y-118834690D01*
X185841000Y-118834690D01*
X185841000Y-119575250D01*
X185999750Y-119734000D01*
X188849000Y-119734000D01*
X188849000Y-118484750D01*
X188690250Y-118326000D01*
X186349691Y-118326000D01*
X186116302Y-118422673D01*
X185937673Y-118601301D01*
X185841000Y-118834690D01*
X173990000Y-118834690D01*
X173990000Y-117085000D01*
X191065000Y-117085000D01*
X191065000Y-118326000D01*
X189261750Y-118326000D01*
X189103000Y-118484750D01*
X189103000Y-119734000D01*
X189123000Y-119734000D01*
X189123000Y-119988000D01*
X189103000Y-119988000D01*
X189103000Y-120008000D01*
X188849000Y-120008000D01*
X188849000Y-119988000D01*
X185999750Y-119988000D01*
X185841000Y-120146750D01*
X185841000Y-120887310D01*
X185852884Y-120916000D01*
X181488080Y-120916000D01*
X180958063Y-121021427D01*
X180623672Y-121244860D01*
X180508737Y-121321657D01*
X175209554Y-126620840D01*
X143485844Y-126620840D01*
X143525000Y-126526309D01*
X143525000Y-126335750D01*
X143366250Y-126177000D01*
X142367000Y-126177000D01*
X142367000Y-126197000D01*
X142113000Y-126197000D01*
X142113000Y-126177000D01*
X141113750Y-126177000D01*
X140955000Y-126335750D01*
X140955000Y-126526309D01*
X140994156Y-126620840D01*
X139725154Y-126620840D01*
X139683711Y-126603631D01*
X139649258Y-126580610D01*
X140656177Y-125573691D01*
X140955000Y-125573691D01*
X140955000Y-125764250D01*
X141113750Y-125923000D01*
X142113000Y-125923000D01*
X142113000Y-125223750D01*
X142367000Y-125223750D01*
X142367000Y-125923000D01*
X143366250Y-125923000D01*
X143525000Y-125764250D01*
X143525000Y-125573691D01*
X143428327Y-125340302D01*
X143249699Y-125161673D01*
X143016310Y-125065000D01*
X142525750Y-125065000D01*
X142367000Y-125223750D01*
X142113000Y-125223750D01*
X141954250Y-125065000D01*
X141463690Y-125065000D01*
X141230301Y-125161673D01*
X141051673Y-125340302D01*
X140955000Y-125573691D01*
X140656177Y-125573691D01*
X141204834Y-125025034D01*
X141385839Y-124754141D01*
X141449400Y-124434600D01*
X141449400Y-120937030D01*
X141499717Y-120927562D01*
X141715841Y-120788490D01*
X141860831Y-120576290D01*
X141911840Y-120324400D01*
X141911840Y-119624400D01*
X141867562Y-119389083D01*
X141728490Y-119172959D01*
X141516290Y-119027969D01*
X141503203Y-119025319D01*
X141715841Y-118888490D01*
X141860831Y-118676290D01*
X141911840Y-118424400D01*
X141911840Y-117724400D01*
X141867562Y-117489083D01*
X141728490Y-117272959D01*
X141516290Y-117127969D01*
X141264400Y-117076960D01*
X140803226Y-117076960D01*
X140614400Y-117039400D01*
X140144874Y-117039400D01*
X140208801Y-116945840D01*
X140259810Y-116693950D01*
X140259810Y-115893850D01*
X140247320Y-115827471D01*
X140247320Y-113598925D01*
X140247321Y-113598920D01*
X140168535Y-113202843D01*
X140098040Y-113097339D01*
X140098040Y-112837200D01*
X140053762Y-112601883D01*
X139914690Y-112385759D01*
X139702490Y-112240769D01*
X139450600Y-112189760D01*
X138750600Y-112189760D01*
X138515283Y-112234038D01*
X138299159Y-112373110D01*
X138154169Y-112585310D01*
X138151519Y-112598397D01*
X138014690Y-112385759D01*
X137802490Y-112240769D01*
X137550600Y-112189760D01*
X136850600Y-112189760D01*
X136615283Y-112234038D01*
X136399159Y-112373110D01*
X136367934Y-112418809D01*
X136268454Y-112438597D01*
X135999679Y-112618187D01*
X135900234Y-112684634D01*
X135087434Y-113497434D01*
X134841397Y-113865655D01*
X134755000Y-114300000D01*
X134841397Y-114734345D01*
X135087434Y-115102566D01*
X135455655Y-115348603D01*
X135890000Y-115435000D01*
X136178290Y-115377655D01*
X136178290Y-115470902D01*
X136337038Y-115470902D01*
X136178290Y-115629650D01*
X136178290Y-115870259D01*
X136274963Y-116103648D01*
X136453591Y-116282277D01*
X136489942Y-116297334D01*
X136361849Y-116379760D01*
X136216859Y-116591960D01*
X136165850Y-116843850D01*
X136165850Y-117643950D01*
X136210128Y-117879267D01*
X136349200Y-118095391D01*
X136561400Y-118240381D01*
X136793012Y-118287284D01*
X137311982Y-118806253D01*
X137311984Y-118806256D01*
X137502359Y-118933460D01*
X137647762Y-119030615D01*
X138043840Y-119109400D01*
X139592075Y-119109400D01*
X139512959Y-119160310D01*
X139367969Y-119372510D01*
X139316960Y-119624400D01*
X139316960Y-119746492D01*
X139122034Y-119551566D01*
X139011387Y-119477634D01*
X138851141Y-119370561D01*
X138531600Y-119307000D01*
X136389640Y-119307000D01*
X136389640Y-119034800D01*
X136345362Y-118799483D01*
X136206290Y-118583359D01*
X135994090Y-118438369D01*
X135742200Y-118387360D01*
X135042200Y-118387360D01*
X134806883Y-118431638D01*
X134590759Y-118570710D01*
X134445769Y-118782910D01*
X134443119Y-118795997D01*
X134306290Y-118583359D01*
X134094090Y-118438369D01*
X133842200Y-118387360D01*
X133142200Y-118387360D01*
X132965348Y-118420637D01*
X132253730Y-117709018D01*
X132253730Y-117390645D01*
X132341080Y-117526391D01*
X132553280Y-117671381D01*
X132805170Y-117722390D01*
X133605270Y-117722390D01*
X133840587Y-117678112D01*
X134056711Y-117539040D01*
X134201701Y-117326840D01*
X134252710Y-117074950D01*
X134252710Y-116274850D01*
X134208432Y-116039533D01*
X134115760Y-115895517D01*
X134115760Y-113893806D01*
X134115801Y-113893600D01*
X134078240Y-113704771D01*
X134078240Y-113243600D01*
X134033962Y-113008283D01*
X133894890Y-112792159D01*
X133682690Y-112647169D01*
X133430800Y-112596160D01*
X132730800Y-112596160D01*
X132495483Y-112640438D01*
X132279359Y-112779510D01*
X132134369Y-112991710D01*
X132131719Y-113004797D01*
X131994890Y-112792159D01*
X131782690Y-112647169D01*
X131530800Y-112596160D01*
X130830800Y-112596160D01*
X130595483Y-112640438D01*
X130379359Y-112779510D01*
X130305017Y-112888314D01*
X130058323Y-112937385D01*
X129722544Y-113161744D01*
X129722542Y-113161747D01*
X129401844Y-113482445D01*
X129307325Y-113521499D01*
X129276211Y-113365082D01*
X129233835Y-113152042D01*
X129176040Y-113065546D01*
X129176040Y-112799100D01*
X129131762Y-112563783D01*
X128992690Y-112347659D01*
X128780490Y-112202669D01*
X128528600Y-112151660D01*
X127828600Y-112151660D01*
X127593283Y-112195938D01*
X127377159Y-112335010D01*
X127232169Y-112547210D01*
X127229519Y-112560297D01*
X127092690Y-112347659D01*
X126880490Y-112202669D01*
X126628600Y-112151660D01*
X125928600Y-112151660D01*
X125693283Y-112195938D01*
X125477159Y-112335010D01*
X125423119Y-112414100D01*
X125111370Y-112414100D01*
X125083167Y-112402389D01*
X124651527Y-112402012D01*
X124252600Y-112566846D01*
X123947118Y-112871795D01*
X123781589Y-113270433D01*
X123781212Y-113702073D01*
X123946046Y-114101000D01*
X124250995Y-114406482D01*
X124649633Y-114572011D01*
X125081273Y-114572388D01*
X125243590Y-114505320D01*
X125243590Y-114664450D01*
X125402340Y-114823200D01*
X126151640Y-114823200D01*
X126151640Y-114803200D01*
X126405640Y-114803200D01*
X126405640Y-114823200D01*
X126425640Y-114823200D01*
X126425640Y-115077200D01*
X126405640Y-115077200D01*
X126405640Y-115097200D01*
X126151640Y-115097200D01*
X126151640Y-115077200D01*
X125402340Y-115077200D01*
X125243590Y-115235950D01*
X125243590Y-115476559D01*
X125340263Y-115709948D01*
X125518891Y-115888577D01*
X125555242Y-115903634D01*
X125427149Y-115986060D01*
X125282159Y-116198260D01*
X125280278Y-116207546D01*
X122265366Y-113192634D01*
X121897145Y-112946597D01*
X121462800Y-112860200D01*
X121028455Y-112946597D01*
X120660234Y-113192634D01*
X120414197Y-113560855D01*
X120327800Y-113995200D01*
X120414197Y-114429545D01*
X120660234Y-114797766D01*
X123014425Y-117151957D01*
X122848127Y-117151812D01*
X122449200Y-117316646D01*
X122143718Y-117621595D01*
X121978189Y-118020233D01*
X121977812Y-118451873D01*
X122038872Y-118599649D01*
X121773405Y-118333718D01*
X121374767Y-118168189D01*
X120943127Y-118167812D01*
X120544200Y-118332646D01*
X120238718Y-118637595D01*
X120073189Y-119036233D01*
X120072812Y-119467873D01*
X120237646Y-119866800D01*
X120261100Y-119890295D01*
X120261100Y-126628045D01*
X119925777Y-126962782D01*
X119591100Y-126627519D01*
X119591100Y-120449459D01*
X119664282Y-120376405D01*
X119829811Y-119977767D01*
X119830188Y-119546127D01*
X119665354Y-119147200D01*
X119360405Y-118841718D01*
X118961767Y-118676189D01*
X118530127Y-118675812D01*
X118131200Y-118840646D01*
X117825718Y-119145595D01*
X117660189Y-119544233D01*
X117659812Y-119975873D01*
X117721100Y-120124201D01*
X117721100Y-126628045D01*
X117385777Y-126962782D01*
X117051100Y-126627519D01*
X117051100Y-121135797D01*
X117162811Y-120866767D01*
X117163188Y-120435127D01*
X116998354Y-120036200D01*
X116693405Y-119730718D01*
X116294767Y-119565189D01*
X115863127Y-119564812D01*
X115464200Y-119729646D01*
X115158718Y-120034595D01*
X115064689Y-120261041D01*
X115042405Y-120238718D01*
X114643767Y-120073189D01*
X114212127Y-120072812D01*
X113813200Y-120237646D01*
X113507718Y-120542595D01*
X113342189Y-120941233D01*
X113341812Y-121372873D01*
X113492000Y-121736354D01*
X113492000Y-124284263D01*
X112692874Y-123483740D01*
X111619672Y-123038108D01*
X110457626Y-123037094D01*
X109383648Y-123480853D01*
X108561240Y-124301826D01*
X108115608Y-125375028D01*
X108114594Y-126537074D01*
X108558353Y-127611052D01*
X109379326Y-128433460D01*
X110452528Y-128879092D01*
X111614574Y-128880106D01*
X112688552Y-128436347D01*
X113492000Y-127634301D01*
X113492000Y-128905000D01*
X113563173Y-129262809D01*
X113765855Y-129566145D01*
X114581119Y-130381409D01*
X114580835Y-130707591D01*
X114814032Y-131271971D01*
X115245457Y-131704151D01*
X115809430Y-131938333D01*
X116420091Y-131938865D01*
X116984471Y-131705668D01*
X117386423Y-131304418D01*
X117785457Y-131704151D01*
X118349430Y-131938333D01*
X118960091Y-131938865D01*
X119524471Y-131705668D01*
X119926423Y-131304418D01*
X120325457Y-131704151D01*
X120889430Y-131938333D01*
X121500091Y-131938865D01*
X122064471Y-131705668D01*
X122466423Y-131304418D01*
X122865457Y-131704151D01*
X123052608Y-131781863D01*
X123090684Y-131838848D01*
X123145666Y-131921134D01*
X123778126Y-132553595D01*
X123920910Y-132649000D01*
X117147713Y-132649000D01*
X112863145Y-131796747D01*
X109326418Y-129433580D01*
X106963253Y-125896853D01*
X106106838Y-121591363D01*
X106045000Y-121442074D01*
X106045000Y-112487481D01*
X106211695Y-112598863D01*
X106332997Y-112622991D01*
X106451883Y-112800917D01*
X106719695Y-112979863D01*
X107035600Y-113042700D01*
X107351505Y-112979863D01*
X107619317Y-112800917D01*
X107798263Y-112533105D01*
X107861100Y-112217200D01*
X107861100Y-112146369D01*
X107969705Y-112022249D01*
X108038639Y-112075749D01*
X108134883Y-112163060D01*
X108165081Y-112173881D01*
X108190425Y-112193550D01*
X108444425Y-112320550D01*
X108698426Y-112447550D01*
X108727032Y-112455384D01*
X108751695Y-112471863D01*
X108881462Y-112497675D01*
X109009081Y-112532624D01*
X109038511Y-112528914D01*
X109067600Y-112534700D01*
X109321600Y-112534700D01*
X109420793Y-112514969D01*
X109521813Y-112510053D01*
X110029813Y-112383053D01*
X110080774Y-112358979D01*
X110136183Y-112348658D01*
X110173904Y-112333570D01*
X110149176Y-112529719D01*
X110234250Y-112840375D01*
X110431731Y-113094828D01*
X110711554Y-113254338D01*
X111031119Y-113294624D01*
X111341775Y-113209550D01*
X111596228Y-113012069D01*
X111672975Y-112877435D01*
X111796505Y-112852863D01*
X112064317Y-112673917D01*
X112243263Y-112406105D01*
X112306100Y-112090200D01*
X112243263Y-111774295D01*
X112064317Y-111506483D01*
X111796505Y-111327537D01*
X111634705Y-111295353D01*
X111680460Y-111244916D01*
X112061460Y-110609916D01*
X112083851Y-110547427D01*
X112120058Y-110491783D01*
X112374058Y-109856783D01*
X112402648Y-109703295D01*
X112433100Y-109550200D01*
X112433100Y-109042200D01*
X112417155Y-108962037D01*
X112417069Y-108880306D01*
X112290069Y-108245306D01*
X112260955Y-108175226D01*
X112247058Y-108100617D01*
X111993058Y-107465617D01*
X111990262Y-107461319D01*
X111989262Y-107456294D01*
X111902560Y-107326536D01*
X111817391Y-107195644D01*
X111813163Y-107192744D01*
X111810316Y-107188483D01*
X111695533Y-107073700D01*
X111734600Y-107073700D01*
X112050505Y-107010863D01*
X112318317Y-106831917D01*
X112497263Y-106564105D01*
X112560100Y-106248200D01*
X112497263Y-105932295D01*
X112318317Y-105664483D01*
X112275200Y-105635673D01*
X112275200Y-101885750D01*
X114705000Y-101885750D01*
X114705000Y-102351310D01*
X114801673Y-102584699D01*
X114980302Y-102763327D01*
X115213691Y-102860000D01*
X115554250Y-102860000D01*
X115713000Y-102701250D01*
X115713000Y-101727000D01*
X114863750Y-101727000D01*
X114705000Y-101885750D01*
X112275200Y-101885750D01*
X112275200Y-100848690D01*
X114705000Y-100848690D01*
X114705000Y-101314250D01*
X114863750Y-101473000D01*
X115713000Y-101473000D01*
X115713000Y-100498750D01*
X115554250Y-100340000D01*
X115213691Y-100340000D01*
X114980302Y-100436673D01*
X114801673Y-100615301D01*
X114705000Y-100848690D01*
X112275200Y-100848690D01*
X112275200Y-99345750D01*
X114705000Y-99345750D01*
X114705000Y-99811310D01*
X114801673Y-100044699D01*
X114980302Y-100223327D01*
X115213691Y-100320000D01*
X115554250Y-100320000D01*
X115713000Y-100161250D01*
X115713000Y-99187000D01*
X114863750Y-99187000D01*
X114705000Y-99345750D01*
X112275200Y-99345750D01*
X112275200Y-98308690D01*
X114705000Y-98308690D01*
X114705000Y-98774250D01*
X114863750Y-98933000D01*
X115713000Y-98933000D01*
X115713000Y-97958750D01*
X115967000Y-97958750D01*
X115967000Y-98933000D01*
X115987000Y-98933000D01*
X115987000Y-99187000D01*
X115967000Y-99187000D01*
X115967000Y-100161250D01*
X116125750Y-100320000D01*
X116466309Y-100320000D01*
X116699698Y-100223327D01*
X116840936Y-100082090D01*
X116875910Y-100136441D01*
X117088110Y-100281431D01*
X117327509Y-100329910D01*
X117104683Y-100371838D01*
X116888559Y-100510910D01*
X116842031Y-100579006D01*
X116699698Y-100436673D01*
X116466309Y-100340000D01*
X116125750Y-100340000D01*
X115967000Y-100498750D01*
X115967000Y-101473000D01*
X115987000Y-101473000D01*
X115987000Y-101727000D01*
X115967000Y-101727000D01*
X115967000Y-102701250D01*
X116125750Y-102860000D01*
X116466309Y-102860000D01*
X116699698Y-102763327D01*
X116840936Y-102622090D01*
X116875910Y-102676441D01*
X117088110Y-102821431D01*
X117340000Y-102872440D01*
X117834009Y-102872440D01*
X117846561Y-102935541D01*
X117926493Y-103055167D01*
X118027566Y-103206434D01*
X118281566Y-103460434D01*
X118552459Y-103641439D01*
X118872000Y-103705000D01*
X119460766Y-103705000D01*
X119701201Y-103804838D01*
X120073167Y-103805162D01*
X120416943Y-103663117D01*
X120680192Y-103400327D01*
X120822838Y-103056799D01*
X120823162Y-102684833D01*
X120681117Y-102341057D01*
X120418327Y-102077808D01*
X120314843Y-102034838D01*
X120315162Y-101668833D01*
X120173117Y-101325057D01*
X119910327Y-101061808D01*
X119890532Y-101053589D01*
X119580000Y-100494630D01*
X119580000Y-99441000D01*
X119516439Y-99121459D01*
X119335434Y-98850566D01*
X118987440Y-98502572D01*
X118987440Y-98435000D01*
X118943162Y-98199683D01*
X118804090Y-97983559D01*
X118591890Y-97838569D01*
X118340000Y-97787560D01*
X117340000Y-97787560D01*
X117104683Y-97831838D01*
X116888559Y-97970910D01*
X116842031Y-98039006D01*
X116699698Y-97896673D01*
X116466309Y-97800000D01*
X116125750Y-97800000D01*
X115967000Y-97958750D01*
X115713000Y-97958750D01*
X115554250Y-97800000D01*
X115213691Y-97800000D01*
X114980302Y-97896673D01*
X114801673Y-98075301D01*
X114705000Y-98308690D01*
X112275200Y-98308690D01*
X112275200Y-92256323D01*
X106045000Y-92256323D01*
X106045000Y-88567467D01*
X106828792Y-84627074D01*
X108114594Y-84627074D01*
X108558353Y-85701052D01*
X109379326Y-86523460D01*
X110452528Y-86969092D01*
X111614574Y-86970106D01*
X112688552Y-86526347D01*
X113510960Y-85705374D01*
X113956592Y-84632172D01*
X113957606Y-83470126D01*
X113855810Y-83223759D01*
X115215546Y-83223759D01*
X115301952Y-83480243D01*
X115875436Y-83690058D01*
X116485560Y-83664439D01*
X116930248Y-83480243D01*
X117016654Y-83223759D01*
X116116100Y-82323205D01*
X115215546Y-83223759D01*
X113855810Y-83223759D01*
X113513847Y-82396148D01*
X113021496Y-81902936D01*
X114569642Y-81902936D01*
X114595261Y-82513060D01*
X114779457Y-82957748D01*
X115035941Y-83044154D01*
X115936495Y-82143600D01*
X115035941Y-81243046D01*
X114779457Y-81329452D01*
X114569642Y-81902936D01*
X113021496Y-81902936D01*
X112692874Y-81573740D01*
X111619672Y-81128108D01*
X110457626Y-81127094D01*
X109383648Y-81570853D01*
X108561240Y-82391826D01*
X108115608Y-83465028D01*
X108114594Y-84627074D01*
X106828792Y-84627074D01*
X106893962Y-84299446D01*
X109273384Y-80738387D01*
X109355140Y-80683759D01*
X115215546Y-80683759D01*
X115279501Y-80873600D01*
X115215546Y-81063441D01*
X116116100Y-81963995D01*
X117016654Y-81063441D01*
X116952699Y-80873600D01*
X117016654Y-80683759D01*
X116116100Y-79783205D01*
X115215546Y-80683759D01*
X109355140Y-80683759D01*
X111331891Y-79362936D01*
X114569642Y-79362936D01*
X114595261Y-79973060D01*
X114779457Y-80417748D01*
X115035941Y-80504154D01*
X115936495Y-79603600D01*
X115035941Y-78703046D01*
X114779457Y-78789452D01*
X114569642Y-79362936D01*
X111331891Y-79362936D01*
X112588283Y-78523441D01*
X115215546Y-78523441D01*
X116116100Y-79423995D01*
X117016654Y-78523441D01*
X116930248Y-78266957D01*
X116356764Y-78057142D01*
X115746640Y-78082761D01*
X115301952Y-78266957D01*
X115215546Y-78523441D01*
X112588283Y-78523441D01*
X112834444Y-78358962D01*
X117052194Y-77520000D01*
X170446092Y-77520000D01*
X170435993Y-78156230D01*
X170435993Y-78156230D01*
G37*
X170435993Y-78156230D02*
X169976972Y-78157811D01*
X169762770Y-78068867D01*
X169152109Y-78068335D01*
X168926803Y-78161430D01*
X167457874Y-78166491D01*
X167222770Y-78068867D01*
X166612109Y-78068335D01*
X166365445Y-78170254D01*
X164938775Y-78175170D01*
X164682770Y-78068867D01*
X164072109Y-78068335D01*
X163804088Y-78179079D01*
X162419677Y-78183849D01*
X162142770Y-78068867D01*
X161532109Y-78068335D01*
X161242731Y-78187904D01*
X159900578Y-78192528D01*
X159602770Y-78068867D01*
X158992109Y-78068335D01*
X158681373Y-78196728D01*
X157381480Y-78201207D01*
X157062770Y-78068867D01*
X156452109Y-78068335D01*
X156120016Y-78205553D01*
X154862381Y-78209886D01*
X154522770Y-78068867D01*
X153912109Y-78068335D01*
X153558659Y-78214378D01*
X152343283Y-78218565D01*
X151982770Y-78068867D01*
X151372109Y-78068335D01*
X150997301Y-78223202D01*
X149824185Y-78227244D01*
X149442770Y-78068867D01*
X148832109Y-78068335D01*
X148435944Y-78232027D01*
X147305086Y-78235923D01*
X146902770Y-78068867D01*
X146708701Y-78068698D01*
X146596100Y-78046300D01*
X146484481Y-78068503D01*
X146292109Y-78068335D01*
X145874587Y-78240852D01*
X144785988Y-78244602D01*
X144362770Y-78068867D01*
X143752109Y-78068335D01*
X143313229Y-78249676D01*
X142266889Y-78253281D01*
X141822770Y-78068867D01*
X141212109Y-78068335D01*
X140647729Y-78301532D01*
X140245777Y-78702782D01*
X139846743Y-78303049D01*
X139282770Y-78068867D01*
X138672109Y-78068335D01*
X138107729Y-78301532D01*
X137705777Y-78702782D01*
X137306743Y-78303049D01*
X136742770Y-78068867D01*
X136132109Y-78068335D01*
X135567729Y-78301532D01*
X135165777Y-78702782D01*
X134766743Y-78303049D01*
X134202770Y-78068867D01*
X133592109Y-78068335D01*
X133027729Y-78301532D01*
X132625777Y-78702782D01*
X132226743Y-78303049D01*
X131662770Y-78068867D01*
X131052109Y-78068335D01*
X130487729Y-78301532D01*
X130085777Y-78702782D01*
X129686743Y-78303049D01*
X129122770Y-78068867D01*
X128512109Y-78068335D01*
X127947729Y-78301532D01*
X127545777Y-78702782D01*
X127146743Y-78303049D01*
X126582770Y-78068867D01*
X125972109Y-78068335D01*
X125407729Y-78301532D01*
X125005777Y-78702782D01*
X124606743Y-78303049D01*
X124042770Y-78068867D01*
X123432109Y-78068335D01*
X122867729Y-78301532D01*
X122465777Y-78702782D01*
X122066743Y-78303049D01*
X121502770Y-78068867D01*
X120892109Y-78068335D01*
X120327729Y-78301532D01*
X119925777Y-78702782D01*
X119526743Y-78303049D01*
X118962770Y-78068867D01*
X118352109Y-78068335D01*
X117787729Y-78301532D01*
X117355549Y-78732957D01*
X117346897Y-78753794D01*
X117196259Y-78703046D01*
X116295705Y-79603600D01*
X117196259Y-80504154D01*
X117346427Y-80453565D01*
X117354032Y-80471971D01*
X117755282Y-80873923D01*
X117355549Y-81272957D01*
X117346897Y-81293794D01*
X117196259Y-81243046D01*
X116295705Y-82143600D01*
X117196259Y-83044154D01*
X117346427Y-82993565D01*
X117354032Y-83011971D01*
X117785457Y-83444151D01*
X118349430Y-83678333D01*
X118960091Y-83678865D01*
X119524471Y-83445668D01*
X119926423Y-83044418D01*
X120325457Y-83444151D01*
X120889430Y-83678333D01*
X121500091Y-83678865D01*
X122064471Y-83445668D01*
X122466423Y-83044418D01*
X122865457Y-83444151D01*
X123429430Y-83678333D01*
X124040091Y-83678865D01*
X124604471Y-83445668D01*
X125006423Y-83044418D01*
X125405457Y-83444151D01*
X125969430Y-83678333D01*
X126580091Y-83678865D01*
X127144471Y-83445668D01*
X127546423Y-83044418D01*
X127945457Y-83444151D01*
X128509430Y-83678333D01*
X129120091Y-83678865D01*
X129684471Y-83445668D01*
X130086423Y-83044418D01*
X130485457Y-83444151D01*
X131049430Y-83678333D01*
X131660091Y-83678865D01*
X132224471Y-83445668D01*
X132626423Y-83044418D01*
X133025457Y-83444151D01*
X133589430Y-83678333D01*
X134200091Y-83678865D01*
X134764471Y-83445668D01*
X135166423Y-83044418D01*
X135455347Y-83333848D01*
X135392323Y-83346385D01*
X135056544Y-83570744D01*
X135056542Y-83570747D01*
X124109144Y-94518144D01*
X123884785Y-94853923D01*
X123805999Y-95250000D01*
X123806000Y-95250005D01*
X123806000Y-105870289D01*
X123142288Y-106534000D01*
X120777005Y-106534000D01*
X120777000Y-106533999D01*
X120380923Y-106612785D01*
X120045144Y-106837144D01*
X120045142Y-106837147D01*
X119394243Y-107488045D01*
X119274200Y-107537646D01*
X118968718Y-107842595D01*
X118803189Y-108241233D01*
X118802812Y-108672873D01*
X118853000Y-108794337D01*
X118853000Y-110235995D01*
X118852999Y-110236000D01*
X118931785Y-110632077D01*
X119156144Y-110967856D01*
X119410142Y-111221853D01*
X119410144Y-111221856D01*
X119558755Y-111321154D01*
X119745922Y-111446215D01*
X119898014Y-111476468D01*
X119955910Y-111566441D01*
X120168110Y-111711431D01*
X120420000Y-111762440D01*
X121420000Y-111762440D01*
X121655317Y-111718162D01*
X121871441Y-111579090D01*
X121917969Y-111510994D01*
X122060302Y-111653327D01*
X122293691Y-111750000D01*
X122634250Y-111750000D01*
X122793000Y-111591250D01*
X122793000Y-110617000D01*
X123047000Y-110617000D01*
X123047000Y-111591250D01*
X123205750Y-111750000D01*
X123546309Y-111750000D01*
X123779698Y-111653327D01*
X123958327Y-111474699D01*
X124055000Y-111241310D01*
X124055000Y-110775750D01*
X127405000Y-110775750D01*
X127405000Y-111241310D01*
X127501673Y-111474699D01*
X127680302Y-111653327D01*
X127913691Y-111750000D01*
X128254250Y-111750000D01*
X128413000Y-111591250D01*
X128413000Y-110617000D01*
X127563750Y-110617000D01*
X127405000Y-110775750D01*
X124055000Y-110775750D01*
X123896250Y-110617000D01*
X123047000Y-110617000D01*
X122793000Y-110617000D01*
X122773000Y-110617000D01*
X122773000Y-110363000D01*
X122793000Y-110363000D01*
X122793000Y-109388750D01*
X123047000Y-109388750D01*
X123047000Y-110363000D01*
X123896250Y-110363000D01*
X124055000Y-110204250D01*
X124055000Y-109738690D01*
X127405000Y-109738690D01*
X127405000Y-110204250D01*
X127563750Y-110363000D01*
X128413000Y-110363000D01*
X128413000Y-109388750D01*
X128667000Y-109388750D01*
X128667000Y-110363000D01*
X128687000Y-110363000D01*
X128687000Y-110617000D01*
X128667000Y-110617000D01*
X128667000Y-111591250D01*
X128825750Y-111750000D01*
X129166309Y-111750000D01*
X129399698Y-111653327D01*
X129540936Y-111512090D01*
X129575910Y-111566441D01*
X129788110Y-111711431D01*
X130040000Y-111762440D01*
X131040000Y-111762440D01*
X131275317Y-111718162D01*
X131420095Y-111625000D01*
X132029200Y-111625000D01*
X132463546Y-111538603D01*
X132831766Y-111292566D01*
X133339766Y-110784567D01*
X133585803Y-110416346D01*
X133596414Y-110363000D01*
X133672200Y-109982000D01*
X133672200Y-108915200D01*
X133647584Y-108791445D01*
X133585804Y-108480855D01*
X133339767Y-108112634D01*
X132780966Y-107553834D01*
X132412745Y-107307797D01*
X131978400Y-107221400D01*
X131544055Y-107307797D01*
X131175834Y-107553834D01*
X130929797Y-107922055D01*
X130843400Y-108356400D01*
X130929797Y-108790745D01*
X131175834Y-109158966D01*
X131283798Y-109266930D01*
X131040000Y-109217560D01*
X130040000Y-109217560D01*
X129804683Y-109261838D01*
X129588559Y-109400910D01*
X129542031Y-109469006D01*
X129399698Y-109326673D01*
X129166309Y-109230000D01*
X128825750Y-109230000D01*
X128667000Y-109388750D01*
X128413000Y-109388750D01*
X128254250Y-109230000D01*
X127913691Y-109230000D01*
X127680302Y-109326673D01*
X127501673Y-109505301D01*
X127405000Y-109738690D01*
X124055000Y-109738690D01*
X123958327Y-109505301D01*
X123779698Y-109326673D01*
X123546309Y-109230000D01*
X123205750Y-109230000D01*
X123047000Y-109388750D01*
X122793000Y-109388750D01*
X122634250Y-109230000D01*
X122293691Y-109230000D01*
X122060302Y-109326673D01*
X121919064Y-109467910D01*
X121884090Y-109413559D01*
X121671890Y-109268569D01*
X121420000Y-109217560D01*
X120923000Y-109217560D01*
X120923000Y-108886712D01*
X121205711Y-108604000D01*
X123570995Y-108604000D01*
X123571000Y-108604001D01*
X123967077Y-108525215D01*
X124302856Y-108300856D01*
X125572853Y-107030858D01*
X125572856Y-107030856D01*
X125722108Y-106807483D01*
X125797215Y-106695078D01*
X125876001Y-106299000D01*
X125876000Y-106298995D01*
X125876000Y-102068873D01*
X133280812Y-102068873D01*
X133445646Y-102467800D01*
X133750595Y-102773282D01*
X134113814Y-102924104D01*
X134447000Y-103257290D01*
X134447000Y-105467448D01*
X134297189Y-105828233D01*
X134296812Y-106259873D01*
X134461646Y-106658800D01*
X134766595Y-106964282D01*
X135165233Y-107129811D01*
X135596873Y-107130188D01*
X135995800Y-106965354D01*
X136301282Y-106660405D01*
X136466811Y-106261767D01*
X136467188Y-105830127D01*
X136317000Y-105466646D01*
X136317000Y-102870000D01*
X136245827Y-102512191D01*
X136043145Y-102208855D01*
X135435536Y-101601246D01*
X135286354Y-101240200D01*
X134981405Y-100934718D01*
X134582767Y-100769189D01*
X134151127Y-100768812D01*
X133752200Y-100933646D01*
X133446718Y-101238595D01*
X133281189Y-101637233D01*
X133280812Y-102068873D01*
X125876000Y-102068873D01*
X125876000Y-98132871D01*
X125952883Y-98318943D01*
X126215673Y-98582192D01*
X126559201Y-98724838D01*
X126931167Y-98725162D01*
X127274943Y-98583117D01*
X127303147Y-98554962D01*
X127393110Y-98616431D01*
X127645000Y-98667440D01*
X128895000Y-98667440D01*
X129130317Y-98623162D01*
X129346441Y-98484090D01*
X129491431Y-98271890D01*
X129539910Y-98032491D01*
X129581838Y-98255317D01*
X129720910Y-98471441D01*
X129933110Y-98616431D01*
X129975000Y-98624914D01*
X129975000Y-98886766D01*
X129875162Y-99127201D01*
X129874838Y-99499167D01*
X130016883Y-99842943D01*
X130279673Y-100106192D01*
X130623201Y-100248838D01*
X130995167Y-100249162D01*
X131338943Y-100107117D01*
X131602192Y-99844327D01*
X131744838Y-99500799D01*
X131745162Y-99128833D01*
X131645000Y-98886422D01*
X131645000Y-98627926D01*
X131670317Y-98623162D01*
X131886441Y-98484090D01*
X132031431Y-98271890D01*
X132082440Y-98020000D01*
X132082440Y-97020000D01*
X132038162Y-96784683D01*
X131899090Y-96568559D01*
X131830994Y-96522031D01*
X131973327Y-96379698D01*
X132070000Y-96146309D01*
X132070000Y-95805750D01*
X131911250Y-95647000D01*
X130937000Y-95647000D01*
X130937000Y-95667000D01*
X130683000Y-95667000D01*
X130683000Y-95647000D01*
X129708750Y-95647000D01*
X129550000Y-95805750D01*
X129550000Y-96146309D01*
X129646673Y-96379698D01*
X129787910Y-96520936D01*
X129733559Y-96555910D01*
X129588569Y-96768110D01*
X129540090Y-97007509D01*
X129498162Y-96784683D01*
X129359090Y-96568559D01*
X129290994Y-96522031D01*
X129433327Y-96379698D01*
X129530000Y-96146309D01*
X129530000Y-95805750D01*
X129371250Y-95647000D01*
X128397000Y-95647000D01*
X128397000Y-95667000D01*
X128143000Y-95667000D01*
X128143000Y-95647000D01*
X127168750Y-95647000D01*
X127010000Y-95805750D01*
X127010000Y-96146309D01*
X127106673Y-96379698D01*
X127247910Y-96520936D01*
X127193559Y-96555910D01*
X127105356Y-96685000D01*
X127016000Y-96685000D01*
X126696460Y-96748560D01*
X126499439Y-96880205D01*
X126217057Y-96996883D01*
X125953808Y-97259673D01*
X125876000Y-97447055D01*
X125876000Y-95678712D01*
X126661020Y-94893691D01*
X127010000Y-94893691D01*
X127010000Y-95234250D01*
X127168750Y-95393000D01*
X128143000Y-95393000D01*
X128143000Y-94543750D01*
X128397000Y-94543750D01*
X128397000Y-95393000D01*
X129371250Y-95393000D01*
X129530000Y-95234250D01*
X129530000Y-94893691D01*
X129550000Y-94893691D01*
X129550000Y-95234250D01*
X129708750Y-95393000D01*
X130683000Y-95393000D01*
X130683000Y-94543750D01*
X130937000Y-94543750D01*
X130937000Y-95393000D01*
X131911250Y-95393000D01*
X132070000Y-95234250D01*
X132070000Y-94893691D01*
X131973327Y-94660302D01*
X131794699Y-94481673D01*
X131561310Y-94385000D01*
X131095750Y-94385000D01*
X130937000Y-94543750D01*
X130683000Y-94543750D01*
X130524250Y-94385000D01*
X130058690Y-94385000D01*
X129825301Y-94481673D01*
X129646673Y-94660302D01*
X129550000Y-94893691D01*
X129530000Y-94893691D01*
X129433327Y-94660302D01*
X129254699Y-94481673D01*
X129021310Y-94385000D01*
X128555750Y-94385000D01*
X128397000Y-94543750D01*
X128143000Y-94543750D01*
X127984250Y-94385000D01*
X127518690Y-94385000D01*
X127285301Y-94481673D01*
X127106673Y-94660302D01*
X127010000Y-94893691D01*
X126661020Y-94893691D01*
X136217111Y-85337600D01*
X140970000Y-85337600D01*
X140970000Y-85745468D01*
X138933034Y-87782434D01*
X138686997Y-88150654D01*
X138600600Y-88585000D01*
X138600600Y-92438617D01*
X138437490Y-92327169D01*
X138185600Y-92276160D01*
X137485600Y-92276160D01*
X137250283Y-92320438D01*
X137066654Y-92438600D01*
X135991600Y-92438600D01*
X135557254Y-92524997D01*
X135289289Y-92704046D01*
X135189034Y-92771034D01*
X135138234Y-92821834D01*
X134892197Y-93190055D01*
X134805800Y-93624400D01*
X134892197Y-94058745D01*
X135138234Y-94426966D01*
X135506455Y-94673003D01*
X135940800Y-94759400D01*
X136196188Y-94708600D01*
X137070625Y-94708600D01*
X137233710Y-94820031D01*
X137485600Y-94871040D01*
X138185600Y-94871040D01*
X138420917Y-94826762D01*
X138600600Y-94711139D01*
X138600600Y-107477600D01*
X138686997Y-107911946D01*
X138889562Y-108215105D01*
X138933034Y-108280166D01*
X141437433Y-110784566D01*
X141437436Y-110784568D01*
X147533434Y-116880566D01*
X147901654Y-117126603D01*
X148336000Y-117213000D01*
X149134045Y-117213000D01*
X152803666Y-122500411D01*
X152840058Y-122535298D01*
X152908000Y-122555000D01*
X173863000Y-122555000D01*
X173912410Y-122544994D01*
X173954035Y-122516553D01*
X173981315Y-122474159D01*
X173990000Y-122428000D01*
X173990000Y-118834690D01*
X185841000Y-118834690D01*
X185841000Y-119575250D01*
X185999750Y-119734000D01*
X188849000Y-119734000D01*
X188849000Y-118484750D01*
X188690250Y-118326000D01*
X186349691Y-118326000D01*
X186116302Y-118422673D01*
X185937673Y-118601301D01*
X185841000Y-118834690D01*
X173990000Y-118834690D01*
X173990000Y-117085000D01*
X191065000Y-117085000D01*
X191065000Y-118326000D01*
X189261750Y-118326000D01*
X189103000Y-118484750D01*
X189103000Y-119734000D01*
X189123000Y-119734000D01*
X189123000Y-119988000D01*
X189103000Y-119988000D01*
X189103000Y-120008000D01*
X188849000Y-120008000D01*
X188849000Y-119988000D01*
X185999750Y-119988000D01*
X185841000Y-120146750D01*
X185841000Y-120887310D01*
X185852884Y-120916000D01*
X181488080Y-120916000D01*
X180958063Y-121021427D01*
X180623672Y-121244860D01*
X180508737Y-121321657D01*
X175209554Y-126620840D01*
X143485844Y-126620840D01*
X143525000Y-126526309D01*
X143525000Y-126335750D01*
X143366250Y-126177000D01*
X142367000Y-126177000D01*
X142367000Y-126197000D01*
X142113000Y-126197000D01*
X142113000Y-126177000D01*
X141113750Y-126177000D01*
X140955000Y-126335750D01*
X140955000Y-126526309D01*
X140994156Y-126620840D01*
X139725154Y-126620840D01*
X139683711Y-126603631D01*
X139649258Y-126580610D01*
X140656177Y-125573691D01*
X140955000Y-125573691D01*
X140955000Y-125764250D01*
X141113750Y-125923000D01*
X142113000Y-125923000D01*
X142113000Y-125223750D01*
X142367000Y-125223750D01*
X142367000Y-125923000D01*
X143366250Y-125923000D01*
X143525000Y-125764250D01*
X143525000Y-125573691D01*
X143428327Y-125340302D01*
X143249699Y-125161673D01*
X143016310Y-125065000D01*
X142525750Y-125065000D01*
X142367000Y-125223750D01*
X142113000Y-125223750D01*
X141954250Y-125065000D01*
X141463690Y-125065000D01*
X141230301Y-125161673D01*
X141051673Y-125340302D01*
X140955000Y-125573691D01*
X140656177Y-125573691D01*
X141204834Y-125025034D01*
X141385839Y-124754141D01*
X141449400Y-124434600D01*
X141449400Y-120937030D01*
X141499717Y-120927562D01*
X141715841Y-120788490D01*
X141860831Y-120576290D01*
X141911840Y-120324400D01*
X141911840Y-119624400D01*
X141867562Y-119389083D01*
X141728490Y-119172959D01*
X141516290Y-119027969D01*
X141503203Y-119025319D01*
X141715841Y-118888490D01*
X141860831Y-118676290D01*
X141911840Y-118424400D01*
X141911840Y-117724400D01*
X141867562Y-117489083D01*
X141728490Y-117272959D01*
X141516290Y-117127969D01*
X141264400Y-117076960D01*
X140803226Y-117076960D01*
X140614400Y-117039400D01*
X140144874Y-117039400D01*
X140208801Y-116945840D01*
X140259810Y-116693950D01*
X140259810Y-115893850D01*
X140247320Y-115827471D01*
X140247320Y-113598925D01*
X140247321Y-113598920D01*
X140168535Y-113202843D01*
X140098040Y-113097339D01*
X140098040Y-112837200D01*
X140053762Y-112601883D01*
X139914690Y-112385759D01*
X139702490Y-112240769D01*
X139450600Y-112189760D01*
X138750600Y-112189760D01*
X138515283Y-112234038D01*
X138299159Y-112373110D01*
X138154169Y-112585310D01*
X138151519Y-112598397D01*
X138014690Y-112385759D01*
X137802490Y-112240769D01*
X137550600Y-112189760D01*
X136850600Y-112189760D01*
X136615283Y-112234038D01*
X136399159Y-112373110D01*
X136367934Y-112418809D01*
X136268454Y-112438597D01*
X135999679Y-112618187D01*
X135900234Y-112684634D01*
X135087434Y-113497434D01*
X134841397Y-113865655D01*
X134755000Y-114300000D01*
X134841397Y-114734345D01*
X135087434Y-115102566D01*
X135455655Y-115348603D01*
X135890000Y-115435000D01*
X136178290Y-115377655D01*
X136178290Y-115470902D01*
X136337038Y-115470902D01*
X136178290Y-115629650D01*
X136178290Y-115870259D01*
X136274963Y-116103648D01*
X136453591Y-116282277D01*
X136489942Y-116297334D01*
X136361849Y-116379760D01*
X136216859Y-116591960D01*
X136165850Y-116843850D01*
X136165850Y-117643950D01*
X136210128Y-117879267D01*
X136349200Y-118095391D01*
X136561400Y-118240381D01*
X136793012Y-118287284D01*
X137311982Y-118806253D01*
X137311984Y-118806256D01*
X137502359Y-118933460D01*
X137647762Y-119030615D01*
X138043840Y-119109400D01*
X139592075Y-119109400D01*
X139512959Y-119160310D01*
X139367969Y-119372510D01*
X139316960Y-119624400D01*
X139316960Y-119746492D01*
X139122034Y-119551566D01*
X139011387Y-119477634D01*
X138851141Y-119370561D01*
X138531600Y-119307000D01*
X136389640Y-119307000D01*
X136389640Y-119034800D01*
X136345362Y-118799483D01*
X136206290Y-118583359D01*
X135994090Y-118438369D01*
X135742200Y-118387360D01*
X135042200Y-118387360D01*
X134806883Y-118431638D01*
X134590759Y-118570710D01*
X134445769Y-118782910D01*
X134443119Y-118795997D01*
X134306290Y-118583359D01*
X134094090Y-118438369D01*
X133842200Y-118387360D01*
X133142200Y-118387360D01*
X132965348Y-118420637D01*
X132253730Y-117709018D01*
X132253730Y-117390645D01*
X132341080Y-117526391D01*
X132553280Y-117671381D01*
X132805170Y-117722390D01*
X133605270Y-117722390D01*
X133840587Y-117678112D01*
X134056711Y-117539040D01*
X134201701Y-117326840D01*
X134252710Y-117074950D01*
X134252710Y-116274850D01*
X134208432Y-116039533D01*
X134115760Y-115895517D01*
X134115760Y-113893806D01*
X134115801Y-113893600D01*
X134078240Y-113704771D01*
X134078240Y-113243600D01*
X134033962Y-113008283D01*
X133894890Y-112792159D01*
X133682690Y-112647169D01*
X133430800Y-112596160D01*
X132730800Y-112596160D01*
X132495483Y-112640438D01*
X132279359Y-112779510D01*
X132134369Y-112991710D01*
X132131719Y-113004797D01*
X131994890Y-112792159D01*
X131782690Y-112647169D01*
X131530800Y-112596160D01*
X130830800Y-112596160D01*
X130595483Y-112640438D01*
X130379359Y-112779510D01*
X130305017Y-112888314D01*
X130058323Y-112937385D01*
X129722544Y-113161744D01*
X129722542Y-113161747D01*
X129401844Y-113482445D01*
X129307325Y-113521499D01*
X129276211Y-113365082D01*
X129233835Y-113152042D01*
X129176040Y-113065546D01*
X129176040Y-112799100D01*
X129131762Y-112563783D01*
X128992690Y-112347659D01*
X128780490Y-112202669D01*
X128528600Y-112151660D01*
X127828600Y-112151660D01*
X127593283Y-112195938D01*
X127377159Y-112335010D01*
X127232169Y-112547210D01*
X127229519Y-112560297D01*
X127092690Y-112347659D01*
X126880490Y-112202669D01*
X126628600Y-112151660D01*
X125928600Y-112151660D01*
X125693283Y-112195938D01*
X125477159Y-112335010D01*
X125423119Y-112414100D01*
X125111370Y-112414100D01*
X125083167Y-112402389D01*
X124651527Y-112402012D01*
X124252600Y-112566846D01*
X123947118Y-112871795D01*
X123781589Y-113270433D01*
X123781212Y-113702073D01*
X123946046Y-114101000D01*
X124250995Y-114406482D01*
X124649633Y-114572011D01*
X125081273Y-114572388D01*
X125243590Y-114505320D01*
X125243590Y-114664450D01*
X125402340Y-114823200D01*
X126151640Y-114823200D01*
X126151640Y-114803200D01*
X126405640Y-114803200D01*
X126405640Y-114823200D01*
X126425640Y-114823200D01*
X126425640Y-115077200D01*
X126405640Y-115077200D01*
X126405640Y-115097200D01*
X126151640Y-115097200D01*
X126151640Y-115077200D01*
X125402340Y-115077200D01*
X125243590Y-115235950D01*
X125243590Y-115476559D01*
X125340263Y-115709948D01*
X125518891Y-115888577D01*
X125555242Y-115903634D01*
X125427149Y-115986060D01*
X125282159Y-116198260D01*
X125280278Y-116207546D01*
X122265366Y-113192634D01*
X121897145Y-112946597D01*
X121462800Y-112860200D01*
X121028455Y-112946597D01*
X120660234Y-113192634D01*
X120414197Y-113560855D01*
X120327800Y-113995200D01*
X120414197Y-114429545D01*
X120660234Y-114797766D01*
X123014425Y-117151957D01*
X122848127Y-117151812D01*
X122449200Y-117316646D01*
X122143718Y-117621595D01*
X121978189Y-118020233D01*
X121977812Y-118451873D01*
X122038872Y-118599649D01*
X121773405Y-118333718D01*
X121374767Y-118168189D01*
X120943127Y-118167812D01*
X120544200Y-118332646D01*
X120238718Y-118637595D01*
X120073189Y-119036233D01*
X120072812Y-119467873D01*
X120237646Y-119866800D01*
X120261100Y-119890295D01*
X120261100Y-126628045D01*
X119925777Y-126962782D01*
X119591100Y-126627519D01*
X119591100Y-120449459D01*
X119664282Y-120376405D01*
X119829811Y-119977767D01*
X119830188Y-119546127D01*
X119665354Y-119147200D01*
X119360405Y-118841718D01*
X118961767Y-118676189D01*
X118530127Y-118675812D01*
X118131200Y-118840646D01*
X117825718Y-119145595D01*
X117660189Y-119544233D01*
X117659812Y-119975873D01*
X117721100Y-120124201D01*
X117721100Y-126628045D01*
X117385777Y-126962782D01*
X117051100Y-126627519D01*
X117051100Y-121135797D01*
X117162811Y-120866767D01*
X117163188Y-120435127D01*
X116998354Y-120036200D01*
X116693405Y-119730718D01*
X116294767Y-119565189D01*
X115863127Y-119564812D01*
X115464200Y-119729646D01*
X115158718Y-120034595D01*
X115064689Y-120261041D01*
X115042405Y-120238718D01*
X114643767Y-120073189D01*
X114212127Y-120072812D01*
X113813200Y-120237646D01*
X113507718Y-120542595D01*
X113342189Y-120941233D01*
X113341812Y-121372873D01*
X113492000Y-121736354D01*
X113492000Y-124284263D01*
X112692874Y-123483740D01*
X111619672Y-123038108D01*
X110457626Y-123037094D01*
X109383648Y-123480853D01*
X108561240Y-124301826D01*
X108115608Y-125375028D01*
X108114594Y-126537074D01*
X108558353Y-127611052D01*
X109379326Y-128433460D01*
X110452528Y-128879092D01*
X111614574Y-128880106D01*
X112688552Y-128436347D01*
X113492000Y-127634301D01*
X113492000Y-128905000D01*
X113563173Y-129262809D01*
X113765855Y-129566145D01*
X114581119Y-130381409D01*
X114580835Y-130707591D01*
X114814032Y-131271971D01*
X115245457Y-131704151D01*
X115809430Y-131938333D01*
X116420091Y-131938865D01*
X116984471Y-131705668D01*
X117386423Y-131304418D01*
X117785457Y-131704151D01*
X118349430Y-131938333D01*
X118960091Y-131938865D01*
X119524471Y-131705668D01*
X119926423Y-131304418D01*
X120325457Y-131704151D01*
X120889430Y-131938333D01*
X121500091Y-131938865D01*
X122064471Y-131705668D01*
X122466423Y-131304418D01*
X122865457Y-131704151D01*
X123052608Y-131781863D01*
X123090684Y-131838848D01*
X123145666Y-131921134D01*
X123778126Y-132553595D01*
X123920910Y-132649000D01*
X117147713Y-132649000D01*
X112863145Y-131796747D01*
X109326418Y-129433580D01*
X106963253Y-125896853D01*
X106106838Y-121591363D01*
X106045000Y-121442074D01*
X106045000Y-112487481D01*
X106211695Y-112598863D01*
X106332997Y-112622991D01*
X106451883Y-112800917D01*
X106719695Y-112979863D01*
X107035600Y-113042700D01*
X107351505Y-112979863D01*
X107619317Y-112800917D01*
X107798263Y-112533105D01*
X107861100Y-112217200D01*
X107861100Y-112146369D01*
X107969705Y-112022249D01*
X108038639Y-112075749D01*
X108134883Y-112163060D01*
X108165081Y-112173881D01*
X108190425Y-112193550D01*
X108444425Y-112320550D01*
X108698426Y-112447550D01*
X108727032Y-112455384D01*
X108751695Y-112471863D01*
X108881462Y-112497675D01*
X109009081Y-112532624D01*
X109038511Y-112528914D01*
X109067600Y-112534700D01*
X109321600Y-112534700D01*
X109420793Y-112514969D01*
X109521813Y-112510053D01*
X110029813Y-112383053D01*
X110080774Y-112358979D01*
X110136183Y-112348658D01*
X110173904Y-112333570D01*
X110149176Y-112529719D01*
X110234250Y-112840375D01*
X110431731Y-113094828D01*
X110711554Y-113254338D01*
X111031119Y-113294624D01*
X111341775Y-113209550D01*
X111596228Y-113012069D01*
X111672975Y-112877435D01*
X111796505Y-112852863D01*
X112064317Y-112673917D01*
X112243263Y-112406105D01*
X112306100Y-112090200D01*
X112243263Y-111774295D01*
X112064317Y-111506483D01*
X111796505Y-111327537D01*
X111634705Y-111295353D01*
X111680460Y-111244916D01*
X112061460Y-110609916D01*
X112083851Y-110547427D01*
X112120058Y-110491783D01*
X112374058Y-109856783D01*
X112402648Y-109703295D01*
X112433100Y-109550200D01*
X112433100Y-109042200D01*
X112417155Y-108962037D01*
X112417069Y-108880306D01*
X112290069Y-108245306D01*
X112260955Y-108175226D01*
X112247058Y-108100617D01*
X111993058Y-107465617D01*
X111990262Y-107461319D01*
X111989262Y-107456294D01*
X111902560Y-107326536D01*
X111817391Y-107195644D01*
X111813163Y-107192744D01*
X111810316Y-107188483D01*
X111695533Y-107073700D01*
X111734600Y-107073700D01*
X112050505Y-107010863D01*
X112318317Y-106831917D01*
X112497263Y-106564105D01*
X112560100Y-106248200D01*
X112497263Y-105932295D01*
X112318317Y-105664483D01*
X112275200Y-105635673D01*
X112275200Y-101885750D01*
X114705000Y-101885750D01*
X114705000Y-102351310D01*
X114801673Y-102584699D01*
X114980302Y-102763327D01*
X115213691Y-102860000D01*
X115554250Y-102860000D01*
X115713000Y-102701250D01*
X115713000Y-101727000D01*
X114863750Y-101727000D01*
X114705000Y-101885750D01*
X112275200Y-101885750D01*
X112275200Y-100848690D01*
X114705000Y-100848690D01*
X114705000Y-101314250D01*
X114863750Y-101473000D01*
X115713000Y-101473000D01*
X115713000Y-100498750D01*
X115554250Y-100340000D01*
X115213691Y-100340000D01*
X114980302Y-100436673D01*
X114801673Y-100615301D01*
X114705000Y-100848690D01*
X112275200Y-100848690D01*
X112275200Y-99345750D01*
X114705000Y-99345750D01*
X114705000Y-99811310D01*
X114801673Y-100044699D01*
X114980302Y-100223327D01*
X115213691Y-100320000D01*
X115554250Y-100320000D01*
X115713000Y-100161250D01*
X115713000Y-99187000D01*
X114863750Y-99187000D01*
X114705000Y-99345750D01*
X112275200Y-99345750D01*
X112275200Y-98308690D01*
X114705000Y-98308690D01*
X114705000Y-98774250D01*
X114863750Y-98933000D01*
X115713000Y-98933000D01*
X115713000Y-97958750D01*
X115967000Y-97958750D01*
X115967000Y-98933000D01*
X115987000Y-98933000D01*
X115987000Y-99187000D01*
X115967000Y-99187000D01*
X115967000Y-100161250D01*
X116125750Y-100320000D01*
X116466309Y-100320000D01*
X116699698Y-100223327D01*
X116840936Y-100082090D01*
X116875910Y-100136441D01*
X117088110Y-100281431D01*
X117327509Y-100329910D01*
X117104683Y-100371838D01*
X116888559Y-100510910D01*
X116842031Y-100579006D01*
X116699698Y-100436673D01*
X116466309Y-100340000D01*
X116125750Y-100340000D01*
X115967000Y-100498750D01*
X115967000Y-101473000D01*
X115987000Y-101473000D01*
X115987000Y-101727000D01*
X115967000Y-101727000D01*
X115967000Y-102701250D01*
X116125750Y-102860000D01*
X116466309Y-102860000D01*
X116699698Y-102763327D01*
X116840936Y-102622090D01*
X116875910Y-102676441D01*
X117088110Y-102821431D01*
X117340000Y-102872440D01*
X117834009Y-102872440D01*
X117846561Y-102935541D01*
X117926493Y-103055167D01*
X118027566Y-103206434D01*
X118281566Y-103460434D01*
X118552459Y-103641439D01*
X118872000Y-103705000D01*
X119460766Y-103705000D01*
X119701201Y-103804838D01*
X120073167Y-103805162D01*
X120416943Y-103663117D01*
X120680192Y-103400327D01*
X120822838Y-103056799D01*
X120823162Y-102684833D01*
X120681117Y-102341057D01*
X120418327Y-102077808D01*
X120314843Y-102034838D01*
X120315162Y-101668833D01*
X120173117Y-101325057D01*
X119910327Y-101061808D01*
X119890532Y-101053589D01*
X119580000Y-100494630D01*
X119580000Y-99441000D01*
X119516439Y-99121459D01*
X119335434Y-98850566D01*
X118987440Y-98502572D01*
X118987440Y-98435000D01*
X118943162Y-98199683D01*
X118804090Y-97983559D01*
X118591890Y-97838569D01*
X118340000Y-97787560D01*
X117340000Y-97787560D01*
X117104683Y-97831838D01*
X116888559Y-97970910D01*
X116842031Y-98039006D01*
X116699698Y-97896673D01*
X116466309Y-97800000D01*
X116125750Y-97800000D01*
X115967000Y-97958750D01*
X115713000Y-97958750D01*
X115554250Y-97800000D01*
X115213691Y-97800000D01*
X114980302Y-97896673D01*
X114801673Y-98075301D01*
X114705000Y-98308690D01*
X112275200Y-98308690D01*
X112275200Y-92256323D01*
X106045000Y-92256323D01*
X106045000Y-88567467D01*
X106828792Y-84627074D01*
X108114594Y-84627074D01*
X108558353Y-85701052D01*
X109379326Y-86523460D01*
X110452528Y-86969092D01*
X111614574Y-86970106D01*
X112688552Y-86526347D01*
X113510960Y-85705374D01*
X113956592Y-84632172D01*
X113957606Y-83470126D01*
X113855810Y-83223759D01*
X115215546Y-83223759D01*
X115301952Y-83480243D01*
X115875436Y-83690058D01*
X116485560Y-83664439D01*
X116930248Y-83480243D01*
X117016654Y-83223759D01*
X116116100Y-82323205D01*
X115215546Y-83223759D01*
X113855810Y-83223759D01*
X113513847Y-82396148D01*
X113021496Y-81902936D01*
X114569642Y-81902936D01*
X114595261Y-82513060D01*
X114779457Y-82957748D01*
X115035941Y-83044154D01*
X115936495Y-82143600D01*
X115035941Y-81243046D01*
X114779457Y-81329452D01*
X114569642Y-81902936D01*
X113021496Y-81902936D01*
X112692874Y-81573740D01*
X111619672Y-81128108D01*
X110457626Y-81127094D01*
X109383648Y-81570853D01*
X108561240Y-82391826D01*
X108115608Y-83465028D01*
X108114594Y-84627074D01*
X106828792Y-84627074D01*
X106893962Y-84299446D01*
X109273384Y-80738387D01*
X109355140Y-80683759D01*
X115215546Y-80683759D01*
X115279501Y-80873600D01*
X115215546Y-81063441D01*
X116116100Y-81963995D01*
X117016654Y-81063441D01*
X116952699Y-80873600D01*
X117016654Y-80683759D01*
X116116100Y-79783205D01*
X115215546Y-80683759D01*
X109355140Y-80683759D01*
X111331891Y-79362936D01*
X114569642Y-79362936D01*
X114595261Y-79973060D01*
X114779457Y-80417748D01*
X115035941Y-80504154D01*
X115936495Y-79603600D01*
X115035941Y-78703046D01*
X114779457Y-78789452D01*
X114569642Y-79362936D01*
X111331891Y-79362936D01*
X112588283Y-78523441D01*
X115215546Y-78523441D01*
X116116100Y-79423995D01*
X117016654Y-78523441D01*
X116930248Y-78266957D01*
X116356764Y-78057142D01*
X115746640Y-78082761D01*
X115301952Y-78266957D01*
X115215546Y-78523441D01*
X112588283Y-78523441D01*
X112834444Y-78358962D01*
X117052194Y-77520000D01*
X170446092Y-77520000D01*
X170435993Y-78156230D01*
G36*
X185841000Y-123714690D02*
X185841000Y-124455250D01*
X185999750Y-124614000D01*
X188849000Y-124614000D01*
X188849000Y-124594000D01*
X189103000Y-124594000D01*
X189103000Y-124614000D01*
X189123000Y-124614000D01*
X189123000Y-124868000D01*
X189103000Y-124868000D01*
X189103000Y-126117250D01*
X189261750Y-126276000D01*
X191065000Y-126276000D01*
X191065000Y-132649000D01*
X135057489Y-132649000D01*
X135200274Y-132553594D01*
X135769234Y-131984634D01*
X135866978Y-131838350D01*
X135928320Y-131746546D01*
X136149409Y-131838350D01*
X136720287Y-131838848D01*
X137247900Y-131620843D01*
X137651648Y-131217798D01*
X137674032Y-131271971D01*
X138105457Y-131704151D01*
X138669430Y-131938333D01*
X139280091Y-131938865D01*
X139844471Y-131705668D01*
X140276651Y-131274243D01*
X140510833Y-130710270D01*
X140511365Y-130099609D01*
X140278168Y-129535229D01*
X140134031Y-129390840D01*
X175783240Y-129390840D01*
X176313257Y-129285413D01*
X176762583Y-128985183D01*
X180721016Y-125026750D01*
X185841000Y-125026750D01*
X185841000Y-125767310D01*
X185937673Y-126000699D01*
X186116302Y-126179327D01*
X186349691Y-126276000D01*
X188690250Y-126276000D01*
X188849000Y-126117250D01*
X188849000Y-124868000D01*
X185999750Y-124868000D01*
X185841000Y-125026750D01*
X180721016Y-125026750D01*
X182061766Y-123686000D01*
X185852884Y-123686000D01*
X185841000Y-123714690D01*
X185841000Y-123714690D01*
G37*
X185841000Y-123714690D02*
X185841000Y-124455250D01*
X185999750Y-124614000D01*
X188849000Y-124614000D01*
X188849000Y-124594000D01*
X189103000Y-124594000D01*
X189103000Y-124614000D01*
X189123000Y-124614000D01*
X189123000Y-124868000D01*
X189103000Y-124868000D01*
X189103000Y-126117250D01*
X189261750Y-126276000D01*
X191065000Y-126276000D01*
X191065000Y-132649000D01*
X135057489Y-132649000D01*
X135200274Y-132553594D01*
X135769234Y-131984634D01*
X135866978Y-131838350D01*
X135928320Y-131746546D01*
X136149409Y-131838350D01*
X136720287Y-131838848D01*
X137247900Y-131620843D01*
X137651648Y-131217798D01*
X137674032Y-131271971D01*
X138105457Y-131704151D01*
X138669430Y-131938333D01*
X139280091Y-131938865D01*
X139844471Y-131705668D01*
X140276651Y-131274243D01*
X140510833Y-130710270D01*
X140511365Y-130099609D01*
X140278168Y-129535229D01*
X140134031Y-129390840D01*
X175783240Y-129390840D01*
X176313257Y-129285413D01*
X176762583Y-128985183D01*
X180721016Y-125026750D01*
X185841000Y-125026750D01*
X185841000Y-125767310D01*
X185937673Y-126000699D01*
X186116302Y-126179327D01*
X186349691Y-126276000D01*
X188690250Y-126276000D01*
X188849000Y-126117250D01*
X188849000Y-124868000D01*
X185999750Y-124868000D01*
X185841000Y-125026750D01*
X180721016Y-125026750D01*
X182061766Y-123686000D01*
X185852884Y-123686000D01*
X185841000Y-123714690D01*
G36*
X129678833Y-115537211D02*
X130110473Y-115537588D01*
X130223094Y-115491054D01*
X130329940Y-115597900D01*
X131079240Y-115597900D01*
X131079240Y-115577900D01*
X131333240Y-115577900D01*
X131333240Y-115597900D01*
X131353240Y-115597900D01*
X131353240Y-115851900D01*
X131333240Y-115851900D01*
X131333240Y-115871900D01*
X131079240Y-115871900D01*
X131079240Y-115851900D01*
X130329940Y-115851900D01*
X130171190Y-116010650D01*
X130171190Y-116251259D01*
X130267863Y-116484648D01*
X130446491Y-116663277D01*
X130482842Y-116678334D01*
X130354749Y-116760760D01*
X130209759Y-116972960D01*
X130158750Y-117224850D01*
X130158750Y-118024950D01*
X130171240Y-118091329D01*
X130171240Y-118125235D01*
X130171239Y-118125240D01*
X130250025Y-118521317D01*
X130474384Y-118857096D01*
X131569489Y-119952200D01*
X129385775Y-119952200D01*
X129222690Y-119840769D01*
X129209603Y-119838119D01*
X129422241Y-119701290D01*
X129567231Y-119489090D01*
X129618240Y-119237200D01*
X129618240Y-118537200D01*
X129573962Y-118301883D01*
X129434890Y-118085759D01*
X129222690Y-117940769D01*
X128970800Y-117889760D01*
X128781911Y-117889760D01*
X127830261Y-116938110D01*
X127877570Y-116947690D01*
X128677670Y-116947690D01*
X128912987Y-116903412D01*
X129129111Y-116764340D01*
X129274101Y-116552140D01*
X129325110Y-116300250D01*
X129325110Y-115500150D01*
X129312620Y-115433771D01*
X129312620Y-115385146D01*
X129678833Y-115537211D01*
X129678833Y-115537211D01*
G37*
X129678833Y-115537211D02*
X130110473Y-115537588D01*
X130223094Y-115491054D01*
X130329940Y-115597900D01*
X131079240Y-115597900D01*
X131079240Y-115577900D01*
X131333240Y-115577900D01*
X131333240Y-115597900D01*
X131353240Y-115597900D01*
X131353240Y-115851900D01*
X131333240Y-115851900D01*
X131333240Y-115871900D01*
X131079240Y-115871900D01*
X131079240Y-115851900D01*
X130329940Y-115851900D01*
X130171190Y-116010650D01*
X130171190Y-116251259D01*
X130267863Y-116484648D01*
X130446491Y-116663277D01*
X130482842Y-116678334D01*
X130354749Y-116760760D01*
X130209759Y-116972960D01*
X130158750Y-117224850D01*
X130158750Y-118024950D01*
X130171240Y-118091329D01*
X130171240Y-118125235D01*
X130171239Y-118125240D01*
X130250025Y-118521317D01*
X130474384Y-118857096D01*
X131569489Y-119952200D01*
X129385775Y-119952200D01*
X129222690Y-119840769D01*
X129209603Y-119838119D01*
X129422241Y-119701290D01*
X129567231Y-119489090D01*
X129618240Y-119237200D01*
X129618240Y-118537200D01*
X129573962Y-118301883D01*
X129434890Y-118085759D01*
X129222690Y-117940769D01*
X128970800Y-117889760D01*
X128781911Y-117889760D01*
X127830261Y-116938110D01*
X127877570Y-116947690D01*
X128677670Y-116947690D01*
X128912987Y-116903412D01*
X129129111Y-116764340D01*
X129274101Y-116552140D01*
X129325110Y-116300250D01*
X129325110Y-115500150D01*
X129312620Y-115433771D01*
X129312620Y-115385146D01*
X129678833Y-115537211D01*
G36*
X137340340Y-115216900D02*
X137360340Y-115216900D01*
X137360340Y-115470900D01*
X137340340Y-115470900D01*
X137340340Y-115490900D01*
X137086340Y-115490900D01*
X137086340Y-115470900D01*
X137066340Y-115470900D01*
X137066340Y-115216900D01*
X137086340Y-115216900D01*
X137086340Y-115196900D01*
X137340340Y-115196900D01*
X137340340Y-115216900D01*
X137340340Y-115216900D01*
G37*
X137340340Y-115216900D02*
X137360340Y-115216900D01*
X137360340Y-115470900D01*
X137340340Y-115470900D01*
X137340340Y-115490900D01*
X137086340Y-115490900D01*
X137086340Y-115470900D01*
X137066340Y-115470900D01*
X137066340Y-115216900D01*
X137086340Y-115216900D01*
X137086340Y-115196900D01*
X137340340Y-115196900D01*
X137340340Y-115216900D01*
M02*
