G04 #@! TF.FileFunction,Copper,L1,Top,Signal*
%FSLAX46Y46*%
G04 Gerber Fmt 4.6, Leading zero omitted, Abs format (unit mm)*
G04 Created by KiCad (PCBNEW 4.0.2+e4-6225~38~ubuntu15.10.1-stable) date Seg 30 Mai 2016 09:09:38 BRT*
%MOMM*%
G01*
G04 APERTURE LIST*
%ADD10C,0.100000*%
%ADD11C,0.250000*%
%ADD12C,0.500000*%
%ADD13C,0.200000*%
%ADD14R,1.250000X1.000000*%
%ADD15C,1.524000*%
%ADD16C,3.300000*%
%ADD17C,4.572000*%
%ADD18R,1.800000X1.800000*%
%ADD19C,1.800000*%
%ADD20C,1.600000*%
%ADD21R,0.700000X1.300000*%
%ADD22R,2.000000X0.600000*%
%ADD23R,1.198880X1.198880*%
%ADD24R,1.300000X0.700000*%
%ADD25R,1.500000X0.400000*%
%ADD26R,1.500000X0.600000*%
%ADD27R,1.700000X1.500000*%
%ADD28R,5.000000X1.800000*%
%ADD29C,1.397000*%
%ADD30R,1.727200X1.727200*%
%ADD31O,1.727200X1.727200*%
%ADD32R,0.750000X0.250000*%
%ADD33C,0.900000*%
%ADD34C,0.600000*%
%ADD35C,0.800000*%
%ADD36C,0.600000*%
%ADD37C,0.400000*%
%ADD38C,1.000000*%
%ADD39C,0.254000*%
G04 APERTURE END LIST*
D10*
D11*
X136414095Y-115431867D02*
X136890286Y-115431867D01*
X136318857Y-115717581D02*
X136652190Y-114717581D01*
X136985524Y-115717581D01*
X137795048Y-115717581D02*
X137318857Y-115717581D01*
X137318857Y-114717581D01*
X138128381Y-115717581D02*
X138128381Y-114717581D01*
X138461714Y-114717581D02*
X138795047Y-115717581D01*
X139128381Y-114717581D01*
X139461714Y-115193771D02*
X139795048Y-115193771D01*
X139937905Y-115717581D02*
X139461714Y-115717581D01*
X139461714Y-114717581D01*
X139937905Y-114717581D01*
X131803829Y-114666781D02*
X132041924Y-115666781D01*
X132232401Y-114952495D01*
X132422877Y-115666781D01*
X132660972Y-114666781D01*
X127715924Y-115615981D02*
X127382590Y-115139790D01*
X127144495Y-115615981D02*
X127144495Y-114615981D01*
X127525448Y-114615981D01*
X127620686Y-114663600D01*
X127668305Y-114711219D01*
X127715924Y-114806457D01*
X127715924Y-114949314D01*
X127668305Y-115044552D01*
X127620686Y-115092171D01*
X127525448Y-115139790D01*
X127144495Y-115139790D01*
X138670162Y-125698000D02*
X138717781Y-125555143D01*
X138717781Y-125317047D01*
X138670162Y-125221809D01*
X138622543Y-125174190D01*
X138527305Y-125126571D01*
X138432067Y-125126571D01*
X138336829Y-125174190D01*
X138289210Y-125221809D01*
X138241590Y-125317047D01*
X138193971Y-125507524D01*
X138146352Y-125602762D01*
X138098733Y-125650381D01*
X138003495Y-125698000D01*
X137908257Y-125698000D01*
X137813019Y-125650381D01*
X137765400Y-125602762D01*
X137717781Y-125507524D01*
X137717781Y-125269428D01*
X137765400Y-125126571D01*
X138717781Y-124221809D02*
X138717781Y-124698000D01*
X137717781Y-124698000D01*
X138432067Y-123936095D02*
X138432067Y-123459904D01*
X138717781Y-124031333D02*
X137717781Y-123698000D01*
X138717781Y-123364666D01*
X137717781Y-123174190D02*
X138717781Y-122840857D01*
X137717781Y-122507523D01*
X138193971Y-122174190D02*
X138193971Y-121840856D01*
X138717781Y-121697999D02*
X138717781Y-122174190D01*
X137717781Y-122174190D01*
X137717781Y-121697999D01*
X139367781Y-125150381D02*
X139367781Y-124959904D01*
X139415400Y-124864666D01*
X139510638Y-124769428D01*
X139701114Y-124721809D01*
X140034448Y-124721809D01*
X140224924Y-124769428D01*
X140320162Y-124864666D01*
X140367781Y-124959904D01*
X140367781Y-125150381D01*
X140320162Y-125245619D01*
X140224924Y-125340857D01*
X140034448Y-125388476D01*
X139701114Y-125388476D01*
X139510638Y-125340857D01*
X139415400Y-125245619D01*
X139367781Y-125150381D01*
X140367781Y-124293238D02*
X139367781Y-124293238D01*
X140367781Y-123721809D01*
X139367781Y-123721809D01*
X140367781Y-122769428D02*
X140367781Y-123245619D01*
X139367781Y-123245619D01*
X139891590Y-122245619D02*
X140367781Y-122245619D01*
X139367781Y-122578952D02*
X139891590Y-122245619D01*
X139367781Y-121912285D01*
X136697981Y-120059485D02*
X136697981Y-120630914D01*
X136697981Y-120345200D02*
X135697981Y-120345200D01*
X135840838Y-120440438D01*
X135936076Y-120535676D01*
X135983695Y-120630914D01*
X133253219Y-120630914D02*
X133205600Y-120583295D01*
X133157981Y-120488057D01*
X133157981Y-120249961D01*
X133205600Y-120154723D01*
X133253219Y-120107104D01*
X133348457Y-120059485D01*
X133443695Y-120059485D01*
X133586552Y-120107104D01*
X134157981Y-120678533D01*
X134157981Y-120059485D01*
X130951314Y-120103923D02*
X131617981Y-120103923D01*
X130570362Y-120342019D02*
X131284648Y-120580114D01*
X131284648Y-119961066D01*
X128557352Y-120288038D02*
X128509733Y-120383276D01*
X128462114Y-120430895D01*
X128366876Y-120478514D01*
X128319257Y-120478514D01*
X128224019Y-120430895D01*
X128176400Y-120383276D01*
X128128781Y-120288038D01*
X128128781Y-120097561D01*
X128176400Y-120002323D01*
X128224019Y-119954704D01*
X128319257Y-119907085D01*
X128366876Y-119907085D01*
X128462114Y-119954704D01*
X128509733Y-120002323D01*
X128557352Y-120097561D01*
X128557352Y-120288038D01*
X128604971Y-120383276D01*
X128652590Y-120430895D01*
X128747829Y-120478514D01*
X128938305Y-120478514D01*
X129033543Y-120430895D01*
X129081162Y-120383276D01*
X129128781Y-120288038D01*
X129128781Y-120097561D01*
X129081162Y-120002323D01*
X129033543Y-119954704D01*
X128938305Y-119907085D01*
X128747829Y-119907085D01*
X128652590Y-119954704D01*
X128604971Y-120002323D01*
X128557352Y-120097561D01*
X126537981Y-120383276D02*
X126537981Y-120954705D01*
X126537981Y-120668991D02*
X125537981Y-120668991D01*
X125680838Y-120764229D01*
X125776076Y-120859467D01*
X125823695Y-120954705D01*
X125537981Y-119526133D02*
X125537981Y-119716610D01*
X125585600Y-119811848D01*
X125633219Y-119859467D01*
X125776076Y-119954705D01*
X125966552Y-120002324D01*
X126347505Y-120002324D01*
X126442743Y-119954705D01*
X126490362Y-119907086D01*
X126537981Y-119811848D01*
X126537981Y-119621371D01*
X126490362Y-119526133D01*
X126442743Y-119478514D01*
X126347505Y-119430895D01*
X126109410Y-119430895D01*
X126014171Y-119478514D01*
X125966552Y-119526133D01*
X125918933Y-119621371D01*
X125918933Y-119811848D01*
X125966552Y-119907086D01*
X126014171Y-119954705D01*
X126109410Y-120002324D01*
D12*
X106689638Y-95028952D02*
X108689638Y-95028952D01*
X108689638Y-95790857D01*
X108594400Y-95981333D01*
X108499162Y-96076572D01*
X108308686Y-96171810D01*
X108022971Y-96171810D01*
X107832495Y-96076572D01*
X107737257Y-95981333D01*
X107642019Y-95790857D01*
X107642019Y-95028952D01*
X106689638Y-98171810D02*
X107642019Y-97505143D01*
X106689638Y-97028952D02*
X108689638Y-97028952D01*
X108689638Y-97790857D01*
X108594400Y-97981333D01*
X108499162Y-98076572D01*
X108308686Y-98171810D01*
X108022971Y-98171810D01*
X107832495Y-98076572D01*
X107737257Y-97981333D01*
X107642019Y-97790857D01*
X107642019Y-97028952D01*
X108689638Y-99028952D02*
X107070590Y-99028952D01*
X106880114Y-99124191D01*
X106784876Y-99219429D01*
X106689638Y-99409905D01*
X106689638Y-99790857D01*
X106784876Y-99981333D01*
X106880114Y-100076572D01*
X107070590Y-100171810D01*
X108689638Y-100171810D01*
X106784876Y-101028952D02*
X106689638Y-101219429D01*
X106689638Y-101600381D01*
X106784876Y-101790857D01*
X106975352Y-101886095D01*
X107070590Y-101886095D01*
X107261067Y-101790857D01*
X107356305Y-101600381D01*
X107356305Y-101314667D01*
X107451543Y-101124190D01*
X107642019Y-101028952D01*
X107737257Y-101028952D01*
X107927733Y-101124190D01*
X108022971Y-101314667D01*
X108022971Y-101600381D01*
X107927733Y-101790857D01*
X106784876Y-103505143D02*
X106689638Y-103314667D01*
X106689638Y-102933715D01*
X106784876Y-102743238D01*
X106975352Y-102648000D01*
X107737257Y-102648000D01*
X107927733Y-102743238D01*
X108022971Y-102933715D01*
X108022971Y-103314667D01*
X107927733Y-103505143D01*
X107737257Y-103600381D01*
X107546781Y-103600381D01*
X107356305Y-102648000D01*
X106689638Y-104457524D02*
X108022971Y-104457524D01*
X107642019Y-104457524D02*
X107832495Y-104552763D01*
X107927733Y-104648001D01*
X108022971Y-104838477D01*
X108022971Y-105028953D01*
X106689638Y-105695619D02*
X108022971Y-105695619D01*
X108689638Y-105695619D02*
X108594400Y-105600381D01*
X108499162Y-105695619D01*
X108594400Y-105790858D01*
X108689638Y-105695619D01*
X108499162Y-105695619D01*
X106689638Y-107505143D02*
X107737257Y-107505143D01*
X107927733Y-107409905D01*
X108022971Y-107219429D01*
X108022971Y-106838477D01*
X107927733Y-106648000D01*
X106784876Y-107505143D02*
X106689638Y-107314667D01*
X106689638Y-106838477D01*
X106784876Y-106648000D01*
X106975352Y-106552762D01*
X107165829Y-106552762D01*
X107356305Y-106648000D01*
X107451543Y-106838477D01*
X107451543Y-107314667D01*
X107546781Y-107505143D01*
X106689638Y-108743239D02*
X106784876Y-108552763D01*
X106975352Y-108457524D01*
X108689638Y-108457524D01*
X108022971Y-110362286D02*
X106689638Y-110362286D01*
X108784876Y-109886096D02*
X107356305Y-109409905D01*
X107356305Y-110648001D01*
X107832495Y-111695620D02*
X107927733Y-111505144D01*
X108022971Y-111409905D01*
X108213448Y-111314667D01*
X108308686Y-111314667D01*
X108499162Y-111409905D01*
X108594400Y-111505144D01*
X108689638Y-111695620D01*
X108689638Y-112076572D01*
X108594400Y-112267048D01*
X108499162Y-112362286D01*
X108308686Y-112457525D01*
X108213448Y-112457525D01*
X108022971Y-112362286D01*
X107927733Y-112267048D01*
X107832495Y-112076572D01*
X107832495Y-111695620D01*
X107737257Y-111505144D01*
X107642019Y-111409905D01*
X107451543Y-111314667D01*
X107070590Y-111314667D01*
X106880114Y-111409905D01*
X106784876Y-111505144D01*
X106689638Y-111695620D01*
X106689638Y-112076572D01*
X106784876Y-112267048D01*
X106880114Y-112362286D01*
X107070590Y-112457525D01*
X107451543Y-112457525D01*
X107642019Y-112362286D01*
X107737257Y-112267048D01*
X107832495Y-112076572D01*
X108689638Y-114267048D02*
X108689638Y-113314667D01*
X107737257Y-113219429D01*
X107832495Y-113314667D01*
X107927733Y-113505144D01*
X107927733Y-113981334D01*
X107832495Y-114171810D01*
X107737257Y-114267048D01*
X107546781Y-114362287D01*
X107070590Y-114362287D01*
X106880114Y-114267048D01*
X106784876Y-114171810D01*
X106689638Y-113981334D01*
X106689638Y-113505144D01*
X106784876Y-113314667D01*
X106880114Y-113219429D01*
D13*
X111212524Y-130119381D02*
X111212524Y-129119381D01*
X111450619Y-129119381D01*
X111593477Y-129167000D01*
X111688715Y-129262238D01*
X111736334Y-129357476D01*
X111783953Y-129547952D01*
X111783953Y-129690810D01*
X111736334Y-129881286D01*
X111688715Y-129976524D01*
X111593477Y-130071762D01*
X111450619Y-130119381D01*
X111212524Y-130119381D01*
X112403000Y-129119381D02*
X112593477Y-129119381D01*
X112688715Y-129167000D01*
X112783953Y-129262238D01*
X112831572Y-129452714D01*
X112831572Y-129786048D01*
X112783953Y-129976524D01*
X112688715Y-130071762D01*
X112593477Y-130119381D01*
X112403000Y-130119381D01*
X112307762Y-130071762D01*
X112212524Y-129976524D01*
X112164905Y-129786048D01*
X112164905Y-129452714D01*
X112212524Y-129262238D01*
X112307762Y-129167000D01*
X112403000Y-129119381D01*
X113260143Y-129119381D02*
X113260143Y-129928905D01*
X113307762Y-130024143D01*
X113355381Y-130071762D01*
X113450619Y-130119381D01*
X113641096Y-130119381D01*
X113736334Y-130071762D01*
X113783953Y-130024143D01*
X113831572Y-129928905D01*
X113831572Y-129119381D01*
X114164905Y-129119381D02*
X114736334Y-129119381D01*
X114450619Y-130119381D02*
X114450619Y-129119381D01*
X124150381Y-126636304D02*
X123150381Y-126636304D01*
X124150381Y-125588685D02*
X123674190Y-125922019D01*
X124150381Y-126160114D02*
X123150381Y-126160114D01*
X123150381Y-125779161D01*
X123198000Y-125683923D01*
X123245619Y-125636304D01*
X123340857Y-125588685D01*
X123483714Y-125588685D01*
X123578952Y-125636304D01*
X123626571Y-125683923D01*
X123674190Y-125779161D01*
X123674190Y-126160114D01*
X124245619Y-124493447D02*
X124198000Y-124588685D01*
X124102762Y-124683923D01*
X123959905Y-124826780D01*
X123912286Y-124922019D01*
X123912286Y-125017257D01*
X124150381Y-124969638D02*
X124102762Y-125064876D01*
X124007524Y-125160114D01*
X123817048Y-125207733D01*
X123483714Y-125207733D01*
X123293238Y-125160114D01*
X123198000Y-125064876D01*
X123150381Y-124969638D01*
X123150381Y-124779161D01*
X123198000Y-124683923D01*
X123293238Y-124588685D01*
X123483714Y-124541066D01*
X123817048Y-124541066D01*
X124007524Y-124588685D01*
X124102762Y-124683923D01*
X124150381Y-124779161D01*
X124150381Y-124969638D01*
X123150381Y-124064876D02*
X123340857Y-124160114D01*
X121762781Y-126296609D02*
X120762781Y-126296609D01*
X120762781Y-126058514D01*
X120810400Y-125915656D01*
X120905638Y-125820418D01*
X121000876Y-125772799D01*
X121191352Y-125725180D01*
X121334210Y-125725180D01*
X121524686Y-125772799D01*
X121619924Y-125820418D01*
X121715162Y-125915656D01*
X121762781Y-126058514D01*
X121762781Y-126296609D01*
X121762781Y-125296609D02*
X120762781Y-125296609D01*
X121762781Y-124820419D02*
X120762781Y-124820419D01*
X121762781Y-124248990D01*
X120762781Y-124248990D01*
X118975143Y-125499761D02*
X119022762Y-125547380D01*
X119070381Y-125690237D01*
X119070381Y-125785475D01*
X119022762Y-125928333D01*
X118927524Y-126023571D01*
X118832286Y-126071190D01*
X118641810Y-126118809D01*
X118498952Y-126118809D01*
X118308476Y-126071190D01*
X118213238Y-126023571D01*
X118118000Y-125928333D01*
X118070381Y-125785475D01*
X118070381Y-125690237D01*
X118118000Y-125547380D01*
X118165619Y-125499761D01*
X119022762Y-125118809D02*
X119070381Y-124975952D01*
X119070381Y-124737856D01*
X119022762Y-124642618D01*
X118975143Y-124594999D01*
X118879905Y-124547380D01*
X118784667Y-124547380D01*
X118689429Y-124594999D01*
X118641810Y-124642618D01*
X118594190Y-124737856D01*
X118546571Y-124928333D01*
X118498952Y-125023571D01*
X118451333Y-125071190D01*
X118356095Y-125118809D01*
X118260857Y-125118809D01*
X118165619Y-125071190D01*
X118118000Y-125023571D01*
X118070381Y-124928333D01*
X118070381Y-124690237D01*
X118118000Y-124547380D01*
X118070381Y-124071190D02*
X118260857Y-124166428D01*
X116536743Y-125868038D02*
X116584362Y-125915657D01*
X116631981Y-126058514D01*
X116631981Y-126153752D01*
X116584362Y-126296610D01*
X116489124Y-126391848D01*
X116393886Y-126439467D01*
X116203410Y-126487086D01*
X116060552Y-126487086D01*
X115870076Y-126439467D01*
X115774838Y-126391848D01*
X115679600Y-126296610D01*
X115631981Y-126153752D01*
X115631981Y-126058514D01*
X115679600Y-125915657D01*
X115727219Y-125868038D01*
X116631981Y-124963276D02*
X116631981Y-125439467D01*
X115631981Y-125439467D01*
X116631981Y-124629943D02*
X115631981Y-124629943D01*
X116631981Y-124058514D02*
X116060552Y-124487086D01*
X115631981Y-124058514D02*
X116203410Y-124629943D01*
D14*
X146558000Y-96758000D03*
X146558000Y-94758000D03*
D15*
X177251340Y-75788520D03*
X177251340Y-73248520D03*
X177251340Y-78328520D03*
X179791340Y-71978520D03*
X179791340Y-74518520D03*
X179791340Y-77058520D03*
D16*
X186319140Y-80370680D03*
X186321680Y-69997320D03*
D17*
X111036100Y-84048600D03*
X111036100Y-125958600D03*
D18*
X171996100Y-79603600D03*
D19*
X171996100Y-82143600D03*
X169456100Y-79603600D03*
X169456100Y-82143600D03*
X166916100Y-79603600D03*
X166916100Y-82143600D03*
X164376100Y-79603600D03*
X164376100Y-82143600D03*
X161836100Y-79603600D03*
X161836100Y-82143600D03*
X159296100Y-79603600D03*
X159296100Y-82143600D03*
X156756100Y-79603600D03*
X156756100Y-82143600D03*
X154216100Y-79603600D03*
X154216100Y-82143600D03*
X151676100Y-79603600D03*
X151676100Y-82143600D03*
X149136100Y-79603600D03*
X149136100Y-82143600D03*
X146596100Y-79603600D03*
X146596100Y-82143600D03*
X144056100Y-79603600D03*
X144056100Y-82143600D03*
X141516100Y-79603600D03*
X141516100Y-82143600D03*
X138976100Y-79603600D03*
X138976100Y-82143600D03*
X136436100Y-79603600D03*
X136436100Y-82143600D03*
X133896100Y-79603600D03*
X133896100Y-82143600D03*
X131356100Y-79603600D03*
X131356100Y-82143600D03*
X128816100Y-79603600D03*
X128816100Y-82143600D03*
X126276100Y-79603600D03*
X126276100Y-82143600D03*
X123736100Y-79603600D03*
X123736100Y-82143600D03*
X121196100Y-79603600D03*
X121196100Y-82143600D03*
X118656100Y-79603600D03*
X118656100Y-82143600D03*
X116116100Y-79603600D03*
X116116100Y-82143600D03*
D20*
X138976100Y-127863600D03*
D19*
X138976100Y-130403600D03*
D20*
X136436100Y-127863600D03*
X136436100Y-130403600D03*
X133896100Y-127863600D03*
X133896100Y-130403600D03*
X131356100Y-127863600D03*
D19*
X131356100Y-130403600D03*
D20*
X128816100Y-127863600D03*
D19*
X128816100Y-130403600D03*
X126276100Y-127863600D03*
X126276100Y-130403600D03*
X123736100Y-127863600D03*
X123736100Y-130403600D03*
X121196100Y-127863600D03*
X121196100Y-130403600D03*
X118656100Y-127863600D03*
X118656100Y-130403600D03*
X116116100Y-127863600D03*
X116116100Y-130403600D03*
D21*
X157541000Y-94691200D03*
X155641000Y-94691200D03*
D22*
X166752000Y-121691400D03*
X166752000Y-120421400D03*
X166752000Y-119151400D03*
X166752000Y-107721400D03*
X166752000Y-106451400D03*
X166752000Y-105181400D03*
X157352000Y-105181400D03*
X157352000Y-106451400D03*
X157352000Y-107721400D03*
X157352000Y-119151400D03*
X157352000Y-120421400D03*
X157352000Y-121691400D03*
D23*
X137634980Y-93624400D03*
X139733020Y-93624400D03*
D24*
X118110000Y-110170000D03*
X118110000Y-108270000D03*
D25*
X122230000Y-100565000D03*
X122230000Y-101215000D03*
X122230000Y-101865000D03*
X122230000Y-102515000D03*
X122230000Y-103165000D03*
X122230000Y-103815000D03*
X122230000Y-104465000D03*
X122230000Y-105115000D03*
X122230000Y-105765000D03*
X122230000Y-106415000D03*
X122230000Y-107065000D03*
X122230000Y-107715000D03*
X129230000Y-107715000D03*
X129230000Y-107065000D03*
X129230000Y-106415000D03*
X129230000Y-105765000D03*
X129230000Y-105115000D03*
X129230000Y-104465000D03*
X129230000Y-103815000D03*
X129230000Y-103165000D03*
X129230000Y-102515000D03*
X129230000Y-101865000D03*
X129230000Y-101215000D03*
X129230000Y-100565000D03*
D15*
X177251340Y-90774520D03*
X177251340Y-88234520D03*
X177251340Y-93314520D03*
X179791340Y-86964520D03*
X179791340Y-89504520D03*
X179791340Y-92044520D03*
D16*
X186319140Y-95356680D03*
X186321680Y-84983320D03*
D26*
X137590000Y-99695000D03*
X137590000Y-100965000D03*
X137590000Y-102235000D03*
X137590000Y-103505000D03*
X137590000Y-104775000D03*
X137590000Y-106045000D03*
X137590000Y-107315000D03*
X137590000Y-108585000D03*
X146890000Y-108585000D03*
X146890000Y-107315000D03*
X146890000Y-106045000D03*
X146890000Y-104775000D03*
X146890000Y-103505000D03*
X146890000Y-102235000D03*
X146890000Y-100965000D03*
X146890000Y-99695000D03*
D10*
G36*
X122770000Y-96870000D02*
X122770000Y-98370000D01*
X121070000Y-98370000D01*
X121070000Y-96870000D01*
X122770000Y-96870000D01*
X122770000Y-96870000D01*
G37*
D27*
X121920000Y-95420000D03*
D10*
G36*
X125310000Y-96870000D02*
X125310000Y-98370000D01*
X123610000Y-98370000D01*
X123610000Y-96870000D01*
X125310000Y-96870000D01*
X125310000Y-96870000D01*
G37*
D27*
X124460000Y-95420000D03*
D14*
X135128000Y-96028000D03*
X135128000Y-98028000D03*
X148844000Y-98949000D03*
X148844000Y-100949000D03*
X148463000Y-94758000D03*
X148463000Y-96758000D03*
D28*
X188976000Y-124741000D03*
X188976000Y-119861000D03*
D14*
X166979600Y-101260400D03*
X166979600Y-103260400D03*
X169418000Y-120513600D03*
X169418000Y-122513600D03*
D29*
X154432000Y-88849200D03*
X156972000Y-88849200D03*
X163042600Y-88823800D03*
X160502600Y-88823800D03*
D30*
X136194800Y-122377200D03*
D31*
X136194800Y-124917200D03*
X133654800Y-122377200D03*
X133654800Y-124917200D03*
X131114800Y-122377200D03*
X131114800Y-124917200D03*
X128574800Y-122377200D03*
X128574800Y-124917200D03*
X126034800Y-122377200D03*
X126034800Y-124917200D03*
D24*
X146558000Y-92593200D03*
X146558000Y-90693200D03*
X148488400Y-91556800D03*
X148488400Y-93456800D03*
D21*
X166913600Y-88950800D03*
X165013600Y-88950800D03*
D24*
X162382200Y-94401600D03*
X162382200Y-96301600D03*
D23*
X139225020Y-113385600D03*
X137126980Y-113385600D03*
X133230620Y-113436400D03*
X131132580Y-113436400D03*
X128455420Y-113436400D03*
X126357380Y-113436400D03*
D32*
X158318800Y-90893200D03*
X158318800Y-91393200D03*
X158318800Y-91893200D03*
X158318800Y-92393200D03*
X155218800Y-90893200D03*
X155218800Y-91393200D03*
X155218800Y-92393200D03*
X155218800Y-91893200D03*
X166700800Y-90944000D03*
X166700800Y-91444000D03*
X166700800Y-91944000D03*
X166700800Y-92444000D03*
X163600800Y-90944000D03*
X163600800Y-91444000D03*
X163600800Y-92444000D03*
X163600800Y-91944000D03*
D14*
X169265600Y-107864400D03*
X169265600Y-109864400D03*
D33*
X142240000Y-109931200D03*
X170535600Y-117703600D03*
X169249600Y-101260400D03*
X151511000Y-93472000D03*
X163931600Y-97459800D03*
X161848800Y-98196400D03*
X169443400Y-112445800D03*
X158445200Y-96875600D03*
X162356800Y-102514400D03*
X149656800Y-108559600D03*
X150622000Y-102616000D03*
X131978400Y-108356400D03*
X121462800Y-113995200D03*
D34*
X130810000Y-99314000D03*
X126746000Y-97790000D03*
X119380000Y-101854000D03*
D33*
X168275000Y-84328000D03*
D34*
X119888000Y-102870000D03*
D33*
X119888000Y-108458000D03*
X135940800Y-93624400D03*
X172212000Y-92100400D03*
X171602400Y-90678000D03*
X134366000Y-101854000D03*
X135382000Y-106045000D03*
X123063000Y-118237000D03*
X121158000Y-119253000D03*
X118745000Y-119761000D03*
X116078000Y-120650000D03*
X114427000Y-121158000D03*
X129603500Y-117221000D03*
X154076400Y-119735600D03*
X134239000Y-92456000D03*
X125603000Y-110744000D03*
X135890000Y-114300000D03*
X129895600Y-114452400D03*
X124866400Y-113487200D03*
X168833800Y-90906600D03*
D35*
X133230620Y-113436400D02*
X133230620Y-112402620D01*
X133230620Y-112402620D02*
X132689600Y-111861600D01*
X139225020Y-113385600D02*
X139225020Y-112351820D01*
X139225020Y-112351820D02*
X138734800Y-111861600D01*
X128455420Y-113436400D02*
X128455420Y-112641380D01*
X140309600Y-111861600D02*
X142240000Y-109931200D01*
X129235200Y-111861600D02*
X132689600Y-111861600D01*
X132689600Y-111861600D02*
X138734800Y-111861600D01*
X138734800Y-111861600D02*
X140309600Y-111861600D01*
X128455420Y-112641380D02*
X129235200Y-111861600D01*
X170535600Y-117703600D02*
X170942000Y-118110000D01*
X170942000Y-118110000D02*
X170942000Y-118989600D01*
X169418000Y-120513600D02*
X170942000Y-118989600D01*
D36*
X166752000Y-121691400D02*
X166752000Y-120421400D01*
X166752000Y-120421400D02*
X169325800Y-120421400D01*
X169325800Y-120421400D02*
X169418000Y-120513600D01*
X166752000Y-105181400D02*
X168757600Y-105181400D01*
X169249600Y-104689400D02*
X169249600Y-101260400D01*
X168757600Y-105181400D02*
X169249600Y-104689400D01*
X151511000Y-93472000D02*
X151511000Y-96225360D01*
X148590000Y-99146360D02*
X148590000Y-98425000D01*
X151511000Y-96225360D02*
X148590000Y-99146360D01*
D11*
X154695000Y-92389600D02*
X155661000Y-92389600D01*
X155844200Y-92572800D02*
X155844200Y-94691200D01*
X155661000Y-92389600D02*
X155844200Y-92572800D01*
D35*
X166979600Y-101260400D02*
X169249600Y-101260400D01*
X169249600Y-101260400D02*
X169265600Y-101244400D01*
D36*
X147320000Y-99695000D02*
X148590000Y-98425000D01*
X148590000Y-98425000D02*
X148590000Y-98425000D01*
D37*
X146890000Y-99695000D02*
X147320000Y-99695000D01*
D36*
X148590000Y-98171000D02*
X148590000Y-98425000D01*
X148590000Y-98425000D02*
X148590000Y-98171000D01*
X148463000Y-98552000D02*
X148590000Y-98425000D01*
X148463000Y-96758000D02*
X148463000Y-98552000D01*
D11*
X152593400Y-92389600D02*
X151511000Y-93472000D01*
X163585000Y-97087800D02*
X163931600Y-97459800D01*
X154847400Y-92389600D02*
X152593400Y-92389600D01*
D36*
X146558000Y-96758000D02*
X148463000Y-96758000D01*
D11*
X158318800Y-90893200D02*
X159879600Y-90893200D01*
X160832800Y-97180400D02*
X161848800Y-98196400D01*
X160832800Y-91846400D02*
X160832800Y-97180400D01*
X159879600Y-90893200D02*
X160832800Y-91846400D01*
D36*
X166752000Y-106451400D02*
X170256200Y-106451400D01*
X170764200Y-111125000D02*
X169443400Y-112445800D01*
X170764200Y-106959400D02*
X170764200Y-111125000D01*
X170256200Y-106451400D02*
X170764200Y-106959400D01*
D37*
X150688000Y-99187000D02*
X150688000Y-100904000D01*
X158445200Y-97282000D02*
X158445200Y-96875600D01*
X153720800Y-102006400D02*
X158445200Y-97282000D01*
X151790400Y-102006400D02*
X153720800Y-102006400D01*
X150688000Y-100904000D02*
X151790400Y-102006400D01*
X166979600Y-103260400D02*
X163102800Y-103260400D01*
X163102800Y-103260400D02*
X162356800Y-102514400D01*
X146890000Y-108585000D02*
X149631400Y-108585000D01*
X149631400Y-108585000D02*
X149656800Y-108559600D01*
D36*
X149733000Y-100965000D02*
X146890000Y-100965000D01*
X151511000Y-99187000D02*
X149733000Y-100965000D01*
X150688000Y-99187000D02*
X151511000Y-99187000D01*
D38*
X150688000Y-102550000D02*
X150622000Y-102616000D01*
X150688000Y-99187000D02*
X150688000Y-102550000D01*
D37*
X129230000Y-107715000D02*
X131337000Y-107715000D01*
X131337000Y-107715000D02*
X131978400Y-108356400D01*
D38*
X121462800Y-113995200D02*
X118110000Y-110642400D01*
X118110000Y-110642400D02*
X118110000Y-110170000D01*
D37*
X135128000Y-99695000D02*
X132207000Y-99695000D01*
X137590000Y-99695000D02*
X135128000Y-99695000D01*
X132207000Y-99695000D02*
X130810000Y-101092000D01*
X122230000Y-103815000D02*
X124206000Y-103815000D01*
X124206000Y-103815000D02*
X124206000Y-103886000D01*
X122230000Y-103165000D02*
X124206000Y-103165000D01*
X124206000Y-103165000D02*
X124206000Y-103251000D01*
X122230000Y-101865000D02*
X123709000Y-101865000D01*
X122621000Y-110170000D02*
X118110000Y-110170000D01*
X124206000Y-108585000D02*
X122621000Y-110170000D01*
X124206000Y-102362000D02*
X124206000Y-103251000D01*
X124206000Y-103251000D02*
X124206000Y-103886000D01*
X124206000Y-103886000D02*
X124206000Y-108585000D01*
X123709000Y-101865000D02*
X124206000Y-102362000D01*
X129230000Y-101215000D02*
X130687000Y-101215000D01*
X130810000Y-101092000D02*
X130810000Y-99314000D01*
X130687000Y-101215000D02*
X130810000Y-101092000D01*
D36*
X124460000Y-97620000D02*
X126576000Y-97620000D01*
D37*
X126576000Y-97620000D02*
X126746000Y-97790000D01*
X122230000Y-101865000D02*
X119391000Y-101865000D01*
X119391000Y-101865000D02*
X119380000Y-101854000D01*
X127504000Y-107692000D02*
X127504000Y-101215000D01*
X127527000Y-107715000D02*
X127504000Y-107692000D01*
X129230000Y-107715000D02*
X127527000Y-107715000D01*
X125222000Y-102362000D02*
X126369000Y-101215000D01*
X126369000Y-101215000D02*
X127504000Y-101215000D01*
X124206000Y-102362000D02*
X125222000Y-102362000D01*
D36*
X126746000Y-91821000D02*
X126746000Y-97790000D01*
X126746000Y-100457000D02*
X127504000Y-101215000D01*
D37*
X127504000Y-101215000D02*
X129230000Y-101215000D01*
D36*
X126746000Y-97790000D02*
X126746000Y-100457000D01*
X135128000Y-98028000D02*
X135128000Y-99695000D01*
X168275000Y-84328000D02*
X167005000Y-85598000D01*
X167005000Y-85598000D02*
X132969000Y-85598000D01*
X132969000Y-85598000D02*
X126746000Y-91821000D01*
D37*
X122230000Y-102515000D02*
X120243000Y-102515000D01*
X120243000Y-102515000D02*
X119888000Y-102870000D01*
X122230000Y-107715000D02*
X120631000Y-107715000D01*
X120631000Y-107715000D02*
X119888000Y-108458000D01*
D38*
X137634980Y-93624400D02*
X135940800Y-93624400D01*
D36*
X146890000Y-104775000D02*
X154457400Y-104775000D01*
X154457400Y-104775000D02*
X159613600Y-99618800D01*
X159613600Y-99618800D02*
X161442400Y-99618800D01*
X171348400Y-92964000D02*
X172212000Y-92100400D01*
D11*
X159994600Y-92252800D02*
X159994600Y-98171000D01*
X159633800Y-91892000D02*
X159994600Y-92252800D01*
X159994600Y-98171000D02*
X161442400Y-99618800D01*
D36*
X164693600Y-99618800D02*
X165760400Y-98552000D01*
X165760400Y-98552000D02*
X167589200Y-96723200D01*
X161442400Y-99618800D02*
X164693600Y-99618800D01*
X167589200Y-96723200D02*
X171348400Y-92964000D01*
D11*
X170383200Y-92964000D02*
X171348400Y-92964000D01*
X169859600Y-92440400D02*
X170383200Y-92964000D01*
X158563200Y-91892000D02*
X159633800Y-91892000D01*
D37*
X166598600Y-87401400D02*
X168326197Y-87401400D01*
D36*
X146890000Y-103505000D02*
X145542000Y-103505000D01*
X168300400Y-87376000D02*
X168326197Y-87401400D01*
X168326197Y-87401400D02*
X171602400Y-90627200D01*
X166420800Y-87376000D02*
X168300400Y-87376000D01*
X171602400Y-90627200D02*
X171602400Y-90673800D01*
X143510000Y-101473000D02*
X145542000Y-103505000D01*
X158191200Y-87376000D02*
X163474400Y-87376000D01*
X143510000Y-89763600D02*
X143510000Y-101473000D01*
D11*
X165963600Y-88036400D02*
X166598600Y-87401400D01*
X165963600Y-89941400D02*
X165963600Y-88036400D01*
D36*
X163474400Y-87376000D02*
X165201600Y-87376000D01*
X165201600Y-87376000D02*
X166420800Y-87376000D01*
X156210000Y-87376000D02*
X157632400Y-87376000D01*
X157632400Y-87376000D02*
X158191200Y-87376000D01*
X145897600Y-87376000D02*
X143510000Y-89763600D01*
D11*
X164459800Y-91445200D02*
X165963600Y-89941400D01*
D36*
X149098000Y-87376000D02*
X153746200Y-87376000D01*
X153746200Y-87376000D02*
X156210000Y-87376000D01*
X149098000Y-87376000D02*
X145897600Y-87376000D01*
D11*
X153060400Y-88061800D02*
X153746200Y-87376000D01*
X153060400Y-90246200D02*
X153060400Y-88061800D01*
X153711000Y-90896800D02*
X153060400Y-90246200D01*
X155203000Y-90896800D02*
X153711000Y-90896800D01*
D37*
X136017000Y-104775000D02*
X136017000Y-104902000D01*
X136017000Y-104775000D02*
X137590000Y-104775000D01*
X136017000Y-104902000D02*
X136017000Y-104775000D01*
X131064000Y-103632000D02*
X132475111Y-103632000D01*
X136398000Y-103505000D02*
X137590000Y-103505000D01*
X136017000Y-104775000D02*
X136398000Y-103505000D01*
X133491111Y-104775000D02*
X136017000Y-104775000D01*
X132475111Y-103632000D02*
X133491111Y-104775000D01*
X129230000Y-103165000D02*
X130851000Y-103165000D01*
X130881000Y-103815000D02*
X129230000Y-103815000D01*
X131064000Y-103632000D02*
X130881000Y-103815000D01*
X131064000Y-103378000D02*
X131064000Y-103632000D01*
X130851000Y-103165000D02*
X131064000Y-103378000D01*
X129230000Y-102515000D02*
X132995000Y-102515000D01*
X136017000Y-102235000D02*
X137590000Y-102235000D01*
X135128000Y-103124000D02*
X136017000Y-102235000D01*
X133604000Y-103124000D02*
X135128000Y-103124000D01*
X132995000Y-102515000D02*
X133604000Y-103124000D01*
X129230000Y-101865000D02*
X134377000Y-101865000D01*
D36*
X134377000Y-101865000D02*
X134366000Y-101854000D01*
X135382000Y-106045000D02*
X136271000Y-106045000D01*
X136271000Y-106045000D02*
X137590000Y-106045000D01*
D37*
X118110000Y-108270000D02*
X118110000Y-107950000D01*
X118110000Y-107950000D02*
X118995000Y-107065000D01*
X118995000Y-107065000D02*
X122230000Y-107065000D01*
X117155000Y-108270000D02*
X116205000Y-109220000D01*
X118110000Y-108270000D02*
X117155000Y-108270000D01*
X116205000Y-109220000D02*
X116205000Y-111328200D01*
X116205000Y-111328200D02*
X123113800Y-118237000D01*
X123113800Y-118237000D02*
X123063000Y-118237000D01*
X116851000Y-106415000D02*
X122230000Y-106415000D01*
X115062000Y-108204000D02*
X116851000Y-106415000D01*
X115062000Y-113157000D02*
X115062000Y-108204000D01*
X121158000Y-119253000D02*
X115062000Y-113157000D01*
X122230000Y-105765000D02*
X116231000Y-105765000D01*
X116231000Y-105765000D02*
X114046000Y-107950000D01*
X114046000Y-107950000D02*
X114046000Y-115062000D01*
X114046000Y-115062000D02*
X118745000Y-119761000D01*
X115738000Y-105115000D02*
X122230000Y-105115000D01*
X116078000Y-120650000D02*
X112903000Y-117475000D01*
X112903000Y-117475000D02*
X112903000Y-107950000D01*
X112903000Y-107950000D02*
X115738000Y-105115000D01*
X122230000Y-104465000D02*
X114991000Y-104465000D01*
X111633000Y-118364000D02*
X114427000Y-121158000D01*
X111633000Y-107823000D02*
X111633000Y-118364000D01*
X114991000Y-104465000D02*
X111633000Y-107823000D01*
X121920000Y-97620000D02*
X120820000Y-97620000D01*
X120631000Y-100565000D02*
X122230000Y-100565000D01*
X120015000Y-99949000D02*
X120631000Y-100565000D01*
X120015000Y-98425000D02*
X120015000Y-99949000D01*
X120820000Y-97620000D02*
X120015000Y-98425000D01*
X120015000Y-98425000D02*
X120015000Y-98425000D01*
D38*
X169418000Y-122513600D02*
X169418000Y-123571000D01*
X169494200Y-123647200D02*
X169545000Y-123647200D01*
X169418000Y-123571000D02*
X169494200Y-123647200D01*
D37*
X137590000Y-108585000D02*
X138912600Y-108585000D01*
X138912600Y-108585000D02*
X139649200Y-109321600D01*
D36*
X157352000Y-119151400D02*
X154660600Y-119151400D01*
X154660600Y-119151400D02*
X154076400Y-119735600D01*
X157352000Y-120421400D02*
X157352000Y-119151400D01*
D37*
X129230000Y-107065000D02*
X130806000Y-107065000D01*
X130806000Y-107065000D02*
X130810000Y-107061000D01*
X122230000Y-101215000D02*
X120015000Y-101215000D01*
X137590000Y-100965000D02*
X137541000Y-101092000D01*
X120015000Y-101215000D02*
X119937998Y-101215000D01*
X120015000Y-101215000D02*
X120011000Y-101215000D01*
X120011000Y-101215000D02*
X119634000Y-100838000D01*
D11*
X158233000Y-92389600D02*
X157698800Y-92389600D01*
X157698800Y-92389600D02*
X157337800Y-92750600D01*
X157337800Y-92750600D02*
X157337800Y-94691200D01*
X151211400Y-91394400D02*
X155152200Y-91394400D01*
X150510200Y-90693200D02*
X151211400Y-91394400D01*
X146558000Y-90693200D02*
X150510200Y-90693200D01*
X158318800Y-91393200D02*
X156914800Y-91393200D01*
X156914800Y-91393200D02*
X156814400Y-91292800D01*
D35*
X156921200Y-88900000D02*
X156921200Y-89865200D01*
X156921200Y-91186000D02*
X156814400Y-91292800D01*
X156921200Y-89865200D02*
X156921200Y-91186000D01*
D11*
X154542600Y-91892000D02*
X150388200Y-91892000D01*
X150053000Y-91556800D02*
X148488400Y-91556800D01*
X150388200Y-91892000D02*
X150053000Y-91556800D01*
X154517200Y-91892000D02*
X156215200Y-91892000D01*
X156215200Y-91892000D02*
X156814400Y-91292800D01*
X168808400Y-88950800D02*
X166913600Y-88950800D01*
X170510200Y-90652600D02*
X168808400Y-88950800D01*
X170510200Y-91643200D02*
X170510200Y-90652600D01*
X170210600Y-91942800D02*
X170510200Y-91643200D01*
X165013600Y-88950800D02*
X165013600Y-90154800D01*
X165013600Y-90154800D02*
X164220800Y-90947600D01*
X162026600Y-94503200D02*
X162026600Y-92069800D01*
X162026600Y-92069800D02*
X162153600Y-91942800D01*
X160502600Y-88823800D02*
X160502600Y-89916000D01*
X162529400Y-91942800D02*
X162153600Y-91942800D01*
X160502600Y-89916000D02*
X162529400Y-91942800D01*
X162584200Y-91949200D02*
X162560000Y-91973400D01*
D35*
X135890000Y-114300000D02*
X136804400Y-113385600D01*
X136804400Y-113385600D02*
X137126980Y-113385600D01*
X131132580Y-113436400D02*
X130911600Y-113436400D01*
X130911600Y-113436400D02*
X129895600Y-114452400D01*
D37*
X129895600Y-114452400D02*
X130911600Y-113436400D01*
D35*
X124917200Y-113436400D02*
X126357380Y-113436400D01*
X124866400Y-113487200D02*
X124917200Y-113436400D01*
D36*
X166752000Y-107721400D02*
X169122600Y-107721400D01*
X169122600Y-107721400D02*
X169265600Y-107864400D01*
X157352000Y-106451400D02*
X161518600Y-106451400D01*
X162788600Y-107721400D02*
X166752000Y-107721400D01*
X161518600Y-106451400D02*
X162788600Y-107721400D01*
D11*
X166700800Y-90944000D02*
X168796400Y-90944000D01*
X168796400Y-90944000D02*
X168833800Y-90906600D01*
X165221800Y-91445200D02*
X166945200Y-91445200D01*
X164724200Y-91942800D02*
X165221800Y-91445200D01*
X166691200Y-91942800D02*
X170210600Y-91942800D01*
X166665800Y-92440400D02*
X169859600Y-92440400D01*
X164220800Y-90947600D02*
X163635800Y-90947600D01*
X163737400Y-91445200D02*
X164459800Y-91445200D01*
X163585000Y-92491200D02*
X163585000Y-97087800D01*
X163600800Y-91944000D02*
X162584200Y-91949200D01*
X163686600Y-91942800D02*
X164724200Y-91942800D01*
D39*
G36*
X184385681Y-68701281D02*
X184037077Y-69540811D01*
X184036284Y-70449841D01*
X184383422Y-71289978D01*
X185025641Y-71933319D01*
X185865171Y-72281923D01*
X186774201Y-72282716D01*
X187614338Y-71935578D01*
X188257679Y-71293359D01*
X188606283Y-70453829D01*
X188607076Y-69544799D01*
X188259938Y-68704662D01*
X187678292Y-68122000D01*
X191085000Y-68122000D01*
X191085000Y-76686954D01*
X191065000Y-76787500D01*
X191065000Y-97990000D01*
X171425000Y-97990000D01*
X171162862Y-98042143D01*
X170940632Y-98190632D01*
X170792143Y-98412862D01*
X170740000Y-98675000D01*
X170740000Y-116400000D01*
X170786325Y-116632890D01*
X170752367Y-116618789D01*
X170320727Y-116618412D01*
X169921800Y-116783246D01*
X169616318Y-117088195D01*
X169450789Y-117486833D01*
X169450412Y-117918473D01*
X169615246Y-118317400D01*
X169882634Y-118585255D01*
X169101728Y-119366160D01*
X168793000Y-119366160D01*
X168557683Y-119410438D01*
X168439635Y-119486400D01*
X168392352Y-119486400D01*
X168399440Y-119451400D01*
X168399440Y-118851400D01*
X168355162Y-118616083D01*
X168216090Y-118399959D01*
X168003890Y-118254969D01*
X167752000Y-118203960D01*
X165752000Y-118203960D01*
X165516683Y-118248238D01*
X165300559Y-118387310D01*
X165155569Y-118599510D01*
X165104560Y-118851400D01*
X165104560Y-119451400D01*
X165148838Y-119686717D01*
X165212678Y-119785928D01*
X165155569Y-119869510D01*
X165104560Y-120121400D01*
X165104560Y-120721400D01*
X165138919Y-120904000D01*
X158962463Y-120904000D01*
X158999440Y-120721400D01*
X158999440Y-120121400D01*
X158955162Y-119886083D01*
X158891322Y-119786872D01*
X158948431Y-119703290D01*
X158999440Y-119451400D01*
X158999440Y-118851400D01*
X158955162Y-118616083D01*
X158816090Y-118399959D01*
X158603890Y-118254969D01*
X158352000Y-118203960D01*
X156352000Y-118203960D01*
X156285887Y-118216400D01*
X154660605Y-118216400D01*
X154660600Y-118216399D01*
X154362156Y-118275764D01*
X154302791Y-118287573D01*
X154153524Y-118387310D01*
X153999455Y-118490255D01*
X153823646Y-118666064D01*
X153462600Y-118815246D01*
X153442433Y-118835378D01*
X147409183Y-110150150D01*
X168005600Y-110150150D01*
X168005600Y-110490709D01*
X168102273Y-110724098D01*
X168280901Y-110902727D01*
X168514290Y-110999400D01*
X168979850Y-110999400D01*
X169138600Y-110840650D01*
X169138600Y-109991400D01*
X169392600Y-109991400D01*
X169392600Y-110840650D01*
X169551350Y-110999400D01*
X170016910Y-110999400D01*
X170250299Y-110902727D01*
X170428927Y-110724098D01*
X170525600Y-110490709D01*
X170525600Y-110150150D01*
X170366850Y-109991400D01*
X169392600Y-109991400D01*
X169138600Y-109991400D01*
X168164350Y-109991400D01*
X168005600Y-110150150D01*
X147409183Y-110150150D01*
X146971445Y-109520000D01*
X147017002Y-109520000D01*
X147017002Y-109361252D01*
X147175750Y-109520000D01*
X147766309Y-109520000D01*
X147999698Y-109423327D01*
X148178327Y-109244699D01*
X148275000Y-109011310D01*
X148275000Y-108870750D01*
X148116250Y-108712000D01*
X147017000Y-108712000D01*
X147017000Y-108732000D01*
X146763000Y-108732000D01*
X146763000Y-108712000D01*
X146743000Y-108712000D01*
X146743000Y-108458000D01*
X146763000Y-108458000D01*
X146763000Y-108438000D01*
X147017000Y-108438000D01*
X147017000Y-108458000D01*
X148116250Y-108458000D01*
X148275000Y-108299250D01*
X148275000Y-108158690D01*
X148185194Y-107941878D01*
X148236431Y-107866890D01*
X148287440Y-107615000D01*
X148287440Y-107015000D01*
X148243162Y-106779683D01*
X148179322Y-106680472D01*
X148236431Y-106596890D01*
X148287440Y-106345000D01*
X148287440Y-105745000D01*
X148280854Y-105710000D01*
X154457400Y-105710000D01*
X154815209Y-105638827D01*
X155118545Y-105436145D01*
X155712500Y-104842190D01*
X155704560Y-104881400D01*
X155704560Y-105481400D01*
X155748838Y-105716717D01*
X155812678Y-105815928D01*
X155755569Y-105899510D01*
X155704560Y-106151400D01*
X155704560Y-106751400D01*
X155748838Y-106986717D01*
X155812678Y-107085928D01*
X155755569Y-107169510D01*
X155704560Y-107421400D01*
X155704560Y-108021400D01*
X155748838Y-108256717D01*
X155887910Y-108472841D01*
X156100110Y-108617831D01*
X156352000Y-108668840D01*
X158352000Y-108668840D01*
X158587317Y-108624562D01*
X158803441Y-108485490D01*
X158948431Y-108273290D01*
X158999440Y-108021400D01*
X158999440Y-107421400D01*
X158992854Y-107386400D01*
X161131310Y-107386400D01*
X162127455Y-108382545D01*
X162430791Y-108585227D01*
X162788600Y-108656400D01*
X165690569Y-108656400D01*
X165752000Y-108668840D01*
X167752000Y-108668840D01*
X167818113Y-108656400D01*
X168073913Y-108656400D01*
X168176510Y-108815841D01*
X168244606Y-108862369D01*
X168102273Y-109004702D01*
X168005600Y-109238091D01*
X168005600Y-109578650D01*
X168164350Y-109737400D01*
X169138600Y-109737400D01*
X169138600Y-109717400D01*
X169392600Y-109717400D01*
X169392600Y-109737400D01*
X170366850Y-109737400D01*
X170525600Y-109578650D01*
X170525600Y-109238091D01*
X170428927Y-109004702D01*
X170287690Y-108863464D01*
X170342041Y-108828490D01*
X170487031Y-108616290D01*
X170538040Y-108364400D01*
X170538040Y-107364400D01*
X170493762Y-107129083D01*
X170354690Y-106912959D01*
X170142490Y-106767969D01*
X169890600Y-106716960D01*
X168640600Y-106716960D01*
X168405283Y-106761238D01*
X168387000Y-106773003D01*
X168387000Y-106737150D01*
X168228250Y-106578400D01*
X166879000Y-106578400D01*
X166879000Y-106598400D01*
X166625000Y-106598400D01*
X166625000Y-106578400D01*
X165275750Y-106578400D01*
X165117000Y-106737150D01*
X165117000Y-106786400D01*
X163175890Y-106786400D01*
X162179745Y-105790255D01*
X161876409Y-105587573D01*
X161518600Y-105516400D01*
X158992352Y-105516400D01*
X158999440Y-105481400D01*
X158999440Y-104881400D01*
X165104560Y-104881400D01*
X165104560Y-105481400D01*
X165148838Y-105716717D01*
X165207178Y-105807380D01*
X165117000Y-106025090D01*
X165117000Y-106165650D01*
X165275750Y-106324400D01*
X166625000Y-106324400D01*
X166625000Y-106304400D01*
X166879000Y-106304400D01*
X166879000Y-106324400D01*
X168228250Y-106324400D01*
X168387000Y-106165650D01*
X168387000Y-106116400D01*
X168757600Y-106116400D01*
X169115409Y-106045227D01*
X169418745Y-105842545D01*
X169910745Y-105350545D01*
X170113427Y-105047209D01*
X170184600Y-104689400D01*
X170184600Y-101837952D01*
X170334411Y-101477167D01*
X170334788Y-101045527D01*
X170169954Y-100646600D01*
X169865005Y-100341118D01*
X169466367Y-100175589D01*
X169034727Y-100175212D01*
X168913263Y-100225400D01*
X167946397Y-100225400D01*
X167856490Y-100163969D01*
X167604600Y-100112960D01*
X166354600Y-100112960D01*
X166119283Y-100157238D01*
X165903159Y-100296310D01*
X165758169Y-100508510D01*
X165707160Y-100760400D01*
X165707160Y-101760400D01*
X165751438Y-101995717D01*
X165890510Y-102211841D01*
X165958606Y-102258369D01*
X165816273Y-102400702D01*
X165719600Y-102634091D01*
X165719600Y-102974650D01*
X165878350Y-103133400D01*
X166852600Y-103133400D01*
X166852600Y-103113400D01*
X167106600Y-103113400D01*
X167106600Y-103133400D01*
X168080850Y-103133400D01*
X168239600Y-102974650D01*
X168239600Y-102634091D01*
X168142927Y-102400702D01*
X168037626Y-102295400D01*
X168314600Y-102295400D01*
X168314600Y-104246400D01*
X168016626Y-104246400D01*
X168142927Y-104120098D01*
X168239600Y-103886709D01*
X168239600Y-103546150D01*
X168080850Y-103387400D01*
X167106600Y-103387400D01*
X167106600Y-103407400D01*
X166852600Y-103407400D01*
X166852600Y-103387400D01*
X165878350Y-103387400D01*
X165719600Y-103546150D01*
X165719600Y-103886709D01*
X165816273Y-104120098D01*
X165930134Y-104233960D01*
X165752000Y-104233960D01*
X165516683Y-104278238D01*
X165300559Y-104417310D01*
X165155569Y-104629510D01*
X165104560Y-104881400D01*
X158999440Y-104881400D01*
X158955162Y-104646083D01*
X158816090Y-104429959D01*
X158603890Y-104284969D01*
X158352000Y-104233960D01*
X156352000Y-104233960D01*
X156313482Y-104241208D01*
X160000890Y-100553800D01*
X164693600Y-100553800D01*
X165051409Y-100482627D01*
X165354745Y-100279945D01*
X169825489Y-95809201D01*
X184033744Y-95809201D01*
X184380882Y-96649338D01*
X185023101Y-97292679D01*
X185862631Y-97641283D01*
X186771661Y-97642076D01*
X187611798Y-97294938D01*
X188255139Y-96652719D01*
X188603743Y-95813189D01*
X188604536Y-94904159D01*
X188257398Y-94064022D01*
X187615179Y-93420681D01*
X186775649Y-93072077D01*
X185866619Y-93071284D01*
X185026482Y-93418422D01*
X184383141Y-94060641D01*
X184034537Y-94900171D01*
X184033744Y-95809201D01*
X169825489Y-95809201D01*
X171339957Y-94294733D01*
X176450732Y-94294733D01*
X176520197Y-94536917D01*
X177043642Y-94723664D01*
X177598708Y-94695882D01*
X177982483Y-94536917D01*
X178051948Y-94294733D01*
X177251340Y-93494125D01*
X176450732Y-94294733D01*
X171339957Y-94294733D01*
X172464754Y-93169936D01*
X172617500Y-93106822D01*
X175842196Y-93106822D01*
X175869978Y-93661888D01*
X176028943Y-94045663D01*
X176271127Y-94115128D01*
X177071735Y-93314520D01*
X177430945Y-93314520D01*
X178231553Y-94115128D01*
X178473737Y-94045663D01*
X178660484Y-93522218D01*
X178632702Y-92967152D01*
X178473737Y-92583377D01*
X178231553Y-92513912D01*
X177430945Y-93314520D01*
X177071735Y-93314520D01*
X176271127Y-92513912D01*
X176028943Y-92583377D01*
X175842196Y-93106822D01*
X172617500Y-93106822D01*
X172825800Y-93020754D01*
X173131282Y-92715805D01*
X173296811Y-92317167D01*
X173297188Y-91885527D01*
X173132354Y-91486600D01*
X172827405Y-91181118D01*
X172606412Y-91089354D01*
X172622262Y-91051181D01*
X175854098Y-91051181D01*
X176066330Y-91564823D01*
X176458970Y-91958149D01*
X176651067Y-92037915D01*
X176520197Y-92092123D01*
X176450732Y-92334307D01*
X177251340Y-93134915D01*
X178051948Y-92334307D01*
X178048184Y-92321181D01*
X178394098Y-92321181D01*
X178606330Y-92834823D01*
X178998970Y-93228149D01*
X179512240Y-93441277D01*
X180068001Y-93441762D01*
X180581643Y-93229530D01*
X180974969Y-92836890D01*
X181188097Y-92323620D01*
X181188582Y-91767859D01*
X180976350Y-91254217D01*
X180583710Y-90860891D01*
X180391613Y-90781125D01*
X180522483Y-90726917D01*
X180591948Y-90484733D01*
X179791340Y-89684125D01*
X178990732Y-90484733D01*
X179060197Y-90726917D01*
X179200658Y-90777029D01*
X179001037Y-90859510D01*
X178607711Y-91252150D01*
X178394583Y-91765420D01*
X178394098Y-92321181D01*
X178048184Y-92321181D01*
X177982483Y-92092123D01*
X177842022Y-92042011D01*
X178041643Y-91959530D01*
X178434969Y-91566890D01*
X178648097Y-91053620D01*
X178648582Y-90497859D01*
X178436350Y-89984217D01*
X178043710Y-89590891D01*
X177851613Y-89511125D01*
X177982483Y-89456917D01*
X178028402Y-89296822D01*
X178382196Y-89296822D01*
X178409978Y-89851888D01*
X178568943Y-90235663D01*
X178811127Y-90305128D01*
X179611735Y-89504520D01*
X179970945Y-89504520D01*
X180771553Y-90305128D01*
X181013737Y-90235663D01*
X181200484Y-89712218D01*
X181172702Y-89157152D01*
X181013737Y-88773377D01*
X180771553Y-88703912D01*
X179970945Y-89504520D01*
X179611735Y-89504520D01*
X178811127Y-88703912D01*
X178568943Y-88773377D01*
X178382196Y-89296822D01*
X178028402Y-89296822D01*
X178051948Y-89214733D01*
X177251340Y-88414125D01*
X176450732Y-89214733D01*
X176520197Y-89456917D01*
X176660658Y-89507029D01*
X176461037Y-89589510D01*
X176067711Y-89982150D01*
X175854583Y-90495420D01*
X175854098Y-91051181D01*
X172622262Y-91051181D01*
X172687211Y-90894767D01*
X172687588Y-90463127D01*
X172522754Y-90064200D01*
X172217805Y-89758718D01*
X171932825Y-89640384D01*
X170294052Y-88026822D01*
X175842196Y-88026822D01*
X175869978Y-88581888D01*
X176028943Y-88965663D01*
X176271127Y-89035128D01*
X177071735Y-88234520D01*
X177430945Y-88234520D01*
X178231553Y-89035128D01*
X178473737Y-88965663D01*
X178660484Y-88442218D01*
X178632702Y-87887152D01*
X178473737Y-87503377D01*
X178231553Y-87433912D01*
X177430945Y-88234520D01*
X177071735Y-88234520D01*
X176271127Y-87433912D01*
X176028943Y-87503377D01*
X175842196Y-88026822D01*
X170294052Y-88026822D01*
X169509467Y-87254307D01*
X176450732Y-87254307D01*
X177251340Y-88054915D01*
X178051948Y-87254307D01*
X178048184Y-87241181D01*
X178394098Y-87241181D01*
X178606330Y-87754823D01*
X178998970Y-88148149D01*
X179191067Y-88227915D01*
X179060197Y-88282123D01*
X178990732Y-88524307D01*
X179791340Y-89324915D01*
X180591948Y-88524307D01*
X180522483Y-88282123D01*
X180382022Y-88232011D01*
X180581643Y-88149530D01*
X180974969Y-87756890D01*
X181188097Y-87243620D01*
X181188582Y-86687859D01*
X180976350Y-86174217D01*
X180583710Y-85780891D01*
X180070440Y-85567763D01*
X179514679Y-85567278D01*
X179001037Y-85779510D01*
X178607711Y-86172150D01*
X178394583Y-86685420D01*
X178394098Y-87241181D01*
X178048184Y-87241181D01*
X177982483Y-87012123D01*
X177459038Y-86825376D01*
X176903972Y-86853158D01*
X176520197Y-87012123D01*
X176450732Y-87254307D01*
X169509467Y-87254307D01*
X168982197Y-86735150D01*
X168982194Y-86735148D01*
X168956398Y-86709748D01*
X168806902Y-86611526D01*
X168658209Y-86512173D01*
X168654588Y-86511453D01*
X168651500Y-86509424D01*
X168475781Y-86475886D01*
X168300400Y-86441000D01*
X167393979Y-86441000D01*
X167666145Y-86259145D01*
X168200290Y-85725000D01*
X173609000Y-85725000D01*
X173658410Y-85714994D01*
X173700035Y-85686553D01*
X173727315Y-85644159D01*
X173736000Y-85598000D01*
X173736000Y-85435841D01*
X184036284Y-85435841D01*
X184383422Y-86275978D01*
X185025641Y-86919319D01*
X185865171Y-87267923D01*
X186774201Y-87268716D01*
X187614338Y-86921578D01*
X188257679Y-86279359D01*
X188606283Y-85439829D01*
X188607076Y-84530799D01*
X188259938Y-83690662D01*
X187617719Y-83047321D01*
X186778189Y-82698717D01*
X185869159Y-82697924D01*
X185029022Y-83045062D01*
X184385681Y-83687281D01*
X184037077Y-84526811D01*
X184036284Y-85435841D01*
X173736000Y-85435841D01*
X173736000Y-80823201D01*
X184033744Y-80823201D01*
X184380882Y-81663338D01*
X185023101Y-82306679D01*
X185862631Y-82655283D01*
X186771661Y-82656076D01*
X187611798Y-82308938D01*
X188255139Y-81666719D01*
X188603743Y-80827189D01*
X188604536Y-79918159D01*
X188257398Y-79078022D01*
X187615179Y-78434681D01*
X186775649Y-78086077D01*
X185866619Y-78085284D01*
X185026482Y-78432422D01*
X184383141Y-79074641D01*
X184034537Y-79914171D01*
X184033744Y-80823201D01*
X173736000Y-80823201D01*
X173736000Y-79308733D01*
X176450732Y-79308733D01*
X176520197Y-79550917D01*
X177043642Y-79737664D01*
X177598708Y-79709882D01*
X177982483Y-79550917D01*
X178051948Y-79308733D01*
X177251340Y-78508125D01*
X176450732Y-79308733D01*
X173736000Y-79308733D01*
X173736000Y-78120822D01*
X175842196Y-78120822D01*
X175869978Y-78675888D01*
X176028943Y-79059663D01*
X176271127Y-79129128D01*
X177071735Y-78328520D01*
X177430945Y-78328520D01*
X178231553Y-79129128D01*
X178473737Y-79059663D01*
X178660484Y-78536218D01*
X178632702Y-77981152D01*
X178473737Y-77597377D01*
X178231553Y-77527912D01*
X177430945Y-78328520D01*
X177071735Y-78328520D01*
X176271127Y-77527912D01*
X176028943Y-77597377D01*
X175842196Y-78120822D01*
X173736000Y-78120822D01*
X173736000Y-77216000D01*
X173725994Y-77166590D01*
X173697553Y-77124965D01*
X173655159Y-77097685D01*
X173609000Y-77089000D01*
X172846476Y-77089000D01*
X172897000Y-76835000D01*
X172884369Y-76771500D01*
X172897000Y-76708000D01*
X172897000Y-76065181D01*
X175854098Y-76065181D01*
X176066330Y-76578823D01*
X176458970Y-76972149D01*
X176651067Y-77051915D01*
X176520197Y-77106123D01*
X176450732Y-77348307D01*
X177251340Y-78148915D01*
X178051948Y-77348307D01*
X178048184Y-77335181D01*
X178394098Y-77335181D01*
X178606330Y-77848823D01*
X178998970Y-78242149D01*
X179512240Y-78455277D01*
X180068001Y-78455762D01*
X180581643Y-78243530D01*
X180974969Y-77850890D01*
X181188097Y-77337620D01*
X181188582Y-76781859D01*
X180976350Y-76268217D01*
X180583710Y-75874891D01*
X180391613Y-75795125D01*
X180522483Y-75740917D01*
X180591948Y-75498733D01*
X179791340Y-74698125D01*
X178990732Y-75498733D01*
X179060197Y-75740917D01*
X179200658Y-75791029D01*
X179001037Y-75873510D01*
X178607711Y-76266150D01*
X178394583Y-76779420D01*
X178394098Y-77335181D01*
X178048184Y-77335181D01*
X177982483Y-77106123D01*
X177842022Y-77056011D01*
X178041643Y-76973530D01*
X178434969Y-76580890D01*
X178648097Y-76067620D01*
X178648582Y-75511859D01*
X178436350Y-74998217D01*
X178043710Y-74604891D01*
X177851613Y-74525125D01*
X177982483Y-74470917D01*
X178028402Y-74310822D01*
X178382196Y-74310822D01*
X178409978Y-74865888D01*
X178568943Y-75249663D01*
X178811127Y-75319128D01*
X179611735Y-74518520D01*
X179970945Y-74518520D01*
X180771553Y-75319128D01*
X181013737Y-75249663D01*
X181200484Y-74726218D01*
X181172702Y-74171152D01*
X181013737Y-73787377D01*
X180771553Y-73717912D01*
X179970945Y-74518520D01*
X179611735Y-74518520D01*
X178811127Y-73717912D01*
X178568943Y-73787377D01*
X178382196Y-74310822D01*
X178028402Y-74310822D01*
X178051948Y-74228733D01*
X177251340Y-73428125D01*
X176450732Y-74228733D01*
X176520197Y-74470917D01*
X176660658Y-74521029D01*
X176461037Y-74603510D01*
X176067711Y-74996150D01*
X175854583Y-75509420D01*
X175854098Y-76065181D01*
X172897000Y-76065181D01*
X172897000Y-73040822D01*
X175842196Y-73040822D01*
X175869978Y-73595888D01*
X176028943Y-73979663D01*
X176271127Y-74049128D01*
X177071735Y-73248520D01*
X177430945Y-73248520D01*
X178231553Y-74049128D01*
X178473737Y-73979663D01*
X178660484Y-73456218D01*
X178632702Y-72901152D01*
X178473737Y-72517377D01*
X178231553Y-72447912D01*
X177430945Y-73248520D01*
X177071735Y-73248520D01*
X176271127Y-72447912D01*
X176028943Y-72517377D01*
X175842196Y-73040822D01*
X172897000Y-73040822D01*
X172897000Y-72268307D01*
X176450732Y-72268307D01*
X177251340Y-73068915D01*
X178051948Y-72268307D01*
X178048184Y-72255181D01*
X178394098Y-72255181D01*
X178606330Y-72768823D01*
X178998970Y-73162149D01*
X179191067Y-73241915D01*
X179060197Y-73296123D01*
X178990732Y-73538307D01*
X179791340Y-74338915D01*
X180591948Y-73538307D01*
X180522483Y-73296123D01*
X180382022Y-73246011D01*
X180581643Y-73163530D01*
X180974969Y-72770890D01*
X181188097Y-72257620D01*
X181188582Y-71701859D01*
X180976350Y-71188217D01*
X180583710Y-70794891D01*
X180070440Y-70581763D01*
X179514679Y-70581278D01*
X179001037Y-70793510D01*
X178607711Y-71186150D01*
X178394583Y-71699420D01*
X178394098Y-72255181D01*
X178048184Y-72255181D01*
X177982483Y-72026123D01*
X177459038Y-71839376D01*
X176903972Y-71867158D01*
X176520197Y-72026123D01*
X176450732Y-72268307D01*
X172897000Y-72268307D01*
X172897000Y-68122000D01*
X184965974Y-68122000D01*
X184385681Y-68701281D01*
X184385681Y-68701281D01*
G37*
X184385681Y-68701281D02*
X184037077Y-69540811D01*
X184036284Y-70449841D01*
X184383422Y-71289978D01*
X185025641Y-71933319D01*
X185865171Y-72281923D01*
X186774201Y-72282716D01*
X187614338Y-71935578D01*
X188257679Y-71293359D01*
X188606283Y-70453829D01*
X188607076Y-69544799D01*
X188259938Y-68704662D01*
X187678292Y-68122000D01*
X191085000Y-68122000D01*
X191085000Y-76686954D01*
X191065000Y-76787500D01*
X191065000Y-97990000D01*
X171425000Y-97990000D01*
X171162862Y-98042143D01*
X170940632Y-98190632D01*
X170792143Y-98412862D01*
X170740000Y-98675000D01*
X170740000Y-116400000D01*
X170786325Y-116632890D01*
X170752367Y-116618789D01*
X170320727Y-116618412D01*
X169921800Y-116783246D01*
X169616318Y-117088195D01*
X169450789Y-117486833D01*
X169450412Y-117918473D01*
X169615246Y-118317400D01*
X169882634Y-118585255D01*
X169101728Y-119366160D01*
X168793000Y-119366160D01*
X168557683Y-119410438D01*
X168439635Y-119486400D01*
X168392352Y-119486400D01*
X168399440Y-119451400D01*
X168399440Y-118851400D01*
X168355162Y-118616083D01*
X168216090Y-118399959D01*
X168003890Y-118254969D01*
X167752000Y-118203960D01*
X165752000Y-118203960D01*
X165516683Y-118248238D01*
X165300559Y-118387310D01*
X165155569Y-118599510D01*
X165104560Y-118851400D01*
X165104560Y-119451400D01*
X165148838Y-119686717D01*
X165212678Y-119785928D01*
X165155569Y-119869510D01*
X165104560Y-120121400D01*
X165104560Y-120721400D01*
X165138919Y-120904000D01*
X158962463Y-120904000D01*
X158999440Y-120721400D01*
X158999440Y-120121400D01*
X158955162Y-119886083D01*
X158891322Y-119786872D01*
X158948431Y-119703290D01*
X158999440Y-119451400D01*
X158999440Y-118851400D01*
X158955162Y-118616083D01*
X158816090Y-118399959D01*
X158603890Y-118254969D01*
X158352000Y-118203960D01*
X156352000Y-118203960D01*
X156285887Y-118216400D01*
X154660605Y-118216400D01*
X154660600Y-118216399D01*
X154362156Y-118275764D01*
X154302791Y-118287573D01*
X154153524Y-118387310D01*
X153999455Y-118490255D01*
X153823646Y-118666064D01*
X153462600Y-118815246D01*
X153442433Y-118835378D01*
X147409183Y-110150150D01*
X168005600Y-110150150D01*
X168005600Y-110490709D01*
X168102273Y-110724098D01*
X168280901Y-110902727D01*
X168514290Y-110999400D01*
X168979850Y-110999400D01*
X169138600Y-110840650D01*
X169138600Y-109991400D01*
X169392600Y-109991400D01*
X169392600Y-110840650D01*
X169551350Y-110999400D01*
X170016910Y-110999400D01*
X170250299Y-110902727D01*
X170428927Y-110724098D01*
X170525600Y-110490709D01*
X170525600Y-110150150D01*
X170366850Y-109991400D01*
X169392600Y-109991400D01*
X169138600Y-109991400D01*
X168164350Y-109991400D01*
X168005600Y-110150150D01*
X147409183Y-110150150D01*
X146971445Y-109520000D01*
X147017002Y-109520000D01*
X147017002Y-109361252D01*
X147175750Y-109520000D01*
X147766309Y-109520000D01*
X147999698Y-109423327D01*
X148178327Y-109244699D01*
X148275000Y-109011310D01*
X148275000Y-108870750D01*
X148116250Y-108712000D01*
X147017000Y-108712000D01*
X147017000Y-108732000D01*
X146763000Y-108732000D01*
X146763000Y-108712000D01*
X146743000Y-108712000D01*
X146743000Y-108458000D01*
X146763000Y-108458000D01*
X146763000Y-108438000D01*
X147017000Y-108438000D01*
X147017000Y-108458000D01*
X148116250Y-108458000D01*
X148275000Y-108299250D01*
X148275000Y-108158690D01*
X148185194Y-107941878D01*
X148236431Y-107866890D01*
X148287440Y-107615000D01*
X148287440Y-107015000D01*
X148243162Y-106779683D01*
X148179322Y-106680472D01*
X148236431Y-106596890D01*
X148287440Y-106345000D01*
X148287440Y-105745000D01*
X148280854Y-105710000D01*
X154457400Y-105710000D01*
X154815209Y-105638827D01*
X155118545Y-105436145D01*
X155712500Y-104842190D01*
X155704560Y-104881400D01*
X155704560Y-105481400D01*
X155748838Y-105716717D01*
X155812678Y-105815928D01*
X155755569Y-105899510D01*
X155704560Y-106151400D01*
X155704560Y-106751400D01*
X155748838Y-106986717D01*
X155812678Y-107085928D01*
X155755569Y-107169510D01*
X155704560Y-107421400D01*
X155704560Y-108021400D01*
X155748838Y-108256717D01*
X155887910Y-108472841D01*
X156100110Y-108617831D01*
X156352000Y-108668840D01*
X158352000Y-108668840D01*
X158587317Y-108624562D01*
X158803441Y-108485490D01*
X158948431Y-108273290D01*
X158999440Y-108021400D01*
X158999440Y-107421400D01*
X158992854Y-107386400D01*
X161131310Y-107386400D01*
X162127455Y-108382545D01*
X162430791Y-108585227D01*
X162788600Y-108656400D01*
X165690569Y-108656400D01*
X165752000Y-108668840D01*
X167752000Y-108668840D01*
X167818113Y-108656400D01*
X168073913Y-108656400D01*
X168176510Y-108815841D01*
X168244606Y-108862369D01*
X168102273Y-109004702D01*
X168005600Y-109238091D01*
X168005600Y-109578650D01*
X168164350Y-109737400D01*
X169138600Y-109737400D01*
X169138600Y-109717400D01*
X169392600Y-109717400D01*
X169392600Y-109737400D01*
X170366850Y-109737400D01*
X170525600Y-109578650D01*
X170525600Y-109238091D01*
X170428927Y-109004702D01*
X170287690Y-108863464D01*
X170342041Y-108828490D01*
X170487031Y-108616290D01*
X170538040Y-108364400D01*
X170538040Y-107364400D01*
X170493762Y-107129083D01*
X170354690Y-106912959D01*
X170142490Y-106767969D01*
X169890600Y-106716960D01*
X168640600Y-106716960D01*
X168405283Y-106761238D01*
X168387000Y-106773003D01*
X168387000Y-106737150D01*
X168228250Y-106578400D01*
X166879000Y-106578400D01*
X166879000Y-106598400D01*
X166625000Y-106598400D01*
X166625000Y-106578400D01*
X165275750Y-106578400D01*
X165117000Y-106737150D01*
X165117000Y-106786400D01*
X163175890Y-106786400D01*
X162179745Y-105790255D01*
X161876409Y-105587573D01*
X161518600Y-105516400D01*
X158992352Y-105516400D01*
X158999440Y-105481400D01*
X158999440Y-104881400D01*
X165104560Y-104881400D01*
X165104560Y-105481400D01*
X165148838Y-105716717D01*
X165207178Y-105807380D01*
X165117000Y-106025090D01*
X165117000Y-106165650D01*
X165275750Y-106324400D01*
X166625000Y-106324400D01*
X166625000Y-106304400D01*
X166879000Y-106304400D01*
X166879000Y-106324400D01*
X168228250Y-106324400D01*
X168387000Y-106165650D01*
X168387000Y-106116400D01*
X168757600Y-106116400D01*
X169115409Y-106045227D01*
X169418745Y-105842545D01*
X169910745Y-105350545D01*
X170113427Y-105047209D01*
X170184600Y-104689400D01*
X170184600Y-101837952D01*
X170334411Y-101477167D01*
X170334788Y-101045527D01*
X170169954Y-100646600D01*
X169865005Y-100341118D01*
X169466367Y-100175589D01*
X169034727Y-100175212D01*
X168913263Y-100225400D01*
X167946397Y-100225400D01*
X167856490Y-100163969D01*
X167604600Y-100112960D01*
X166354600Y-100112960D01*
X166119283Y-100157238D01*
X165903159Y-100296310D01*
X165758169Y-100508510D01*
X165707160Y-100760400D01*
X165707160Y-101760400D01*
X165751438Y-101995717D01*
X165890510Y-102211841D01*
X165958606Y-102258369D01*
X165816273Y-102400702D01*
X165719600Y-102634091D01*
X165719600Y-102974650D01*
X165878350Y-103133400D01*
X166852600Y-103133400D01*
X166852600Y-103113400D01*
X167106600Y-103113400D01*
X167106600Y-103133400D01*
X168080850Y-103133400D01*
X168239600Y-102974650D01*
X168239600Y-102634091D01*
X168142927Y-102400702D01*
X168037626Y-102295400D01*
X168314600Y-102295400D01*
X168314600Y-104246400D01*
X168016626Y-104246400D01*
X168142927Y-104120098D01*
X168239600Y-103886709D01*
X168239600Y-103546150D01*
X168080850Y-103387400D01*
X167106600Y-103387400D01*
X167106600Y-103407400D01*
X166852600Y-103407400D01*
X166852600Y-103387400D01*
X165878350Y-103387400D01*
X165719600Y-103546150D01*
X165719600Y-103886709D01*
X165816273Y-104120098D01*
X165930134Y-104233960D01*
X165752000Y-104233960D01*
X165516683Y-104278238D01*
X165300559Y-104417310D01*
X165155569Y-104629510D01*
X165104560Y-104881400D01*
X158999440Y-104881400D01*
X158955162Y-104646083D01*
X158816090Y-104429959D01*
X158603890Y-104284969D01*
X158352000Y-104233960D01*
X156352000Y-104233960D01*
X156313482Y-104241208D01*
X160000890Y-100553800D01*
X164693600Y-100553800D01*
X165051409Y-100482627D01*
X165354745Y-100279945D01*
X169825489Y-95809201D01*
X184033744Y-95809201D01*
X184380882Y-96649338D01*
X185023101Y-97292679D01*
X185862631Y-97641283D01*
X186771661Y-97642076D01*
X187611798Y-97294938D01*
X188255139Y-96652719D01*
X188603743Y-95813189D01*
X188604536Y-94904159D01*
X188257398Y-94064022D01*
X187615179Y-93420681D01*
X186775649Y-93072077D01*
X185866619Y-93071284D01*
X185026482Y-93418422D01*
X184383141Y-94060641D01*
X184034537Y-94900171D01*
X184033744Y-95809201D01*
X169825489Y-95809201D01*
X171339957Y-94294733D01*
X176450732Y-94294733D01*
X176520197Y-94536917D01*
X177043642Y-94723664D01*
X177598708Y-94695882D01*
X177982483Y-94536917D01*
X178051948Y-94294733D01*
X177251340Y-93494125D01*
X176450732Y-94294733D01*
X171339957Y-94294733D01*
X172464754Y-93169936D01*
X172617500Y-93106822D01*
X175842196Y-93106822D01*
X175869978Y-93661888D01*
X176028943Y-94045663D01*
X176271127Y-94115128D01*
X177071735Y-93314520D01*
X177430945Y-93314520D01*
X178231553Y-94115128D01*
X178473737Y-94045663D01*
X178660484Y-93522218D01*
X178632702Y-92967152D01*
X178473737Y-92583377D01*
X178231553Y-92513912D01*
X177430945Y-93314520D01*
X177071735Y-93314520D01*
X176271127Y-92513912D01*
X176028943Y-92583377D01*
X175842196Y-93106822D01*
X172617500Y-93106822D01*
X172825800Y-93020754D01*
X173131282Y-92715805D01*
X173296811Y-92317167D01*
X173297188Y-91885527D01*
X173132354Y-91486600D01*
X172827405Y-91181118D01*
X172606412Y-91089354D01*
X172622262Y-91051181D01*
X175854098Y-91051181D01*
X176066330Y-91564823D01*
X176458970Y-91958149D01*
X176651067Y-92037915D01*
X176520197Y-92092123D01*
X176450732Y-92334307D01*
X177251340Y-93134915D01*
X178051948Y-92334307D01*
X178048184Y-92321181D01*
X178394098Y-92321181D01*
X178606330Y-92834823D01*
X178998970Y-93228149D01*
X179512240Y-93441277D01*
X180068001Y-93441762D01*
X180581643Y-93229530D01*
X180974969Y-92836890D01*
X181188097Y-92323620D01*
X181188582Y-91767859D01*
X180976350Y-91254217D01*
X180583710Y-90860891D01*
X180391613Y-90781125D01*
X180522483Y-90726917D01*
X180591948Y-90484733D01*
X179791340Y-89684125D01*
X178990732Y-90484733D01*
X179060197Y-90726917D01*
X179200658Y-90777029D01*
X179001037Y-90859510D01*
X178607711Y-91252150D01*
X178394583Y-91765420D01*
X178394098Y-92321181D01*
X178048184Y-92321181D01*
X177982483Y-92092123D01*
X177842022Y-92042011D01*
X178041643Y-91959530D01*
X178434969Y-91566890D01*
X178648097Y-91053620D01*
X178648582Y-90497859D01*
X178436350Y-89984217D01*
X178043710Y-89590891D01*
X177851613Y-89511125D01*
X177982483Y-89456917D01*
X178028402Y-89296822D01*
X178382196Y-89296822D01*
X178409978Y-89851888D01*
X178568943Y-90235663D01*
X178811127Y-90305128D01*
X179611735Y-89504520D01*
X179970945Y-89504520D01*
X180771553Y-90305128D01*
X181013737Y-90235663D01*
X181200484Y-89712218D01*
X181172702Y-89157152D01*
X181013737Y-88773377D01*
X180771553Y-88703912D01*
X179970945Y-89504520D01*
X179611735Y-89504520D01*
X178811127Y-88703912D01*
X178568943Y-88773377D01*
X178382196Y-89296822D01*
X178028402Y-89296822D01*
X178051948Y-89214733D01*
X177251340Y-88414125D01*
X176450732Y-89214733D01*
X176520197Y-89456917D01*
X176660658Y-89507029D01*
X176461037Y-89589510D01*
X176067711Y-89982150D01*
X175854583Y-90495420D01*
X175854098Y-91051181D01*
X172622262Y-91051181D01*
X172687211Y-90894767D01*
X172687588Y-90463127D01*
X172522754Y-90064200D01*
X172217805Y-89758718D01*
X171932825Y-89640384D01*
X170294052Y-88026822D01*
X175842196Y-88026822D01*
X175869978Y-88581888D01*
X176028943Y-88965663D01*
X176271127Y-89035128D01*
X177071735Y-88234520D01*
X177430945Y-88234520D01*
X178231553Y-89035128D01*
X178473737Y-88965663D01*
X178660484Y-88442218D01*
X178632702Y-87887152D01*
X178473737Y-87503377D01*
X178231553Y-87433912D01*
X177430945Y-88234520D01*
X177071735Y-88234520D01*
X176271127Y-87433912D01*
X176028943Y-87503377D01*
X175842196Y-88026822D01*
X170294052Y-88026822D01*
X169509467Y-87254307D01*
X176450732Y-87254307D01*
X177251340Y-88054915D01*
X178051948Y-87254307D01*
X178048184Y-87241181D01*
X178394098Y-87241181D01*
X178606330Y-87754823D01*
X178998970Y-88148149D01*
X179191067Y-88227915D01*
X179060197Y-88282123D01*
X178990732Y-88524307D01*
X179791340Y-89324915D01*
X180591948Y-88524307D01*
X180522483Y-88282123D01*
X180382022Y-88232011D01*
X180581643Y-88149530D01*
X180974969Y-87756890D01*
X181188097Y-87243620D01*
X181188582Y-86687859D01*
X180976350Y-86174217D01*
X180583710Y-85780891D01*
X180070440Y-85567763D01*
X179514679Y-85567278D01*
X179001037Y-85779510D01*
X178607711Y-86172150D01*
X178394583Y-86685420D01*
X178394098Y-87241181D01*
X178048184Y-87241181D01*
X177982483Y-87012123D01*
X177459038Y-86825376D01*
X176903972Y-86853158D01*
X176520197Y-87012123D01*
X176450732Y-87254307D01*
X169509467Y-87254307D01*
X168982197Y-86735150D01*
X168982194Y-86735148D01*
X168956398Y-86709748D01*
X168806902Y-86611526D01*
X168658209Y-86512173D01*
X168654588Y-86511453D01*
X168651500Y-86509424D01*
X168475781Y-86475886D01*
X168300400Y-86441000D01*
X167393979Y-86441000D01*
X167666145Y-86259145D01*
X168200290Y-85725000D01*
X173609000Y-85725000D01*
X173658410Y-85714994D01*
X173700035Y-85686553D01*
X173727315Y-85644159D01*
X173736000Y-85598000D01*
X173736000Y-85435841D01*
X184036284Y-85435841D01*
X184383422Y-86275978D01*
X185025641Y-86919319D01*
X185865171Y-87267923D01*
X186774201Y-87268716D01*
X187614338Y-86921578D01*
X188257679Y-86279359D01*
X188606283Y-85439829D01*
X188607076Y-84530799D01*
X188259938Y-83690662D01*
X187617719Y-83047321D01*
X186778189Y-82698717D01*
X185869159Y-82697924D01*
X185029022Y-83045062D01*
X184385681Y-83687281D01*
X184037077Y-84526811D01*
X184036284Y-85435841D01*
X173736000Y-85435841D01*
X173736000Y-80823201D01*
X184033744Y-80823201D01*
X184380882Y-81663338D01*
X185023101Y-82306679D01*
X185862631Y-82655283D01*
X186771661Y-82656076D01*
X187611798Y-82308938D01*
X188255139Y-81666719D01*
X188603743Y-80827189D01*
X188604536Y-79918159D01*
X188257398Y-79078022D01*
X187615179Y-78434681D01*
X186775649Y-78086077D01*
X185866619Y-78085284D01*
X185026482Y-78432422D01*
X184383141Y-79074641D01*
X184034537Y-79914171D01*
X184033744Y-80823201D01*
X173736000Y-80823201D01*
X173736000Y-79308733D01*
X176450732Y-79308733D01*
X176520197Y-79550917D01*
X177043642Y-79737664D01*
X177598708Y-79709882D01*
X177982483Y-79550917D01*
X178051948Y-79308733D01*
X177251340Y-78508125D01*
X176450732Y-79308733D01*
X173736000Y-79308733D01*
X173736000Y-78120822D01*
X175842196Y-78120822D01*
X175869978Y-78675888D01*
X176028943Y-79059663D01*
X176271127Y-79129128D01*
X177071735Y-78328520D01*
X177430945Y-78328520D01*
X178231553Y-79129128D01*
X178473737Y-79059663D01*
X178660484Y-78536218D01*
X178632702Y-77981152D01*
X178473737Y-77597377D01*
X178231553Y-77527912D01*
X177430945Y-78328520D01*
X177071735Y-78328520D01*
X176271127Y-77527912D01*
X176028943Y-77597377D01*
X175842196Y-78120822D01*
X173736000Y-78120822D01*
X173736000Y-77216000D01*
X173725994Y-77166590D01*
X173697553Y-77124965D01*
X173655159Y-77097685D01*
X173609000Y-77089000D01*
X172846476Y-77089000D01*
X172897000Y-76835000D01*
X172884369Y-76771500D01*
X172897000Y-76708000D01*
X172897000Y-76065181D01*
X175854098Y-76065181D01*
X176066330Y-76578823D01*
X176458970Y-76972149D01*
X176651067Y-77051915D01*
X176520197Y-77106123D01*
X176450732Y-77348307D01*
X177251340Y-78148915D01*
X178051948Y-77348307D01*
X178048184Y-77335181D01*
X178394098Y-77335181D01*
X178606330Y-77848823D01*
X178998970Y-78242149D01*
X179512240Y-78455277D01*
X180068001Y-78455762D01*
X180581643Y-78243530D01*
X180974969Y-77850890D01*
X181188097Y-77337620D01*
X181188582Y-76781859D01*
X180976350Y-76268217D01*
X180583710Y-75874891D01*
X180391613Y-75795125D01*
X180522483Y-75740917D01*
X180591948Y-75498733D01*
X179791340Y-74698125D01*
X178990732Y-75498733D01*
X179060197Y-75740917D01*
X179200658Y-75791029D01*
X179001037Y-75873510D01*
X178607711Y-76266150D01*
X178394583Y-76779420D01*
X178394098Y-77335181D01*
X178048184Y-77335181D01*
X177982483Y-77106123D01*
X177842022Y-77056011D01*
X178041643Y-76973530D01*
X178434969Y-76580890D01*
X178648097Y-76067620D01*
X178648582Y-75511859D01*
X178436350Y-74998217D01*
X178043710Y-74604891D01*
X177851613Y-74525125D01*
X177982483Y-74470917D01*
X178028402Y-74310822D01*
X178382196Y-74310822D01*
X178409978Y-74865888D01*
X178568943Y-75249663D01*
X178811127Y-75319128D01*
X179611735Y-74518520D01*
X179970945Y-74518520D01*
X180771553Y-75319128D01*
X181013737Y-75249663D01*
X181200484Y-74726218D01*
X181172702Y-74171152D01*
X181013737Y-73787377D01*
X180771553Y-73717912D01*
X179970945Y-74518520D01*
X179611735Y-74518520D01*
X178811127Y-73717912D01*
X178568943Y-73787377D01*
X178382196Y-74310822D01*
X178028402Y-74310822D01*
X178051948Y-74228733D01*
X177251340Y-73428125D01*
X176450732Y-74228733D01*
X176520197Y-74470917D01*
X176660658Y-74521029D01*
X176461037Y-74603510D01*
X176067711Y-74996150D01*
X175854583Y-75509420D01*
X175854098Y-76065181D01*
X172897000Y-76065181D01*
X172897000Y-73040822D01*
X175842196Y-73040822D01*
X175869978Y-73595888D01*
X176028943Y-73979663D01*
X176271127Y-74049128D01*
X177071735Y-73248520D01*
X177430945Y-73248520D01*
X178231553Y-74049128D01*
X178473737Y-73979663D01*
X178660484Y-73456218D01*
X178632702Y-72901152D01*
X178473737Y-72517377D01*
X178231553Y-72447912D01*
X177430945Y-73248520D01*
X177071735Y-73248520D01*
X176271127Y-72447912D01*
X176028943Y-72517377D01*
X175842196Y-73040822D01*
X172897000Y-73040822D01*
X172897000Y-72268307D01*
X176450732Y-72268307D01*
X177251340Y-73068915D01*
X178051948Y-72268307D01*
X178048184Y-72255181D01*
X178394098Y-72255181D01*
X178606330Y-72768823D01*
X178998970Y-73162149D01*
X179191067Y-73241915D01*
X179060197Y-73296123D01*
X178990732Y-73538307D01*
X179791340Y-74338915D01*
X180591948Y-73538307D01*
X180522483Y-73296123D01*
X180382022Y-73246011D01*
X180581643Y-73163530D01*
X180974969Y-72770890D01*
X181188097Y-72257620D01*
X181188582Y-71701859D01*
X180976350Y-71188217D01*
X180583710Y-70794891D01*
X180070440Y-70581763D01*
X179514679Y-70581278D01*
X179001037Y-70793510D01*
X178607711Y-71186150D01*
X178394583Y-71699420D01*
X178394098Y-72255181D01*
X178048184Y-72255181D01*
X177982483Y-72026123D01*
X177459038Y-71839376D01*
X176903972Y-71867158D01*
X176520197Y-72026123D01*
X176450732Y-72268307D01*
X172897000Y-72268307D01*
X172897000Y-68122000D01*
X184965974Y-68122000D01*
X184385681Y-68701281D01*
G36*
X152300400Y-90246200D02*
X152358252Y-90537039D01*
X152423306Y-90634400D01*
X151526202Y-90634400D01*
X151047601Y-90155799D01*
X150801039Y-89991052D01*
X150510200Y-89933200D01*
X147698757Y-89933200D01*
X147672090Y-89891759D01*
X147459890Y-89746769D01*
X147208000Y-89695760D01*
X145908000Y-89695760D01*
X145672683Y-89740038D01*
X145456559Y-89879110D01*
X145311569Y-90091310D01*
X145260560Y-90343200D01*
X145260560Y-91043200D01*
X145304838Y-91278517D01*
X145443910Y-91494641D01*
X145656110Y-91639631D01*
X145689490Y-91646391D01*
X145548301Y-91704873D01*
X145369673Y-91883502D01*
X145273000Y-92116891D01*
X145273000Y-92307450D01*
X145431750Y-92466200D01*
X146431000Y-92466200D01*
X146431000Y-92446200D01*
X146685000Y-92446200D01*
X146685000Y-92466200D01*
X146705000Y-92466200D01*
X146705000Y-92720200D01*
X146685000Y-92720200D01*
X146685000Y-93419450D01*
X146843750Y-93578200D01*
X147203400Y-93578200D01*
X147203400Y-93583802D01*
X147362148Y-93583802D01*
X147309727Y-93636223D01*
X147183000Y-93610560D01*
X145933000Y-93610560D01*
X145697683Y-93654838D01*
X145481559Y-93793910D01*
X145336569Y-94006110D01*
X145285560Y-94258000D01*
X145285560Y-95258000D01*
X145329838Y-95493317D01*
X145468910Y-95709441D01*
X145537006Y-95755969D01*
X145394673Y-95898302D01*
X145298000Y-96131691D01*
X145298000Y-96472250D01*
X145456750Y-96631000D01*
X146431000Y-96631000D01*
X146431000Y-96611000D01*
X146685000Y-96611000D01*
X146685000Y-96631000D01*
X146705000Y-96631000D01*
X146705000Y-96885000D01*
X146685000Y-96885000D01*
X146685000Y-97734250D01*
X146843750Y-97893000D01*
X147309310Y-97893000D01*
X147516783Y-97807062D01*
X147528000Y-97814726D01*
X147528000Y-98164710D01*
X146945150Y-98747560D01*
X146140000Y-98747560D01*
X145904683Y-98791838D01*
X145688559Y-98930910D01*
X145543569Y-99143110D01*
X145492560Y-99395000D01*
X145492560Y-99995000D01*
X145536838Y-100230317D01*
X145595178Y-100320980D01*
X145505000Y-100538690D01*
X145505000Y-100679250D01*
X145663750Y-100838000D01*
X146763000Y-100838000D01*
X146763000Y-100818000D01*
X147017000Y-100818000D01*
X147017000Y-100838000D01*
X148116250Y-100838000D01*
X148132250Y-100822000D01*
X148717000Y-100822000D01*
X148717000Y-100802000D01*
X148971000Y-100802000D01*
X148971000Y-100822000D01*
X149945250Y-100822000D01*
X150104000Y-100663250D01*
X150104000Y-100322691D01*
X150007327Y-100089302D01*
X149866090Y-99948064D01*
X149920441Y-99913090D01*
X150065431Y-99700890D01*
X150116440Y-99449000D01*
X150116440Y-98942210D01*
X152172145Y-96886505D01*
X152374827Y-96583169D01*
X152446000Y-96225360D01*
X152446000Y-94049552D01*
X152595811Y-93688767D01*
X152596009Y-93461793D01*
X152908202Y-93149600D01*
X154764592Y-93149600D01*
X154843800Y-93165640D01*
X155084200Y-93165640D01*
X155084200Y-93432672D01*
X155055683Y-93438038D01*
X154839559Y-93577110D01*
X154694569Y-93789310D01*
X154643560Y-94041200D01*
X154643560Y-95341200D01*
X154687838Y-95576517D01*
X154826910Y-95792641D01*
X155039110Y-95937631D01*
X155291000Y-95988640D01*
X155991000Y-95988640D01*
X156226317Y-95944362D01*
X156442441Y-95805290D01*
X156587431Y-95593090D01*
X156590081Y-95580003D01*
X156726910Y-95792641D01*
X156939110Y-95937631D01*
X157191000Y-95988640D01*
X157891000Y-95988640D01*
X158126317Y-95944362D01*
X158342441Y-95805290D01*
X158487431Y-95593090D01*
X158538440Y-95341200D01*
X158538440Y-94041200D01*
X158494162Y-93805883D01*
X158355090Y-93589759D01*
X158142890Y-93444769D01*
X158097800Y-93435638D01*
X158097800Y-93165640D01*
X158693800Y-93165640D01*
X158929117Y-93121362D01*
X159145241Y-92982290D01*
X159234600Y-92851509D01*
X159234600Y-98171000D01*
X159292452Y-98461839D01*
X159457199Y-98708401D01*
X159462628Y-98713830D01*
X159255791Y-98754973D01*
X158952455Y-98957655D01*
X154070110Y-103840000D01*
X148280352Y-103840000D01*
X148287440Y-103805000D01*
X148287440Y-103205000D01*
X148243162Y-102969683D01*
X148179322Y-102870472D01*
X148236431Y-102786890D01*
X148287440Y-102535000D01*
X148287440Y-102084000D01*
X148558250Y-102084000D01*
X148717000Y-101925250D01*
X148717000Y-101076000D01*
X148971000Y-101076000D01*
X148971000Y-101925250D01*
X149129750Y-102084000D01*
X149595310Y-102084000D01*
X149828699Y-101987327D01*
X150007327Y-101808698D01*
X150104000Y-101575309D01*
X150104000Y-101234750D01*
X149945250Y-101076000D01*
X148971000Y-101076000D01*
X148717000Y-101076000D01*
X147742750Y-101076000D01*
X147726750Y-101092000D01*
X147017000Y-101092000D01*
X147017000Y-101112000D01*
X146763000Y-101112000D01*
X146763000Y-101092000D01*
X145663750Y-101092000D01*
X145505000Y-101250750D01*
X145505000Y-101391310D01*
X145594806Y-101608122D01*
X145543569Y-101683110D01*
X145492560Y-101935000D01*
X145492560Y-102133270D01*
X144445000Y-101085710D01*
X144445000Y-97043750D01*
X145298000Y-97043750D01*
X145298000Y-97384309D01*
X145394673Y-97617698D01*
X145573301Y-97796327D01*
X145806690Y-97893000D01*
X146272250Y-97893000D01*
X146431000Y-97734250D01*
X146431000Y-96885000D01*
X145456750Y-96885000D01*
X145298000Y-97043750D01*
X144445000Y-97043750D01*
X144445000Y-92878950D01*
X145273000Y-92878950D01*
X145273000Y-93069509D01*
X145369673Y-93302898D01*
X145548301Y-93481527D01*
X145781690Y-93578200D01*
X146272250Y-93578200D01*
X146431000Y-93419450D01*
X146431000Y-92720200D01*
X145431750Y-92720200D01*
X145273000Y-92878950D01*
X144445000Y-92878950D01*
X144445000Y-90150890D01*
X146284890Y-88311000D01*
X152300400Y-88311000D01*
X152300400Y-90246200D01*
X152300400Y-90246200D01*
G37*
X152300400Y-90246200D02*
X152358252Y-90537039D01*
X152423306Y-90634400D01*
X151526202Y-90634400D01*
X151047601Y-90155799D01*
X150801039Y-89991052D01*
X150510200Y-89933200D01*
X147698757Y-89933200D01*
X147672090Y-89891759D01*
X147459890Y-89746769D01*
X147208000Y-89695760D01*
X145908000Y-89695760D01*
X145672683Y-89740038D01*
X145456559Y-89879110D01*
X145311569Y-90091310D01*
X145260560Y-90343200D01*
X145260560Y-91043200D01*
X145304838Y-91278517D01*
X145443910Y-91494641D01*
X145656110Y-91639631D01*
X145689490Y-91646391D01*
X145548301Y-91704873D01*
X145369673Y-91883502D01*
X145273000Y-92116891D01*
X145273000Y-92307450D01*
X145431750Y-92466200D01*
X146431000Y-92466200D01*
X146431000Y-92446200D01*
X146685000Y-92446200D01*
X146685000Y-92466200D01*
X146705000Y-92466200D01*
X146705000Y-92720200D01*
X146685000Y-92720200D01*
X146685000Y-93419450D01*
X146843750Y-93578200D01*
X147203400Y-93578200D01*
X147203400Y-93583802D01*
X147362148Y-93583802D01*
X147309727Y-93636223D01*
X147183000Y-93610560D01*
X145933000Y-93610560D01*
X145697683Y-93654838D01*
X145481559Y-93793910D01*
X145336569Y-94006110D01*
X145285560Y-94258000D01*
X145285560Y-95258000D01*
X145329838Y-95493317D01*
X145468910Y-95709441D01*
X145537006Y-95755969D01*
X145394673Y-95898302D01*
X145298000Y-96131691D01*
X145298000Y-96472250D01*
X145456750Y-96631000D01*
X146431000Y-96631000D01*
X146431000Y-96611000D01*
X146685000Y-96611000D01*
X146685000Y-96631000D01*
X146705000Y-96631000D01*
X146705000Y-96885000D01*
X146685000Y-96885000D01*
X146685000Y-97734250D01*
X146843750Y-97893000D01*
X147309310Y-97893000D01*
X147516783Y-97807062D01*
X147528000Y-97814726D01*
X147528000Y-98164710D01*
X146945150Y-98747560D01*
X146140000Y-98747560D01*
X145904683Y-98791838D01*
X145688559Y-98930910D01*
X145543569Y-99143110D01*
X145492560Y-99395000D01*
X145492560Y-99995000D01*
X145536838Y-100230317D01*
X145595178Y-100320980D01*
X145505000Y-100538690D01*
X145505000Y-100679250D01*
X145663750Y-100838000D01*
X146763000Y-100838000D01*
X146763000Y-100818000D01*
X147017000Y-100818000D01*
X147017000Y-100838000D01*
X148116250Y-100838000D01*
X148132250Y-100822000D01*
X148717000Y-100822000D01*
X148717000Y-100802000D01*
X148971000Y-100802000D01*
X148971000Y-100822000D01*
X149945250Y-100822000D01*
X150104000Y-100663250D01*
X150104000Y-100322691D01*
X150007327Y-100089302D01*
X149866090Y-99948064D01*
X149920441Y-99913090D01*
X150065431Y-99700890D01*
X150116440Y-99449000D01*
X150116440Y-98942210D01*
X152172145Y-96886505D01*
X152374827Y-96583169D01*
X152446000Y-96225360D01*
X152446000Y-94049552D01*
X152595811Y-93688767D01*
X152596009Y-93461793D01*
X152908202Y-93149600D01*
X154764592Y-93149600D01*
X154843800Y-93165640D01*
X155084200Y-93165640D01*
X155084200Y-93432672D01*
X155055683Y-93438038D01*
X154839559Y-93577110D01*
X154694569Y-93789310D01*
X154643560Y-94041200D01*
X154643560Y-95341200D01*
X154687838Y-95576517D01*
X154826910Y-95792641D01*
X155039110Y-95937631D01*
X155291000Y-95988640D01*
X155991000Y-95988640D01*
X156226317Y-95944362D01*
X156442441Y-95805290D01*
X156587431Y-95593090D01*
X156590081Y-95580003D01*
X156726910Y-95792641D01*
X156939110Y-95937631D01*
X157191000Y-95988640D01*
X157891000Y-95988640D01*
X158126317Y-95944362D01*
X158342441Y-95805290D01*
X158487431Y-95593090D01*
X158538440Y-95341200D01*
X158538440Y-94041200D01*
X158494162Y-93805883D01*
X158355090Y-93589759D01*
X158142890Y-93444769D01*
X158097800Y-93435638D01*
X158097800Y-93165640D01*
X158693800Y-93165640D01*
X158929117Y-93121362D01*
X159145241Y-92982290D01*
X159234600Y-92851509D01*
X159234600Y-98171000D01*
X159292452Y-98461839D01*
X159457199Y-98708401D01*
X159462628Y-98713830D01*
X159255791Y-98754973D01*
X158952455Y-98957655D01*
X154070110Y-103840000D01*
X148280352Y-103840000D01*
X148287440Y-103805000D01*
X148287440Y-103205000D01*
X148243162Y-102969683D01*
X148179322Y-102870472D01*
X148236431Y-102786890D01*
X148287440Y-102535000D01*
X148287440Y-102084000D01*
X148558250Y-102084000D01*
X148717000Y-101925250D01*
X148717000Y-101076000D01*
X148971000Y-101076000D01*
X148971000Y-101925250D01*
X149129750Y-102084000D01*
X149595310Y-102084000D01*
X149828699Y-101987327D01*
X150007327Y-101808698D01*
X150104000Y-101575309D01*
X150104000Y-101234750D01*
X149945250Y-101076000D01*
X148971000Y-101076000D01*
X148717000Y-101076000D01*
X147742750Y-101076000D01*
X147726750Y-101092000D01*
X147017000Y-101092000D01*
X147017000Y-101112000D01*
X146763000Y-101112000D01*
X146763000Y-101092000D01*
X145663750Y-101092000D01*
X145505000Y-101250750D01*
X145505000Y-101391310D01*
X145594806Y-101608122D01*
X145543569Y-101683110D01*
X145492560Y-101935000D01*
X145492560Y-102133270D01*
X144445000Y-101085710D01*
X144445000Y-97043750D01*
X145298000Y-97043750D01*
X145298000Y-97384309D01*
X145394673Y-97617698D01*
X145573301Y-97796327D01*
X145806690Y-97893000D01*
X146272250Y-97893000D01*
X146431000Y-97734250D01*
X146431000Y-96885000D01*
X145456750Y-96885000D01*
X145298000Y-97043750D01*
X144445000Y-97043750D01*
X144445000Y-92878950D01*
X145273000Y-92878950D01*
X145273000Y-93069509D01*
X145369673Y-93302898D01*
X145548301Y-93481527D01*
X145781690Y-93578200D01*
X146272250Y-93578200D01*
X146431000Y-93419450D01*
X146431000Y-92720200D01*
X145431750Y-92720200D01*
X145273000Y-92878950D01*
X144445000Y-92878950D01*
X144445000Y-90150890D01*
X146284890Y-88311000D01*
X152300400Y-88311000D01*
X152300400Y-90246200D01*
G36*
X159169332Y-88557387D02*
X159168869Y-89087886D01*
X159371454Y-89578180D01*
X159746247Y-89953627D01*
X159750430Y-89955364D01*
X159800452Y-90206839D01*
X159965199Y-90453401D01*
X161318862Y-91807064D01*
X161266600Y-92069800D01*
X161266600Y-93608232D01*
X161135769Y-93799710D01*
X161084760Y-94051600D01*
X161084760Y-94751600D01*
X161129038Y-94986917D01*
X161268110Y-95203041D01*
X161480310Y-95348031D01*
X161513690Y-95354791D01*
X161372501Y-95413273D01*
X161193873Y-95591902D01*
X161097200Y-95825291D01*
X161097200Y-96015850D01*
X161255950Y-96174600D01*
X162255200Y-96174600D01*
X162255200Y-96154600D01*
X162509200Y-96154600D01*
X162509200Y-96174600D01*
X162529200Y-96174600D01*
X162529200Y-96428600D01*
X162509200Y-96428600D01*
X162509200Y-97127850D01*
X162667950Y-97286600D01*
X162846751Y-97286600D01*
X162846412Y-97674673D01*
X163011246Y-98073600D01*
X163316195Y-98379082D01*
X163714833Y-98544611D01*
X164146473Y-98544988D01*
X164545400Y-98380154D01*
X164850882Y-98075205D01*
X165016411Y-97676567D01*
X165016788Y-97244927D01*
X164851954Y-96846000D01*
X164547005Y-96540518D01*
X164345000Y-96456638D01*
X164345000Y-93086011D01*
X164427241Y-93033090D01*
X164572231Y-92820890D01*
X164596145Y-92702800D01*
X164724200Y-92702800D01*
X165015039Y-92644948D01*
X165261601Y-92480201D01*
X165536602Y-92205200D01*
X165701405Y-92205200D01*
X165678360Y-92319000D01*
X165678360Y-92569000D01*
X165722638Y-92804317D01*
X165861710Y-93020441D01*
X166073910Y-93165431D01*
X166325800Y-93216440D01*
X167075800Y-93216440D01*
X167161045Y-93200400D01*
X169544798Y-93200400D01*
X169667254Y-93322856D01*
X164306310Y-98683800D01*
X161582202Y-98683800D01*
X160754600Y-97856198D01*
X160754600Y-96587350D01*
X161097200Y-96587350D01*
X161097200Y-96777909D01*
X161193873Y-97011298D01*
X161372501Y-97189927D01*
X161605890Y-97286600D01*
X162096450Y-97286600D01*
X162255200Y-97127850D01*
X162255200Y-96428600D01*
X161255950Y-96428600D01*
X161097200Y-96587350D01*
X160754600Y-96587350D01*
X160754600Y-92252800D01*
X160748275Y-92221000D01*
X160696748Y-91961960D01*
X160532001Y-91715399D01*
X160171201Y-91354599D01*
X159924639Y-91189852D01*
X159633800Y-91132000D01*
X159328800Y-91132000D01*
X159328800Y-91114450D01*
X159308488Y-91094138D01*
X159296962Y-91032883D01*
X159166861Y-90830700D01*
X159170050Y-90830700D01*
X159328800Y-90671950D01*
X159328800Y-90641890D01*
X159232127Y-90408501D01*
X159053498Y-90229873D01*
X158820109Y-90133200D01*
X158604550Y-90133200D01*
X158445800Y-90291950D01*
X158445800Y-90620760D01*
X158191800Y-90620760D01*
X158191800Y-90291950D01*
X158033050Y-90133200D01*
X157956200Y-90133200D01*
X157956200Y-89750926D01*
X158101827Y-89605553D01*
X158305268Y-89115613D01*
X158305731Y-88585114D01*
X158192470Y-88311000D01*
X159271641Y-88311000D01*
X159169332Y-88557387D01*
X159169332Y-88557387D01*
G37*
X159169332Y-88557387D02*
X159168869Y-89087886D01*
X159371454Y-89578180D01*
X159746247Y-89953627D01*
X159750430Y-89955364D01*
X159800452Y-90206839D01*
X159965199Y-90453401D01*
X161318862Y-91807064D01*
X161266600Y-92069800D01*
X161266600Y-93608232D01*
X161135769Y-93799710D01*
X161084760Y-94051600D01*
X161084760Y-94751600D01*
X161129038Y-94986917D01*
X161268110Y-95203041D01*
X161480310Y-95348031D01*
X161513690Y-95354791D01*
X161372501Y-95413273D01*
X161193873Y-95591902D01*
X161097200Y-95825291D01*
X161097200Y-96015850D01*
X161255950Y-96174600D01*
X162255200Y-96174600D01*
X162255200Y-96154600D01*
X162509200Y-96154600D01*
X162509200Y-96174600D01*
X162529200Y-96174600D01*
X162529200Y-96428600D01*
X162509200Y-96428600D01*
X162509200Y-97127850D01*
X162667950Y-97286600D01*
X162846751Y-97286600D01*
X162846412Y-97674673D01*
X163011246Y-98073600D01*
X163316195Y-98379082D01*
X163714833Y-98544611D01*
X164146473Y-98544988D01*
X164545400Y-98380154D01*
X164850882Y-98075205D01*
X165016411Y-97676567D01*
X165016788Y-97244927D01*
X164851954Y-96846000D01*
X164547005Y-96540518D01*
X164345000Y-96456638D01*
X164345000Y-93086011D01*
X164427241Y-93033090D01*
X164572231Y-92820890D01*
X164596145Y-92702800D01*
X164724200Y-92702800D01*
X165015039Y-92644948D01*
X165261601Y-92480201D01*
X165536602Y-92205200D01*
X165701405Y-92205200D01*
X165678360Y-92319000D01*
X165678360Y-92569000D01*
X165722638Y-92804317D01*
X165861710Y-93020441D01*
X166073910Y-93165431D01*
X166325800Y-93216440D01*
X167075800Y-93216440D01*
X167161045Y-93200400D01*
X169544798Y-93200400D01*
X169667254Y-93322856D01*
X164306310Y-98683800D01*
X161582202Y-98683800D01*
X160754600Y-97856198D01*
X160754600Y-96587350D01*
X161097200Y-96587350D01*
X161097200Y-96777909D01*
X161193873Y-97011298D01*
X161372501Y-97189927D01*
X161605890Y-97286600D01*
X162096450Y-97286600D01*
X162255200Y-97127850D01*
X162255200Y-96428600D01*
X161255950Y-96428600D01*
X161097200Y-96587350D01*
X160754600Y-96587350D01*
X160754600Y-92252800D01*
X160748275Y-92221000D01*
X160696748Y-91961960D01*
X160532001Y-91715399D01*
X160171201Y-91354599D01*
X159924639Y-91189852D01*
X159633800Y-91132000D01*
X159328800Y-91132000D01*
X159328800Y-91114450D01*
X159308488Y-91094138D01*
X159296962Y-91032883D01*
X159166861Y-90830700D01*
X159170050Y-90830700D01*
X159328800Y-90671950D01*
X159328800Y-90641890D01*
X159232127Y-90408501D01*
X159053498Y-90229873D01*
X158820109Y-90133200D01*
X158604550Y-90133200D01*
X158445800Y-90291950D01*
X158445800Y-90620760D01*
X158191800Y-90620760D01*
X158191800Y-90291950D01*
X158033050Y-90133200D01*
X157956200Y-90133200D01*
X157956200Y-89750926D01*
X158101827Y-89605553D01*
X158305268Y-89115613D01*
X158305731Y-88585114D01*
X158192470Y-88311000D01*
X159271641Y-88311000D01*
X159169332Y-88557387D01*
G36*
X149850799Y-92429401D02*
X150097360Y-92594148D01*
X150388200Y-92652000D01*
X150796671Y-92652000D01*
X150591718Y-92856595D01*
X150426189Y-93255233D01*
X150425812Y-93686873D01*
X150576000Y-94050354D01*
X150576000Y-95838070D01*
X149735440Y-96678630D01*
X149735440Y-96258000D01*
X149691162Y-96022683D01*
X149552090Y-95806559D01*
X149483994Y-95760031D01*
X149626327Y-95617698D01*
X149723000Y-95384309D01*
X149723000Y-95043750D01*
X149564250Y-94885000D01*
X148590000Y-94885000D01*
X148590000Y-94905000D01*
X148336000Y-94905000D01*
X148336000Y-94885000D01*
X148316000Y-94885000D01*
X148316000Y-94631000D01*
X148336000Y-94631000D01*
X148336000Y-94308450D01*
X148361400Y-94283050D01*
X148361400Y-93781750D01*
X148590000Y-93781750D01*
X148590000Y-94631000D01*
X149564250Y-94631000D01*
X149723000Y-94472250D01*
X149723000Y-94131691D01*
X149707072Y-94093238D01*
X149773400Y-93933109D01*
X149773400Y-93742550D01*
X149614650Y-93583800D01*
X148615400Y-93583800D01*
X148615400Y-93756350D01*
X148590000Y-93781750D01*
X148361400Y-93781750D01*
X148361400Y-93583800D01*
X148341400Y-93583800D01*
X148341400Y-93329800D01*
X148361400Y-93329800D01*
X148361400Y-93309800D01*
X148615400Y-93309800D01*
X148615400Y-93329800D01*
X149614650Y-93329800D01*
X149773400Y-93171050D01*
X149773400Y-92980491D01*
X149676727Y-92747102D01*
X149498099Y-92568473D01*
X149362113Y-92512146D01*
X149373717Y-92509962D01*
X149589841Y-92370890D01*
X149626799Y-92316800D01*
X149738198Y-92316800D01*
X149850799Y-92429401D01*
X149850799Y-92429401D01*
G37*
X149850799Y-92429401D02*
X150097360Y-92594148D01*
X150388200Y-92652000D01*
X150796671Y-92652000D01*
X150591718Y-92856595D01*
X150426189Y-93255233D01*
X150425812Y-93686873D01*
X150576000Y-94050354D01*
X150576000Y-95838070D01*
X149735440Y-96678630D01*
X149735440Y-96258000D01*
X149691162Y-96022683D01*
X149552090Y-95806559D01*
X149483994Y-95760031D01*
X149626327Y-95617698D01*
X149723000Y-95384309D01*
X149723000Y-95043750D01*
X149564250Y-94885000D01*
X148590000Y-94885000D01*
X148590000Y-94905000D01*
X148336000Y-94905000D01*
X148336000Y-94885000D01*
X148316000Y-94885000D01*
X148316000Y-94631000D01*
X148336000Y-94631000D01*
X148336000Y-94308450D01*
X148361400Y-94283050D01*
X148361400Y-93781750D01*
X148590000Y-93781750D01*
X148590000Y-94631000D01*
X149564250Y-94631000D01*
X149723000Y-94472250D01*
X149723000Y-94131691D01*
X149707072Y-94093238D01*
X149773400Y-93933109D01*
X149773400Y-93742550D01*
X149614650Y-93583800D01*
X148615400Y-93583800D01*
X148615400Y-93756350D01*
X148590000Y-93781750D01*
X148361400Y-93781750D01*
X148361400Y-93583800D01*
X148341400Y-93583800D01*
X148341400Y-93329800D01*
X148361400Y-93329800D01*
X148361400Y-93309800D01*
X148615400Y-93309800D01*
X148615400Y-93329800D01*
X149614650Y-93329800D01*
X149773400Y-93171050D01*
X149773400Y-92980491D01*
X149676727Y-92747102D01*
X149498099Y-92568473D01*
X149362113Y-92512146D01*
X149373717Y-92509962D01*
X149589841Y-92370890D01*
X149626799Y-92316800D01*
X149738198Y-92316800D01*
X149850799Y-92429401D01*
G36*
X170435993Y-78156230D02*
X169976972Y-78157811D01*
X169762770Y-78068867D01*
X169152109Y-78068335D01*
X168926803Y-78161430D01*
X167457874Y-78166491D01*
X167222770Y-78068867D01*
X166612109Y-78068335D01*
X166365445Y-78170254D01*
X164938775Y-78175170D01*
X164682770Y-78068867D01*
X164072109Y-78068335D01*
X163804088Y-78179079D01*
X162419677Y-78183849D01*
X162142770Y-78068867D01*
X161532109Y-78068335D01*
X161242731Y-78187904D01*
X159900578Y-78192528D01*
X159602770Y-78068867D01*
X158992109Y-78068335D01*
X158681373Y-78196728D01*
X157381480Y-78201207D01*
X157062770Y-78068867D01*
X156452109Y-78068335D01*
X156120016Y-78205553D01*
X154862381Y-78209886D01*
X154522770Y-78068867D01*
X153912109Y-78068335D01*
X153558659Y-78214378D01*
X152343283Y-78218565D01*
X151982770Y-78068867D01*
X151372109Y-78068335D01*
X150997301Y-78223202D01*
X149824185Y-78227244D01*
X149442770Y-78068867D01*
X148832109Y-78068335D01*
X148435944Y-78232027D01*
X147305086Y-78235923D01*
X146902770Y-78068867D01*
X146292109Y-78068335D01*
X145874587Y-78240852D01*
X144785988Y-78244602D01*
X144362770Y-78068867D01*
X143752109Y-78068335D01*
X143313229Y-78249676D01*
X142266889Y-78253281D01*
X141822770Y-78068867D01*
X141212109Y-78068335D01*
X140647729Y-78301532D01*
X140245777Y-78702782D01*
X139846743Y-78303049D01*
X139282770Y-78068867D01*
X138672109Y-78068335D01*
X138107729Y-78301532D01*
X137705777Y-78702782D01*
X137306743Y-78303049D01*
X136742770Y-78068867D01*
X136132109Y-78068335D01*
X135567729Y-78301532D01*
X135165777Y-78702782D01*
X134766743Y-78303049D01*
X134202770Y-78068867D01*
X133592109Y-78068335D01*
X133027729Y-78301532D01*
X132625777Y-78702782D01*
X132226743Y-78303049D01*
X131662770Y-78068867D01*
X131052109Y-78068335D01*
X130487729Y-78301532D01*
X130085777Y-78702782D01*
X129686743Y-78303049D01*
X129122770Y-78068867D01*
X128512109Y-78068335D01*
X127947729Y-78301532D01*
X127545777Y-78702782D01*
X127146743Y-78303049D01*
X126582770Y-78068867D01*
X125972109Y-78068335D01*
X125407729Y-78301532D01*
X125005777Y-78702782D01*
X124606743Y-78303049D01*
X124042770Y-78068867D01*
X123432109Y-78068335D01*
X122867729Y-78301532D01*
X122465777Y-78702782D01*
X122066743Y-78303049D01*
X121502770Y-78068867D01*
X120892109Y-78068335D01*
X120327729Y-78301532D01*
X119925777Y-78702782D01*
X119526743Y-78303049D01*
X118962770Y-78068867D01*
X118352109Y-78068335D01*
X117787729Y-78301532D01*
X117355549Y-78732957D01*
X117346897Y-78753794D01*
X117196259Y-78703046D01*
X116295705Y-79603600D01*
X117196259Y-80504154D01*
X117346427Y-80453565D01*
X117354032Y-80471971D01*
X117755282Y-80873923D01*
X117355549Y-81272957D01*
X117346897Y-81293794D01*
X117196259Y-81243046D01*
X116295705Y-82143600D01*
X117196259Y-83044154D01*
X117346427Y-82993565D01*
X117354032Y-83011971D01*
X117785457Y-83444151D01*
X118349430Y-83678333D01*
X118960091Y-83678865D01*
X119524471Y-83445668D01*
X119926423Y-83044418D01*
X120325457Y-83444151D01*
X120889430Y-83678333D01*
X121500091Y-83678865D01*
X122064471Y-83445668D01*
X122466423Y-83044418D01*
X122865457Y-83444151D01*
X123429430Y-83678333D01*
X124040091Y-83678865D01*
X124604471Y-83445668D01*
X125006423Y-83044418D01*
X125405457Y-83444151D01*
X125969430Y-83678333D01*
X126580091Y-83678865D01*
X127144471Y-83445668D01*
X127546423Y-83044418D01*
X127945457Y-83444151D01*
X128509430Y-83678333D01*
X129120091Y-83678865D01*
X129684471Y-83445668D01*
X130086423Y-83044418D01*
X130485457Y-83444151D01*
X131049430Y-83678333D01*
X131660091Y-83678865D01*
X132224471Y-83445668D01*
X132626423Y-83044418D01*
X133025457Y-83444151D01*
X133589430Y-83678333D01*
X134200091Y-83678865D01*
X134764471Y-83445668D01*
X135166423Y-83044418D01*
X135565457Y-83444151D01*
X136129430Y-83678333D01*
X136740091Y-83678865D01*
X137304471Y-83445668D01*
X137706423Y-83044418D01*
X138105457Y-83444151D01*
X138669430Y-83678333D01*
X139280091Y-83678865D01*
X139844471Y-83445668D01*
X140246423Y-83044418D01*
X140645457Y-83444151D01*
X140949474Y-83570390D01*
X140950501Y-84663000D01*
X132969000Y-84663000D01*
X132611191Y-84734173D01*
X132307855Y-84936855D01*
X126084855Y-91159855D01*
X125882173Y-91463191D01*
X125811000Y-91821000D01*
X125811000Y-94275919D01*
X125774090Y-94218559D01*
X125561890Y-94073569D01*
X125310000Y-94022560D01*
X123610000Y-94022560D01*
X123374683Y-94066838D01*
X123186169Y-94188144D01*
X123129698Y-94131673D01*
X122896309Y-94035000D01*
X122205750Y-94035000D01*
X122047000Y-94193750D01*
X122047000Y-95293000D01*
X122067000Y-95293000D01*
X122067000Y-95547000D01*
X122047000Y-95547000D01*
X122047000Y-95567000D01*
X121793000Y-95567000D01*
X121793000Y-95547000D01*
X120593750Y-95547000D01*
X120435000Y-95705750D01*
X120435000Y-96296310D01*
X120531673Y-96529699D01*
X120533042Y-96531068D01*
X120473569Y-96618110D01*
X120422560Y-96870000D01*
X120422560Y-96900611D01*
X120278480Y-96996883D01*
X120229566Y-97029566D01*
X119424566Y-97834566D01*
X119243561Y-98105459D01*
X119180000Y-98425000D01*
X119180000Y-99949000D01*
X119243561Y-100268541D01*
X119386609Y-100482627D01*
X119424566Y-100539434D01*
X119915132Y-101030000D01*
X119833725Y-101030000D01*
X119566799Y-100919162D01*
X119194833Y-100918838D01*
X118851057Y-101060883D01*
X118587808Y-101323673D01*
X118445162Y-101667201D01*
X118444838Y-102039167D01*
X118586883Y-102382943D01*
X118849673Y-102646192D01*
X118953157Y-102689162D01*
X118952838Y-103055167D01*
X119094883Y-103398943D01*
X119325537Y-103630000D01*
X114991000Y-103630000D01*
X114671459Y-103693561D01*
X114418162Y-103862809D01*
X114400566Y-103874566D01*
X111042566Y-107232566D01*
X110861561Y-107503459D01*
X110798000Y-107823000D01*
X110798000Y-118364000D01*
X110861561Y-118683541D01*
X111028552Y-118933460D01*
X111042566Y-118954434D01*
X113341916Y-121253784D01*
X113341812Y-121372873D01*
X113506646Y-121771800D01*
X113811595Y-122077282D01*
X114210233Y-122242811D01*
X114641873Y-122243188D01*
X115040800Y-122078354D01*
X115346282Y-121773405D01*
X115440311Y-121546959D01*
X115462595Y-121569282D01*
X115861233Y-121734811D01*
X116292873Y-121735188D01*
X116691800Y-121570354D01*
X116997282Y-121265405D01*
X117162811Y-120866767D01*
X117163188Y-120435127D01*
X116998354Y-120036200D01*
X116693405Y-119730718D01*
X116294767Y-119565189D01*
X116173951Y-119565083D01*
X113738000Y-117129132D01*
X113738000Y-115934868D01*
X117659916Y-119856784D01*
X117659812Y-119975873D01*
X117824646Y-120374800D01*
X118129595Y-120680282D01*
X118528233Y-120845811D01*
X118959873Y-120846188D01*
X119358800Y-120681354D01*
X119664282Y-120376405D01*
X119829811Y-119977767D01*
X119830188Y-119546127D01*
X119665354Y-119147200D01*
X119360405Y-118841718D01*
X118961767Y-118676189D01*
X118840951Y-118676083D01*
X114881000Y-114716132D01*
X114881000Y-114156868D01*
X120072916Y-119348784D01*
X120072812Y-119467873D01*
X120237646Y-119866800D01*
X120542595Y-120172282D01*
X120941233Y-120337811D01*
X121372873Y-120338188D01*
X121771800Y-120173354D01*
X122077282Y-119868405D01*
X122242811Y-119469767D01*
X122243188Y-119038127D01*
X122182128Y-118890351D01*
X122447595Y-119156282D01*
X122846233Y-119321811D01*
X123277873Y-119322188D01*
X123676800Y-119157354D01*
X123982282Y-118852405D01*
X124147811Y-118453767D01*
X124148188Y-118022127D01*
X123983354Y-117623200D01*
X123678405Y-117317718D01*
X123279767Y-117152189D01*
X123209796Y-117152128D01*
X121119601Y-115061933D01*
X121462800Y-115130200D01*
X121897145Y-115043803D01*
X122265366Y-114797766D01*
X122511403Y-114429545D01*
X122597800Y-113995200D01*
X122539494Y-113702073D01*
X123781212Y-113702073D01*
X123946046Y-114101000D01*
X124250995Y-114406482D01*
X124649633Y-114572011D01*
X125081273Y-114572388D01*
X125292463Y-114485126D01*
X125293850Y-114487281D01*
X125506050Y-114632271D01*
X125757940Y-114683280D01*
X126146400Y-114683280D01*
X126146400Y-116623600D01*
X128666400Y-116623600D01*
X128666400Y-114683280D01*
X128817026Y-114683280D01*
X128975246Y-115066200D01*
X129280195Y-115371682D01*
X129678833Y-115537211D01*
X130110473Y-115537588D01*
X130509400Y-115372754D01*
X130814882Y-115067805D01*
X130865281Y-114946431D01*
X130900972Y-114910740D01*
X130900972Y-116674400D01*
X133563829Y-116674400D01*
X133563829Y-114683280D01*
X133830060Y-114683280D01*
X134065377Y-114639002D01*
X134281501Y-114499930D01*
X134426491Y-114287730D01*
X134477500Y-114035840D01*
X134477500Y-112896600D01*
X135829689Y-112896600D01*
X135396243Y-113330045D01*
X135276200Y-113379646D01*
X134970718Y-113684595D01*
X134805189Y-114083233D01*
X134804812Y-114514873D01*
X134969646Y-114913800D01*
X135274595Y-115219282D01*
X135463619Y-115297772D01*
X135463619Y-116725200D01*
X140888381Y-116725200D01*
X140888381Y-113555200D01*
X140471900Y-113555200D01*
X140471900Y-112864317D01*
X140705677Y-112817815D01*
X141041456Y-112593456D01*
X142733756Y-110901156D01*
X142853800Y-110851554D01*
X143159282Y-110546605D01*
X143324811Y-110147967D01*
X143325188Y-109716327D01*
X143160354Y-109317400D01*
X142855405Y-109011918D01*
X142456767Y-108846389D01*
X142025127Y-108846012D01*
X141626200Y-109010846D01*
X141320718Y-109315795D01*
X141270319Y-109437170D01*
X139880888Y-110826600D01*
X138734805Y-110826600D01*
X138734800Y-110826599D01*
X138734795Y-110826600D01*
X132689605Y-110826600D01*
X132689600Y-110826599D01*
X132689595Y-110826600D01*
X129235200Y-110826600D01*
X128839122Y-110905385D01*
X128721332Y-110984090D01*
X128503344Y-111129744D01*
X128503342Y-111129747D01*
X127723564Y-111909524D01*
X127499205Y-112245303D01*
X127484001Y-112321738D01*
X127404539Y-112372870D01*
X127403857Y-112373867D01*
X127208710Y-112240529D01*
X126956820Y-112189520D01*
X125757940Y-112189520D01*
X125522623Y-112233798D01*
X125306499Y-112372870D01*
X125287005Y-112401400D01*
X124917205Y-112401400D01*
X124917200Y-112401399D01*
X124912970Y-112402240D01*
X124651527Y-112402012D01*
X124252600Y-112566846D01*
X123947118Y-112871795D01*
X123781589Y-113270433D01*
X123781212Y-113702073D01*
X122539494Y-113702073D01*
X122511403Y-113560855D01*
X122265366Y-113192634D01*
X120077732Y-111005000D01*
X122621000Y-111005000D01*
X122940541Y-110941439D01*
X123211434Y-110760434D01*
X124796434Y-109175435D01*
X124930066Y-108975439D01*
X124977439Y-108904541D01*
X125041000Y-108585000D01*
X125041000Y-103197000D01*
X125222000Y-103197000D01*
X125541541Y-103133439D01*
X125812434Y-102952434D01*
X126669000Y-102095868D01*
X126669000Y-107692000D01*
X126732561Y-108011541D01*
X126900206Y-108262440D01*
X126913566Y-108282434D01*
X126936566Y-108305434D01*
X127207459Y-108486439D01*
X127527000Y-108550000D01*
X128418569Y-108550000D01*
X128480000Y-108562440D01*
X129980000Y-108562440D01*
X130046113Y-108550000D01*
X130893231Y-108550000D01*
X130893212Y-108571273D01*
X131058046Y-108970200D01*
X131362995Y-109275682D01*
X131761633Y-109441211D01*
X132193273Y-109441588D01*
X132592200Y-109276754D01*
X132897682Y-108971805D01*
X132939643Y-108870750D01*
X136205000Y-108870750D01*
X136205000Y-109011310D01*
X136301673Y-109244699D01*
X136480302Y-109423327D01*
X136713691Y-109520000D01*
X137304250Y-109520000D01*
X137463000Y-109361250D01*
X137463000Y-108712000D01*
X137717000Y-108712000D01*
X137717000Y-109361250D01*
X137875750Y-109520000D01*
X138466309Y-109520000D01*
X138699698Y-109423327D01*
X138878327Y-109244699D01*
X138975000Y-109011310D01*
X138975000Y-108870750D01*
X138816250Y-108712000D01*
X137717000Y-108712000D01*
X137463000Y-108712000D01*
X136363750Y-108712000D01*
X136205000Y-108870750D01*
X132939643Y-108870750D01*
X133063211Y-108573167D01*
X133063588Y-108141527D01*
X132898754Y-107742600D01*
X132593805Y-107437118D01*
X132195167Y-107271589D01*
X132074351Y-107271483D01*
X131927434Y-107124566D01*
X131838287Y-107065000D01*
X131656541Y-106943561D01*
X131337000Y-106880000D01*
X130567473Y-106880000D01*
X130576431Y-106866890D01*
X130582035Y-106839215D01*
X130615000Y-106806250D01*
X130615000Y-106738690D01*
X130606532Y-106718247D01*
X130627440Y-106615000D01*
X130627440Y-106215000D01*
X130603056Y-106085411D01*
X130627440Y-105965000D01*
X130627440Y-105565000D01*
X130603056Y-105435411D01*
X130627440Y-105315000D01*
X130627440Y-104915000D01*
X130603056Y-104785411D01*
X130627440Y-104665000D01*
X130627440Y-104650000D01*
X130881000Y-104650000D01*
X131200541Y-104586439D01*
X131379294Y-104467000D01*
X132100141Y-104467000D01*
X132867025Y-105329744D01*
X132886858Y-105344753D01*
X132900677Y-105365434D01*
X133016117Y-105442569D01*
X133126822Y-105526344D01*
X133150889Y-105532620D01*
X133171570Y-105546439D01*
X133307737Y-105573524D01*
X133442078Y-105608559D01*
X133466716Y-105605147D01*
X133491111Y-105610000D01*
X134387807Y-105610000D01*
X134297189Y-105828233D01*
X134296812Y-106259873D01*
X134461646Y-106658800D01*
X134766595Y-106964282D01*
X135165233Y-107129811D01*
X135596873Y-107130188D01*
X135960354Y-106980000D01*
X136199648Y-106980000D01*
X136192560Y-107015000D01*
X136192560Y-107615000D01*
X136236838Y-107850317D01*
X136295178Y-107940980D01*
X136205000Y-108158690D01*
X136205000Y-108299250D01*
X136363750Y-108458000D01*
X137463000Y-108458000D01*
X137463000Y-108438000D01*
X137717000Y-108438000D01*
X137717000Y-108458000D01*
X138816250Y-108458000D01*
X138975000Y-108299250D01*
X138975000Y-108158690D01*
X138885194Y-107941878D01*
X138936431Y-107866890D01*
X138987440Y-107615000D01*
X138987440Y-107015000D01*
X138943162Y-106779683D01*
X138879322Y-106680472D01*
X138936431Y-106596890D01*
X138987440Y-106345000D01*
X138987440Y-105745000D01*
X138943162Y-105509683D01*
X138879322Y-105410472D01*
X138936431Y-105326890D01*
X138987440Y-105075000D01*
X138987440Y-104475000D01*
X138943162Y-104239683D01*
X138879322Y-104140472D01*
X138936431Y-104056890D01*
X138987440Y-103805000D01*
X138987440Y-103205000D01*
X138943162Y-102969683D01*
X138879322Y-102870472D01*
X138936431Y-102786890D01*
X138987440Y-102535000D01*
X138987440Y-101935000D01*
X138943162Y-101699683D01*
X138884822Y-101609020D01*
X138975000Y-101391310D01*
X138975000Y-101250750D01*
X138816250Y-101092000D01*
X137717000Y-101092000D01*
X137717000Y-101112000D01*
X137463000Y-101112000D01*
X137463000Y-101092000D01*
X136363750Y-101092000D01*
X136205000Y-101250750D01*
X136205000Y-101391310D01*
X136208600Y-101400000D01*
X136017000Y-101400000D01*
X135697459Y-101463561D01*
X135500570Y-101595118D01*
X135447622Y-101630497D01*
X135286354Y-101240200D01*
X134981405Y-100934718D01*
X134582767Y-100769189D01*
X134151127Y-100768812D01*
X133752200Y-100933646D01*
X133655678Y-101030000D01*
X132052868Y-101030000D01*
X132552868Y-100530000D01*
X134727048Y-100530000D01*
X134770191Y-100558827D01*
X135128000Y-100630000D01*
X135485809Y-100558827D01*
X135528952Y-100530000D01*
X136208600Y-100530000D01*
X136205000Y-100538690D01*
X136205000Y-100679250D01*
X136363750Y-100838000D01*
X137463000Y-100838000D01*
X137463000Y-100818000D01*
X137717000Y-100818000D01*
X137717000Y-100838000D01*
X138816250Y-100838000D01*
X138975000Y-100679250D01*
X138975000Y-100538690D01*
X138885194Y-100321878D01*
X138936431Y-100246890D01*
X138987440Y-99995000D01*
X138987440Y-99395000D01*
X138943162Y-99159683D01*
X138804090Y-98943559D01*
X138591890Y-98798569D01*
X138340000Y-98747560D01*
X136840000Y-98747560D01*
X136604683Y-98791838D01*
X136498756Y-98860000D01*
X136294694Y-98860000D01*
X136349431Y-98779890D01*
X136400440Y-98528000D01*
X136400440Y-97528000D01*
X136356162Y-97292683D01*
X136217090Y-97076559D01*
X136148994Y-97030031D01*
X136291327Y-96887698D01*
X136388000Y-96654309D01*
X136388000Y-96313750D01*
X136229250Y-96155000D01*
X135255000Y-96155000D01*
X135255000Y-96175000D01*
X135001000Y-96175000D01*
X135001000Y-96155000D01*
X134026750Y-96155000D01*
X133868000Y-96313750D01*
X133868000Y-96654309D01*
X133964673Y-96887698D01*
X134105910Y-97028936D01*
X134051559Y-97063910D01*
X133906569Y-97276110D01*
X133855560Y-97528000D01*
X133855560Y-98528000D01*
X133899838Y-98763317D01*
X133962052Y-98860000D01*
X132207000Y-98860000D01*
X131887459Y-98923561D01*
X131709482Y-99042481D01*
X131603117Y-98785057D01*
X131340327Y-98521808D01*
X130996799Y-98379162D01*
X130624833Y-98378838D01*
X130281057Y-98520883D01*
X130017808Y-98783673D01*
X129875162Y-99127201D01*
X129874838Y-99499167D01*
X129965076Y-99717560D01*
X128480000Y-99717560D01*
X128244683Y-99761838D01*
X128028559Y-99900910D01*
X127883569Y-100113110D01*
X127856765Y-100245475D01*
X127681000Y-100069710D01*
X127681000Y-97790816D01*
X127681162Y-97604833D01*
X127681000Y-97604441D01*
X127681000Y-95401691D01*
X133868000Y-95401691D01*
X133868000Y-95742250D01*
X134026750Y-95901000D01*
X135001000Y-95901000D01*
X135001000Y-95051750D01*
X135255000Y-95051750D01*
X135255000Y-95901000D01*
X136229250Y-95901000D01*
X136388000Y-95742250D01*
X136388000Y-95401691D01*
X136291327Y-95168302D01*
X136112699Y-94989673D01*
X135879310Y-94893000D01*
X135413750Y-94893000D01*
X135255000Y-95051750D01*
X135001000Y-95051750D01*
X134842250Y-94893000D01*
X134376690Y-94893000D01*
X134143301Y-94989673D01*
X133964673Y-95168302D01*
X133868000Y-95401691D01*
X127681000Y-95401691D01*
X127681000Y-93624400D01*
X134805800Y-93624400D01*
X134892197Y-94058746D01*
X135138234Y-94426966D01*
X135506454Y-94673003D01*
X135940800Y-94759400D01*
X136694562Y-94759400D01*
X136783650Y-94820271D01*
X137035540Y-94871280D01*
X138234420Y-94871280D01*
X138469737Y-94827002D01*
X138685861Y-94687930D01*
X138691456Y-94679741D01*
X138773882Y-94762167D01*
X139007271Y-94858840D01*
X139447270Y-94858840D01*
X139606020Y-94700090D01*
X139606020Y-93751400D01*
X139586020Y-93751400D01*
X139586020Y-93497400D01*
X139606020Y-93497400D01*
X139606020Y-92548710D01*
X139447270Y-92389960D01*
X139007271Y-92389960D01*
X138773882Y-92486633D01*
X138691669Y-92568845D01*
X138486310Y-92428529D01*
X138234420Y-92377520D01*
X137035540Y-92377520D01*
X136800223Y-92421798D01*
X136695167Y-92489400D01*
X135940800Y-92489400D01*
X135506454Y-92575797D01*
X135138234Y-92821834D01*
X134892197Y-93190054D01*
X134805800Y-93624400D01*
X127681000Y-93624400D01*
X127681000Y-92208290D01*
X133356290Y-86533000D01*
X140952258Y-86533000D01*
X140958220Y-92876343D01*
X140870787Y-92665261D01*
X140692158Y-92486633D01*
X140458769Y-92389960D01*
X140018770Y-92389960D01*
X139860020Y-92548710D01*
X139860020Y-93497400D01*
X139880020Y-93497400D01*
X139880020Y-93751400D01*
X139860020Y-93751400D01*
X139860020Y-94700090D01*
X140018770Y-94858840D01*
X140458769Y-94858840D01*
X140692158Y-94762167D01*
X140870787Y-94583539D01*
X140959623Y-94369070D01*
X140970000Y-105410119D01*
X140980052Y-105459520D01*
X140995118Y-105485823D01*
X154076118Y-123062623D01*
X154113644Y-123096287D01*
X154178000Y-123113800D01*
X168158000Y-123113800D01*
X168158000Y-123139909D01*
X168254673Y-123373298D01*
X168433301Y-123551927D01*
X168666690Y-123648600D01*
X169132250Y-123648600D01*
X169291000Y-123489850D01*
X169291000Y-123113800D01*
X169545000Y-123113800D01*
X169545000Y-123489850D01*
X169703750Y-123648600D01*
X170169310Y-123648600D01*
X170402699Y-123551927D01*
X170581327Y-123373298D01*
X170678000Y-123139909D01*
X170678000Y-123113800D01*
X174117000Y-123113800D01*
X174166410Y-123103794D01*
X174208035Y-123075353D01*
X174235315Y-123032959D01*
X174243904Y-122981862D01*
X174133589Y-120146750D01*
X185841000Y-120146750D01*
X185841000Y-120887310D01*
X185937673Y-121120699D01*
X186116302Y-121299327D01*
X186349691Y-121396000D01*
X188690250Y-121396000D01*
X188849000Y-121237250D01*
X188849000Y-119988000D01*
X185999750Y-119988000D01*
X185841000Y-120146750D01*
X174133589Y-120146750D01*
X174082536Y-118834690D01*
X185841000Y-118834690D01*
X185841000Y-119575250D01*
X185999750Y-119734000D01*
X188849000Y-119734000D01*
X188849000Y-118484750D01*
X188690250Y-118326000D01*
X186349691Y-118326000D01*
X186116302Y-118422673D01*
X185937673Y-118601301D01*
X185841000Y-118834690D01*
X174082536Y-118834690D01*
X174014454Y-117085000D01*
X191065000Y-117085000D01*
X191065000Y-118326000D01*
X189261750Y-118326000D01*
X189103000Y-118484750D01*
X189103000Y-119734000D01*
X189123000Y-119734000D01*
X189123000Y-119988000D01*
X189103000Y-119988000D01*
X189103000Y-121237250D01*
X189261750Y-121396000D01*
X191065000Y-121396000D01*
X191065000Y-123206000D01*
X189261750Y-123206000D01*
X189103000Y-123364750D01*
X189103000Y-124614000D01*
X189123000Y-124614000D01*
X189123000Y-124868000D01*
X189103000Y-124868000D01*
X189103000Y-126117250D01*
X189261750Y-126276000D01*
X191065000Y-126276000D01*
X191065000Y-132649000D01*
X117147713Y-132649000D01*
X112863145Y-131796747D01*
X111823383Y-131102000D01*
X114743801Y-131102000D01*
X114814032Y-131271971D01*
X115245457Y-131704151D01*
X115809430Y-131938333D01*
X116420091Y-131938865D01*
X116984471Y-131705668D01*
X117386423Y-131304418D01*
X117785457Y-131704151D01*
X118349430Y-131938333D01*
X118960091Y-131938865D01*
X119524471Y-131705668D01*
X119926423Y-131304418D01*
X120325457Y-131704151D01*
X120889430Y-131938333D01*
X121500091Y-131938865D01*
X122064471Y-131705668D01*
X122466423Y-131304418D01*
X122865457Y-131704151D01*
X123429430Y-131938333D01*
X124040091Y-131938865D01*
X124604471Y-131705668D01*
X125006423Y-131304418D01*
X125405457Y-131704151D01*
X125969430Y-131938333D01*
X126580091Y-131938865D01*
X127144471Y-131705668D01*
X127546423Y-131304418D01*
X127945457Y-131704151D01*
X128509430Y-131938333D01*
X129120091Y-131938865D01*
X129684471Y-131705668D01*
X130086423Y-131304418D01*
X130485457Y-131704151D01*
X131049430Y-131938333D01*
X131660091Y-131938865D01*
X132224471Y-131705668D01*
X132656651Y-131274243D01*
X132680430Y-131216976D01*
X133082177Y-131619424D01*
X133609409Y-131838350D01*
X134180287Y-131838848D01*
X134707900Y-131620843D01*
X135111924Y-131217523D01*
X135165962Y-131087385D01*
X135218857Y-131215400D01*
X135622177Y-131619424D01*
X136149409Y-131838350D01*
X136720287Y-131838848D01*
X137247900Y-131620843D01*
X137651648Y-131217798D01*
X137674032Y-131271971D01*
X138105457Y-131704151D01*
X138669430Y-131938333D01*
X139280091Y-131938865D01*
X139844471Y-131705668D01*
X140276651Y-131274243D01*
X140510833Y-130710270D01*
X140511365Y-130099609D01*
X140278168Y-129535229D01*
X139846743Y-129103049D01*
X139789476Y-129079270D01*
X140191924Y-128677523D01*
X140410850Y-128150291D01*
X140411348Y-127579413D01*
X140193343Y-127051800D01*
X139790722Y-126648476D01*
X141375400Y-126648476D01*
X141375400Y-125026750D01*
X185841000Y-125026750D01*
X185841000Y-125767310D01*
X185937673Y-126000699D01*
X186116302Y-126179327D01*
X186349691Y-126276000D01*
X188690250Y-126276000D01*
X188849000Y-126117250D01*
X188849000Y-124868000D01*
X185999750Y-124868000D01*
X185841000Y-125026750D01*
X141375400Y-125026750D01*
X141375400Y-123714690D01*
X185841000Y-123714690D01*
X185841000Y-124455250D01*
X185999750Y-124614000D01*
X188849000Y-124614000D01*
X188849000Y-123364750D01*
X188690250Y-123206000D01*
X186349691Y-123206000D01*
X186116302Y-123302673D01*
X185937673Y-123481301D01*
X185841000Y-123714690D01*
X141375400Y-123714690D01*
X141375400Y-120747523D01*
X137705600Y-120747523D01*
X137705600Y-119109009D01*
X132625600Y-119109009D01*
X132625600Y-119058209D01*
X130136400Y-119058209D01*
X130136400Y-118956609D01*
X127545600Y-118956609D01*
X127545600Y-118480419D01*
X124375600Y-118480419D01*
X124375600Y-121905181D01*
X124624251Y-121905181D01*
X124536200Y-122347841D01*
X124536200Y-122406559D01*
X124650274Y-122980048D01*
X124756750Y-123139400D01*
X122063000Y-123139400D01*
X122063000Y-123275895D01*
X120053000Y-123275895D01*
X120053000Y-123145714D01*
X117614600Y-123145714D01*
X117614600Y-123133038D01*
X114544600Y-123133038D01*
X114544600Y-127412562D01*
X114641314Y-127412562D01*
X114581367Y-127556930D01*
X114580953Y-128032000D01*
X113093606Y-128032000D01*
X113510960Y-127615374D01*
X113956592Y-126542172D01*
X113957606Y-125380126D01*
X113513847Y-124306148D01*
X112692874Y-123483740D01*
X111619672Y-123038108D01*
X110457626Y-123037094D01*
X109383648Y-123480853D01*
X108561240Y-124301826D01*
X108115608Y-125375028D01*
X108114594Y-126537074D01*
X108558353Y-127611052D01*
X109379326Y-128433460D01*
X110239429Y-128790606D01*
X110239429Y-130043635D01*
X109326418Y-129433580D01*
X106963253Y-125896853D01*
X106106838Y-121591363D01*
X106045000Y-121442074D01*
X106045000Y-115628239D01*
X110379400Y-115628239D01*
X110379400Y-94543690D01*
X120435000Y-94543690D01*
X120435000Y-95134250D01*
X120593750Y-95293000D01*
X121793000Y-95293000D01*
X121793000Y-94193750D01*
X121634250Y-94035000D01*
X120943691Y-94035000D01*
X120710302Y-94131673D01*
X120531673Y-94310301D01*
X120435000Y-94543690D01*
X110379400Y-94543690D01*
X110379400Y-93667762D01*
X106045000Y-93667762D01*
X106045000Y-88567467D01*
X106828792Y-84627074D01*
X108114594Y-84627074D01*
X108558353Y-85701052D01*
X109379326Y-86523460D01*
X110452528Y-86969092D01*
X111614574Y-86970106D01*
X112688552Y-86526347D01*
X113510960Y-85705374D01*
X113956592Y-84632172D01*
X113957606Y-83470126D01*
X113855810Y-83223759D01*
X115215546Y-83223759D01*
X115301952Y-83480243D01*
X115875436Y-83690058D01*
X116485560Y-83664439D01*
X116930248Y-83480243D01*
X117016654Y-83223759D01*
X116116100Y-82323205D01*
X115215546Y-83223759D01*
X113855810Y-83223759D01*
X113513847Y-82396148D01*
X113021496Y-81902936D01*
X114569642Y-81902936D01*
X114595261Y-82513060D01*
X114779457Y-82957748D01*
X115035941Y-83044154D01*
X115936495Y-82143600D01*
X115035941Y-81243046D01*
X114779457Y-81329452D01*
X114569642Y-81902936D01*
X113021496Y-81902936D01*
X112692874Y-81573740D01*
X111619672Y-81128108D01*
X110457626Y-81127094D01*
X109383648Y-81570853D01*
X108561240Y-82391826D01*
X108115608Y-83465028D01*
X108114594Y-84627074D01*
X106828792Y-84627074D01*
X106893962Y-84299446D01*
X109273384Y-80738387D01*
X109355140Y-80683759D01*
X115215546Y-80683759D01*
X115279501Y-80873600D01*
X115215546Y-81063441D01*
X116116100Y-81963995D01*
X117016654Y-81063441D01*
X116952699Y-80873600D01*
X117016654Y-80683759D01*
X116116100Y-79783205D01*
X115215546Y-80683759D01*
X109355140Y-80683759D01*
X111331891Y-79362936D01*
X114569642Y-79362936D01*
X114595261Y-79973060D01*
X114779457Y-80417748D01*
X115035941Y-80504154D01*
X115936495Y-79603600D01*
X115035941Y-78703046D01*
X114779457Y-78789452D01*
X114569642Y-79362936D01*
X111331891Y-79362936D01*
X112588283Y-78523441D01*
X115215546Y-78523441D01*
X116116100Y-79423995D01*
X117016654Y-78523441D01*
X116930248Y-78266957D01*
X116356764Y-78057142D01*
X115746640Y-78082761D01*
X115301952Y-78266957D01*
X115215546Y-78523441D01*
X112588283Y-78523441D01*
X112834444Y-78358962D01*
X117052194Y-77520000D01*
X170446092Y-77520000D01*
X170435993Y-78156230D01*
X170435993Y-78156230D01*
G37*
X170435993Y-78156230D02*
X169976972Y-78157811D01*
X169762770Y-78068867D01*
X169152109Y-78068335D01*
X168926803Y-78161430D01*
X167457874Y-78166491D01*
X167222770Y-78068867D01*
X166612109Y-78068335D01*
X166365445Y-78170254D01*
X164938775Y-78175170D01*
X164682770Y-78068867D01*
X164072109Y-78068335D01*
X163804088Y-78179079D01*
X162419677Y-78183849D01*
X162142770Y-78068867D01*
X161532109Y-78068335D01*
X161242731Y-78187904D01*
X159900578Y-78192528D01*
X159602770Y-78068867D01*
X158992109Y-78068335D01*
X158681373Y-78196728D01*
X157381480Y-78201207D01*
X157062770Y-78068867D01*
X156452109Y-78068335D01*
X156120016Y-78205553D01*
X154862381Y-78209886D01*
X154522770Y-78068867D01*
X153912109Y-78068335D01*
X153558659Y-78214378D01*
X152343283Y-78218565D01*
X151982770Y-78068867D01*
X151372109Y-78068335D01*
X150997301Y-78223202D01*
X149824185Y-78227244D01*
X149442770Y-78068867D01*
X148832109Y-78068335D01*
X148435944Y-78232027D01*
X147305086Y-78235923D01*
X146902770Y-78068867D01*
X146292109Y-78068335D01*
X145874587Y-78240852D01*
X144785988Y-78244602D01*
X144362770Y-78068867D01*
X143752109Y-78068335D01*
X143313229Y-78249676D01*
X142266889Y-78253281D01*
X141822770Y-78068867D01*
X141212109Y-78068335D01*
X140647729Y-78301532D01*
X140245777Y-78702782D01*
X139846743Y-78303049D01*
X139282770Y-78068867D01*
X138672109Y-78068335D01*
X138107729Y-78301532D01*
X137705777Y-78702782D01*
X137306743Y-78303049D01*
X136742770Y-78068867D01*
X136132109Y-78068335D01*
X135567729Y-78301532D01*
X135165777Y-78702782D01*
X134766743Y-78303049D01*
X134202770Y-78068867D01*
X133592109Y-78068335D01*
X133027729Y-78301532D01*
X132625777Y-78702782D01*
X132226743Y-78303049D01*
X131662770Y-78068867D01*
X131052109Y-78068335D01*
X130487729Y-78301532D01*
X130085777Y-78702782D01*
X129686743Y-78303049D01*
X129122770Y-78068867D01*
X128512109Y-78068335D01*
X127947729Y-78301532D01*
X127545777Y-78702782D01*
X127146743Y-78303049D01*
X126582770Y-78068867D01*
X125972109Y-78068335D01*
X125407729Y-78301532D01*
X125005777Y-78702782D01*
X124606743Y-78303049D01*
X124042770Y-78068867D01*
X123432109Y-78068335D01*
X122867729Y-78301532D01*
X122465777Y-78702782D01*
X122066743Y-78303049D01*
X121502770Y-78068867D01*
X120892109Y-78068335D01*
X120327729Y-78301532D01*
X119925777Y-78702782D01*
X119526743Y-78303049D01*
X118962770Y-78068867D01*
X118352109Y-78068335D01*
X117787729Y-78301532D01*
X117355549Y-78732957D01*
X117346897Y-78753794D01*
X117196259Y-78703046D01*
X116295705Y-79603600D01*
X117196259Y-80504154D01*
X117346427Y-80453565D01*
X117354032Y-80471971D01*
X117755282Y-80873923D01*
X117355549Y-81272957D01*
X117346897Y-81293794D01*
X117196259Y-81243046D01*
X116295705Y-82143600D01*
X117196259Y-83044154D01*
X117346427Y-82993565D01*
X117354032Y-83011971D01*
X117785457Y-83444151D01*
X118349430Y-83678333D01*
X118960091Y-83678865D01*
X119524471Y-83445668D01*
X119926423Y-83044418D01*
X120325457Y-83444151D01*
X120889430Y-83678333D01*
X121500091Y-83678865D01*
X122064471Y-83445668D01*
X122466423Y-83044418D01*
X122865457Y-83444151D01*
X123429430Y-83678333D01*
X124040091Y-83678865D01*
X124604471Y-83445668D01*
X125006423Y-83044418D01*
X125405457Y-83444151D01*
X125969430Y-83678333D01*
X126580091Y-83678865D01*
X127144471Y-83445668D01*
X127546423Y-83044418D01*
X127945457Y-83444151D01*
X128509430Y-83678333D01*
X129120091Y-83678865D01*
X129684471Y-83445668D01*
X130086423Y-83044418D01*
X130485457Y-83444151D01*
X131049430Y-83678333D01*
X131660091Y-83678865D01*
X132224471Y-83445668D01*
X132626423Y-83044418D01*
X133025457Y-83444151D01*
X133589430Y-83678333D01*
X134200091Y-83678865D01*
X134764471Y-83445668D01*
X135166423Y-83044418D01*
X135565457Y-83444151D01*
X136129430Y-83678333D01*
X136740091Y-83678865D01*
X137304471Y-83445668D01*
X137706423Y-83044418D01*
X138105457Y-83444151D01*
X138669430Y-83678333D01*
X139280091Y-83678865D01*
X139844471Y-83445668D01*
X140246423Y-83044418D01*
X140645457Y-83444151D01*
X140949474Y-83570390D01*
X140950501Y-84663000D01*
X132969000Y-84663000D01*
X132611191Y-84734173D01*
X132307855Y-84936855D01*
X126084855Y-91159855D01*
X125882173Y-91463191D01*
X125811000Y-91821000D01*
X125811000Y-94275919D01*
X125774090Y-94218559D01*
X125561890Y-94073569D01*
X125310000Y-94022560D01*
X123610000Y-94022560D01*
X123374683Y-94066838D01*
X123186169Y-94188144D01*
X123129698Y-94131673D01*
X122896309Y-94035000D01*
X122205750Y-94035000D01*
X122047000Y-94193750D01*
X122047000Y-95293000D01*
X122067000Y-95293000D01*
X122067000Y-95547000D01*
X122047000Y-95547000D01*
X122047000Y-95567000D01*
X121793000Y-95567000D01*
X121793000Y-95547000D01*
X120593750Y-95547000D01*
X120435000Y-95705750D01*
X120435000Y-96296310D01*
X120531673Y-96529699D01*
X120533042Y-96531068D01*
X120473569Y-96618110D01*
X120422560Y-96870000D01*
X120422560Y-96900611D01*
X120278480Y-96996883D01*
X120229566Y-97029566D01*
X119424566Y-97834566D01*
X119243561Y-98105459D01*
X119180000Y-98425000D01*
X119180000Y-99949000D01*
X119243561Y-100268541D01*
X119386609Y-100482627D01*
X119424566Y-100539434D01*
X119915132Y-101030000D01*
X119833725Y-101030000D01*
X119566799Y-100919162D01*
X119194833Y-100918838D01*
X118851057Y-101060883D01*
X118587808Y-101323673D01*
X118445162Y-101667201D01*
X118444838Y-102039167D01*
X118586883Y-102382943D01*
X118849673Y-102646192D01*
X118953157Y-102689162D01*
X118952838Y-103055167D01*
X119094883Y-103398943D01*
X119325537Y-103630000D01*
X114991000Y-103630000D01*
X114671459Y-103693561D01*
X114418162Y-103862809D01*
X114400566Y-103874566D01*
X111042566Y-107232566D01*
X110861561Y-107503459D01*
X110798000Y-107823000D01*
X110798000Y-118364000D01*
X110861561Y-118683541D01*
X111028552Y-118933460D01*
X111042566Y-118954434D01*
X113341916Y-121253784D01*
X113341812Y-121372873D01*
X113506646Y-121771800D01*
X113811595Y-122077282D01*
X114210233Y-122242811D01*
X114641873Y-122243188D01*
X115040800Y-122078354D01*
X115346282Y-121773405D01*
X115440311Y-121546959D01*
X115462595Y-121569282D01*
X115861233Y-121734811D01*
X116292873Y-121735188D01*
X116691800Y-121570354D01*
X116997282Y-121265405D01*
X117162811Y-120866767D01*
X117163188Y-120435127D01*
X116998354Y-120036200D01*
X116693405Y-119730718D01*
X116294767Y-119565189D01*
X116173951Y-119565083D01*
X113738000Y-117129132D01*
X113738000Y-115934868D01*
X117659916Y-119856784D01*
X117659812Y-119975873D01*
X117824646Y-120374800D01*
X118129595Y-120680282D01*
X118528233Y-120845811D01*
X118959873Y-120846188D01*
X119358800Y-120681354D01*
X119664282Y-120376405D01*
X119829811Y-119977767D01*
X119830188Y-119546127D01*
X119665354Y-119147200D01*
X119360405Y-118841718D01*
X118961767Y-118676189D01*
X118840951Y-118676083D01*
X114881000Y-114716132D01*
X114881000Y-114156868D01*
X120072916Y-119348784D01*
X120072812Y-119467873D01*
X120237646Y-119866800D01*
X120542595Y-120172282D01*
X120941233Y-120337811D01*
X121372873Y-120338188D01*
X121771800Y-120173354D01*
X122077282Y-119868405D01*
X122242811Y-119469767D01*
X122243188Y-119038127D01*
X122182128Y-118890351D01*
X122447595Y-119156282D01*
X122846233Y-119321811D01*
X123277873Y-119322188D01*
X123676800Y-119157354D01*
X123982282Y-118852405D01*
X124147811Y-118453767D01*
X124148188Y-118022127D01*
X123983354Y-117623200D01*
X123678405Y-117317718D01*
X123279767Y-117152189D01*
X123209796Y-117152128D01*
X121119601Y-115061933D01*
X121462800Y-115130200D01*
X121897145Y-115043803D01*
X122265366Y-114797766D01*
X122511403Y-114429545D01*
X122597800Y-113995200D01*
X122539494Y-113702073D01*
X123781212Y-113702073D01*
X123946046Y-114101000D01*
X124250995Y-114406482D01*
X124649633Y-114572011D01*
X125081273Y-114572388D01*
X125292463Y-114485126D01*
X125293850Y-114487281D01*
X125506050Y-114632271D01*
X125757940Y-114683280D01*
X126146400Y-114683280D01*
X126146400Y-116623600D01*
X128666400Y-116623600D01*
X128666400Y-114683280D01*
X128817026Y-114683280D01*
X128975246Y-115066200D01*
X129280195Y-115371682D01*
X129678833Y-115537211D01*
X130110473Y-115537588D01*
X130509400Y-115372754D01*
X130814882Y-115067805D01*
X130865281Y-114946431D01*
X130900972Y-114910740D01*
X130900972Y-116674400D01*
X133563829Y-116674400D01*
X133563829Y-114683280D01*
X133830060Y-114683280D01*
X134065377Y-114639002D01*
X134281501Y-114499930D01*
X134426491Y-114287730D01*
X134477500Y-114035840D01*
X134477500Y-112896600D01*
X135829689Y-112896600D01*
X135396243Y-113330045D01*
X135276200Y-113379646D01*
X134970718Y-113684595D01*
X134805189Y-114083233D01*
X134804812Y-114514873D01*
X134969646Y-114913800D01*
X135274595Y-115219282D01*
X135463619Y-115297772D01*
X135463619Y-116725200D01*
X140888381Y-116725200D01*
X140888381Y-113555200D01*
X140471900Y-113555200D01*
X140471900Y-112864317D01*
X140705677Y-112817815D01*
X141041456Y-112593456D01*
X142733756Y-110901156D01*
X142853800Y-110851554D01*
X143159282Y-110546605D01*
X143324811Y-110147967D01*
X143325188Y-109716327D01*
X143160354Y-109317400D01*
X142855405Y-109011918D01*
X142456767Y-108846389D01*
X142025127Y-108846012D01*
X141626200Y-109010846D01*
X141320718Y-109315795D01*
X141270319Y-109437170D01*
X139880888Y-110826600D01*
X138734805Y-110826600D01*
X138734800Y-110826599D01*
X138734795Y-110826600D01*
X132689605Y-110826600D01*
X132689600Y-110826599D01*
X132689595Y-110826600D01*
X129235200Y-110826600D01*
X128839122Y-110905385D01*
X128721332Y-110984090D01*
X128503344Y-111129744D01*
X128503342Y-111129747D01*
X127723564Y-111909524D01*
X127499205Y-112245303D01*
X127484001Y-112321738D01*
X127404539Y-112372870D01*
X127403857Y-112373867D01*
X127208710Y-112240529D01*
X126956820Y-112189520D01*
X125757940Y-112189520D01*
X125522623Y-112233798D01*
X125306499Y-112372870D01*
X125287005Y-112401400D01*
X124917205Y-112401400D01*
X124917200Y-112401399D01*
X124912970Y-112402240D01*
X124651527Y-112402012D01*
X124252600Y-112566846D01*
X123947118Y-112871795D01*
X123781589Y-113270433D01*
X123781212Y-113702073D01*
X122539494Y-113702073D01*
X122511403Y-113560855D01*
X122265366Y-113192634D01*
X120077732Y-111005000D01*
X122621000Y-111005000D01*
X122940541Y-110941439D01*
X123211434Y-110760434D01*
X124796434Y-109175435D01*
X124930066Y-108975439D01*
X124977439Y-108904541D01*
X125041000Y-108585000D01*
X125041000Y-103197000D01*
X125222000Y-103197000D01*
X125541541Y-103133439D01*
X125812434Y-102952434D01*
X126669000Y-102095868D01*
X126669000Y-107692000D01*
X126732561Y-108011541D01*
X126900206Y-108262440D01*
X126913566Y-108282434D01*
X126936566Y-108305434D01*
X127207459Y-108486439D01*
X127527000Y-108550000D01*
X128418569Y-108550000D01*
X128480000Y-108562440D01*
X129980000Y-108562440D01*
X130046113Y-108550000D01*
X130893231Y-108550000D01*
X130893212Y-108571273D01*
X131058046Y-108970200D01*
X131362995Y-109275682D01*
X131761633Y-109441211D01*
X132193273Y-109441588D01*
X132592200Y-109276754D01*
X132897682Y-108971805D01*
X132939643Y-108870750D01*
X136205000Y-108870750D01*
X136205000Y-109011310D01*
X136301673Y-109244699D01*
X136480302Y-109423327D01*
X136713691Y-109520000D01*
X137304250Y-109520000D01*
X137463000Y-109361250D01*
X137463000Y-108712000D01*
X137717000Y-108712000D01*
X137717000Y-109361250D01*
X137875750Y-109520000D01*
X138466309Y-109520000D01*
X138699698Y-109423327D01*
X138878327Y-109244699D01*
X138975000Y-109011310D01*
X138975000Y-108870750D01*
X138816250Y-108712000D01*
X137717000Y-108712000D01*
X137463000Y-108712000D01*
X136363750Y-108712000D01*
X136205000Y-108870750D01*
X132939643Y-108870750D01*
X133063211Y-108573167D01*
X133063588Y-108141527D01*
X132898754Y-107742600D01*
X132593805Y-107437118D01*
X132195167Y-107271589D01*
X132074351Y-107271483D01*
X131927434Y-107124566D01*
X131838287Y-107065000D01*
X131656541Y-106943561D01*
X131337000Y-106880000D01*
X130567473Y-106880000D01*
X130576431Y-106866890D01*
X130582035Y-106839215D01*
X130615000Y-106806250D01*
X130615000Y-106738690D01*
X130606532Y-106718247D01*
X130627440Y-106615000D01*
X130627440Y-106215000D01*
X130603056Y-106085411D01*
X130627440Y-105965000D01*
X130627440Y-105565000D01*
X130603056Y-105435411D01*
X130627440Y-105315000D01*
X130627440Y-104915000D01*
X130603056Y-104785411D01*
X130627440Y-104665000D01*
X130627440Y-104650000D01*
X130881000Y-104650000D01*
X131200541Y-104586439D01*
X131379294Y-104467000D01*
X132100141Y-104467000D01*
X132867025Y-105329744D01*
X132886858Y-105344753D01*
X132900677Y-105365434D01*
X133016117Y-105442569D01*
X133126822Y-105526344D01*
X133150889Y-105532620D01*
X133171570Y-105546439D01*
X133307737Y-105573524D01*
X133442078Y-105608559D01*
X133466716Y-105605147D01*
X133491111Y-105610000D01*
X134387807Y-105610000D01*
X134297189Y-105828233D01*
X134296812Y-106259873D01*
X134461646Y-106658800D01*
X134766595Y-106964282D01*
X135165233Y-107129811D01*
X135596873Y-107130188D01*
X135960354Y-106980000D01*
X136199648Y-106980000D01*
X136192560Y-107015000D01*
X136192560Y-107615000D01*
X136236838Y-107850317D01*
X136295178Y-107940980D01*
X136205000Y-108158690D01*
X136205000Y-108299250D01*
X136363750Y-108458000D01*
X137463000Y-108458000D01*
X137463000Y-108438000D01*
X137717000Y-108438000D01*
X137717000Y-108458000D01*
X138816250Y-108458000D01*
X138975000Y-108299250D01*
X138975000Y-108158690D01*
X138885194Y-107941878D01*
X138936431Y-107866890D01*
X138987440Y-107615000D01*
X138987440Y-107015000D01*
X138943162Y-106779683D01*
X138879322Y-106680472D01*
X138936431Y-106596890D01*
X138987440Y-106345000D01*
X138987440Y-105745000D01*
X138943162Y-105509683D01*
X138879322Y-105410472D01*
X138936431Y-105326890D01*
X138987440Y-105075000D01*
X138987440Y-104475000D01*
X138943162Y-104239683D01*
X138879322Y-104140472D01*
X138936431Y-104056890D01*
X138987440Y-103805000D01*
X138987440Y-103205000D01*
X138943162Y-102969683D01*
X138879322Y-102870472D01*
X138936431Y-102786890D01*
X138987440Y-102535000D01*
X138987440Y-101935000D01*
X138943162Y-101699683D01*
X138884822Y-101609020D01*
X138975000Y-101391310D01*
X138975000Y-101250750D01*
X138816250Y-101092000D01*
X137717000Y-101092000D01*
X137717000Y-101112000D01*
X137463000Y-101112000D01*
X137463000Y-101092000D01*
X136363750Y-101092000D01*
X136205000Y-101250750D01*
X136205000Y-101391310D01*
X136208600Y-101400000D01*
X136017000Y-101400000D01*
X135697459Y-101463561D01*
X135500570Y-101595118D01*
X135447622Y-101630497D01*
X135286354Y-101240200D01*
X134981405Y-100934718D01*
X134582767Y-100769189D01*
X134151127Y-100768812D01*
X133752200Y-100933646D01*
X133655678Y-101030000D01*
X132052868Y-101030000D01*
X132552868Y-100530000D01*
X134727048Y-100530000D01*
X134770191Y-100558827D01*
X135128000Y-100630000D01*
X135485809Y-100558827D01*
X135528952Y-100530000D01*
X136208600Y-100530000D01*
X136205000Y-100538690D01*
X136205000Y-100679250D01*
X136363750Y-100838000D01*
X137463000Y-100838000D01*
X137463000Y-100818000D01*
X137717000Y-100818000D01*
X137717000Y-100838000D01*
X138816250Y-100838000D01*
X138975000Y-100679250D01*
X138975000Y-100538690D01*
X138885194Y-100321878D01*
X138936431Y-100246890D01*
X138987440Y-99995000D01*
X138987440Y-99395000D01*
X138943162Y-99159683D01*
X138804090Y-98943559D01*
X138591890Y-98798569D01*
X138340000Y-98747560D01*
X136840000Y-98747560D01*
X136604683Y-98791838D01*
X136498756Y-98860000D01*
X136294694Y-98860000D01*
X136349431Y-98779890D01*
X136400440Y-98528000D01*
X136400440Y-97528000D01*
X136356162Y-97292683D01*
X136217090Y-97076559D01*
X136148994Y-97030031D01*
X136291327Y-96887698D01*
X136388000Y-96654309D01*
X136388000Y-96313750D01*
X136229250Y-96155000D01*
X135255000Y-96155000D01*
X135255000Y-96175000D01*
X135001000Y-96175000D01*
X135001000Y-96155000D01*
X134026750Y-96155000D01*
X133868000Y-96313750D01*
X133868000Y-96654309D01*
X133964673Y-96887698D01*
X134105910Y-97028936D01*
X134051559Y-97063910D01*
X133906569Y-97276110D01*
X133855560Y-97528000D01*
X133855560Y-98528000D01*
X133899838Y-98763317D01*
X133962052Y-98860000D01*
X132207000Y-98860000D01*
X131887459Y-98923561D01*
X131709482Y-99042481D01*
X131603117Y-98785057D01*
X131340327Y-98521808D01*
X130996799Y-98379162D01*
X130624833Y-98378838D01*
X130281057Y-98520883D01*
X130017808Y-98783673D01*
X129875162Y-99127201D01*
X129874838Y-99499167D01*
X129965076Y-99717560D01*
X128480000Y-99717560D01*
X128244683Y-99761838D01*
X128028559Y-99900910D01*
X127883569Y-100113110D01*
X127856765Y-100245475D01*
X127681000Y-100069710D01*
X127681000Y-97790816D01*
X127681162Y-97604833D01*
X127681000Y-97604441D01*
X127681000Y-95401691D01*
X133868000Y-95401691D01*
X133868000Y-95742250D01*
X134026750Y-95901000D01*
X135001000Y-95901000D01*
X135001000Y-95051750D01*
X135255000Y-95051750D01*
X135255000Y-95901000D01*
X136229250Y-95901000D01*
X136388000Y-95742250D01*
X136388000Y-95401691D01*
X136291327Y-95168302D01*
X136112699Y-94989673D01*
X135879310Y-94893000D01*
X135413750Y-94893000D01*
X135255000Y-95051750D01*
X135001000Y-95051750D01*
X134842250Y-94893000D01*
X134376690Y-94893000D01*
X134143301Y-94989673D01*
X133964673Y-95168302D01*
X133868000Y-95401691D01*
X127681000Y-95401691D01*
X127681000Y-93624400D01*
X134805800Y-93624400D01*
X134892197Y-94058746D01*
X135138234Y-94426966D01*
X135506454Y-94673003D01*
X135940800Y-94759400D01*
X136694562Y-94759400D01*
X136783650Y-94820271D01*
X137035540Y-94871280D01*
X138234420Y-94871280D01*
X138469737Y-94827002D01*
X138685861Y-94687930D01*
X138691456Y-94679741D01*
X138773882Y-94762167D01*
X139007271Y-94858840D01*
X139447270Y-94858840D01*
X139606020Y-94700090D01*
X139606020Y-93751400D01*
X139586020Y-93751400D01*
X139586020Y-93497400D01*
X139606020Y-93497400D01*
X139606020Y-92548710D01*
X139447270Y-92389960D01*
X139007271Y-92389960D01*
X138773882Y-92486633D01*
X138691669Y-92568845D01*
X138486310Y-92428529D01*
X138234420Y-92377520D01*
X137035540Y-92377520D01*
X136800223Y-92421798D01*
X136695167Y-92489400D01*
X135940800Y-92489400D01*
X135506454Y-92575797D01*
X135138234Y-92821834D01*
X134892197Y-93190054D01*
X134805800Y-93624400D01*
X127681000Y-93624400D01*
X127681000Y-92208290D01*
X133356290Y-86533000D01*
X140952258Y-86533000D01*
X140958220Y-92876343D01*
X140870787Y-92665261D01*
X140692158Y-92486633D01*
X140458769Y-92389960D01*
X140018770Y-92389960D01*
X139860020Y-92548710D01*
X139860020Y-93497400D01*
X139880020Y-93497400D01*
X139880020Y-93751400D01*
X139860020Y-93751400D01*
X139860020Y-94700090D01*
X140018770Y-94858840D01*
X140458769Y-94858840D01*
X140692158Y-94762167D01*
X140870787Y-94583539D01*
X140959623Y-94369070D01*
X140970000Y-105410119D01*
X140980052Y-105459520D01*
X140995118Y-105485823D01*
X154076118Y-123062623D01*
X154113644Y-123096287D01*
X154178000Y-123113800D01*
X168158000Y-123113800D01*
X168158000Y-123139909D01*
X168254673Y-123373298D01*
X168433301Y-123551927D01*
X168666690Y-123648600D01*
X169132250Y-123648600D01*
X169291000Y-123489850D01*
X169291000Y-123113800D01*
X169545000Y-123113800D01*
X169545000Y-123489850D01*
X169703750Y-123648600D01*
X170169310Y-123648600D01*
X170402699Y-123551927D01*
X170581327Y-123373298D01*
X170678000Y-123139909D01*
X170678000Y-123113800D01*
X174117000Y-123113800D01*
X174166410Y-123103794D01*
X174208035Y-123075353D01*
X174235315Y-123032959D01*
X174243904Y-122981862D01*
X174133589Y-120146750D01*
X185841000Y-120146750D01*
X185841000Y-120887310D01*
X185937673Y-121120699D01*
X186116302Y-121299327D01*
X186349691Y-121396000D01*
X188690250Y-121396000D01*
X188849000Y-121237250D01*
X188849000Y-119988000D01*
X185999750Y-119988000D01*
X185841000Y-120146750D01*
X174133589Y-120146750D01*
X174082536Y-118834690D01*
X185841000Y-118834690D01*
X185841000Y-119575250D01*
X185999750Y-119734000D01*
X188849000Y-119734000D01*
X188849000Y-118484750D01*
X188690250Y-118326000D01*
X186349691Y-118326000D01*
X186116302Y-118422673D01*
X185937673Y-118601301D01*
X185841000Y-118834690D01*
X174082536Y-118834690D01*
X174014454Y-117085000D01*
X191065000Y-117085000D01*
X191065000Y-118326000D01*
X189261750Y-118326000D01*
X189103000Y-118484750D01*
X189103000Y-119734000D01*
X189123000Y-119734000D01*
X189123000Y-119988000D01*
X189103000Y-119988000D01*
X189103000Y-121237250D01*
X189261750Y-121396000D01*
X191065000Y-121396000D01*
X191065000Y-123206000D01*
X189261750Y-123206000D01*
X189103000Y-123364750D01*
X189103000Y-124614000D01*
X189123000Y-124614000D01*
X189123000Y-124868000D01*
X189103000Y-124868000D01*
X189103000Y-126117250D01*
X189261750Y-126276000D01*
X191065000Y-126276000D01*
X191065000Y-132649000D01*
X117147713Y-132649000D01*
X112863145Y-131796747D01*
X111823383Y-131102000D01*
X114743801Y-131102000D01*
X114814032Y-131271971D01*
X115245457Y-131704151D01*
X115809430Y-131938333D01*
X116420091Y-131938865D01*
X116984471Y-131705668D01*
X117386423Y-131304418D01*
X117785457Y-131704151D01*
X118349430Y-131938333D01*
X118960091Y-131938865D01*
X119524471Y-131705668D01*
X119926423Y-131304418D01*
X120325457Y-131704151D01*
X120889430Y-131938333D01*
X121500091Y-131938865D01*
X122064471Y-131705668D01*
X122466423Y-131304418D01*
X122865457Y-131704151D01*
X123429430Y-131938333D01*
X124040091Y-131938865D01*
X124604471Y-131705668D01*
X125006423Y-131304418D01*
X125405457Y-131704151D01*
X125969430Y-131938333D01*
X126580091Y-131938865D01*
X127144471Y-131705668D01*
X127546423Y-131304418D01*
X127945457Y-131704151D01*
X128509430Y-131938333D01*
X129120091Y-131938865D01*
X129684471Y-131705668D01*
X130086423Y-131304418D01*
X130485457Y-131704151D01*
X131049430Y-131938333D01*
X131660091Y-131938865D01*
X132224471Y-131705668D01*
X132656651Y-131274243D01*
X132680430Y-131216976D01*
X133082177Y-131619424D01*
X133609409Y-131838350D01*
X134180287Y-131838848D01*
X134707900Y-131620843D01*
X135111924Y-131217523D01*
X135165962Y-131087385D01*
X135218857Y-131215400D01*
X135622177Y-131619424D01*
X136149409Y-131838350D01*
X136720287Y-131838848D01*
X137247900Y-131620843D01*
X137651648Y-131217798D01*
X137674032Y-131271971D01*
X138105457Y-131704151D01*
X138669430Y-131938333D01*
X139280091Y-131938865D01*
X139844471Y-131705668D01*
X140276651Y-131274243D01*
X140510833Y-130710270D01*
X140511365Y-130099609D01*
X140278168Y-129535229D01*
X139846743Y-129103049D01*
X139789476Y-129079270D01*
X140191924Y-128677523D01*
X140410850Y-128150291D01*
X140411348Y-127579413D01*
X140193343Y-127051800D01*
X139790722Y-126648476D01*
X141375400Y-126648476D01*
X141375400Y-125026750D01*
X185841000Y-125026750D01*
X185841000Y-125767310D01*
X185937673Y-126000699D01*
X186116302Y-126179327D01*
X186349691Y-126276000D01*
X188690250Y-126276000D01*
X188849000Y-126117250D01*
X188849000Y-124868000D01*
X185999750Y-124868000D01*
X185841000Y-125026750D01*
X141375400Y-125026750D01*
X141375400Y-123714690D01*
X185841000Y-123714690D01*
X185841000Y-124455250D01*
X185999750Y-124614000D01*
X188849000Y-124614000D01*
X188849000Y-123364750D01*
X188690250Y-123206000D01*
X186349691Y-123206000D01*
X186116302Y-123302673D01*
X185937673Y-123481301D01*
X185841000Y-123714690D01*
X141375400Y-123714690D01*
X141375400Y-120747523D01*
X137705600Y-120747523D01*
X137705600Y-119109009D01*
X132625600Y-119109009D01*
X132625600Y-119058209D01*
X130136400Y-119058209D01*
X130136400Y-118956609D01*
X127545600Y-118956609D01*
X127545600Y-118480419D01*
X124375600Y-118480419D01*
X124375600Y-121905181D01*
X124624251Y-121905181D01*
X124536200Y-122347841D01*
X124536200Y-122406559D01*
X124650274Y-122980048D01*
X124756750Y-123139400D01*
X122063000Y-123139400D01*
X122063000Y-123275895D01*
X120053000Y-123275895D01*
X120053000Y-123145714D01*
X117614600Y-123145714D01*
X117614600Y-123133038D01*
X114544600Y-123133038D01*
X114544600Y-127412562D01*
X114641314Y-127412562D01*
X114581367Y-127556930D01*
X114580953Y-128032000D01*
X113093606Y-128032000D01*
X113510960Y-127615374D01*
X113956592Y-126542172D01*
X113957606Y-125380126D01*
X113513847Y-124306148D01*
X112692874Y-123483740D01*
X111619672Y-123038108D01*
X110457626Y-123037094D01*
X109383648Y-123480853D01*
X108561240Y-124301826D01*
X108115608Y-125375028D01*
X108114594Y-126537074D01*
X108558353Y-127611052D01*
X109379326Y-128433460D01*
X110239429Y-128790606D01*
X110239429Y-130043635D01*
X109326418Y-129433580D01*
X106963253Y-125896853D01*
X106106838Y-121591363D01*
X106045000Y-121442074D01*
X106045000Y-115628239D01*
X110379400Y-115628239D01*
X110379400Y-94543690D01*
X120435000Y-94543690D01*
X120435000Y-95134250D01*
X120593750Y-95293000D01*
X121793000Y-95293000D01*
X121793000Y-94193750D01*
X121634250Y-94035000D01*
X120943691Y-94035000D01*
X120710302Y-94131673D01*
X120531673Y-94310301D01*
X120435000Y-94543690D01*
X110379400Y-94543690D01*
X110379400Y-93667762D01*
X106045000Y-93667762D01*
X106045000Y-88567467D01*
X106828792Y-84627074D01*
X108114594Y-84627074D01*
X108558353Y-85701052D01*
X109379326Y-86523460D01*
X110452528Y-86969092D01*
X111614574Y-86970106D01*
X112688552Y-86526347D01*
X113510960Y-85705374D01*
X113956592Y-84632172D01*
X113957606Y-83470126D01*
X113855810Y-83223759D01*
X115215546Y-83223759D01*
X115301952Y-83480243D01*
X115875436Y-83690058D01*
X116485560Y-83664439D01*
X116930248Y-83480243D01*
X117016654Y-83223759D01*
X116116100Y-82323205D01*
X115215546Y-83223759D01*
X113855810Y-83223759D01*
X113513847Y-82396148D01*
X113021496Y-81902936D01*
X114569642Y-81902936D01*
X114595261Y-82513060D01*
X114779457Y-82957748D01*
X115035941Y-83044154D01*
X115936495Y-82143600D01*
X115035941Y-81243046D01*
X114779457Y-81329452D01*
X114569642Y-81902936D01*
X113021496Y-81902936D01*
X112692874Y-81573740D01*
X111619672Y-81128108D01*
X110457626Y-81127094D01*
X109383648Y-81570853D01*
X108561240Y-82391826D01*
X108115608Y-83465028D01*
X108114594Y-84627074D01*
X106828792Y-84627074D01*
X106893962Y-84299446D01*
X109273384Y-80738387D01*
X109355140Y-80683759D01*
X115215546Y-80683759D01*
X115279501Y-80873600D01*
X115215546Y-81063441D01*
X116116100Y-81963995D01*
X117016654Y-81063441D01*
X116952699Y-80873600D01*
X117016654Y-80683759D01*
X116116100Y-79783205D01*
X115215546Y-80683759D01*
X109355140Y-80683759D01*
X111331891Y-79362936D01*
X114569642Y-79362936D01*
X114595261Y-79973060D01*
X114779457Y-80417748D01*
X115035941Y-80504154D01*
X115936495Y-79603600D01*
X115035941Y-78703046D01*
X114779457Y-78789452D01*
X114569642Y-79362936D01*
X111331891Y-79362936D01*
X112588283Y-78523441D01*
X115215546Y-78523441D01*
X116116100Y-79423995D01*
X117016654Y-78523441D01*
X116930248Y-78266957D01*
X116356764Y-78057142D01*
X115746640Y-78082761D01*
X115301952Y-78266957D01*
X115215546Y-78523441D01*
X112588283Y-78523441D01*
X112834444Y-78358962D01*
X117052194Y-77520000D01*
X170446092Y-77520000D01*
X170435993Y-78156230D01*
M02*
