G04 #@! TF.FileFunction,Copper,L1,Top,Signal*
%FSLAX46Y46*%
G04 Gerber Fmt 4.6, Leading zero omitted, Abs format (unit mm)*
G04 Created by KiCad (PCBNEW no-vcs-found-product) date Fri Aug 12 11:43:45 2016*
%MOMM*%
%LPD*%
G01*
G04 APERTURE LIST*
%ADD10C,0.100000*%
%ADD11C,4.572000*%
%ADD12C,2.700000*%
%ADD13C,2.800000*%
%ADD14C,0.050000*%
G04 APERTURE END LIST*
D10*
D11*
X138595000Y-112905000D03*
X72555000Y-116080000D03*
X72555000Y-67820000D03*
X138595000Y-70995000D03*
D12*
X215380000Y-136450000D03*
X215380000Y-47450000D03*
D13*
X61710000Y-136450000D03*
X61710000Y-47450000D03*
D14*
G36*
X217850000Y-139425000D02*
X60050000Y-139425000D01*
X60050000Y-137901192D01*
X60582663Y-137901192D01*
X60744663Y-138168270D01*
X61475698Y-138406893D01*
X62242404Y-138347597D01*
X62675337Y-138168270D01*
X62837337Y-137901192D01*
X62800997Y-137864852D01*
X214289003Y-137864852D01*
X214444839Y-138126738D01*
X215157684Y-138356974D01*
X215904374Y-138296891D01*
X216315161Y-138126738D01*
X216470997Y-137864852D01*
X215380000Y-136773855D01*
X214289003Y-137864852D01*
X62800997Y-137864852D01*
X61710000Y-136773855D01*
X60582663Y-137901192D01*
X60050000Y-137901192D01*
X60050000Y-137450682D01*
X60258808Y-137577337D01*
X61386145Y-136450000D01*
X62033855Y-136450000D01*
X63161192Y-137577337D01*
X63428270Y-137415337D01*
X63666893Y-136684302D01*
X63631579Y-136227684D01*
X213473026Y-136227684D01*
X213533109Y-136974374D01*
X213703262Y-137385161D01*
X213965148Y-137540997D01*
X215056145Y-136450000D01*
X215703855Y-136450000D01*
X216794852Y-137540997D01*
X217056738Y-137385161D01*
X217286974Y-136672316D01*
X217226891Y-135925626D01*
X217056738Y-135514839D01*
X216794852Y-135359003D01*
X215703855Y-136450000D01*
X215056145Y-136450000D01*
X213965148Y-135359003D01*
X213703262Y-135514839D01*
X213473026Y-136227684D01*
X63631579Y-136227684D01*
X63607597Y-135917596D01*
X63428270Y-135484663D01*
X63161192Y-135322663D01*
X62033855Y-136450000D01*
X61386145Y-136450000D01*
X60258808Y-135322663D01*
X60050000Y-135449318D01*
X60050000Y-134998808D01*
X60582663Y-134998808D01*
X61710000Y-136126145D01*
X62800997Y-135035148D01*
X214289003Y-135035148D01*
X215380000Y-136126145D01*
X216470997Y-135035148D01*
X216315161Y-134773262D01*
X215602316Y-134543026D01*
X214855626Y-134603109D01*
X214444839Y-134773262D01*
X214289003Y-135035148D01*
X62800997Y-135035148D01*
X62837337Y-134998808D01*
X62675337Y-134731730D01*
X61944302Y-134493107D01*
X61177596Y-134552403D01*
X60744663Y-134731730D01*
X60582663Y-134998808D01*
X60050000Y-134998808D01*
X60050000Y-116735709D01*
X69243427Y-116735709D01*
X69746434Y-117953080D01*
X70677021Y-118885292D01*
X71893512Y-119390424D01*
X73210709Y-119391573D01*
X74428080Y-118888566D01*
X75360292Y-117957979D01*
X75865424Y-116741488D01*
X75866573Y-115424291D01*
X75363566Y-114206920D01*
X74718482Y-113560709D01*
X135283427Y-113560709D01*
X135786434Y-114778080D01*
X136717021Y-115710292D01*
X137933512Y-116215424D01*
X139250709Y-116216573D01*
X140468080Y-115713566D01*
X141400292Y-114782979D01*
X141905424Y-113566488D01*
X141906573Y-112249291D01*
X141403566Y-111031920D01*
X140472979Y-110099708D01*
X139256488Y-109594576D01*
X137939291Y-109593427D01*
X136721920Y-110096434D01*
X135789708Y-111027021D01*
X135284576Y-112243512D01*
X135283427Y-113560709D01*
X74718482Y-113560709D01*
X74432979Y-113274708D01*
X73216488Y-112769576D01*
X71899291Y-112768427D01*
X70681920Y-113271434D01*
X69749708Y-114202021D01*
X69244576Y-115418512D01*
X69243427Y-116735709D01*
X60050000Y-116735709D01*
X60050000Y-71650709D01*
X135283427Y-71650709D01*
X135786434Y-72868080D01*
X136717021Y-73800292D01*
X137933512Y-74305424D01*
X139250709Y-74306573D01*
X140468080Y-73803566D01*
X141400292Y-72872979D01*
X141905424Y-71656488D01*
X141906573Y-70339291D01*
X141403566Y-69121920D01*
X140472979Y-68189708D01*
X139256488Y-67684576D01*
X137939291Y-67683427D01*
X136721920Y-68186434D01*
X135789708Y-69117021D01*
X135284576Y-70333512D01*
X135283427Y-71650709D01*
X60050000Y-71650709D01*
X60050000Y-68475709D01*
X69243427Y-68475709D01*
X69746434Y-69693080D01*
X70677021Y-70625292D01*
X71893512Y-71130424D01*
X73210709Y-71131573D01*
X74428080Y-70628566D01*
X75360292Y-69697979D01*
X75865424Y-68481488D01*
X75866573Y-67164291D01*
X75363566Y-65946920D01*
X74432979Y-65014708D01*
X73216488Y-64509576D01*
X71899291Y-64508427D01*
X70681920Y-65011434D01*
X69749708Y-65942021D01*
X69244576Y-67158512D01*
X69243427Y-68475709D01*
X60050000Y-68475709D01*
X60050000Y-48901192D01*
X60582663Y-48901192D01*
X60744663Y-49168270D01*
X61475698Y-49406893D01*
X62242404Y-49347597D01*
X62675337Y-49168270D01*
X62837337Y-48901192D01*
X62800997Y-48864852D01*
X214289003Y-48864852D01*
X214444839Y-49126738D01*
X215157684Y-49356974D01*
X215904374Y-49296891D01*
X216315161Y-49126738D01*
X216470997Y-48864852D01*
X215380000Y-47773855D01*
X214289003Y-48864852D01*
X62800997Y-48864852D01*
X61710000Y-47773855D01*
X60582663Y-48901192D01*
X60050000Y-48901192D01*
X60050000Y-48450682D01*
X60258808Y-48577337D01*
X61386145Y-47450000D01*
X62033855Y-47450000D01*
X63161192Y-48577337D01*
X63428270Y-48415337D01*
X63666893Y-47684302D01*
X63631579Y-47227684D01*
X213473026Y-47227684D01*
X213533109Y-47974374D01*
X213703262Y-48385161D01*
X213965148Y-48540997D01*
X215056145Y-47450000D01*
X215703855Y-47450000D01*
X216794852Y-48540997D01*
X217056738Y-48385161D01*
X217286974Y-47672316D01*
X217226891Y-46925626D01*
X217056738Y-46514839D01*
X216794852Y-46359003D01*
X215703855Y-47450000D01*
X215056145Y-47450000D01*
X213965148Y-46359003D01*
X213703262Y-46514839D01*
X213473026Y-47227684D01*
X63631579Y-47227684D01*
X63607597Y-46917596D01*
X63428270Y-46484663D01*
X63161192Y-46322663D01*
X62033855Y-47450000D01*
X61386145Y-47450000D01*
X60258808Y-46322663D01*
X60050000Y-46449318D01*
X60050000Y-45998808D01*
X60582663Y-45998808D01*
X61710000Y-47126145D01*
X62800997Y-46035148D01*
X214289003Y-46035148D01*
X215380000Y-47126145D01*
X216470997Y-46035148D01*
X216315161Y-45773262D01*
X215602316Y-45543026D01*
X214855626Y-45603109D01*
X214444839Y-45773262D01*
X214289003Y-46035148D01*
X62800997Y-46035148D01*
X62837337Y-45998808D01*
X62675337Y-45731730D01*
X61944302Y-45493107D01*
X61177596Y-45552403D01*
X60744663Y-45731730D01*
X60582663Y-45998808D01*
X60050000Y-45998808D01*
X60050000Y-44475000D01*
X217850000Y-44475000D01*
X217850000Y-139425000D01*
X217850000Y-139425000D01*
G37*
X217850000Y-139425000D02*
X60050000Y-139425000D01*
X60050000Y-137901192D01*
X60582663Y-137901192D01*
X60744663Y-138168270D01*
X61475698Y-138406893D01*
X62242404Y-138347597D01*
X62675337Y-138168270D01*
X62837337Y-137901192D01*
X62800997Y-137864852D01*
X214289003Y-137864852D01*
X214444839Y-138126738D01*
X215157684Y-138356974D01*
X215904374Y-138296891D01*
X216315161Y-138126738D01*
X216470997Y-137864852D01*
X215380000Y-136773855D01*
X214289003Y-137864852D01*
X62800997Y-137864852D01*
X61710000Y-136773855D01*
X60582663Y-137901192D01*
X60050000Y-137901192D01*
X60050000Y-137450682D01*
X60258808Y-137577337D01*
X61386145Y-136450000D01*
X62033855Y-136450000D01*
X63161192Y-137577337D01*
X63428270Y-137415337D01*
X63666893Y-136684302D01*
X63631579Y-136227684D01*
X213473026Y-136227684D01*
X213533109Y-136974374D01*
X213703262Y-137385161D01*
X213965148Y-137540997D01*
X215056145Y-136450000D01*
X215703855Y-136450000D01*
X216794852Y-137540997D01*
X217056738Y-137385161D01*
X217286974Y-136672316D01*
X217226891Y-135925626D01*
X217056738Y-135514839D01*
X216794852Y-135359003D01*
X215703855Y-136450000D01*
X215056145Y-136450000D01*
X213965148Y-135359003D01*
X213703262Y-135514839D01*
X213473026Y-136227684D01*
X63631579Y-136227684D01*
X63607597Y-135917596D01*
X63428270Y-135484663D01*
X63161192Y-135322663D01*
X62033855Y-136450000D01*
X61386145Y-136450000D01*
X60258808Y-135322663D01*
X60050000Y-135449318D01*
X60050000Y-134998808D01*
X60582663Y-134998808D01*
X61710000Y-136126145D01*
X62800997Y-135035148D01*
X214289003Y-135035148D01*
X215380000Y-136126145D01*
X216470997Y-135035148D01*
X216315161Y-134773262D01*
X215602316Y-134543026D01*
X214855626Y-134603109D01*
X214444839Y-134773262D01*
X214289003Y-135035148D01*
X62800997Y-135035148D01*
X62837337Y-134998808D01*
X62675337Y-134731730D01*
X61944302Y-134493107D01*
X61177596Y-134552403D01*
X60744663Y-134731730D01*
X60582663Y-134998808D01*
X60050000Y-134998808D01*
X60050000Y-116735709D01*
X69243427Y-116735709D01*
X69746434Y-117953080D01*
X70677021Y-118885292D01*
X71893512Y-119390424D01*
X73210709Y-119391573D01*
X74428080Y-118888566D01*
X75360292Y-117957979D01*
X75865424Y-116741488D01*
X75866573Y-115424291D01*
X75363566Y-114206920D01*
X74718482Y-113560709D01*
X135283427Y-113560709D01*
X135786434Y-114778080D01*
X136717021Y-115710292D01*
X137933512Y-116215424D01*
X139250709Y-116216573D01*
X140468080Y-115713566D01*
X141400292Y-114782979D01*
X141905424Y-113566488D01*
X141906573Y-112249291D01*
X141403566Y-111031920D01*
X140472979Y-110099708D01*
X139256488Y-109594576D01*
X137939291Y-109593427D01*
X136721920Y-110096434D01*
X135789708Y-111027021D01*
X135284576Y-112243512D01*
X135283427Y-113560709D01*
X74718482Y-113560709D01*
X74432979Y-113274708D01*
X73216488Y-112769576D01*
X71899291Y-112768427D01*
X70681920Y-113271434D01*
X69749708Y-114202021D01*
X69244576Y-115418512D01*
X69243427Y-116735709D01*
X60050000Y-116735709D01*
X60050000Y-71650709D01*
X135283427Y-71650709D01*
X135786434Y-72868080D01*
X136717021Y-73800292D01*
X137933512Y-74305424D01*
X139250709Y-74306573D01*
X140468080Y-73803566D01*
X141400292Y-72872979D01*
X141905424Y-71656488D01*
X141906573Y-70339291D01*
X141403566Y-69121920D01*
X140472979Y-68189708D01*
X139256488Y-67684576D01*
X137939291Y-67683427D01*
X136721920Y-68186434D01*
X135789708Y-69117021D01*
X135284576Y-70333512D01*
X135283427Y-71650709D01*
X60050000Y-71650709D01*
X60050000Y-68475709D01*
X69243427Y-68475709D01*
X69746434Y-69693080D01*
X70677021Y-70625292D01*
X71893512Y-71130424D01*
X73210709Y-71131573D01*
X74428080Y-70628566D01*
X75360292Y-69697979D01*
X75865424Y-68481488D01*
X75866573Y-67164291D01*
X75363566Y-65946920D01*
X74432979Y-65014708D01*
X73216488Y-64509576D01*
X71899291Y-64508427D01*
X70681920Y-65011434D01*
X69749708Y-65942021D01*
X69244576Y-67158512D01*
X69243427Y-68475709D01*
X60050000Y-68475709D01*
X60050000Y-48901192D01*
X60582663Y-48901192D01*
X60744663Y-49168270D01*
X61475698Y-49406893D01*
X62242404Y-49347597D01*
X62675337Y-49168270D01*
X62837337Y-48901192D01*
X62800997Y-48864852D01*
X214289003Y-48864852D01*
X214444839Y-49126738D01*
X215157684Y-49356974D01*
X215904374Y-49296891D01*
X216315161Y-49126738D01*
X216470997Y-48864852D01*
X215380000Y-47773855D01*
X214289003Y-48864852D01*
X62800997Y-48864852D01*
X61710000Y-47773855D01*
X60582663Y-48901192D01*
X60050000Y-48901192D01*
X60050000Y-48450682D01*
X60258808Y-48577337D01*
X61386145Y-47450000D01*
X62033855Y-47450000D01*
X63161192Y-48577337D01*
X63428270Y-48415337D01*
X63666893Y-47684302D01*
X63631579Y-47227684D01*
X213473026Y-47227684D01*
X213533109Y-47974374D01*
X213703262Y-48385161D01*
X213965148Y-48540997D01*
X215056145Y-47450000D01*
X215703855Y-47450000D01*
X216794852Y-48540997D01*
X217056738Y-48385161D01*
X217286974Y-47672316D01*
X217226891Y-46925626D01*
X217056738Y-46514839D01*
X216794852Y-46359003D01*
X215703855Y-47450000D01*
X215056145Y-47450000D01*
X213965148Y-46359003D01*
X213703262Y-46514839D01*
X213473026Y-47227684D01*
X63631579Y-47227684D01*
X63607597Y-46917596D01*
X63428270Y-46484663D01*
X63161192Y-46322663D01*
X62033855Y-47450000D01*
X61386145Y-47450000D01*
X60258808Y-46322663D01*
X60050000Y-46449318D01*
X60050000Y-45998808D01*
X60582663Y-45998808D01*
X61710000Y-47126145D01*
X62800997Y-46035148D01*
X214289003Y-46035148D01*
X215380000Y-47126145D01*
X216470997Y-46035148D01*
X216315161Y-45773262D01*
X215602316Y-45543026D01*
X214855626Y-45603109D01*
X214444839Y-45773262D01*
X214289003Y-46035148D01*
X62800997Y-46035148D01*
X62837337Y-45998808D01*
X62675337Y-45731730D01*
X61944302Y-45493107D01*
X61177596Y-45552403D01*
X60744663Y-45731730D01*
X60582663Y-45998808D01*
X60050000Y-45998808D01*
X60050000Y-44475000D01*
X217850000Y-44475000D01*
X217850000Y-139425000D01*
M02*
