G04 #@! TF.FileFunction,Copper,L1,Top,Signal*
%FSLAX46Y46*%
G04 Gerber Fmt 4.6, Leading zero omitted, Abs format (unit mm)*
G04 Created by KiCad (PCBNEW 0.201506030104+5696~23~ubuntu14.04.1-product) date Ter 17 Nov 2015 15:08:57 BRST*
%MOMM*%
G01*
G04 APERTURE LIST*
%ADD10C,0.100000*%
%ADD11C,0.500000*%
%ADD12C,0.250000*%
%ADD13C,0.300000*%
%ADD14R,1.250000X1.000000*%
%ADD15R,1.198880X1.198880*%
%ADD16R,1.300000X0.700000*%
%ADD17R,0.700000X1.300000*%
%ADD18R,1.500000X0.400000*%
%ADD19R,2.200000X1.500000*%
%ADD20C,1.524000*%
%ADD21C,3.300000*%
%ADD22R,1.500000X0.600000*%
%ADD23R,1.700000X1.500000*%
%ADD24R,0.800000X1.600000*%
%ADD25R,5.000000X2.500000*%
%ADD26R,5.000000X1.800000*%
%ADD27R,2.032000X2.032000*%
%ADD28O,2.032000X2.032000*%
%ADD29C,4.572000*%
%ADD30R,1.800000X1.800000*%
%ADD31C,1.800000*%
%ADD32C,0.600000*%
%ADD33C,0.800000*%
%ADD34C,0.400000*%
%ADD35C,0.600000*%
%ADD36C,1.000000*%
%ADD37C,0.254000*%
G04 APERTURE END LIST*
D10*
D11*
X106689638Y-95028952D02*
X108689638Y-95028952D01*
X108689638Y-95790857D01*
X108594400Y-95981333D01*
X108499162Y-96076572D01*
X108308686Y-96171810D01*
X108022971Y-96171810D01*
X107832495Y-96076572D01*
X107737257Y-95981333D01*
X107642019Y-95790857D01*
X107642019Y-95028952D01*
X106689638Y-98171810D02*
X107642019Y-97505143D01*
X106689638Y-97028952D02*
X108689638Y-97028952D01*
X108689638Y-97790857D01*
X108594400Y-97981333D01*
X108499162Y-98076572D01*
X108308686Y-98171810D01*
X108022971Y-98171810D01*
X107832495Y-98076572D01*
X107737257Y-97981333D01*
X107642019Y-97790857D01*
X107642019Y-97028952D01*
X108689638Y-99028952D02*
X107070590Y-99028952D01*
X106880114Y-99124191D01*
X106784876Y-99219429D01*
X106689638Y-99409905D01*
X106689638Y-99790857D01*
X106784876Y-99981333D01*
X106880114Y-100076572D01*
X107070590Y-100171810D01*
X108689638Y-100171810D01*
X106784876Y-101028952D02*
X106689638Y-101219429D01*
X106689638Y-101600381D01*
X106784876Y-101790857D01*
X106975352Y-101886095D01*
X107070590Y-101886095D01*
X107261067Y-101790857D01*
X107356305Y-101600381D01*
X107356305Y-101314667D01*
X107451543Y-101124190D01*
X107642019Y-101028952D01*
X107737257Y-101028952D01*
X107927733Y-101124190D01*
X108022971Y-101314667D01*
X108022971Y-101600381D01*
X107927733Y-101790857D01*
X106784876Y-103505143D02*
X106689638Y-103314667D01*
X106689638Y-102933715D01*
X106784876Y-102743238D01*
X106975352Y-102648000D01*
X107737257Y-102648000D01*
X107927733Y-102743238D01*
X108022971Y-102933715D01*
X108022971Y-103314667D01*
X107927733Y-103505143D01*
X107737257Y-103600381D01*
X107546781Y-103600381D01*
X107356305Y-102648000D01*
X106689638Y-104457524D02*
X108022971Y-104457524D01*
X107642019Y-104457524D02*
X107832495Y-104552763D01*
X107927733Y-104648001D01*
X108022971Y-104838477D01*
X108022971Y-105028953D01*
X106689638Y-105695619D02*
X108022971Y-105695619D01*
X108689638Y-105695619D02*
X108594400Y-105600381D01*
X108499162Y-105695619D01*
X108594400Y-105790858D01*
X108689638Y-105695619D01*
X108499162Y-105695619D01*
X106689638Y-107505143D02*
X107737257Y-107505143D01*
X107927733Y-107409905D01*
X108022971Y-107219429D01*
X108022971Y-106838477D01*
X107927733Y-106648000D01*
X106784876Y-107505143D02*
X106689638Y-107314667D01*
X106689638Y-106838477D01*
X106784876Y-106648000D01*
X106975352Y-106552762D01*
X107165829Y-106552762D01*
X107356305Y-106648000D01*
X107451543Y-106838477D01*
X107451543Y-107314667D01*
X107546781Y-107505143D01*
X106689638Y-108743239D02*
X106784876Y-108552763D01*
X106975352Y-108457524D01*
X108689638Y-108457524D01*
X108022971Y-110362286D02*
X106689638Y-110362286D01*
X108784876Y-109886096D02*
X107356305Y-109409905D01*
X107356305Y-110648001D01*
X107832495Y-111695620D02*
X107927733Y-111505144D01*
X108022971Y-111409905D01*
X108213448Y-111314667D01*
X108308686Y-111314667D01*
X108499162Y-111409905D01*
X108594400Y-111505144D01*
X108689638Y-111695620D01*
X108689638Y-112076572D01*
X108594400Y-112267048D01*
X108499162Y-112362286D01*
X108308686Y-112457525D01*
X108213448Y-112457525D01*
X108022971Y-112362286D01*
X107927733Y-112267048D01*
X107832495Y-112076572D01*
X107832495Y-111695620D01*
X107737257Y-111505144D01*
X107642019Y-111409905D01*
X107451543Y-111314667D01*
X107070590Y-111314667D01*
X106880114Y-111409905D01*
X106784876Y-111505144D01*
X106689638Y-111695620D01*
X106689638Y-112076572D01*
X106784876Y-112267048D01*
X106880114Y-112362286D01*
X107070590Y-112457525D01*
X107451543Y-112457525D01*
X107642019Y-112362286D01*
X107737257Y-112267048D01*
X107832495Y-112076572D01*
X108689638Y-114267048D02*
X108689638Y-113314667D01*
X107737257Y-113219429D01*
X107832495Y-113314667D01*
X107927733Y-113505144D01*
X107927733Y-113981334D01*
X107832495Y-114171810D01*
X107737257Y-114267048D01*
X107546781Y-114362287D01*
X107070590Y-114362287D01*
X106880114Y-114267048D01*
X106784876Y-114171810D01*
X106689638Y-113981334D01*
X106689638Y-113505144D01*
X106784876Y-113314667D01*
X106880114Y-113219429D01*
D12*
X111212524Y-130119381D02*
X111212524Y-129119381D01*
X111450619Y-129119381D01*
X111593477Y-129167000D01*
X111688715Y-129262238D01*
X111736334Y-129357476D01*
X111783953Y-129547952D01*
X111783953Y-129690810D01*
X111736334Y-129881286D01*
X111688715Y-129976524D01*
X111593477Y-130071762D01*
X111450619Y-130119381D01*
X111212524Y-130119381D01*
X112403000Y-129119381D02*
X112593477Y-129119381D01*
X112688715Y-129167000D01*
X112783953Y-129262238D01*
X112831572Y-129452714D01*
X112831572Y-129786048D01*
X112783953Y-129976524D01*
X112688715Y-130071762D01*
X112593477Y-130119381D01*
X112403000Y-130119381D01*
X112307762Y-130071762D01*
X112212524Y-129976524D01*
X112164905Y-129786048D01*
X112164905Y-129452714D01*
X112212524Y-129262238D01*
X112307762Y-129167000D01*
X112403000Y-129119381D01*
X113260143Y-129119381D02*
X113260143Y-129928905D01*
X113307762Y-130024143D01*
X113355381Y-130071762D01*
X113450619Y-130119381D01*
X113641096Y-130119381D01*
X113736334Y-130071762D01*
X113783953Y-130024143D01*
X113831572Y-129928905D01*
X113831572Y-129119381D01*
X114164905Y-129119381D02*
X114736334Y-129119381D01*
X114450619Y-130119381D02*
X114450619Y-129119381D01*
X124150381Y-126636304D02*
X123150381Y-126636304D01*
X124150381Y-125588685D02*
X123674190Y-125922019D01*
X124150381Y-126160114D02*
X123150381Y-126160114D01*
X123150381Y-125779161D01*
X123198000Y-125683923D01*
X123245619Y-125636304D01*
X123340857Y-125588685D01*
X123483714Y-125588685D01*
X123578952Y-125636304D01*
X123626571Y-125683923D01*
X123674190Y-125779161D01*
X123674190Y-126160114D01*
X124245619Y-124493447D02*
X124198000Y-124588685D01*
X124102762Y-124683923D01*
X123959905Y-124826780D01*
X123912286Y-124922019D01*
X123912286Y-125017257D01*
X124150381Y-124969638D02*
X124102762Y-125064876D01*
X124007524Y-125160114D01*
X123817048Y-125207733D01*
X123483714Y-125207733D01*
X123293238Y-125160114D01*
X123198000Y-125064876D01*
X123150381Y-124969638D01*
X123150381Y-124779161D01*
X123198000Y-124683923D01*
X123293238Y-124588685D01*
X123483714Y-124541066D01*
X123817048Y-124541066D01*
X124007524Y-124588685D01*
X124102762Y-124683923D01*
X124150381Y-124779161D01*
X124150381Y-124969638D01*
X123150381Y-124064876D02*
X123340857Y-124160114D01*
X121762781Y-126296609D02*
X120762781Y-126296609D01*
X120762781Y-126058514D01*
X120810400Y-125915656D01*
X120905638Y-125820418D01*
X121000876Y-125772799D01*
X121191352Y-125725180D01*
X121334210Y-125725180D01*
X121524686Y-125772799D01*
X121619924Y-125820418D01*
X121715162Y-125915656D01*
X121762781Y-126058514D01*
X121762781Y-126296609D01*
X121762781Y-125296609D02*
X120762781Y-125296609D01*
X121762781Y-124820419D02*
X120762781Y-124820419D01*
X121762781Y-124248990D01*
X120762781Y-124248990D01*
X118975143Y-125499761D02*
X119022762Y-125547380D01*
X119070381Y-125690237D01*
X119070381Y-125785475D01*
X119022762Y-125928333D01*
X118927524Y-126023571D01*
X118832286Y-126071190D01*
X118641810Y-126118809D01*
X118498952Y-126118809D01*
X118308476Y-126071190D01*
X118213238Y-126023571D01*
X118118000Y-125928333D01*
X118070381Y-125785475D01*
X118070381Y-125690237D01*
X118118000Y-125547380D01*
X118165619Y-125499761D01*
X119022762Y-125118809D02*
X119070381Y-124975952D01*
X119070381Y-124737856D01*
X119022762Y-124642618D01*
X118975143Y-124594999D01*
X118879905Y-124547380D01*
X118784667Y-124547380D01*
X118689429Y-124594999D01*
X118641810Y-124642618D01*
X118594190Y-124737856D01*
X118546571Y-124928333D01*
X118498952Y-125023571D01*
X118451333Y-125071190D01*
X118356095Y-125118809D01*
X118260857Y-125118809D01*
X118165619Y-125071190D01*
X118118000Y-125023571D01*
X118070381Y-124928333D01*
X118070381Y-124690237D01*
X118118000Y-124547380D01*
X118070381Y-124071190D02*
X118260857Y-124166428D01*
X116536743Y-125868038D02*
X116584362Y-125915657D01*
X116631981Y-126058514D01*
X116631981Y-126153752D01*
X116584362Y-126296610D01*
X116489124Y-126391848D01*
X116393886Y-126439467D01*
X116203410Y-126487086D01*
X116060552Y-126487086D01*
X115870076Y-126439467D01*
X115774838Y-126391848D01*
X115679600Y-126296610D01*
X115631981Y-126153752D01*
X115631981Y-126058514D01*
X115679600Y-125915657D01*
X115727219Y-125868038D01*
X116631981Y-124963276D02*
X116631981Y-125439467D01*
X115631981Y-125439467D01*
X116631981Y-124629943D02*
X115631981Y-124629943D01*
X116631981Y-124058514D02*
X116060552Y-124487086D01*
X115631981Y-124058514D02*
X116203410Y-124629943D01*
X137374381Y-116379571D02*
X137326762Y-116436714D01*
X137183905Y-116493857D01*
X137088667Y-116493857D01*
X136945809Y-116436714D01*
X136850571Y-116322429D01*
X136802952Y-116208143D01*
X136755333Y-115979571D01*
X136755333Y-115808143D01*
X136802952Y-115579571D01*
X136850571Y-115465286D01*
X136945809Y-115351000D01*
X137088667Y-115293857D01*
X137183905Y-115293857D01*
X137326762Y-115351000D01*
X137374381Y-115408143D01*
X137660095Y-115293857D02*
X138231524Y-115293857D01*
X137945809Y-116493857D02*
X137945809Y-115293857D01*
X138517238Y-116436714D02*
X138660095Y-116493857D01*
X138898191Y-116493857D01*
X138993429Y-116436714D01*
X139041048Y-116379571D01*
X139088667Y-116265286D01*
X139088667Y-116151000D01*
X139041048Y-116036714D01*
X138993429Y-115979571D01*
X138898191Y-115922429D01*
X138707714Y-115865286D01*
X138612476Y-115808143D01*
X138564857Y-115751000D01*
X138517238Y-115636714D01*
X138517238Y-115522429D01*
X138564857Y-115408143D01*
X138612476Y-115351000D01*
X138707714Y-115293857D01*
X138945810Y-115293857D01*
X139088667Y-115351000D01*
D13*
X137451334Y-114380095D02*
X137018001Y-113761048D01*
X136708477Y-114380095D02*
X136708477Y-113080095D01*
X137203715Y-113080095D01*
X137327524Y-113142000D01*
X137389429Y-113203905D01*
X137451334Y-113327714D01*
X137451334Y-113513429D01*
X137389429Y-113637238D01*
X137327524Y-113699143D01*
X137203715Y-113761048D01*
X136708477Y-113761048D01*
X137884667Y-113080095D02*
X138751334Y-114380095D01*
X138751334Y-113080095D02*
X137884667Y-114380095D01*
X136677525Y-110667095D02*
X137420382Y-110667095D01*
X137048953Y-111967095D02*
X137048953Y-110667095D01*
X137729905Y-110667095D02*
X138596572Y-111967095D01*
X138596572Y-110667095D02*
X137729905Y-111967095D01*
D14*
X156210000Y-108950000D03*
X156210000Y-106950000D03*
X156210000Y-119110000D03*
X156210000Y-117110000D03*
D15*
X143349980Y-115189000D03*
X145448020Y-115189000D03*
D16*
X118110000Y-110170000D03*
X118110000Y-108270000D03*
D17*
X152588000Y-96901000D03*
X150688000Y-96901000D03*
X152588000Y-99187000D03*
X150688000Y-99187000D03*
X163129000Y-102362000D03*
X161229000Y-102362000D03*
D18*
X122230000Y-100565000D03*
X122230000Y-101215000D03*
X122230000Y-101865000D03*
X122230000Y-102515000D03*
X122230000Y-103165000D03*
X122230000Y-103815000D03*
X122230000Y-104465000D03*
X122230000Y-105115000D03*
X122230000Y-105765000D03*
X122230000Y-106415000D03*
X122230000Y-107065000D03*
X122230000Y-107715000D03*
X129230000Y-107715000D03*
X129230000Y-107065000D03*
X129230000Y-106415000D03*
X129230000Y-105765000D03*
X129230000Y-105115000D03*
X129230000Y-104465000D03*
X129230000Y-103815000D03*
X129230000Y-103165000D03*
X129230000Y-102515000D03*
X129230000Y-101865000D03*
X129230000Y-101215000D03*
X129230000Y-100565000D03*
D19*
X158750000Y-106680000D03*
X158750000Y-109220000D03*
X158750000Y-116840000D03*
X158750000Y-119380000D03*
X158750000Y-121920000D03*
X166370000Y-121920000D03*
X166370000Y-106680000D03*
D20*
X177251340Y-90774520D03*
X177251340Y-88234520D03*
X177251340Y-93314520D03*
X179791340Y-86964520D03*
X179791340Y-89504520D03*
X179791340Y-92044520D03*
D21*
X186319140Y-95356680D03*
X186321680Y-84983320D03*
D22*
X137590000Y-99695000D03*
X137590000Y-100965000D03*
X137590000Y-102235000D03*
X137590000Y-103505000D03*
X137590000Y-104775000D03*
X137590000Y-106045000D03*
X137590000Y-107315000D03*
X137590000Y-108585000D03*
X146890000Y-108585000D03*
X146890000Y-107315000D03*
X146890000Y-106045000D03*
X146890000Y-104775000D03*
X146890000Y-103505000D03*
X146890000Y-102235000D03*
X146890000Y-100965000D03*
X146890000Y-99695000D03*
D10*
G36*
X122770000Y-96870000D02*
X122770000Y-98370000D01*
X121070000Y-98370000D01*
X121070000Y-96870000D01*
X122770000Y-96870000D01*
X122770000Y-96870000D01*
G37*
D23*
X121920000Y-95420000D03*
D10*
G36*
X125310000Y-96870000D02*
X125310000Y-98370000D01*
X123610000Y-98370000D01*
X123610000Y-96870000D01*
X125310000Y-96870000D01*
X125310000Y-96870000D01*
G37*
D23*
X124460000Y-95420000D03*
D24*
X155448000Y-90115000D03*
X157988000Y-90115000D03*
X155448000Y-99115000D03*
X157988000Y-99115000D03*
X162814000Y-90115000D03*
X165354000Y-90115000D03*
X162814000Y-99115000D03*
X165354000Y-99115000D03*
D14*
X135128000Y-96028000D03*
X135128000Y-98028000D03*
X146558000Y-94758000D03*
X146558000Y-96758000D03*
X148463000Y-94758000D03*
X148463000Y-96758000D03*
D25*
X188976000Y-122301000D03*
D26*
X188976000Y-119861000D03*
X188976000Y-124741000D03*
D27*
X169265600Y-103784400D03*
D28*
X169265600Y-101244400D03*
D29*
X111036100Y-84048600D03*
X177076100Y-80873600D03*
X177076100Y-129133600D03*
X111036100Y-125958600D03*
D30*
X171996100Y-79603600D03*
D31*
X171996100Y-82143600D03*
X169456100Y-79603600D03*
X169456100Y-82143600D03*
X166916100Y-79603600D03*
X166916100Y-82143600D03*
X164376100Y-79603600D03*
X164376100Y-82143600D03*
X161836100Y-79603600D03*
X161836100Y-82143600D03*
X159296100Y-79603600D03*
X159296100Y-82143600D03*
X156756100Y-79603600D03*
X156756100Y-82143600D03*
X154216100Y-79603600D03*
X154216100Y-82143600D03*
X151676100Y-79603600D03*
X151676100Y-82143600D03*
X149136100Y-79603600D03*
X149136100Y-82143600D03*
X146596100Y-79603600D03*
X146596100Y-82143600D03*
X144056100Y-79603600D03*
X144056100Y-82143600D03*
X141516100Y-79603600D03*
X141516100Y-82143600D03*
X138976100Y-79603600D03*
X138976100Y-82143600D03*
X136436100Y-79603600D03*
X136436100Y-82143600D03*
X133896100Y-79603600D03*
X133896100Y-82143600D03*
X131356100Y-79603600D03*
X131356100Y-82143600D03*
X128816100Y-79603600D03*
X128816100Y-82143600D03*
X126276100Y-79603600D03*
X126276100Y-82143600D03*
X123736100Y-79603600D03*
X123736100Y-82143600D03*
X121196100Y-79603600D03*
X121196100Y-82143600D03*
X118656100Y-79603600D03*
X118656100Y-82143600D03*
X116116100Y-79603600D03*
X116116100Y-82143600D03*
D30*
X171996100Y-127863600D03*
D31*
X171996100Y-130403600D03*
X169456100Y-127863600D03*
X169456100Y-130403600D03*
X166916100Y-127863600D03*
X166916100Y-130403600D03*
X164376100Y-127863600D03*
X164376100Y-130403600D03*
X161836100Y-127863600D03*
X161836100Y-130403600D03*
X159296100Y-127863600D03*
X159296100Y-130403600D03*
X156756100Y-127863600D03*
X156756100Y-130403600D03*
X154216100Y-127863600D03*
X154216100Y-130403600D03*
X151676100Y-127863600D03*
X151676100Y-130403600D03*
X149136100Y-127863600D03*
X149136100Y-130403600D03*
X146596100Y-127863600D03*
X146596100Y-130403600D03*
X144056100Y-127863600D03*
X144056100Y-130403600D03*
X141516100Y-127863600D03*
X141516100Y-130403600D03*
X138976100Y-127863600D03*
X138976100Y-130403600D03*
X136436100Y-127863600D03*
X136436100Y-130403600D03*
X133896100Y-127863600D03*
X133896100Y-130403600D03*
X131356100Y-127863600D03*
X131356100Y-130403600D03*
X128816100Y-127863600D03*
X128816100Y-130403600D03*
X126276100Y-127863600D03*
X126276100Y-130403600D03*
X123736100Y-127863600D03*
X123736100Y-130403600D03*
X121196100Y-127863600D03*
X121196100Y-130403600D03*
X118656100Y-127863600D03*
X118656100Y-130403600D03*
X116116100Y-127863600D03*
X116116100Y-130403600D03*
D32*
X158750000Y-102997000D03*
X151511000Y-93472000D03*
X149606000Y-108585000D03*
X150622000Y-102616000D03*
X167005000Y-93980000D03*
X130810000Y-99314000D03*
X126746000Y-97790000D03*
X119380000Y-101854000D03*
X130810000Y-108204000D03*
X168275000Y-84328000D03*
X139954000Y-112903000D03*
X155067000Y-111506000D03*
X119634000Y-100838000D03*
X134239000Y-92456000D03*
X125603000Y-110744000D03*
X119888000Y-102870000D03*
X119888000Y-108458000D03*
X141605000Y-115189000D03*
X169926000Y-92075000D03*
X169672000Y-90678000D03*
X132475111Y-103632000D03*
D31*
X135255000Y-115824000D03*
D32*
X133604000Y-103124000D03*
D31*
X135382000Y-113665000D03*
X135382000Y-111252000D03*
D32*
X134366000Y-101854000D03*
X135382000Y-106045000D03*
X123063000Y-118237000D03*
X121158000Y-119253000D03*
X118745000Y-119761000D03*
X116078000Y-120650000D03*
X114427000Y-121158000D03*
X140335000Y-124968000D03*
D33*
X156210000Y-106950000D02*
X158480000Y-106950000D01*
D34*
X158480000Y-106950000D02*
X158750000Y-106680000D01*
D33*
X158750000Y-102997000D02*
X158750000Y-103759000D01*
X158750000Y-103759000D02*
X158750000Y-106680000D01*
D35*
X150114000Y-96901000D02*
X150688000Y-96901000D01*
X148590000Y-98425000D02*
X150114000Y-96901000D01*
X147320000Y-99695000D02*
X148590000Y-98425000D01*
D34*
X146890000Y-99695000D02*
X147320000Y-99695000D01*
X150622000Y-96835000D02*
X150688000Y-96901000D01*
D36*
X150622000Y-94361000D02*
X150622000Y-96835000D01*
X151511000Y-93472000D02*
X150622000Y-94361000D01*
D35*
X146558000Y-96758000D02*
X148463000Y-96758000D01*
X148590000Y-98171000D02*
X148590000Y-98425000D01*
X148590000Y-98425000D02*
X148590000Y-98171000D01*
X148463000Y-98552000D02*
X148590000Y-98425000D01*
X148463000Y-96758000D02*
X148463000Y-98552000D01*
D33*
X158750000Y-116840000D02*
X156480000Y-116840000D01*
D34*
X156480000Y-116840000D02*
X156210000Y-117110000D01*
D35*
X148463000Y-100965000D02*
X146890000Y-100965000D01*
X150241000Y-99187000D02*
X148463000Y-100965000D01*
X150688000Y-99187000D02*
X150241000Y-99187000D01*
D34*
X157861000Y-116840000D02*
X158750000Y-116840000D01*
D35*
X149606000Y-108585000D02*
X157861000Y-116840000D01*
D34*
X146890000Y-108585000D02*
X149606000Y-108585000D01*
D36*
X150688000Y-102550000D02*
X150622000Y-102616000D01*
X150688000Y-99187000D02*
X150688000Y-102550000D01*
D33*
X167005000Y-102616000D02*
X167005000Y-93980000D01*
X162306000Y-107315000D02*
X167005000Y-102616000D01*
X162306000Y-114427000D02*
X162306000Y-107315000D01*
X159893000Y-116840000D02*
X162306000Y-114427000D01*
X158750000Y-116840000D02*
X159893000Y-116840000D01*
D34*
X135128000Y-99695000D02*
X132207000Y-99695000D01*
X137590000Y-99695000D02*
X135128000Y-99695000D01*
X132207000Y-99695000D02*
X130810000Y-101092000D01*
X122230000Y-103815000D02*
X124206000Y-103815000D01*
X124206000Y-103815000D02*
X124206000Y-103886000D01*
X122230000Y-103165000D02*
X124206000Y-103165000D01*
X124206000Y-103165000D02*
X124206000Y-103251000D01*
X122230000Y-101865000D02*
X123709000Y-101865000D01*
X122621000Y-110170000D02*
X118110000Y-110170000D01*
X124206000Y-108585000D02*
X122621000Y-110170000D01*
X124206000Y-102362000D02*
X124206000Y-103251000D01*
X124206000Y-103251000D02*
X124206000Y-103886000D01*
X124206000Y-103886000D02*
X124206000Y-108585000D01*
X123709000Y-101865000D02*
X124206000Y-102362000D01*
X129230000Y-101215000D02*
X130687000Y-101215000D01*
X130810000Y-101092000D02*
X130810000Y-99314000D01*
X130687000Y-101215000D02*
X130810000Y-101092000D01*
D35*
X124460000Y-97620000D02*
X126576000Y-97620000D01*
D34*
X126576000Y-97620000D02*
X126746000Y-97790000D01*
X122230000Y-101865000D02*
X119391000Y-101865000D01*
X119391000Y-101865000D02*
X119380000Y-101854000D01*
X129230000Y-107715000D02*
X130321000Y-107715000D01*
X130321000Y-107715000D02*
X130810000Y-108204000D01*
X127504000Y-107692000D02*
X127504000Y-101215000D01*
X127527000Y-107715000D02*
X127504000Y-107692000D01*
X129230000Y-107715000D02*
X127527000Y-107715000D01*
X125222000Y-102362000D02*
X126369000Y-101215000D01*
X126369000Y-101215000D02*
X127504000Y-101215000D01*
X124206000Y-102362000D02*
X125222000Y-102362000D01*
D35*
X126746000Y-91821000D02*
X126746000Y-97790000D01*
X126746000Y-100457000D02*
X127504000Y-101215000D01*
D34*
X127504000Y-101215000D02*
X129230000Y-101215000D01*
D35*
X126746000Y-97790000D02*
X126746000Y-100457000D01*
X135128000Y-98028000D02*
X135128000Y-99695000D01*
X168275000Y-84328000D02*
X167005000Y-85598000D01*
X167005000Y-85598000D02*
X132969000Y-85598000D01*
X132969000Y-85598000D02*
X126746000Y-91821000D01*
D34*
X129230000Y-107065000D02*
X130806000Y-107065000D01*
X130806000Y-107065000D02*
X130810000Y-107061000D01*
D35*
X137590000Y-108585000D02*
X139700000Y-108585000D01*
X139954000Y-108839000D02*
X139954000Y-112903000D01*
X139700000Y-108585000D02*
X139954000Y-108839000D01*
D34*
X122230000Y-101215000D02*
X120015000Y-101215000D01*
X137590000Y-100965000D02*
X137541000Y-101092000D01*
D33*
X155067000Y-111506000D02*
X157353000Y-109220000D01*
X157353000Y-109220000D02*
X158750000Y-109220000D01*
X156210000Y-108950000D02*
X158480000Y-108950000D01*
D34*
X158480000Y-108950000D02*
X158750000Y-109220000D01*
X120015000Y-101215000D02*
X119937998Y-101215000D01*
X120015000Y-101215000D02*
X120011000Y-101215000D01*
X120011000Y-101215000D02*
X119634000Y-100838000D01*
X122230000Y-102515000D02*
X120243000Y-102515000D01*
X120243000Y-102515000D02*
X119888000Y-102870000D01*
X122230000Y-107715000D02*
X120631000Y-107715000D01*
X120631000Y-107715000D02*
X119888000Y-108458000D01*
D33*
X141605000Y-115189000D02*
X143349980Y-115189000D01*
D35*
X157861000Y-90805000D02*
X159004000Y-91948000D01*
X159004000Y-91948000D02*
X160528000Y-91948000D01*
X160528000Y-91948000D02*
X160528000Y-91948000D01*
X159385000Y-93091000D02*
X160528000Y-91948000D01*
X159385000Y-100838000D02*
X159385000Y-93091000D01*
X155448000Y-104775000D02*
X159385000Y-100838000D01*
X146890000Y-104775000D02*
X155448000Y-104775000D01*
X162052000Y-91948000D02*
X162814000Y-91186000D01*
X162814000Y-91186000D02*
X162814000Y-90115000D01*
X160528000Y-91948000D02*
X162052000Y-91948000D01*
X162433000Y-91948000D02*
X162560000Y-92075000D01*
X162560000Y-92075000D02*
X169926000Y-92075000D01*
X162052000Y-91948000D02*
X162433000Y-91948000D01*
D33*
X162814000Y-90115000D02*
X162814000Y-88773000D01*
X157988000Y-90115000D02*
X157988000Y-88773000D01*
D35*
X146890000Y-103505000D02*
X145542000Y-103505000D01*
X165354000Y-90170000D02*
X166116000Y-90678000D01*
X166116000Y-90678000D02*
X169672000Y-90678000D01*
X155448000Y-90115000D02*
X155448000Y-89027000D01*
X145542000Y-103505000D02*
X144526000Y-102489000D01*
X144526000Y-102489000D02*
X144526000Y-91948000D01*
X144526000Y-91948000D02*
X148336000Y-88138000D01*
X164846000Y-87376000D02*
X165354000Y-87884000D01*
X156210000Y-87376000D02*
X164846000Y-87376000D01*
X165354000Y-87884000D02*
X165354000Y-90115000D01*
X149098000Y-87376000D02*
X156210000Y-87376000D01*
X148336000Y-88138000D02*
X149098000Y-87376000D01*
X155448000Y-88138000D02*
X156210000Y-87376000D01*
X155448000Y-90115000D02*
X155448000Y-88138000D01*
X157988000Y-97663000D02*
X157988000Y-99115000D01*
X157226000Y-96901000D02*
X157988000Y-97663000D01*
X152588000Y-96901000D02*
X157226000Y-96901000D01*
D33*
X157988000Y-99115000D02*
X157988000Y-100330000D01*
D34*
X155376000Y-99187000D02*
X155448000Y-99115000D01*
D36*
X152588000Y-99187000D02*
X155376000Y-99187000D01*
D33*
X155448000Y-99115000D02*
X155448000Y-100330000D01*
D35*
X164338000Y-102362000D02*
X165354000Y-101346000D01*
X165354000Y-101346000D02*
X165354000Y-99115000D01*
X163129000Y-102362000D02*
X164338000Y-102362000D01*
X162814000Y-100584000D02*
X162433000Y-100965000D01*
X162433000Y-100965000D02*
X161798000Y-100965000D01*
X161798000Y-100965000D02*
X161229000Y-101534000D01*
X161229000Y-101534000D02*
X161229000Y-102362000D01*
X162814000Y-99115000D02*
X162814000Y-100584000D01*
D34*
X136017000Y-104775000D02*
X136017000Y-104902000D01*
X136017000Y-104775000D02*
X137590000Y-104775000D01*
X136017000Y-104902000D02*
X136017000Y-104775000D01*
X131064000Y-103632000D02*
X132475111Y-103632000D01*
X136398000Y-103505000D02*
X137590000Y-103505000D01*
X136017000Y-104775000D02*
X136398000Y-103505000D01*
X133491111Y-104775000D02*
X136017000Y-104775000D01*
X132475111Y-103632000D02*
X133491111Y-104775000D01*
X129230000Y-103165000D02*
X130851000Y-103165000D01*
X130881000Y-103815000D02*
X129230000Y-103815000D01*
X131064000Y-103632000D02*
X130881000Y-103815000D01*
X131064000Y-103378000D02*
X131064000Y-103632000D01*
X130851000Y-103165000D02*
X131064000Y-103378000D01*
X129230000Y-102515000D02*
X132995000Y-102515000D01*
X136017000Y-102235000D02*
X137590000Y-102235000D01*
X135128000Y-103124000D02*
X136017000Y-102235000D01*
X133604000Y-103124000D02*
X135128000Y-103124000D01*
X132995000Y-102515000D02*
X133604000Y-103124000D01*
X129230000Y-101865000D02*
X134377000Y-101865000D01*
D35*
X134377000Y-101865000D02*
X134366000Y-101854000D01*
X135382000Y-106045000D02*
X136271000Y-106045000D01*
X136271000Y-106045000D02*
X137590000Y-106045000D01*
D34*
X118110000Y-108270000D02*
X118110000Y-107950000D01*
X118110000Y-107950000D02*
X118995000Y-107065000D01*
X118995000Y-107065000D02*
X122230000Y-107065000D01*
X117155000Y-108270000D02*
X116205000Y-109220000D01*
X118110000Y-108270000D02*
X117155000Y-108270000D01*
X116205000Y-109220000D02*
X116205000Y-111328200D01*
X116205000Y-111328200D02*
X123113800Y-118237000D01*
X123113800Y-118237000D02*
X123063000Y-118237000D01*
X116851000Y-106415000D02*
X122230000Y-106415000D01*
X115062000Y-108204000D02*
X116851000Y-106415000D01*
X115062000Y-113157000D02*
X115062000Y-108204000D01*
X121158000Y-119253000D02*
X115062000Y-113157000D01*
X122230000Y-105765000D02*
X116231000Y-105765000D01*
X116231000Y-105765000D02*
X114046000Y-107950000D01*
X114046000Y-107950000D02*
X114046000Y-115062000D01*
X114046000Y-115062000D02*
X118745000Y-119761000D01*
X115738000Y-105115000D02*
X122230000Y-105115000D01*
X116078000Y-120650000D02*
X112903000Y-117475000D01*
X112903000Y-117475000D02*
X112903000Y-107950000D01*
X112903000Y-107950000D02*
X115738000Y-105115000D01*
X122230000Y-104465000D02*
X114991000Y-104465000D01*
X111633000Y-118364000D02*
X114427000Y-121158000D01*
X111633000Y-107823000D02*
X111633000Y-118364000D01*
X114991000Y-104465000D02*
X111633000Y-107823000D01*
X121920000Y-97620000D02*
X120820000Y-97620000D01*
X120631000Y-100565000D02*
X122230000Y-100565000D01*
X120015000Y-99949000D02*
X120631000Y-100565000D01*
X120015000Y-98425000D02*
X120015000Y-99949000D01*
X120820000Y-97620000D02*
X120015000Y-98425000D01*
X120015000Y-98425000D02*
X120015000Y-98425000D01*
D36*
X188214000Y-122301000D02*
X177800000Y-122301000D01*
X177800000Y-122301000D02*
X175133000Y-124968000D01*
X175133000Y-124968000D02*
X140335000Y-124968000D01*
X169291000Y-103962200D02*
X169291000Y-112268000D01*
X162179000Y-119380000D02*
X158750000Y-119380000D01*
X169037000Y-104013000D02*
X169265600Y-103784400D01*
D33*
X156210000Y-119110000D02*
X158480000Y-119110000D01*
D34*
X158480000Y-119110000D02*
X158750000Y-119380000D01*
D36*
X162179000Y-119380000D02*
X169291000Y-112268000D01*
D37*
G36*
X157610750Y-101289959D02*
X155060709Y-103840000D01*
X150561000Y-103840000D01*
X150561000Y-100313250D01*
X150561000Y-99314000D01*
X149861750Y-99314000D01*
X149703000Y-99472750D01*
X149703000Y-99710691D01*
X149703000Y-99963310D01*
X149799673Y-100196699D01*
X149978302Y-100375327D01*
X150211691Y-100472000D01*
X150402250Y-100472000D01*
X150561000Y-100313250D01*
X150561000Y-103840000D01*
X148280421Y-103840000D01*
X148287440Y-103805000D01*
X148287440Y-103205000D01*
X148240463Y-102962877D01*
X148179603Y-102870229D01*
X148237377Y-102784640D01*
X148287440Y-102535000D01*
X148287440Y-101935000D01*
X148240463Y-101692877D01*
X148185036Y-101608500D01*
X148275000Y-101391310D01*
X148275000Y-101250750D01*
X148116250Y-101092000D01*
X147017000Y-101092000D01*
X147017000Y-101112000D01*
X146763000Y-101112000D01*
X146763000Y-101092000D01*
X145663750Y-101092000D01*
X145505000Y-101250750D01*
X145505000Y-101391310D01*
X145594788Y-101608078D01*
X145542623Y-101685360D01*
X145492560Y-101935000D01*
X145492560Y-102133270D01*
X145461000Y-102101710D01*
X145461000Y-97695683D01*
X145472327Y-97712927D01*
X145683360Y-97855377D01*
X145933000Y-97905440D01*
X147183000Y-97905440D01*
X147425123Y-97858463D01*
X147510168Y-97802596D01*
X147528000Y-97814633D01*
X147528000Y-98164710D01*
X146945150Y-98747560D01*
X146140000Y-98747560D01*
X145897877Y-98794537D01*
X145685073Y-98934327D01*
X145542623Y-99145360D01*
X145492560Y-99395000D01*
X145492560Y-99995000D01*
X145539537Y-100237123D01*
X145594963Y-100321499D01*
X145505000Y-100538690D01*
X145505000Y-100679250D01*
X145663750Y-100838000D01*
X146763000Y-100838000D01*
X146763000Y-100818000D01*
X147017000Y-100818000D01*
X147017000Y-100838000D01*
X148116250Y-100838000D01*
X148275000Y-100679250D01*
X148275000Y-100538690D01*
X148185211Y-100321921D01*
X148237377Y-100244640D01*
X148273681Y-100063608D01*
X149124145Y-99213145D01*
X149251145Y-99086145D01*
X149703000Y-98634290D01*
X149703000Y-98663309D01*
X149703000Y-98901250D01*
X149861750Y-99060000D01*
X150561000Y-99060000D01*
X150561000Y-99040000D01*
X150815000Y-99040000D01*
X150815000Y-99060000D01*
X150835000Y-99060000D01*
X150835000Y-99314000D01*
X150815000Y-99314000D01*
X150815000Y-100313250D01*
X150973750Y-100472000D01*
X151164309Y-100472000D01*
X151397698Y-100375327D01*
X151576327Y-100196699D01*
X151633546Y-100058557D01*
X151637537Y-100079123D01*
X151777327Y-100291927D01*
X151988360Y-100434377D01*
X152238000Y-100484440D01*
X152938000Y-100484440D01*
X153180123Y-100437463D01*
X153355893Y-100322000D01*
X154413000Y-100322000D01*
X154413000Y-100330000D01*
X154491785Y-100726077D01*
X154716144Y-101061856D01*
X155051923Y-101286215D01*
X155448000Y-101365000D01*
X155844077Y-101286215D01*
X156179856Y-101061856D01*
X156404215Y-100726077D01*
X156483000Y-100330000D01*
X156483000Y-99977032D01*
X156495440Y-99915000D01*
X156495440Y-99265225D01*
X156511000Y-99187000D01*
X156495440Y-99108774D01*
X156495440Y-98315000D01*
X156448463Y-98072877D01*
X156308673Y-97860073D01*
X156273009Y-97836000D01*
X156838710Y-97836000D01*
X157021833Y-98019123D01*
X156990623Y-98065360D01*
X156940560Y-98315000D01*
X156940560Y-99915000D01*
X156953000Y-99979116D01*
X156953000Y-100330000D01*
X157031785Y-100726077D01*
X157256144Y-101061856D01*
X157591923Y-101286215D01*
X157610750Y-101289959D01*
X157610750Y-101289959D01*
G37*
X157610750Y-101289959D02*
X155060709Y-103840000D01*
X150561000Y-103840000D01*
X150561000Y-100313250D01*
X150561000Y-99314000D01*
X149861750Y-99314000D01*
X149703000Y-99472750D01*
X149703000Y-99710691D01*
X149703000Y-99963310D01*
X149799673Y-100196699D01*
X149978302Y-100375327D01*
X150211691Y-100472000D01*
X150402250Y-100472000D01*
X150561000Y-100313250D01*
X150561000Y-103840000D01*
X148280421Y-103840000D01*
X148287440Y-103805000D01*
X148287440Y-103205000D01*
X148240463Y-102962877D01*
X148179603Y-102870229D01*
X148237377Y-102784640D01*
X148287440Y-102535000D01*
X148287440Y-101935000D01*
X148240463Y-101692877D01*
X148185036Y-101608500D01*
X148275000Y-101391310D01*
X148275000Y-101250750D01*
X148116250Y-101092000D01*
X147017000Y-101092000D01*
X147017000Y-101112000D01*
X146763000Y-101112000D01*
X146763000Y-101092000D01*
X145663750Y-101092000D01*
X145505000Y-101250750D01*
X145505000Y-101391310D01*
X145594788Y-101608078D01*
X145542623Y-101685360D01*
X145492560Y-101935000D01*
X145492560Y-102133270D01*
X145461000Y-102101710D01*
X145461000Y-97695683D01*
X145472327Y-97712927D01*
X145683360Y-97855377D01*
X145933000Y-97905440D01*
X147183000Y-97905440D01*
X147425123Y-97858463D01*
X147510168Y-97802596D01*
X147528000Y-97814633D01*
X147528000Y-98164710D01*
X146945150Y-98747560D01*
X146140000Y-98747560D01*
X145897877Y-98794537D01*
X145685073Y-98934327D01*
X145542623Y-99145360D01*
X145492560Y-99395000D01*
X145492560Y-99995000D01*
X145539537Y-100237123D01*
X145594963Y-100321499D01*
X145505000Y-100538690D01*
X145505000Y-100679250D01*
X145663750Y-100838000D01*
X146763000Y-100838000D01*
X146763000Y-100818000D01*
X147017000Y-100818000D01*
X147017000Y-100838000D01*
X148116250Y-100838000D01*
X148275000Y-100679250D01*
X148275000Y-100538690D01*
X148185211Y-100321921D01*
X148237377Y-100244640D01*
X148273681Y-100063608D01*
X149124145Y-99213145D01*
X149251145Y-99086145D01*
X149703000Y-98634290D01*
X149703000Y-98663309D01*
X149703000Y-98901250D01*
X149861750Y-99060000D01*
X150561000Y-99060000D01*
X150561000Y-99040000D01*
X150815000Y-99040000D01*
X150815000Y-99060000D01*
X150835000Y-99060000D01*
X150835000Y-99314000D01*
X150815000Y-99314000D01*
X150815000Y-100313250D01*
X150973750Y-100472000D01*
X151164309Y-100472000D01*
X151397698Y-100375327D01*
X151576327Y-100196699D01*
X151633546Y-100058557D01*
X151637537Y-100079123D01*
X151777327Y-100291927D01*
X151988360Y-100434377D01*
X152238000Y-100484440D01*
X152938000Y-100484440D01*
X153180123Y-100437463D01*
X153355893Y-100322000D01*
X154413000Y-100322000D01*
X154413000Y-100330000D01*
X154491785Y-100726077D01*
X154716144Y-101061856D01*
X155051923Y-101286215D01*
X155448000Y-101365000D01*
X155844077Y-101286215D01*
X156179856Y-101061856D01*
X156404215Y-100726077D01*
X156483000Y-100330000D01*
X156483000Y-99977032D01*
X156495440Y-99915000D01*
X156495440Y-99265225D01*
X156511000Y-99187000D01*
X156495440Y-99108774D01*
X156495440Y-98315000D01*
X156448463Y-98072877D01*
X156308673Y-97860073D01*
X156273009Y-97836000D01*
X156838710Y-97836000D01*
X157021833Y-98019123D01*
X156990623Y-98065360D01*
X156940560Y-98315000D01*
X156940560Y-99915000D01*
X156953000Y-99979116D01*
X156953000Y-100330000D01*
X157031785Y-100726077D01*
X157256144Y-101061856D01*
X157591923Y-101286215D01*
X157610750Y-101289959D01*
G36*
X158523435Y-92729804D02*
X158521173Y-92733191D01*
X158450000Y-93091000D01*
X158450000Y-96802710D01*
X157887145Y-96239855D01*
X157583809Y-96037173D01*
X157226000Y-95966000D01*
X153510297Y-95966000D01*
X153398673Y-95796073D01*
X153187640Y-95653623D01*
X152938000Y-95603560D01*
X152238000Y-95603560D01*
X151995877Y-95650537D01*
X151783073Y-95790327D01*
X151757000Y-95828952D01*
X151757000Y-94831132D01*
X152313566Y-94274566D01*
X152559603Y-93906345D01*
X152646000Y-93472000D01*
X152559603Y-93037655D01*
X152313566Y-92669434D01*
X151945345Y-92423397D01*
X151511000Y-92337000D01*
X151076655Y-92423397D01*
X150708434Y-92669434D01*
X149819434Y-93558434D01*
X149605954Y-93877928D01*
X149447699Y-93719673D01*
X149214310Y-93623000D01*
X148961691Y-93623000D01*
X148748750Y-93623000D01*
X148590000Y-93781750D01*
X148590000Y-94631000D01*
X148610000Y-94631000D01*
X148610000Y-94885000D01*
X148590000Y-94885000D01*
X148590000Y-94905000D01*
X148336000Y-94905000D01*
X148336000Y-94885000D01*
X148336000Y-94631000D01*
X148336000Y-93781750D01*
X148177250Y-93623000D01*
X147964309Y-93623000D01*
X147711690Y-93623000D01*
X147510500Y-93706335D01*
X147309310Y-93623000D01*
X147056691Y-93623000D01*
X146843750Y-93623000D01*
X146685000Y-93781750D01*
X146685000Y-94631000D01*
X147361750Y-94631000D01*
X147659250Y-94631000D01*
X148336000Y-94631000D01*
X148336000Y-94885000D01*
X147659250Y-94885000D01*
X147361750Y-94885000D01*
X146685000Y-94885000D01*
X146685000Y-94905000D01*
X146431000Y-94905000D01*
X146431000Y-94885000D01*
X146411000Y-94885000D01*
X146411000Y-94631000D01*
X146431000Y-94631000D01*
X146431000Y-93781750D01*
X146272250Y-93623000D01*
X146059309Y-93623000D01*
X145806690Y-93623000D01*
X145573301Y-93719673D01*
X145461000Y-93831974D01*
X145461000Y-92335290D01*
X148997145Y-88799145D01*
X149485290Y-88311000D01*
X154513000Y-88311000D01*
X154513000Y-88972951D01*
X154450623Y-89065360D01*
X154400560Y-89315000D01*
X154400560Y-90915000D01*
X154447537Y-91157123D01*
X154587327Y-91369927D01*
X154798360Y-91512377D01*
X155048000Y-91562440D01*
X155848000Y-91562440D01*
X156090123Y-91515463D01*
X156302927Y-91375673D01*
X156445377Y-91164640D01*
X156495440Y-90915000D01*
X156495440Y-89315000D01*
X156448463Y-89072877D01*
X156383000Y-88973221D01*
X156383000Y-88525290D01*
X156597290Y-88311000D01*
X157075833Y-88311000D01*
X157031785Y-88376923D01*
X156953000Y-88773000D01*
X156953000Y-89252967D01*
X156940560Y-89315000D01*
X156940560Y-90731802D01*
X156926000Y-90805000D01*
X156940560Y-90878197D01*
X156940560Y-90915000D01*
X156987537Y-91157123D01*
X157127327Y-91369927D01*
X157142332Y-91380055D01*
X157199855Y-91466145D01*
X158342855Y-92609145D01*
X158523435Y-92729804D01*
X158523435Y-92729804D01*
G37*
X158523435Y-92729804D02*
X158521173Y-92733191D01*
X158450000Y-93091000D01*
X158450000Y-96802710D01*
X157887145Y-96239855D01*
X157583809Y-96037173D01*
X157226000Y-95966000D01*
X153510297Y-95966000D01*
X153398673Y-95796073D01*
X153187640Y-95653623D01*
X152938000Y-95603560D01*
X152238000Y-95603560D01*
X151995877Y-95650537D01*
X151783073Y-95790327D01*
X151757000Y-95828952D01*
X151757000Y-94831132D01*
X152313566Y-94274566D01*
X152559603Y-93906345D01*
X152646000Y-93472000D01*
X152559603Y-93037655D01*
X152313566Y-92669434D01*
X151945345Y-92423397D01*
X151511000Y-92337000D01*
X151076655Y-92423397D01*
X150708434Y-92669434D01*
X149819434Y-93558434D01*
X149605954Y-93877928D01*
X149447699Y-93719673D01*
X149214310Y-93623000D01*
X148961691Y-93623000D01*
X148748750Y-93623000D01*
X148590000Y-93781750D01*
X148590000Y-94631000D01*
X148610000Y-94631000D01*
X148610000Y-94885000D01*
X148590000Y-94885000D01*
X148590000Y-94905000D01*
X148336000Y-94905000D01*
X148336000Y-94885000D01*
X148336000Y-94631000D01*
X148336000Y-93781750D01*
X148177250Y-93623000D01*
X147964309Y-93623000D01*
X147711690Y-93623000D01*
X147510500Y-93706335D01*
X147309310Y-93623000D01*
X147056691Y-93623000D01*
X146843750Y-93623000D01*
X146685000Y-93781750D01*
X146685000Y-94631000D01*
X147361750Y-94631000D01*
X147659250Y-94631000D01*
X148336000Y-94631000D01*
X148336000Y-94885000D01*
X147659250Y-94885000D01*
X147361750Y-94885000D01*
X146685000Y-94885000D01*
X146685000Y-94905000D01*
X146431000Y-94905000D01*
X146431000Y-94885000D01*
X146411000Y-94885000D01*
X146411000Y-94631000D01*
X146431000Y-94631000D01*
X146431000Y-93781750D01*
X146272250Y-93623000D01*
X146059309Y-93623000D01*
X145806690Y-93623000D01*
X145573301Y-93719673D01*
X145461000Y-93831974D01*
X145461000Y-92335290D01*
X148997145Y-88799145D01*
X149485290Y-88311000D01*
X154513000Y-88311000D01*
X154513000Y-88972951D01*
X154450623Y-89065360D01*
X154400560Y-89315000D01*
X154400560Y-90915000D01*
X154447537Y-91157123D01*
X154587327Y-91369927D01*
X154798360Y-91512377D01*
X155048000Y-91562440D01*
X155848000Y-91562440D01*
X156090123Y-91515463D01*
X156302927Y-91375673D01*
X156445377Y-91164640D01*
X156495440Y-90915000D01*
X156495440Y-89315000D01*
X156448463Y-89072877D01*
X156383000Y-88973221D01*
X156383000Y-88525290D01*
X156597290Y-88311000D01*
X157075833Y-88311000D01*
X157031785Y-88376923D01*
X156953000Y-88773000D01*
X156953000Y-89252967D01*
X156940560Y-89315000D01*
X156940560Y-90731802D01*
X156926000Y-90805000D01*
X156940560Y-90878197D01*
X156940560Y-90915000D01*
X156987537Y-91157123D01*
X157127327Y-91369927D01*
X157142332Y-91380055D01*
X157199855Y-91466145D01*
X158342855Y-92609145D01*
X158523435Y-92729804D01*
G36*
X191065000Y-97990000D02*
X190455000Y-97990000D01*
X190455000Y-80873600D01*
X190288677Y-80037437D01*
X189815028Y-79328572D01*
X189106163Y-78854923D01*
X188270000Y-78688600D01*
X187433837Y-78854923D01*
X186724972Y-79328572D01*
X186251323Y-80037437D01*
X186085000Y-80873600D01*
X186251323Y-81709763D01*
X186724972Y-82418628D01*
X187433837Y-82892277D01*
X188270000Y-83058600D01*
X189106163Y-82892277D01*
X189815028Y-82418628D01*
X190288677Y-81709763D01*
X190455000Y-80873600D01*
X190455000Y-97990000D01*
X188607076Y-97990000D01*
X188607076Y-84530799D01*
X188259938Y-83690662D01*
X187617719Y-83047321D01*
X186778189Y-82698717D01*
X185869159Y-82697924D01*
X185029022Y-83045062D01*
X184385681Y-83687281D01*
X184037077Y-84526811D01*
X184036284Y-85435841D01*
X184383422Y-86275978D01*
X185025641Y-86919319D01*
X185865171Y-87267923D01*
X186774201Y-87268716D01*
X187614338Y-86921578D01*
X188257679Y-86279359D01*
X188606283Y-85439829D01*
X188607076Y-84530799D01*
X188607076Y-97990000D01*
X188604536Y-97990000D01*
X188604536Y-94904159D01*
X188257398Y-94064022D01*
X187615179Y-93420681D01*
X186775649Y-93072077D01*
X185866619Y-93071284D01*
X185026482Y-93418422D01*
X184383141Y-94060641D01*
X184034537Y-94900171D01*
X184033744Y-95809201D01*
X184380882Y-96649338D01*
X185023101Y-97292679D01*
X185862631Y-97641283D01*
X186771661Y-97642076D01*
X187611798Y-97294938D01*
X188255139Y-96652719D01*
X188603743Y-95813189D01*
X188604536Y-94904159D01*
X188604536Y-97990000D01*
X181200484Y-97990000D01*
X181200484Y-89712218D01*
X181188582Y-89474423D01*
X181188582Y-86687859D01*
X180976350Y-86174217D01*
X180583710Y-85780891D01*
X180070440Y-85567763D01*
X179997606Y-85567699D01*
X179997606Y-80295126D01*
X179553847Y-79221148D01*
X178732874Y-78398740D01*
X177659672Y-77953108D01*
X176497626Y-77952094D01*
X175423648Y-78395853D01*
X174601240Y-79216826D01*
X174155608Y-80290028D01*
X174154594Y-81452074D01*
X174598353Y-82526052D01*
X175419326Y-83348460D01*
X176492528Y-83794092D01*
X177654574Y-83795106D01*
X178728552Y-83351347D01*
X179550960Y-82530374D01*
X179996592Y-81457172D01*
X179997606Y-80295126D01*
X179997606Y-85567699D01*
X179514679Y-85567278D01*
X179001037Y-85779510D01*
X178607711Y-86172150D01*
X178394583Y-86685420D01*
X178394098Y-87241181D01*
X178606330Y-87754823D01*
X178998970Y-88148149D01*
X179191067Y-88227914D01*
X179060197Y-88282123D01*
X178990732Y-88524307D01*
X179791340Y-89324915D01*
X180591948Y-88524307D01*
X180522483Y-88282123D01*
X180382022Y-88232011D01*
X180581643Y-88149530D01*
X180974969Y-87756890D01*
X181188097Y-87243620D01*
X181188582Y-86687859D01*
X181188582Y-89474423D01*
X181172702Y-89157152D01*
X181013737Y-88773377D01*
X180771553Y-88703912D01*
X179970945Y-89504520D01*
X180771553Y-90305128D01*
X181013737Y-90235663D01*
X181200484Y-89712218D01*
X181200484Y-97990000D01*
X181188582Y-97990000D01*
X181188582Y-91767859D01*
X180976350Y-91254217D01*
X180583710Y-90860891D01*
X180391612Y-90781125D01*
X180522483Y-90726917D01*
X180591948Y-90484733D01*
X179791340Y-89684125D01*
X179611735Y-89863730D01*
X179611735Y-89504520D01*
X178811127Y-88703912D01*
X178660484Y-88747120D01*
X178660484Y-88442218D01*
X178632702Y-87887152D01*
X178473737Y-87503377D01*
X178231553Y-87433912D01*
X178051948Y-87613517D01*
X178051948Y-87254307D01*
X177982483Y-87012123D01*
X177459038Y-86825376D01*
X176903972Y-86853158D01*
X176520197Y-87012123D01*
X176450732Y-87254307D01*
X177251340Y-88054915D01*
X178051948Y-87254307D01*
X178051948Y-87613517D01*
X177430945Y-88234520D01*
X178231553Y-89035128D01*
X178473737Y-88965663D01*
X178660484Y-88442218D01*
X178660484Y-88747120D01*
X178568943Y-88773377D01*
X178382196Y-89296822D01*
X178409978Y-89851888D01*
X178568943Y-90235663D01*
X178811127Y-90305128D01*
X179611735Y-89504520D01*
X179611735Y-89863730D01*
X178990732Y-90484733D01*
X179060197Y-90726917D01*
X179200657Y-90777028D01*
X179001037Y-90859510D01*
X178648582Y-91211350D01*
X178648582Y-90497859D01*
X178436350Y-89984217D01*
X178043710Y-89590891D01*
X177851612Y-89511125D01*
X177982483Y-89456917D01*
X178051948Y-89214733D01*
X177251340Y-88414125D01*
X177071735Y-88593730D01*
X177071735Y-88234520D01*
X176271127Y-87433912D01*
X176028943Y-87503377D01*
X175842196Y-88026822D01*
X175869978Y-88581888D01*
X176028943Y-88965663D01*
X176271127Y-89035128D01*
X177071735Y-88234520D01*
X177071735Y-88593730D01*
X176450732Y-89214733D01*
X176520197Y-89456917D01*
X176660657Y-89507028D01*
X176461037Y-89589510D01*
X176067711Y-89982150D01*
X175854583Y-90495420D01*
X175854098Y-91051181D01*
X176066330Y-91564823D01*
X176458970Y-91958149D01*
X176651067Y-92037914D01*
X176520197Y-92092123D01*
X176450732Y-92334307D01*
X177251340Y-93134915D01*
X178051948Y-92334307D01*
X177982483Y-92092123D01*
X177842022Y-92042011D01*
X178041643Y-91959530D01*
X178434969Y-91566890D01*
X178648097Y-91053620D01*
X178648582Y-90497859D01*
X178648582Y-91211350D01*
X178607711Y-91252150D01*
X178394583Y-91765420D01*
X178394098Y-92321181D01*
X178606330Y-92834823D01*
X178998970Y-93228149D01*
X179512240Y-93441277D01*
X180068001Y-93441762D01*
X180581643Y-93229530D01*
X180974969Y-92836890D01*
X181188097Y-92323620D01*
X181188582Y-91767859D01*
X181188582Y-97990000D01*
X178660484Y-97990000D01*
X178660484Y-93522218D01*
X178632702Y-92967152D01*
X178473737Y-92583377D01*
X178231553Y-92513912D01*
X177430945Y-93314520D01*
X178231553Y-94115128D01*
X178473737Y-94045663D01*
X178660484Y-93522218D01*
X178660484Y-97990000D01*
X178051948Y-97990000D01*
X178051948Y-94294733D01*
X177251340Y-93494125D01*
X177071735Y-93673730D01*
X177071735Y-93314520D01*
X176271127Y-92513912D01*
X176028943Y-92583377D01*
X175842196Y-93106822D01*
X175869978Y-93661888D01*
X176028943Y-94045663D01*
X176271127Y-94115128D01*
X177071735Y-93314520D01*
X177071735Y-93673730D01*
X176450732Y-94294733D01*
X176520197Y-94536917D01*
X177043642Y-94723664D01*
X177598708Y-94695882D01*
X177982483Y-94536917D01*
X178051948Y-94294733D01*
X178051948Y-97990000D01*
X171425000Y-97990000D01*
X171162862Y-98042143D01*
X170940632Y-98190632D01*
X170792143Y-98412862D01*
X170740000Y-98675000D01*
X170740000Y-100487967D01*
X170465378Y-100076967D01*
X169929755Y-99719075D01*
X169297945Y-99593400D01*
X169233255Y-99593400D01*
X168601445Y-99719075D01*
X168065822Y-100076967D01*
X167707930Y-100612590D01*
X167582255Y-101244400D01*
X167707930Y-101876210D01*
X167934769Y-102215698D01*
X167794673Y-102307727D01*
X167652223Y-102518760D01*
X167602160Y-102768400D01*
X167602160Y-104800400D01*
X167649137Y-105042523D01*
X167788927Y-105255327D01*
X167999960Y-105397777D01*
X168156000Y-105429069D01*
X168156000Y-111797868D01*
X168117440Y-111836428D01*
X168117440Y-107430000D01*
X168117440Y-105930000D01*
X168070463Y-105687877D01*
X167930673Y-105475073D01*
X167719640Y-105332623D01*
X167470000Y-105282560D01*
X166401440Y-105282560D01*
X166401440Y-99915000D01*
X166401440Y-98315000D01*
X166354463Y-98072877D01*
X166214673Y-97860073D01*
X166003640Y-97717623D01*
X165754000Y-97667560D01*
X164954000Y-97667560D01*
X164711877Y-97714537D01*
X164499073Y-97854327D01*
X164356623Y-98065360D01*
X164306560Y-98315000D01*
X164306560Y-99915000D01*
X164353537Y-100157123D01*
X164419000Y-100256778D01*
X164419000Y-100958710D01*
X164011418Y-101366291D01*
X163939673Y-101257073D01*
X163728640Y-101114623D01*
X163582005Y-101085216D01*
X163677827Y-100941809D01*
X163749000Y-100584000D01*
X163749000Y-100257048D01*
X163811377Y-100164640D01*
X163861440Y-99915000D01*
X163861440Y-98315000D01*
X163814463Y-98072877D01*
X163674673Y-97860073D01*
X163463640Y-97717623D01*
X163214000Y-97667560D01*
X162414000Y-97667560D01*
X162171877Y-97714537D01*
X161959073Y-97854327D01*
X161816623Y-98065360D01*
X161766560Y-98315000D01*
X161766560Y-99915000D01*
X161789211Y-100031747D01*
X161499556Y-100089364D01*
X161440191Y-100101173D01*
X161136855Y-100303855D01*
X161136852Y-100303858D01*
X160567855Y-100872855D01*
X160365173Y-101176191D01*
X160319374Y-101406432D01*
X160281623Y-101462360D01*
X160231560Y-101712000D01*
X160231560Y-103012000D01*
X160278537Y-103254123D01*
X160418327Y-103466927D01*
X160629360Y-103609377D01*
X160879000Y-103659440D01*
X161579000Y-103659440D01*
X161821123Y-103612463D01*
X162033927Y-103472673D01*
X162176377Y-103261640D01*
X162178216Y-103252469D01*
X162178537Y-103254123D01*
X162318327Y-103466927D01*
X162529360Y-103609377D01*
X162779000Y-103659440D01*
X163479000Y-103659440D01*
X163721123Y-103612463D01*
X163933927Y-103472673D01*
X164052508Y-103297000D01*
X164338000Y-103297000D01*
X164695809Y-103225827D01*
X164999145Y-103023145D01*
X166015145Y-102007145D01*
X166217827Y-101703809D01*
X166289000Y-101346000D01*
X166289000Y-100257048D01*
X166351377Y-100164640D01*
X166401440Y-99915000D01*
X166401440Y-105282560D01*
X165270000Y-105282560D01*
X165027877Y-105329537D01*
X164815073Y-105469327D01*
X164672623Y-105680360D01*
X164622560Y-105930000D01*
X164622560Y-107430000D01*
X164669537Y-107672123D01*
X164809327Y-107884927D01*
X165020360Y-108027377D01*
X165270000Y-108077440D01*
X167470000Y-108077440D01*
X167712123Y-108030463D01*
X167924927Y-107890673D01*
X168067377Y-107679640D01*
X168117440Y-107430000D01*
X168117440Y-111836428D01*
X161708868Y-118245000D01*
X160356607Y-118245000D01*
X160310673Y-118175073D01*
X160222482Y-118115543D01*
X160388327Y-117949698D01*
X160485000Y-117716309D01*
X160485000Y-117125750D01*
X160485000Y-116554250D01*
X160485000Y-115963691D01*
X160388327Y-115730302D01*
X160209699Y-115551673D01*
X159976310Y-115455000D01*
X159723691Y-115455000D01*
X159035750Y-115455000D01*
X158877000Y-115613750D01*
X158877000Y-116713000D01*
X160326250Y-116713000D01*
X160485000Y-116554250D01*
X160485000Y-117125750D01*
X160326250Y-116967000D01*
X158877000Y-116967000D01*
X158877000Y-116987000D01*
X158623000Y-116987000D01*
X158623000Y-116967000D01*
X158603000Y-116967000D01*
X158603000Y-116713000D01*
X158623000Y-116713000D01*
X158623000Y-115613750D01*
X158464250Y-115455000D01*
X157776309Y-115455000D01*
X157523690Y-115455000D01*
X157290301Y-115551673D01*
X157111673Y-115730302D01*
X157015000Y-115963691D01*
X157015000Y-115997239D01*
X156961310Y-115975000D01*
X156708691Y-115975000D01*
X156495750Y-115975000D01*
X156337000Y-116133750D01*
X156337000Y-116983000D01*
X156357000Y-116983000D01*
X156357000Y-117237000D01*
X156337000Y-117237000D01*
X156337000Y-117257000D01*
X156083000Y-117257000D01*
X156083000Y-117237000D01*
X156083000Y-116983000D01*
X156083000Y-116133750D01*
X155924250Y-115975000D01*
X155711309Y-115975000D01*
X155458690Y-115975000D01*
X155225301Y-116071673D01*
X155046673Y-116250302D01*
X154950000Y-116483691D01*
X154950000Y-116824250D01*
X155108750Y-116983000D01*
X156083000Y-116983000D01*
X156083000Y-117237000D01*
X155108750Y-117237000D01*
X154950000Y-117395750D01*
X154950000Y-117736309D01*
X155046673Y-117969698D01*
X155188150Y-118111176D01*
X155130073Y-118149327D01*
X154987623Y-118360360D01*
X154937560Y-118610000D01*
X154937560Y-119610000D01*
X154984537Y-119852123D01*
X155124327Y-120064927D01*
X155335360Y-120207377D01*
X155585000Y-120257440D01*
X156835000Y-120257440D01*
X157020310Y-120221485D01*
X157049537Y-120372123D01*
X157189327Y-120584927D01*
X157285560Y-120649886D01*
X157195073Y-120709327D01*
X157063666Y-120904000D01*
X154879413Y-120904000D01*
X148275000Y-111396546D01*
X146971444Y-109520000D01*
X147017002Y-109520000D01*
X147017002Y-109361252D01*
X147175750Y-109520000D01*
X147766309Y-109520000D01*
X147999698Y-109423327D01*
X148178327Y-109244699D01*
X148275000Y-109011310D01*
X148275000Y-108870750D01*
X148116250Y-108712000D01*
X147017000Y-108712000D01*
X147017000Y-108732000D01*
X146763000Y-108732000D01*
X146763000Y-108712000D01*
X146743000Y-108712000D01*
X146743000Y-108458000D01*
X146763000Y-108458000D01*
X146763000Y-108438000D01*
X147017000Y-108438000D01*
X147017000Y-108458000D01*
X148116250Y-108458000D01*
X148275000Y-108299250D01*
X148275000Y-108158690D01*
X148185211Y-107941921D01*
X148237377Y-107864640D01*
X148287440Y-107615000D01*
X148287440Y-107015000D01*
X148240463Y-106772877D01*
X148179603Y-106680229D01*
X148237377Y-106594640D01*
X148287440Y-106345000D01*
X148287440Y-105745000D01*
X148280649Y-105710000D01*
X155448000Y-105710000D01*
X155805809Y-105638827D01*
X156109145Y-105436145D01*
X157715000Y-103830290D01*
X157715000Y-105282560D01*
X157650000Y-105282560D01*
X157407877Y-105329537D01*
X157195073Y-105469327D01*
X157052623Y-105680360D01*
X157020650Y-105839790D01*
X156835000Y-105802560D01*
X155585000Y-105802560D01*
X155342877Y-105849537D01*
X155130073Y-105989327D01*
X154987623Y-106200360D01*
X154937560Y-106450000D01*
X154937560Y-107450000D01*
X154984537Y-107692123D01*
X155124327Y-107904927D01*
X155190528Y-107949613D01*
X155130073Y-107989327D01*
X154987623Y-108200360D01*
X154937560Y-108450000D01*
X154937560Y-109450000D01*
X154984537Y-109692123D01*
X155124327Y-109904927D01*
X155172108Y-109937180D01*
X154335144Y-110774144D01*
X154110785Y-111109923D01*
X154031999Y-111506000D01*
X154110785Y-111902077D01*
X154335144Y-112237856D01*
X154670923Y-112462215D01*
X155067000Y-112541001D01*
X155463077Y-112462215D01*
X155798856Y-112237856D01*
X157457812Y-110578898D01*
X157650000Y-110617440D01*
X159850000Y-110617440D01*
X160092123Y-110570463D01*
X160304927Y-110430673D01*
X160447377Y-110219640D01*
X160497440Y-109970000D01*
X160497440Y-108470000D01*
X160450463Y-108227877D01*
X160310673Y-108015073D01*
X160214439Y-107950113D01*
X160304927Y-107890673D01*
X160447377Y-107679640D01*
X160497440Y-107430000D01*
X160497440Y-105930000D01*
X160450463Y-105687877D01*
X160310673Y-105475073D01*
X160099640Y-105332623D01*
X159850000Y-105282560D01*
X159785000Y-105282560D01*
X159785000Y-103759000D01*
X159785000Y-102997000D01*
X159706215Y-102600923D01*
X159481856Y-102265144D01*
X159360939Y-102184350D01*
X160046145Y-101499145D01*
X160248827Y-101195809D01*
X160320000Y-100838000D01*
X160320000Y-93478290D01*
X160915290Y-92883000D01*
X162052000Y-92883000D01*
X162118639Y-92883000D01*
X162202191Y-92938827D01*
X162560000Y-93010000D01*
X169925184Y-93010000D01*
X169926000Y-93010000D01*
X170111167Y-93010162D01*
X170283809Y-92938827D01*
X170454943Y-92868117D01*
X170587145Y-92736145D01*
X170718192Y-92605327D01*
X170789827Y-92432809D01*
X170860838Y-92261799D01*
X170861000Y-92075000D01*
X170861162Y-91889833D01*
X170789827Y-91717191D01*
X170719117Y-91546057D01*
X170587145Y-91413855D01*
X170456327Y-91282808D01*
X170409188Y-91263234D01*
X170464192Y-91208327D01*
X170535827Y-91035809D01*
X170606838Y-90864799D01*
X170607000Y-90678000D01*
X170607162Y-90492833D01*
X170535827Y-90320191D01*
X170465117Y-90149057D01*
X170333145Y-90016855D01*
X170202327Y-89885808D01*
X169858799Y-89743162D01*
X169486833Y-89742838D01*
X169486440Y-89743000D01*
X166401440Y-89743000D01*
X166401440Y-89315000D01*
X166354463Y-89072877D01*
X166289000Y-88973221D01*
X166289000Y-87884000D01*
X166217827Y-87526191D01*
X166015145Y-87222855D01*
X166015141Y-87222852D01*
X165507145Y-86714855D01*
X165234978Y-86533000D01*
X167005000Y-86533000D01*
X167362809Y-86461827D01*
X167666145Y-86259145D01*
X168200290Y-85725000D01*
X173609000Y-85725000D01*
X173633080Y-85720210D01*
X173657024Y-85715570D01*
X173657288Y-85715395D01*
X173657601Y-85715333D01*
X173677965Y-85701726D01*
X173698361Y-85688243D01*
X173698539Y-85687979D01*
X173698803Y-85687803D01*
X173712375Y-85667490D01*
X173726093Y-85647177D01*
X173726156Y-85646864D01*
X173726333Y-85646601D01*
X173731111Y-85622575D01*
X173735998Y-85598624D01*
X173775867Y-77485000D01*
X191065000Y-77485000D01*
X191065000Y-97990000D01*
X191065000Y-97990000D01*
G37*
X191065000Y-97990000D02*
X190455000Y-97990000D01*
X190455000Y-80873600D01*
X190288677Y-80037437D01*
X189815028Y-79328572D01*
X189106163Y-78854923D01*
X188270000Y-78688600D01*
X187433837Y-78854923D01*
X186724972Y-79328572D01*
X186251323Y-80037437D01*
X186085000Y-80873600D01*
X186251323Y-81709763D01*
X186724972Y-82418628D01*
X187433837Y-82892277D01*
X188270000Y-83058600D01*
X189106163Y-82892277D01*
X189815028Y-82418628D01*
X190288677Y-81709763D01*
X190455000Y-80873600D01*
X190455000Y-97990000D01*
X188607076Y-97990000D01*
X188607076Y-84530799D01*
X188259938Y-83690662D01*
X187617719Y-83047321D01*
X186778189Y-82698717D01*
X185869159Y-82697924D01*
X185029022Y-83045062D01*
X184385681Y-83687281D01*
X184037077Y-84526811D01*
X184036284Y-85435841D01*
X184383422Y-86275978D01*
X185025641Y-86919319D01*
X185865171Y-87267923D01*
X186774201Y-87268716D01*
X187614338Y-86921578D01*
X188257679Y-86279359D01*
X188606283Y-85439829D01*
X188607076Y-84530799D01*
X188607076Y-97990000D01*
X188604536Y-97990000D01*
X188604536Y-94904159D01*
X188257398Y-94064022D01*
X187615179Y-93420681D01*
X186775649Y-93072077D01*
X185866619Y-93071284D01*
X185026482Y-93418422D01*
X184383141Y-94060641D01*
X184034537Y-94900171D01*
X184033744Y-95809201D01*
X184380882Y-96649338D01*
X185023101Y-97292679D01*
X185862631Y-97641283D01*
X186771661Y-97642076D01*
X187611798Y-97294938D01*
X188255139Y-96652719D01*
X188603743Y-95813189D01*
X188604536Y-94904159D01*
X188604536Y-97990000D01*
X181200484Y-97990000D01*
X181200484Y-89712218D01*
X181188582Y-89474423D01*
X181188582Y-86687859D01*
X180976350Y-86174217D01*
X180583710Y-85780891D01*
X180070440Y-85567763D01*
X179997606Y-85567699D01*
X179997606Y-80295126D01*
X179553847Y-79221148D01*
X178732874Y-78398740D01*
X177659672Y-77953108D01*
X176497626Y-77952094D01*
X175423648Y-78395853D01*
X174601240Y-79216826D01*
X174155608Y-80290028D01*
X174154594Y-81452074D01*
X174598353Y-82526052D01*
X175419326Y-83348460D01*
X176492528Y-83794092D01*
X177654574Y-83795106D01*
X178728552Y-83351347D01*
X179550960Y-82530374D01*
X179996592Y-81457172D01*
X179997606Y-80295126D01*
X179997606Y-85567699D01*
X179514679Y-85567278D01*
X179001037Y-85779510D01*
X178607711Y-86172150D01*
X178394583Y-86685420D01*
X178394098Y-87241181D01*
X178606330Y-87754823D01*
X178998970Y-88148149D01*
X179191067Y-88227914D01*
X179060197Y-88282123D01*
X178990732Y-88524307D01*
X179791340Y-89324915D01*
X180591948Y-88524307D01*
X180522483Y-88282123D01*
X180382022Y-88232011D01*
X180581643Y-88149530D01*
X180974969Y-87756890D01*
X181188097Y-87243620D01*
X181188582Y-86687859D01*
X181188582Y-89474423D01*
X181172702Y-89157152D01*
X181013737Y-88773377D01*
X180771553Y-88703912D01*
X179970945Y-89504520D01*
X180771553Y-90305128D01*
X181013737Y-90235663D01*
X181200484Y-89712218D01*
X181200484Y-97990000D01*
X181188582Y-97990000D01*
X181188582Y-91767859D01*
X180976350Y-91254217D01*
X180583710Y-90860891D01*
X180391612Y-90781125D01*
X180522483Y-90726917D01*
X180591948Y-90484733D01*
X179791340Y-89684125D01*
X179611735Y-89863730D01*
X179611735Y-89504520D01*
X178811127Y-88703912D01*
X178660484Y-88747120D01*
X178660484Y-88442218D01*
X178632702Y-87887152D01*
X178473737Y-87503377D01*
X178231553Y-87433912D01*
X178051948Y-87613517D01*
X178051948Y-87254307D01*
X177982483Y-87012123D01*
X177459038Y-86825376D01*
X176903972Y-86853158D01*
X176520197Y-87012123D01*
X176450732Y-87254307D01*
X177251340Y-88054915D01*
X178051948Y-87254307D01*
X178051948Y-87613517D01*
X177430945Y-88234520D01*
X178231553Y-89035128D01*
X178473737Y-88965663D01*
X178660484Y-88442218D01*
X178660484Y-88747120D01*
X178568943Y-88773377D01*
X178382196Y-89296822D01*
X178409978Y-89851888D01*
X178568943Y-90235663D01*
X178811127Y-90305128D01*
X179611735Y-89504520D01*
X179611735Y-89863730D01*
X178990732Y-90484733D01*
X179060197Y-90726917D01*
X179200657Y-90777028D01*
X179001037Y-90859510D01*
X178648582Y-91211350D01*
X178648582Y-90497859D01*
X178436350Y-89984217D01*
X178043710Y-89590891D01*
X177851612Y-89511125D01*
X177982483Y-89456917D01*
X178051948Y-89214733D01*
X177251340Y-88414125D01*
X177071735Y-88593730D01*
X177071735Y-88234520D01*
X176271127Y-87433912D01*
X176028943Y-87503377D01*
X175842196Y-88026822D01*
X175869978Y-88581888D01*
X176028943Y-88965663D01*
X176271127Y-89035128D01*
X177071735Y-88234520D01*
X177071735Y-88593730D01*
X176450732Y-89214733D01*
X176520197Y-89456917D01*
X176660657Y-89507028D01*
X176461037Y-89589510D01*
X176067711Y-89982150D01*
X175854583Y-90495420D01*
X175854098Y-91051181D01*
X176066330Y-91564823D01*
X176458970Y-91958149D01*
X176651067Y-92037914D01*
X176520197Y-92092123D01*
X176450732Y-92334307D01*
X177251340Y-93134915D01*
X178051948Y-92334307D01*
X177982483Y-92092123D01*
X177842022Y-92042011D01*
X178041643Y-91959530D01*
X178434969Y-91566890D01*
X178648097Y-91053620D01*
X178648582Y-90497859D01*
X178648582Y-91211350D01*
X178607711Y-91252150D01*
X178394583Y-91765420D01*
X178394098Y-92321181D01*
X178606330Y-92834823D01*
X178998970Y-93228149D01*
X179512240Y-93441277D01*
X180068001Y-93441762D01*
X180581643Y-93229530D01*
X180974969Y-92836890D01*
X181188097Y-92323620D01*
X181188582Y-91767859D01*
X181188582Y-97990000D01*
X178660484Y-97990000D01*
X178660484Y-93522218D01*
X178632702Y-92967152D01*
X178473737Y-92583377D01*
X178231553Y-92513912D01*
X177430945Y-93314520D01*
X178231553Y-94115128D01*
X178473737Y-94045663D01*
X178660484Y-93522218D01*
X178660484Y-97990000D01*
X178051948Y-97990000D01*
X178051948Y-94294733D01*
X177251340Y-93494125D01*
X177071735Y-93673730D01*
X177071735Y-93314520D01*
X176271127Y-92513912D01*
X176028943Y-92583377D01*
X175842196Y-93106822D01*
X175869978Y-93661888D01*
X176028943Y-94045663D01*
X176271127Y-94115128D01*
X177071735Y-93314520D01*
X177071735Y-93673730D01*
X176450732Y-94294733D01*
X176520197Y-94536917D01*
X177043642Y-94723664D01*
X177598708Y-94695882D01*
X177982483Y-94536917D01*
X178051948Y-94294733D01*
X178051948Y-97990000D01*
X171425000Y-97990000D01*
X171162862Y-98042143D01*
X170940632Y-98190632D01*
X170792143Y-98412862D01*
X170740000Y-98675000D01*
X170740000Y-100487967D01*
X170465378Y-100076967D01*
X169929755Y-99719075D01*
X169297945Y-99593400D01*
X169233255Y-99593400D01*
X168601445Y-99719075D01*
X168065822Y-100076967D01*
X167707930Y-100612590D01*
X167582255Y-101244400D01*
X167707930Y-101876210D01*
X167934769Y-102215698D01*
X167794673Y-102307727D01*
X167652223Y-102518760D01*
X167602160Y-102768400D01*
X167602160Y-104800400D01*
X167649137Y-105042523D01*
X167788927Y-105255327D01*
X167999960Y-105397777D01*
X168156000Y-105429069D01*
X168156000Y-111797868D01*
X168117440Y-111836428D01*
X168117440Y-107430000D01*
X168117440Y-105930000D01*
X168070463Y-105687877D01*
X167930673Y-105475073D01*
X167719640Y-105332623D01*
X167470000Y-105282560D01*
X166401440Y-105282560D01*
X166401440Y-99915000D01*
X166401440Y-98315000D01*
X166354463Y-98072877D01*
X166214673Y-97860073D01*
X166003640Y-97717623D01*
X165754000Y-97667560D01*
X164954000Y-97667560D01*
X164711877Y-97714537D01*
X164499073Y-97854327D01*
X164356623Y-98065360D01*
X164306560Y-98315000D01*
X164306560Y-99915000D01*
X164353537Y-100157123D01*
X164419000Y-100256778D01*
X164419000Y-100958710D01*
X164011418Y-101366291D01*
X163939673Y-101257073D01*
X163728640Y-101114623D01*
X163582005Y-101085216D01*
X163677827Y-100941809D01*
X163749000Y-100584000D01*
X163749000Y-100257048D01*
X163811377Y-100164640D01*
X163861440Y-99915000D01*
X163861440Y-98315000D01*
X163814463Y-98072877D01*
X163674673Y-97860073D01*
X163463640Y-97717623D01*
X163214000Y-97667560D01*
X162414000Y-97667560D01*
X162171877Y-97714537D01*
X161959073Y-97854327D01*
X161816623Y-98065360D01*
X161766560Y-98315000D01*
X161766560Y-99915000D01*
X161789211Y-100031747D01*
X161499556Y-100089364D01*
X161440191Y-100101173D01*
X161136855Y-100303855D01*
X161136852Y-100303858D01*
X160567855Y-100872855D01*
X160365173Y-101176191D01*
X160319374Y-101406432D01*
X160281623Y-101462360D01*
X160231560Y-101712000D01*
X160231560Y-103012000D01*
X160278537Y-103254123D01*
X160418327Y-103466927D01*
X160629360Y-103609377D01*
X160879000Y-103659440D01*
X161579000Y-103659440D01*
X161821123Y-103612463D01*
X162033927Y-103472673D01*
X162176377Y-103261640D01*
X162178216Y-103252469D01*
X162178537Y-103254123D01*
X162318327Y-103466927D01*
X162529360Y-103609377D01*
X162779000Y-103659440D01*
X163479000Y-103659440D01*
X163721123Y-103612463D01*
X163933927Y-103472673D01*
X164052508Y-103297000D01*
X164338000Y-103297000D01*
X164695809Y-103225827D01*
X164999145Y-103023145D01*
X166015145Y-102007145D01*
X166217827Y-101703809D01*
X166289000Y-101346000D01*
X166289000Y-100257048D01*
X166351377Y-100164640D01*
X166401440Y-99915000D01*
X166401440Y-105282560D01*
X165270000Y-105282560D01*
X165027877Y-105329537D01*
X164815073Y-105469327D01*
X164672623Y-105680360D01*
X164622560Y-105930000D01*
X164622560Y-107430000D01*
X164669537Y-107672123D01*
X164809327Y-107884927D01*
X165020360Y-108027377D01*
X165270000Y-108077440D01*
X167470000Y-108077440D01*
X167712123Y-108030463D01*
X167924927Y-107890673D01*
X168067377Y-107679640D01*
X168117440Y-107430000D01*
X168117440Y-111836428D01*
X161708868Y-118245000D01*
X160356607Y-118245000D01*
X160310673Y-118175073D01*
X160222482Y-118115543D01*
X160388327Y-117949698D01*
X160485000Y-117716309D01*
X160485000Y-117125750D01*
X160485000Y-116554250D01*
X160485000Y-115963691D01*
X160388327Y-115730302D01*
X160209699Y-115551673D01*
X159976310Y-115455000D01*
X159723691Y-115455000D01*
X159035750Y-115455000D01*
X158877000Y-115613750D01*
X158877000Y-116713000D01*
X160326250Y-116713000D01*
X160485000Y-116554250D01*
X160485000Y-117125750D01*
X160326250Y-116967000D01*
X158877000Y-116967000D01*
X158877000Y-116987000D01*
X158623000Y-116987000D01*
X158623000Y-116967000D01*
X158603000Y-116967000D01*
X158603000Y-116713000D01*
X158623000Y-116713000D01*
X158623000Y-115613750D01*
X158464250Y-115455000D01*
X157776309Y-115455000D01*
X157523690Y-115455000D01*
X157290301Y-115551673D01*
X157111673Y-115730302D01*
X157015000Y-115963691D01*
X157015000Y-115997239D01*
X156961310Y-115975000D01*
X156708691Y-115975000D01*
X156495750Y-115975000D01*
X156337000Y-116133750D01*
X156337000Y-116983000D01*
X156357000Y-116983000D01*
X156357000Y-117237000D01*
X156337000Y-117237000D01*
X156337000Y-117257000D01*
X156083000Y-117257000D01*
X156083000Y-117237000D01*
X156083000Y-116983000D01*
X156083000Y-116133750D01*
X155924250Y-115975000D01*
X155711309Y-115975000D01*
X155458690Y-115975000D01*
X155225301Y-116071673D01*
X155046673Y-116250302D01*
X154950000Y-116483691D01*
X154950000Y-116824250D01*
X155108750Y-116983000D01*
X156083000Y-116983000D01*
X156083000Y-117237000D01*
X155108750Y-117237000D01*
X154950000Y-117395750D01*
X154950000Y-117736309D01*
X155046673Y-117969698D01*
X155188150Y-118111176D01*
X155130073Y-118149327D01*
X154987623Y-118360360D01*
X154937560Y-118610000D01*
X154937560Y-119610000D01*
X154984537Y-119852123D01*
X155124327Y-120064927D01*
X155335360Y-120207377D01*
X155585000Y-120257440D01*
X156835000Y-120257440D01*
X157020310Y-120221485D01*
X157049537Y-120372123D01*
X157189327Y-120584927D01*
X157285560Y-120649886D01*
X157195073Y-120709327D01*
X157063666Y-120904000D01*
X154879413Y-120904000D01*
X148275000Y-111396546D01*
X146971444Y-109520000D01*
X147017002Y-109520000D01*
X147017002Y-109361252D01*
X147175750Y-109520000D01*
X147766309Y-109520000D01*
X147999698Y-109423327D01*
X148178327Y-109244699D01*
X148275000Y-109011310D01*
X148275000Y-108870750D01*
X148116250Y-108712000D01*
X147017000Y-108712000D01*
X147017000Y-108732000D01*
X146763000Y-108732000D01*
X146763000Y-108712000D01*
X146743000Y-108712000D01*
X146743000Y-108458000D01*
X146763000Y-108458000D01*
X146763000Y-108438000D01*
X147017000Y-108438000D01*
X147017000Y-108458000D01*
X148116250Y-108458000D01*
X148275000Y-108299250D01*
X148275000Y-108158690D01*
X148185211Y-107941921D01*
X148237377Y-107864640D01*
X148287440Y-107615000D01*
X148287440Y-107015000D01*
X148240463Y-106772877D01*
X148179603Y-106680229D01*
X148237377Y-106594640D01*
X148287440Y-106345000D01*
X148287440Y-105745000D01*
X148280649Y-105710000D01*
X155448000Y-105710000D01*
X155805809Y-105638827D01*
X156109145Y-105436145D01*
X157715000Y-103830290D01*
X157715000Y-105282560D01*
X157650000Y-105282560D01*
X157407877Y-105329537D01*
X157195073Y-105469327D01*
X157052623Y-105680360D01*
X157020650Y-105839790D01*
X156835000Y-105802560D01*
X155585000Y-105802560D01*
X155342877Y-105849537D01*
X155130073Y-105989327D01*
X154987623Y-106200360D01*
X154937560Y-106450000D01*
X154937560Y-107450000D01*
X154984537Y-107692123D01*
X155124327Y-107904927D01*
X155190528Y-107949613D01*
X155130073Y-107989327D01*
X154987623Y-108200360D01*
X154937560Y-108450000D01*
X154937560Y-109450000D01*
X154984537Y-109692123D01*
X155124327Y-109904927D01*
X155172108Y-109937180D01*
X154335144Y-110774144D01*
X154110785Y-111109923D01*
X154031999Y-111506000D01*
X154110785Y-111902077D01*
X154335144Y-112237856D01*
X154670923Y-112462215D01*
X155067000Y-112541001D01*
X155463077Y-112462215D01*
X155798856Y-112237856D01*
X157457812Y-110578898D01*
X157650000Y-110617440D01*
X159850000Y-110617440D01*
X160092123Y-110570463D01*
X160304927Y-110430673D01*
X160447377Y-110219640D01*
X160497440Y-109970000D01*
X160497440Y-108470000D01*
X160450463Y-108227877D01*
X160310673Y-108015073D01*
X160214439Y-107950113D01*
X160304927Y-107890673D01*
X160447377Y-107679640D01*
X160497440Y-107430000D01*
X160497440Y-105930000D01*
X160450463Y-105687877D01*
X160310673Y-105475073D01*
X160099640Y-105332623D01*
X159850000Y-105282560D01*
X159785000Y-105282560D01*
X159785000Y-103759000D01*
X159785000Y-102997000D01*
X159706215Y-102600923D01*
X159481856Y-102265144D01*
X159360939Y-102184350D01*
X160046145Y-101499145D01*
X160248827Y-101195809D01*
X160320000Y-100838000D01*
X160320000Y-93478290D01*
X160915290Y-92883000D01*
X162052000Y-92883000D01*
X162118639Y-92883000D01*
X162202191Y-92938827D01*
X162560000Y-93010000D01*
X169925184Y-93010000D01*
X169926000Y-93010000D01*
X170111167Y-93010162D01*
X170283809Y-92938827D01*
X170454943Y-92868117D01*
X170587145Y-92736145D01*
X170718192Y-92605327D01*
X170789827Y-92432809D01*
X170860838Y-92261799D01*
X170861000Y-92075000D01*
X170861162Y-91889833D01*
X170789827Y-91717191D01*
X170719117Y-91546057D01*
X170587145Y-91413855D01*
X170456327Y-91282808D01*
X170409188Y-91263234D01*
X170464192Y-91208327D01*
X170535827Y-91035809D01*
X170606838Y-90864799D01*
X170607000Y-90678000D01*
X170607162Y-90492833D01*
X170535827Y-90320191D01*
X170465117Y-90149057D01*
X170333145Y-90016855D01*
X170202327Y-89885808D01*
X169858799Y-89743162D01*
X169486833Y-89742838D01*
X169486440Y-89743000D01*
X166401440Y-89743000D01*
X166401440Y-89315000D01*
X166354463Y-89072877D01*
X166289000Y-88973221D01*
X166289000Y-87884000D01*
X166217827Y-87526191D01*
X166015145Y-87222855D01*
X166015141Y-87222852D01*
X165507145Y-86714855D01*
X165234978Y-86533000D01*
X167005000Y-86533000D01*
X167362809Y-86461827D01*
X167666145Y-86259145D01*
X168200290Y-85725000D01*
X173609000Y-85725000D01*
X173633080Y-85720210D01*
X173657024Y-85715570D01*
X173657288Y-85715395D01*
X173657601Y-85715333D01*
X173677965Y-85701726D01*
X173698361Y-85688243D01*
X173698539Y-85687979D01*
X173698803Y-85687803D01*
X173712375Y-85667490D01*
X173726093Y-85647177D01*
X173726156Y-85646864D01*
X173726333Y-85646601D01*
X173731111Y-85622575D01*
X173735998Y-85598624D01*
X173775867Y-77485000D01*
X191065000Y-77485000D01*
X191065000Y-97990000D01*
G36*
X191065000Y-132649000D02*
X190455000Y-132649000D01*
X190455000Y-129133600D01*
X190288677Y-128297437D01*
X189815028Y-127588572D01*
X189106163Y-127114923D01*
X188849000Y-127063770D01*
X188849000Y-126117250D01*
X188849000Y-124868000D01*
X185999750Y-124868000D01*
X185841000Y-125026750D01*
X185841000Y-125514691D01*
X185841000Y-125767310D01*
X185937673Y-126000699D01*
X186116302Y-126179327D01*
X186349691Y-126276000D01*
X188690250Y-126276000D01*
X188849000Y-126117250D01*
X188849000Y-127063770D01*
X188270000Y-126948600D01*
X187433837Y-127114923D01*
X186724972Y-127588572D01*
X186251323Y-128297437D01*
X186085000Y-129133600D01*
X186251323Y-129969763D01*
X186724972Y-130678628D01*
X187433837Y-131152277D01*
X188270000Y-131318600D01*
X189106163Y-131152277D01*
X189815028Y-130678628D01*
X190288677Y-129969763D01*
X190455000Y-129133600D01*
X190455000Y-132649000D01*
X179997606Y-132649000D01*
X179997606Y-128555126D01*
X179553847Y-127481148D01*
X178732874Y-126658740D01*
X177659672Y-126213108D01*
X176497626Y-126212094D01*
X175423648Y-126655853D01*
X174601240Y-127476826D01*
X174155608Y-128550028D01*
X174154594Y-129712074D01*
X174598353Y-130786052D01*
X175419326Y-131608460D01*
X176492528Y-132054092D01*
X177654574Y-132055106D01*
X178728552Y-131611347D01*
X179550960Y-130790374D01*
X179996592Y-129717172D01*
X179997606Y-128555126D01*
X179997606Y-132649000D01*
X173542558Y-132649000D01*
X172896654Y-132649000D01*
X172896654Y-131483759D01*
X171996100Y-130583205D01*
X171095546Y-131483759D01*
X171181952Y-131740243D01*
X171755436Y-131950058D01*
X172365560Y-131924439D01*
X172810248Y-131740243D01*
X172896654Y-131483759D01*
X172896654Y-132649000D01*
X117147713Y-132649000D01*
X112863144Y-131796746D01*
X111860798Y-131127000D01*
X114754131Y-131127000D01*
X114814032Y-131271971D01*
X115245457Y-131704151D01*
X115809430Y-131938333D01*
X116420091Y-131938865D01*
X116984471Y-131705668D01*
X117386422Y-131304418D01*
X117785457Y-131704151D01*
X118349430Y-131938333D01*
X118960091Y-131938865D01*
X119524471Y-131705668D01*
X119926422Y-131304418D01*
X120325457Y-131704151D01*
X120889430Y-131938333D01*
X121500091Y-131938865D01*
X122064471Y-131705668D01*
X122466422Y-131304418D01*
X122865457Y-131704151D01*
X123429430Y-131938333D01*
X124040091Y-131938865D01*
X124604471Y-131705668D01*
X125006422Y-131304418D01*
X125405457Y-131704151D01*
X125969430Y-131938333D01*
X126580091Y-131938865D01*
X127144471Y-131705668D01*
X127546422Y-131304418D01*
X127945457Y-131704151D01*
X128509430Y-131938333D01*
X129120091Y-131938865D01*
X129684471Y-131705668D01*
X130086422Y-131304418D01*
X130485457Y-131704151D01*
X131049430Y-131938333D01*
X131660091Y-131938865D01*
X132224471Y-131705668D01*
X132626422Y-131304418D01*
X133025457Y-131704151D01*
X133589430Y-131938333D01*
X134200091Y-131938865D01*
X134764471Y-131705668D01*
X135166422Y-131304418D01*
X135565457Y-131704151D01*
X136129430Y-131938333D01*
X136740091Y-131938865D01*
X137304471Y-131705668D01*
X137706422Y-131304418D01*
X138105457Y-131704151D01*
X138669430Y-131938333D01*
X139280091Y-131938865D01*
X139844471Y-131705668D01*
X140246422Y-131304418D01*
X140645457Y-131704151D01*
X141209430Y-131938333D01*
X141820091Y-131938865D01*
X142384471Y-131705668D01*
X142786422Y-131304418D01*
X143185457Y-131704151D01*
X143749430Y-131938333D01*
X144360091Y-131938865D01*
X144924471Y-131705668D01*
X145326422Y-131304418D01*
X145725457Y-131704151D01*
X146289430Y-131938333D01*
X146900091Y-131938865D01*
X147464471Y-131705668D01*
X147866422Y-131304418D01*
X148265457Y-131704151D01*
X148829430Y-131938333D01*
X149440091Y-131938865D01*
X150004471Y-131705668D01*
X150406422Y-131304418D01*
X150805457Y-131704151D01*
X151369430Y-131938333D01*
X151980091Y-131938865D01*
X152544471Y-131705668D01*
X152946422Y-131304418D01*
X153345457Y-131704151D01*
X153909430Y-131938333D01*
X154520091Y-131938865D01*
X155084471Y-131705668D01*
X155486422Y-131304418D01*
X155885457Y-131704151D01*
X156449430Y-131938333D01*
X157060091Y-131938865D01*
X157624471Y-131705668D01*
X158026422Y-131304418D01*
X158425457Y-131704151D01*
X158989430Y-131938333D01*
X159600091Y-131938865D01*
X160164471Y-131705668D01*
X160566422Y-131304418D01*
X160965457Y-131704151D01*
X161529430Y-131938333D01*
X162140091Y-131938865D01*
X162704471Y-131705668D01*
X163106422Y-131304418D01*
X163505457Y-131704151D01*
X164069430Y-131938333D01*
X164680091Y-131938865D01*
X165244471Y-131705668D01*
X165646422Y-131304418D01*
X166045457Y-131704151D01*
X166609430Y-131938333D01*
X167220091Y-131938865D01*
X167784471Y-131705668D01*
X168186422Y-131304418D01*
X168585457Y-131704151D01*
X169149430Y-131938333D01*
X169760091Y-131938865D01*
X170324471Y-131705668D01*
X170756651Y-131274243D01*
X170765303Y-131253406D01*
X170915941Y-131304154D01*
X171816495Y-130403600D01*
X171802352Y-130389457D01*
X171981957Y-130209852D01*
X171996100Y-130223995D01*
X172010242Y-130209852D01*
X172189847Y-130389457D01*
X172175705Y-130403600D01*
X173076259Y-131304154D01*
X173332743Y-131217748D01*
X173542558Y-130644264D01*
X173516939Y-130034140D01*
X173332743Y-129589452D01*
X173076261Y-129503046D01*
X173190818Y-129388490D01*
X173148640Y-129346312D01*
X173255798Y-129301927D01*
X173434427Y-129123299D01*
X173531100Y-128889910D01*
X173531100Y-128637291D01*
X173531100Y-128149350D01*
X173531100Y-127577850D01*
X173531100Y-127089909D01*
X173531100Y-126837290D01*
X173434427Y-126603901D01*
X173255798Y-126425273D01*
X173022409Y-126328600D01*
X172281850Y-126328600D01*
X172123100Y-126487350D01*
X172123100Y-127736600D01*
X173372350Y-127736600D01*
X173531100Y-127577850D01*
X173531100Y-128149350D01*
X173372350Y-127990600D01*
X172123100Y-127990600D01*
X172123100Y-128010600D01*
X171869100Y-128010600D01*
X171869100Y-127990600D01*
X171849100Y-127990600D01*
X171849100Y-127736600D01*
X171869100Y-127736600D01*
X171869100Y-126487350D01*
X171710350Y-126328600D01*
X170969791Y-126328600D01*
X170736402Y-126425273D01*
X170557773Y-126603901D01*
X170501981Y-126738593D01*
X170326743Y-126563049D01*
X169762770Y-126328867D01*
X169152109Y-126328335D01*
X168587729Y-126561532D01*
X168185777Y-126962781D01*
X167786743Y-126563049D01*
X167222770Y-126328867D01*
X166612109Y-126328335D01*
X166047729Y-126561532D01*
X165645777Y-126962781D01*
X165246743Y-126563049D01*
X164682770Y-126328867D01*
X164072109Y-126328335D01*
X163507729Y-126561532D01*
X163105777Y-126962781D01*
X162706743Y-126563049D01*
X162142770Y-126328867D01*
X161532109Y-126328335D01*
X160967729Y-126561532D01*
X160565777Y-126962781D01*
X160166743Y-126563049D01*
X159602770Y-126328867D01*
X158992109Y-126328335D01*
X158427729Y-126561532D01*
X158025777Y-126962781D01*
X157626743Y-126563049D01*
X157062770Y-126328867D01*
X156452109Y-126328335D01*
X155887729Y-126561532D01*
X155485777Y-126962781D01*
X155086743Y-126563049D01*
X154522770Y-126328867D01*
X153912109Y-126328335D01*
X153347729Y-126561532D01*
X152945777Y-126962781D01*
X152546743Y-126563049D01*
X151982770Y-126328867D01*
X151372109Y-126328335D01*
X150807729Y-126561532D01*
X150405777Y-126962781D01*
X150006743Y-126563049D01*
X149442770Y-126328867D01*
X148832109Y-126328335D01*
X148267729Y-126561532D01*
X147865777Y-126962781D01*
X147466743Y-126563049D01*
X146902770Y-126328867D01*
X146292109Y-126328335D01*
X145727729Y-126561532D01*
X145325777Y-126962781D01*
X144926743Y-126563049D01*
X144362770Y-126328867D01*
X143752109Y-126328335D01*
X143187729Y-126561532D01*
X142785777Y-126962781D01*
X142386743Y-126563049D01*
X141822770Y-126328867D01*
X141212109Y-126328335D01*
X140647729Y-126561532D01*
X140245777Y-126962781D01*
X139846743Y-126563049D01*
X139282770Y-126328867D01*
X138672109Y-126328335D01*
X138107729Y-126561532D01*
X137705777Y-126962781D01*
X137306743Y-126563049D01*
X136742770Y-126328867D01*
X136132109Y-126328335D01*
X135567729Y-126561532D01*
X135165777Y-126962781D01*
X134766743Y-126563049D01*
X134202770Y-126328867D01*
X133592109Y-126328335D01*
X133027729Y-126561532D01*
X132625777Y-126962781D01*
X132226743Y-126563049D01*
X131662770Y-126328867D01*
X131052109Y-126328335D01*
X130487729Y-126561532D01*
X130085777Y-126962781D01*
X129686743Y-126563049D01*
X129122770Y-126328867D01*
X128512109Y-126328335D01*
X127947729Y-126561532D01*
X127545777Y-126962781D01*
X127146743Y-126563049D01*
X126582770Y-126328867D01*
X125972109Y-126328335D01*
X125407729Y-126561532D01*
X125158000Y-126810824D01*
X125158000Y-123114400D01*
X121988000Y-123114400D01*
X121988000Y-123250895D01*
X120078000Y-123250895D01*
X120078000Y-123120714D01*
X117639600Y-123120714D01*
X117639600Y-123108038D01*
X114469600Y-123108038D01*
X114469600Y-127437562D01*
X114630932Y-127437562D01*
X114581367Y-127556930D01*
X114581018Y-127957000D01*
X113168736Y-127957000D01*
X113510960Y-127615374D01*
X113956592Y-126542172D01*
X113957606Y-125380126D01*
X113513847Y-124306148D01*
X112692874Y-123483740D01*
X111619672Y-123038108D01*
X110457626Y-123037094D01*
X109383648Y-123480853D01*
X108561240Y-124301826D01*
X108115608Y-125375028D01*
X108114594Y-126537074D01*
X108558353Y-127611052D01*
X109379326Y-128433460D01*
X110214429Y-128780224D01*
X110214429Y-130026930D01*
X109326417Y-129433580D01*
X106963252Y-125896852D01*
X106106838Y-121591363D01*
X106045000Y-121442074D01*
X106045000Y-115628239D01*
X110379400Y-115628239D01*
X110379400Y-93667762D01*
X106045000Y-93667762D01*
X106045000Y-88567467D01*
X106893961Y-84299445D01*
X109273384Y-80738386D01*
X112834444Y-78358962D01*
X117168637Y-77496838D01*
X117197216Y-77485000D01*
X171589647Y-77485000D01*
X171580581Y-78056160D01*
X171096100Y-78056160D01*
X170853977Y-78103137D01*
X170769087Y-78158900D01*
X169985850Y-78161498D01*
X169762770Y-78068867D01*
X169152109Y-78068335D01*
X168918065Y-78165039D01*
X167465978Y-78169855D01*
X167222770Y-78068867D01*
X166612109Y-78068335D01*
X166357511Y-78173532D01*
X164946106Y-78178213D01*
X164682770Y-78068867D01*
X164072109Y-78068335D01*
X163796957Y-78182025D01*
X162426233Y-78186571D01*
X162142770Y-78068867D01*
X161532109Y-78068335D01*
X161236403Y-78190517D01*
X159906361Y-78194929D01*
X159602770Y-78068867D01*
X158992109Y-78068335D01*
X158675849Y-78199010D01*
X157386489Y-78203287D01*
X157062770Y-78068867D01*
X156452109Y-78068335D01*
X156115295Y-78207503D01*
X154866617Y-78211644D01*
X154522770Y-78068867D01*
X153912109Y-78068335D01*
X153554741Y-78215996D01*
X152346745Y-78220002D01*
X151982770Y-78068867D01*
X151372109Y-78068335D01*
X150994187Y-78224488D01*
X149826873Y-78228360D01*
X149442770Y-78068867D01*
X148832109Y-78068335D01*
X148433633Y-78232981D01*
X147307000Y-78236718D01*
X146902770Y-78068867D01*
X146292109Y-78068335D01*
X145873079Y-78241474D01*
X144787128Y-78245076D01*
X144362770Y-78068867D01*
X143752109Y-78068335D01*
X143312525Y-78249966D01*
X142267256Y-78253433D01*
X141822770Y-78068867D01*
X141212109Y-78068335D01*
X140647729Y-78301532D01*
X140245777Y-78702781D01*
X139846743Y-78303049D01*
X139282770Y-78068867D01*
X138672109Y-78068335D01*
X138107729Y-78301532D01*
X137705777Y-78702781D01*
X137306743Y-78303049D01*
X136742770Y-78068867D01*
X136132109Y-78068335D01*
X135567729Y-78301532D01*
X135165777Y-78702781D01*
X134766743Y-78303049D01*
X134202770Y-78068867D01*
X133592109Y-78068335D01*
X133027729Y-78301532D01*
X132625777Y-78702781D01*
X132226743Y-78303049D01*
X131662770Y-78068867D01*
X131052109Y-78068335D01*
X130487729Y-78301532D01*
X130085777Y-78702781D01*
X129686743Y-78303049D01*
X129122770Y-78068867D01*
X128512109Y-78068335D01*
X127947729Y-78301532D01*
X127545777Y-78702781D01*
X127146743Y-78303049D01*
X126582770Y-78068867D01*
X125972109Y-78068335D01*
X125407729Y-78301532D01*
X125005777Y-78702781D01*
X124606743Y-78303049D01*
X124042770Y-78068867D01*
X123432109Y-78068335D01*
X122867729Y-78301532D01*
X122465777Y-78702781D01*
X122066743Y-78303049D01*
X121502770Y-78068867D01*
X120892109Y-78068335D01*
X120327729Y-78301532D01*
X119925777Y-78702781D01*
X119526743Y-78303049D01*
X118962770Y-78068867D01*
X118352109Y-78068335D01*
X117787729Y-78301532D01*
X117355549Y-78732957D01*
X117346896Y-78753793D01*
X117196259Y-78703046D01*
X117016654Y-78882651D01*
X117016654Y-78523441D01*
X116930248Y-78266957D01*
X116356764Y-78057142D01*
X115746640Y-78082761D01*
X115301952Y-78266957D01*
X115215546Y-78523441D01*
X116116100Y-79423995D01*
X117016654Y-78523441D01*
X117016654Y-78882651D01*
X116295705Y-79603600D01*
X117196259Y-80504154D01*
X117346426Y-80453564D01*
X117354032Y-80471971D01*
X117755281Y-80873922D01*
X117355549Y-81272957D01*
X117346896Y-81293793D01*
X117196259Y-81243046D01*
X117016654Y-81422651D01*
X117016654Y-81063441D01*
X116952699Y-80873600D01*
X117016654Y-80683759D01*
X116116100Y-79783205D01*
X115936495Y-79962810D01*
X115936495Y-79603600D01*
X115035941Y-78703046D01*
X114779457Y-78789452D01*
X114569642Y-79362936D01*
X114595261Y-79973060D01*
X114779457Y-80417748D01*
X115035941Y-80504154D01*
X115936495Y-79603600D01*
X115936495Y-79962810D01*
X115215546Y-80683759D01*
X115279500Y-80873600D01*
X115215546Y-81063441D01*
X116116100Y-81963995D01*
X117016654Y-81063441D01*
X117016654Y-81422651D01*
X116295705Y-82143600D01*
X117196259Y-83044154D01*
X117346426Y-82993564D01*
X117354032Y-83011971D01*
X117785457Y-83444151D01*
X118349430Y-83678333D01*
X118960091Y-83678865D01*
X119524471Y-83445668D01*
X119926422Y-83044418D01*
X120325457Y-83444151D01*
X120889430Y-83678333D01*
X121500091Y-83678865D01*
X122064471Y-83445668D01*
X122466422Y-83044418D01*
X122865457Y-83444151D01*
X123429430Y-83678333D01*
X124040091Y-83678865D01*
X124604471Y-83445668D01*
X125006422Y-83044418D01*
X125405457Y-83444151D01*
X125969430Y-83678333D01*
X126580091Y-83678865D01*
X127144471Y-83445668D01*
X127546422Y-83044418D01*
X127945457Y-83444151D01*
X128509430Y-83678333D01*
X129120091Y-83678865D01*
X129684471Y-83445668D01*
X130086422Y-83044418D01*
X130485457Y-83444151D01*
X131049430Y-83678333D01*
X131660091Y-83678865D01*
X132224471Y-83445668D01*
X132626422Y-83044418D01*
X133025457Y-83444151D01*
X133589430Y-83678333D01*
X134200091Y-83678865D01*
X134764471Y-83445668D01*
X135166422Y-83044418D01*
X135565457Y-83444151D01*
X136129430Y-83678333D01*
X136740091Y-83678865D01*
X137304471Y-83445668D01*
X137706422Y-83044418D01*
X138105457Y-83444151D01*
X138669430Y-83678333D01*
X139280091Y-83678865D01*
X139844471Y-83445668D01*
X140246422Y-83044418D01*
X140645457Y-83444151D01*
X140949473Y-83570389D01*
X140950500Y-84663000D01*
X132969000Y-84663000D01*
X132611191Y-84734173D01*
X132307855Y-84936855D01*
X126084855Y-91159855D01*
X125882173Y-91463191D01*
X125811000Y-91821000D01*
X125811000Y-94276463D01*
X125770673Y-94215073D01*
X125559640Y-94072623D01*
X125310000Y-94022560D01*
X123610000Y-94022560D01*
X123367877Y-94069537D01*
X123186625Y-94188600D01*
X123129698Y-94131673D01*
X122896309Y-94035000D01*
X122205750Y-94035000D01*
X122047000Y-94193750D01*
X122047000Y-95293000D01*
X122067000Y-95293000D01*
X122067000Y-95547000D01*
X122047000Y-95547000D01*
X122047000Y-95567000D01*
X121793000Y-95567000D01*
X121793000Y-95547000D01*
X121793000Y-95293000D01*
X121793000Y-94193750D01*
X121634250Y-94035000D01*
X120943691Y-94035000D01*
X120710302Y-94131673D01*
X120531673Y-94310301D01*
X120435000Y-94543690D01*
X120435000Y-94796309D01*
X120435000Y-95134250D01*
X120593750Y-95293000D01*
X121793000Y-95293000D01*
X121793000Y-95547000D01*
X120593750Y-95547000D01*
X120435000Y-95705750D01*
X120435000Y-96043691D01*
X120435000Y-96296310D01*
X120531673Y-96529699D01*
X120532954Y-96530980D01*
X120472623Y-96620360D01*
X120422560Y-96870000D01*
X120422560Y-96900611D01*
X120229566Y-97029566D01*
X119424566Y-97834566D01*
X119243561Y-98105459D01*
X119180000Y-98425000D01*
X119180000Y-99949000D01*
X119243561Y-100268541D01*
X119424566Y-100539434D01*
X119915132Y-101030000D01*
X119833725Y-101030000D01*
X119566799Y-100919162D01*
X119194833Y-100918838D01*
X118851057Y-101060883D01*
X118587808Y-101323673D01*
X118445162Y-101667201D01*
X118444838Y-102039167D01*
X118586883Y-102382943D01*
X118849673Y-102646192D01*
X118953156Y-102689162D01*
X118952838Y-103055167D01*
X119094883Y-103398943D01*
X119325537Y-103630000D01*
X117016654Y-103630000D01*
X117016654Y-83223759D01*
X116116100Y-82323205D01*
X115936495Y-82502810D01*
X115936495Y-82143600D01*
X115035941Y-81243046D01*
X114779457Y-81329452D01*
X114569642Y-81902936D01*
X114595261Y-82513060D01*
X114779457Y-82957748D01*
X115035941Y-83044154D01*
X115936495Y-82143600D01*
X115936495Y-82502810D01*
X115215546Y-83223759D01*
X115301952Y-83480243D01*
X115875436Y-83690058D01*
X116485560Y-83664439D01*
X116930248Y-83480243D01*
X117016654Y-83223759D01*
X117016654Y-103630000D01*
X114991000Y-103630000D01*
X114671459Y-103693561D01*
X114400566Y-103874566D01*
X113957606Y-104317526D01*
X113957606Y-83470126D01*
X113513847Y-82396148D01*
X112692874Y-81573740D01*
X111619672Y-81128108D01*
X110457626Y-81127094D01*
X109383648Y-81570853D01*
X108561240Y-82391826D01*
X108115608Y-83465028D01*
X108114594Y-84627074D01*
X108558353Y-85701052D01*
X109379326Y-86523460D01*
X110452528Y-86969092D01*
X111614574Y-86970106D01*
X112688552Y-86526347D01*
X113510960Y-85705374D01*
X113956592Y-84632172D01*
X113957606Y-83470126D01*
X113957606Y-104317526D01*
X111042566Y-107232566D01*
X110861561Y-107503459D01*
X110798000Y-107823000D01*
X110798000Y-118364000D01*
X110861561Y-118683541D01*
X111042566Y-118954434D01*
X113534465Y-121446333D01*
X113633883Y-121686943D01*
X113896673Y-121950192D01*
X114240201Y-122092838D01*
X114612167Y-122093162D01*
X114955943Y-121951117D01*
X115219192Y-121688327D01*
X115361838Y-121344799D01*
X115361915Y-121256109D01*
X115547673Y-121442192D01*
X115891201Y-121584838D01*
X116263167Y-121585162D01*
X116606943Y-121443117D01*
X116870192Y-121180327D01*
X117012838Y-120836799D01*
X117013162Y-120464833D01*
X116871117Y-120121057D01*
X116608327Y-119857808D01*
X116366089Y-119757221D01*
X113738000Y-117129132D01*
X113738000Y-115934868D01*
X117852465Y-120049333D01*
X117951883Y-120289943D01*
X118214673Y-120553192D01*
X118558201Y-120695838D01*
X118930167Y-120696162D01*
X119273943Y-120554117D01*
X119537192Y-120291327D01*
X119679838Y-119947799D01*
X119680162Y-119575833D01*
X119538117Y-119232057D01*
X119275327Y-118968808D01*
X119033089Y-118868221D01*
X114881000Y-114716132D01*
X114881000Y-114156868D01*
X120265465Y-119541333D01*
X120364883Y-119781943D01*
X120627673Y-120045192D01*
X120971201Y-120187838D01*
X121343167Y-120188162D01*
X121686943Y-120046117D01*
X121950192Y-119783327D01*
X122092838Y-119439799D01*
X122093162Y-119067833D01*
X121951117Y-118724057D01*
X121688327Y-118460808D01*
X121446089Y-118360221D01*
X115897000Y-112811132D01*
X115897000Y-112201068D01*
X122134695Y-118438763D01*
X122269883Y-118765943D01*
X122532673Y-119029192D01*
X122876201Y-119171838D01*
X123248167Y-119172162D01*
X123591943Y-119030117D01*
X123855192Y-118767327D01*
X123997838Y-118423799D01*
X123998162Y-118051833D01*
X123856117Y-117708057D01*
X123593327Y-117444808D01*
X123437962Y-117380294D01*
X117101694Y-111044026D01*
X117210360Y-111117377D01*
X117460000Y-111167440D01*
X118760000Y-111167440D01*
X119002123Y-111120463D01*
X119177893Y-111005000D01*
X122621000Y-111005000D01*
X122940540Y-110941439D01*
X122940541Y-110941439D01*
X123211434Y-110760434D01*
X124796434Y-109175435D01*
X124796434Y-109175434D01*
X124886936Y-109039987D01*
X124977439Y-108904541D01*
X124977439Y-108904540D01*
X125040999Y-108585000D01*
X125041000Y-108585000D01*
X125041000Y-103886000D01*
X125041000Y-103815000D01*
X125041000Y-103251000D01*
X125041000Y-103197000D01*
X125222000Y-103197000D01*
X125541540Y-103133439D01*
X125541541Y-103133439D01*
X125812434Y-102952434D01*
X126669000Y-102095868D01*
X126669000Y-107692000D01*
X126732561Y-108011541D01*
X126913566Y-108282434D01*
X126936566Y-108305434D01*
X127207459Y-108486439D01*
X127207460Y-108486439D01*
X127527000Y-108550000D01*
X128417967Y-108550000D01*
X128480000Y-108562440D01*
X129946432Y-108562440D01*
X130016883Y-108732943D01*
X130279673Y-108996192D01*
X130623201Y-109138838D01*
X130995167Y-109139162D01*
X131338943Y-108997117D01*
X131602192Y-108734327D01*
X131744838Y-108390799D01*
X131745162Y-108018833D01*
X131603117Y-107675057D01*
X131340327Y-107411808D01*
X131098089Y-107311221D01*
X130911434Y-107124566D01*
X130640541Y-106943561D01*
X130615000Y-106938480D01*
X130615000Y-106937998D01*
X130612576Y-106937998D01*
X130537887Y-106923141D01*
X130577377Y-106864640D01*
X130582586Y-106838663D01*
X130615000Y-106806250D01*
X130615000Y-106738690D01*
X130606668Y-106718576D01*
X130627440Y-106615000D01*
X130627440Y-106215000D01*
X130602786Y-106087934D01*
X130627440Y-105965000D01*
X130627440Y-105565000D01*
X130602786Y-105437934D01*
X130627440Y-105315000D01*
X130627440Y-104915000D01*
X130602786Y-104787934D01*
X130627440Y-104665000D01*
X130627440Y-104650000D01*
X130881000Y-104650000D01*
X131200540Y-104586439D01*
X131200541Y-104586439D01*
X131379293Y-104467000D01*
X131379294Y-104467000D01*
X132047876Y-104467000D01*
X132130717Y-104501398D01*
X132867025Y-105329744D01*
X132886858Y-105344752D01*
X132900677Y-105365434D01*
X133016116Y-105442568D01*
X133126822Y-105526344D01*
X133150888Y-105532620D01*
X133171570Y-105546439D01*
X133307736Y-105573524D01*
X133442078Y-105608559D01*
X133466715Y-105605147D01*
X133491111Y-105610000D01*
X134550224Y-105610000D01*
X134447162Y-105858201D01*
X134446838Y-106230167D01*
X134588883Y-106573943D01*
X134720855Y-106706145D01*
X134851673Y-106837192D01*
X135195201Y-106979838D01*
X135382000Y-106980000D01*
X135567167Y-106980162D01*
X135567559Y-106980000D01*
X136199578Y-106980000D01*
X136192560Y-107015000D01*
X136192560Y-107615000D01*
X136239537Y-107857123D01*
X136294963Y-107941499D01*
X136205000Y-108158690D01*
X136205000Y-108299250D01*
X136363750Y-108458000D01*
X137463000Y-108458000D01*
X137463000Y-108438000D01*
X137717000Y-108438000D01*
X137717000Y-108458000D01*
X138816250Y-108458000D01*
X138975000Y-108299250D01*
X138975000Y-108158690D01*
X138885211Y-107941921D01*
X138937377Y-107864640D01*
X138987440Y-107615000D01*
X138987440Y-107015000D01*
X138940463Y-106772877D01*
X138879603Y-106680229D01*
X138937377Y-106594640D01*
X138987440Y-106345000D01*
X138987440Y-105745000D01*
X138940463Y-105502877D01*
X138879603Y-105410229D01*
X138937377Y-105324640D01*
X138987440Y-105075000D01*
X138987440Y-104475000D01*
X138940463Y-104232877D01*
X138879603Y-104140229D01*
X138937377Y-104054640D01*
X138987440Y-103805000D01*
X138987440Y-103205000D01*
X138940463Y-102962877D01*
X138879603Y-102870229D01*
X138937377Y-102784640D01*
X138987440Y-102535000D01*
X138987440Y-101935000D01*
X138940463Y-101692877D01*
X138885036Y-101608500D01*
X138975000Y-101391310D01*
X138975000Y-101250750D01*
X138816250Y-101092000D01*
X137717000Y-101092000D01*
X137717000Y-101112000D01*
X137463000Y-101112000D01*
X137463000Y-101092000D01*
X136363750Y-101092000D01*
X136205000Y-101250750D01*
X136205000Y-101391310D01*
X136208599Y-101400000D01*
X136017000Y-101400000D01*
X135697459Y-101463561D01*
X135426566Y-101644566D01*
X135301073Y-101770058D01*
X135301162Y-101668833D01*
X135246818Y-101537310D01*
X135240827Y-101507191D01*
X135223914Y-101481880D01*
X135159117Y-101325057D01*
X135038182Y-101203911D01*
X135038145Y-101203855D01*
X135027435Y-101193145D01*
X135027145Y-101192855D01*
X134896327Y-101061808D01*
X134552799Y-100919162D01*
X134180833Y-100918838D01*
X133911799Y-101030000D01*
X132052868Y-101030000D01*
X132552868Y-100530000D01*
X134727048Y-100530000D01*
X134770191Y-100558827D01*
X135128000Y-100630000D01*
X135485809Y-100558827D01*
X135528951Y-100530000D01*
X136208599Y-100530000D01*
X136205000Y-100538690D01*
X136205000Y-100679250D01*
X136363750Y-100838000D01*
X137463000Y-100838000D01*
X137463000Y-100818000D01*
X137717000Y-100818000D01*
X137717000Y-100838000D01*
X138816250Y-100838000D01*
X138975000Y-100679250D01*
X138975000Y-100538690D01*
X138885211Y-100321921D01*
X138937377Y-100244640D01*
X138987440Y-99995000D01*
X138987440Y-99395000D01*
X138940463Y-99152877D01*
X138800673Y-98940073D01*
X138589640Y-98797623D01*
X138340000Y-98747560D01*
X136840000Y-98747560D01*
X136597877Y-98794537D01*
X136498221Y-98860000D01*
X136294782Y-98860000D01*
X136350377Y-98777640D01*
X136400440Y-98528000D01*
X136400440Y-97528000D01*
X136353463Y-97285877D01*
X136213673Y-97073073D01*
X136149362Y-97029662D01*
X136291327Y-96887698D01*
X136388000Y-96654309D01*
X136388000Y-96313750D01*
X136388000Y-95742250D01*
X136388000Y-95401691D01*
X136291327Y-95168302D01*
X136112699Y-94989673D01*
X135879310Y-94893000D01*
X135626691Y-94893000D01*
X135413750Y-94893000D01*
X135255000Y-95051750D01*
X135255000Y-95901000D01*
X136229250Y-95901000D01*
X136388000Y-95742250D01*
X136388000Y-96313750D01*
X136229250Y-96155000D01*
X135255000Y-96155000D01*
X135255000Y-96175000D01*
X135001000Y-96175000D01*
X135001000Y-96155000D01*
X135001000Y-95901000D01*
X135001000Y-95051750D01*
X134842250Y-94893000D01*
X134629309Y-94893000D01*
X134376690Y-94893000D01*
X134143301Y-94989673D01*
X133964673Y-95168302D01*
X133868000Y-95401691D01*
X133868000Y-95742250D01*
X134026750Y-95901000D01*
X135001000Y-95901000D01*
X135001000Y-96155000D01*
X134026750Y-96155000D01*
X133868000Y-96313750D01*
X133868000Y-96654309D01*
X133964673Y-96887698D01*
X134106150Y-97029176D01*
X134048073Y-97067327D01*
X133905623Y-97278360D01*
X133855560Y-97528000D01*
X133855560Y-98528000D01*
X133902537Y-98770123D01*
X133961576Y-98860000D01*
X132207000Y-98860000D01*
X131887459Y-98923561D01*
X131709482Y-99042481D01*
X131603117Y-98785057D01*
X131340327Y-98521808D01*
X130996799Y-98379162D01*
X130624833Y-98378838D01*
X130281057Y-98520883D01*
X130017808Y-98783673D01*
X129875162Y-99127201D01*
X129874838Y-99499167D01*
X129965075Y-99717560D01*
X128480000Y-99717560D01*
X128237877Y-99764537D01*
X128025073Y-99904327D01*
X127882623Y-100115360D01*
X127856568Y-100245278D01*
X127681000Y-100069710D01*
X127681000Y-97790816D01*
X127681000Y-97790000D01*
X127681162Y-97604833D01*
X127681000Y-97604440D01*
X127681000Y-92208290D01*
X133356289Y-86533000D01*
X140952258Y-86533000D01*
X140970000Y-105410119D01*
X140972718Y-105423717D01*
X140973032Y-105437586D01*
X140977528Y-105447784D01*
X140979713Y-105458711D01*
X140987428Y-105470234D01*
X140993025Y-105482927D01*
X153820026Y-123770927D01*
X153828036Y-123778583D01*
X153834197Y-123787803D01*
X153845780Y-123795542D01*
X153855848Y-123805165D01*
X153866181Y-123809174D01*
X153875399Y-123815333D01*
X153889057Y-123818049D01*
X153902046Y-123823089D01*
X153913132Y-123822838D01*
X153924000Y-123825000D01*
X173863000Y-123825000D01*
X173911601Y-123815333D01*
X173952803Y-123787803D01*
X173980333Y-123746601D01*
X173990000Y-123698000D01*
X173990000Y-117085000D01*
X184700000Y-117085000D01*
X184725000Y-117085000D01*
X191065000Y-117085000D01*
X191065000Y-118326000D01*
X189261750Y-118326000D01*
X189103000Y-118484750D01*
X189103000Y-119734000D01*
X189123000Y-119734000D01*
X189123000Y-119988000D01*
X189103000Y-119988000D01*
X189103000Y-120008000D01*
X188849000Y-120008000D01*
X188849000Y-119988000D01*
X188849000Y-119734000D01*
X188849000Y-118484750D01*
X188690250Y-118326000D01*
X186349691Y-118326000D01*
X186116302Y-118422673D01*
X185937673Y-118601301D01*
X185841000Y-118834690D01*
X185841000Y-119087309D01*
X185841000Y-119575250D01*
X185999750Y-119734000D01*
X188849000Y-119734000D01*
X188849000Y-119988000D01*
X185999750Y-119988000D01*
X185841000Y-120146750D01*
X185841000Y-120634691D01*
X185841000Y-120887310D01*
X185854736Y-120920472D01*
X185828560Y-121051000D01*
X185828560Y-121166000D01*
X177800000Y-121166000D01*
X177365655Y-121252396D01*
X176997434Y-121498433D01*
X174662867Y-123833000D01*
X146682460Y-123833000D01*
X146682460Y-115914750D01*
X146682460Y-115662131D01*
X146682460Y-115474750D01*
X146682460Y-114903250D01*
X146682460Y-114715869D01*
X146682460Y-114463250D01*
X146585787Y-114229861D01*
X146407158Y-114051233D01*
X146173769Y-113954560D01*
X145733770Y-113954560D01*
X145575020Y-114113310D01*
X145575020Y-115062000D01*
X146523710Y-115062000D01*
X146682460Y-114903250D01*
X146682460Y-115474750D01*
X146523710Y-115316000D01*
X145575020Y-115316000D01*
X145575020Y-116264690D01*
X145733770Y-116423440D01*
X146173769Y-116423440D01*
X146407158Y-116326767D01*
X146585787Y-116148139D01*
X146682460Y-115914750D01*
X146682460Y-123833000D01*
X145321020Y-123833000D01*
X145321020Y-116264690D01*
X145321020Y-115316000D01*
X145301020Y-115316000D01*
X145301020Y-115062000D01*
X145321020Y-115062000D01*
X145321020Y-114113310D01*
X145162270Y-113954560D01*
X144722271Y-113954560D01*
X144488882Y-114051233D01*
X144407339Y-114132774D01*
X144199060Y-113992183D01*
X143949420Y-113942120D01*
X142750540Y-113942120D01*
X142508417Y-113989097D01*
X142295613Y-114128887D01*
X142278661Y-114154000D01*
X141605000Y-114154000D01*
X141208923Y-114232785D01*
X140873144Y-114457144D01*
X140648785Y-114792923D01*
X140570000Y-115189000D01*
X140648785Y-115585077D01*
X140873144Y-115920856D01*
X141208923Y-116145215D01*
X141605000Y-116224000D01*
X142277144Y-116224000D01*
X142289867Y-116243367D01*
X142500900Y-116385817D01*
X142750540Y-116435880D01*
X143949420Y-116435880D01*
X144191543Y-116388903D01*
X144404347Y-116249113D01*
X144407119Y-116245005D01*
X144488882Y-116326767D01*
X144722271Y-116423440D01*
X145162270Y-116423440D01*
X145321020Y-116264690D01*
X145321020Y-123833000D01*
X140335000Y-123833000D01*
X140039143Y-123891849D01*
X140039143Y-117551000D01*
X140039143Y-114101000D01*
X139722048Y-114101000D01*
X139722048Y-111797000D01*
X139567286Y-111797000D01*
X139567286Y-109384000D01*
X138739025Y-109384000D01*
X138878327Y-109244699D01*
X138975000Y-109011310D01*
X138975000Y-108870750D01*
X138816250Y-108712000D01*
X137717000Y-108712000D01*
X137717000Y-108732000D01*
X137463000Y-108732000D01*
X137463000Y-108712000D01*
X136363750Y-108712000D01*
X136205000Y-108870750D01*
X136205000Y-109011310D01*
X136301673Y-109244699D01*
X136440974Y-109384000D01*
X135768715Y-109384000D01*
X135768715Y-109750504D01*
X135688670Y-109717267D01*
X135078009Y-109716735D01*
X134513629Y-109949932D01*
X134081449Y-110381357D01*
X133847267Y-110945330D01*
X133846735Y-111555991D01*
X134079932Y-112120371D01*
X134417681Y-112458711D01*
X134081449Y-112794357D01*
X133847267Y-113358330D01*
X133846735Y-113968991D01*
X134079932Y-114533371D01*
X134227292Y-114680989D01*
X133954449Y-114953357D01*
X133720267Y-115517330D01*
X133719735Y-116127991D01*
X133952932Y-116692371D01*
X134384357Y-117124551D01*
X134948330Y-117358733D01*
X135558991Y-117359265D01*
X135804857Y-117257675D01*
X135804857Y-117551000D01*
X140039143Y-117551000D01*
X140039143Y-123891849D01*
X139900654Y-123919397D01*
X139532434Y-124165434D01*
X139286397Y-124533654D01*
X139200000Y-124968000D01*
X139286397Y-125402346D01*
X139532434Y-125770566D01*
X139900654Y-126016603D01*
X140335000Y-126103000D01*
X175133000Y-126103000D01*
X175567345Y-126016603D01*
X175567346Y-126016603D01*
X175935566Y-125770566D01*
X178270132Y-123436000D01*
X185828560Y-123436000D01*
X185828560Y-123551000D01*
X185854156Y-123682927D01*
X185841000Y-123714690D01*
X185841000Y-123967309D01*
X185841000Y-124455250D01*
X185999750Y-124614000D01*
X188849000Y-124614000D01*
X188849000Y-124594000D01*
X189103000Y-124594000D01*
X189103000Y-124614000D01*
X189123000Y-124614000D01*
X189123000Y-124868000D01*
X189103000Y-124868000D01*
X189103000Y-126117250D01*
X189261750Y-126276000D01*
X191065000Y-126276000D01*
X191065000Y-132649000D01*
X191065000Y-132649000D01*
G37*
X191065000Y-132649000D02*
X190455000Y-132649000D01*
X190455000Y-129133600D01*
X190288677Y-128297437D01*
X189815028Y-127588572D01*
X189106163Y-127114923D01*
X188849000Y-127063770D01*
X188849000Y-126117250D01*
X188849000Y-124868000D01*
X185999750Y-124868000D01*
X185841000Y-125026750D01*
X185841000Y-125514691D01*
X185841000Y-125767310D01*
X185937673Y-126000699D01*
X186116302Y-126179327D01*
X186349691Y-126276000D01*
X188690250Y-126276000D01*
X188849000Y-126117250D01*
X188849000Y-127063770D01*
X188270000Y-126948600D01*
X187433837Y-127114923D01*
X186724972Y-127588572D01*
X186251323Y-128297437D01*
X186085000Y-129133600D01*
X186251323Y-129969763D01*
X186724972Y-130678628D01*
X187433837Y-131152277D01*
X188270000Y-131318600D01*
X189106163Y-131152277D01*
X189815028Y-130678628D01*
X190288677Y-129969763D01*
X190455000Y-129133600D01*
X190455000Y-132649000D01*
X179997606Y-132649000D01*
X179997606Y-128555126D01*
X179553847Y-127481148D01*
X178732874Y-126658740D01*
X177659672Y-126213108D01*
X176497626Y-126212094D01*
X175423648Y-126655853D01*
X174601240Y-127476826D01*
X174155608Y-128550028D01*
X174154594Y-129712074D01*
X174598353Y-130786052D01*
X175419326Y-131608460D01*
X176492528Y-132054092D01*
X177654574Y-132055106D01*
X178728552Y-131611347D01*
X179550960Y-130790374D01*
X179996592Y-129717172D01*
X179997606Y-128555126D01*
X179997606Y-132649000D01*
X173542558Y-132649000D01*
X172896654Y-132649000D01*
X172896654Y-131483759D01*
X171996100Y-130583205D01*
X171095546Y-131483759D01*
X171181952Y-131740243D01*
X171755436Y-131950058D01*
X172365560Y-131924439D01*
X172810248Y-131740243D01*
X172896654Y-131483759D01*
X172896654Y-132649000D01*
X117147713Y-132649000D01*
X112863144Y-131796746D01*
X111860798Y-131127000D01*
X114754131Y-131127000D01*
X114814032Y-131271971D01*
X115245457Y-131704151D01*
X115809430Y-131938333D01*
X116420091Y-131938865D01*
X116984471Y-131705668D01*
X117386422Y-131304418D01*
X117785457Y-131704151D01*
X118349430Y-131938333D01*
X118960091Y-131938865D01*
X119524471Y-131705668D01*
X119926422Y-131304418D01*
X120325457Y-131704151D01*
X120889430Y-131938333D01*
X121500091Y-131938865D01*
X122064471Y-131705668D01*
X122466422Y-131304418D01*
X122865457Y-131704151D01*
X123429430Y-131938333D01*
X124040091Y-131938865D01*
X124604471Y-131705668D01*
X125006422Y-131304418D01*
X125405457Y-131704151D01*
X125969430Y-131938333D01*
X126580091Y-131938865D01*
X127144471Y-131705668D01*
X127546422Y-131304418D01*
X127945457Y-131704151D01*
X128509430Y-131938333D01*
X129120091Y-131938865D01*
X129684471Y-131705668D01*
X130086422Y-131304418D01*
X130485457Y-131704151D01*
X131049430Y-131938333D01*
X131660091Y-131938865D01*
X132224471Y-131705668D01*
X132626422Y-131304418D01*
X133025457Y-131704151D01*
X133589430Y-131938333D01*
X134200091Y-131938865D01*
X134764471Y-131705668D01*
X135166422Y-131304418D01*
X135565457Y-131704151D01*
X136129430Y-131938333D01*
X136740091Y-131938865D01*
X137304471Y-131705668D01*
X137706422Y-131304418D01*
X138105457Y-131704151D01*
X138669430Y-131938333D01*
X139280091Y-131938865D01*
X139844471Y-131705668D01*
X140246422Y-131304418D01*
X140645457Y-131704151D01*
X141209430Y-131938333D01*
X141820091Y-131938865D01*
X142384471Y-131705668D01*
X142786422Y-131304418D01*
X143185457Y-131704151D01*
X143749430Y-131938333D01*
X144360091Y-131938865D01*
X144924471Y-131705668D01*
X145326422Y-131304418D01*
X145725457Y-131704151D01*
X146289430Y-131938333D01*
X146900091Y-131938865D01*
X147464471Y-131705668D01*
X147866422Y-131304418D01*
X148265457Y-131704151D01*
X148829430Y-131938333D01*
X149440091Y-131938865D01*
X150004471Y-131705668D01*
X150406422Y-131304418D01*
X150805457Y-131704151D01*
X151369430Y-131938333D01*
X151980091Y-131938865D01*
X152544471Y-131705668D01*
X152946422Y-131304418D01*
X153345457Y-131704151D01*
X153909430Y-131938333D01*
X154520091Y-131938865D01*
X155084471Y-131705668D01*
X155486422Y-131304418D01*
X155885457Y-131704151D01*
X156449430Y-131938333D01*
X157060091Y-131938865D01*
X157624471Y-131705668D01*
X158026422Y-131304418D01*
X158425457Y-131704151D01*
X158989430Y-131938333D01*
X159600091Y-131938865D01*
X160164471Y-131705668D01*
X160566422Y-131304418D01*
X160965457Y-131704151D01*
X161529430Y-131938333D01*
X162140091Y-131938865D01*
X162704471Y-131705668D01*
X163106422Y-131304418D01*
X163505457Y-131704151D01*
X164069430Y-131938333D01*
X164680091Y-131938865D01*
X165244471Y-131705668D01*
X165646422Y-131304418D01*
X166045457Y-131704151D01*
X166609430Y-131938333D01*
X167220091Y-131938865D01*
X167784471Y-131705668D01*
X168186422Y-131304418D01*
X168585457Y-131704151D01*
X169149430Y-131938333D01*
X169760091Y-131938865D01*
X170324471Y-131705668D01*
X170756651Y-131274243D01*
X170765303Y-131253406D01*
X170915941Y-131304154D01*
X171816495Y-130403600D01*
X171802352Y-130389457D01*
X171981957Y-130209852D01*
X171996100Y-130223995D01*
X172010242Y-130209852D01*
X172189847Y-130389457D01*
X172175705Y-130403600D01*
X173076259Y-131304154D01*
X173332743Y-131217748D01*
X173542558Y-130644264D01*
X173516939Y-130034140D01*
X173332743Y-129589452D01*
X173076261Y-129503046D01*
X173190818Y-129388490D01*
X173148640Y-129346312D01*
X173255798Y-129301927D01*
X173434427Y-129123299D01*
X173531100Y-128889910D01*
X173531100Y-128637291D01*
X173531100Y-128149350D01*
X173531100Y-127577850D01*
X173531100Y-127089909D01*
X173531100Y-126837290D01*
X173434427Y-126603901D01*
X173255798Y-126425273D01*
X173022409Y-126328600D01*
X172281850Y-126328600D01*
X172123100Y-126487350D01*
X172123100Y-127736600D01*
X173372350Y-127736600D01*
X173531100Y-127577850D01*
X173531100Y-128149350D01*
X173372350Y-127990600D01*
X172123100Y-127990600D01*
X172123100Y-128010600D01*
X171869100Y-128010600D01*
X171869100Y-127990600D01*
X171849100Y-127990600D01*
X171849100Y-127736600D01*
X171869100Y-127736600D01*
X171869100Y-126487350D01*
X171710350Y-126328600D01*
X170969791Y-126328600D01*
X170736402Y-126425273D01*
X170557773Y-126603901D01*
X170501981Y-126738593D01*
X170326743Y-126563049D01*
X169762770Y-126328867D01*
X169152109Y-126328335D01*
X168587729Y-126561532D01*
X168185777Y-126962781D01*
X167786743Y-126563049D01*
X167222770Y-126328867D01*
X166612109Y-126328335D01*
X166047729Y-126561532D01*
X165645777Y-126962781D01*
X165246743Y-126563049D01*
X164682770Y-126328867D01*
X164072109Y-126328335D01*
X163507729Y-126561532D01*
X163105777Y-126962781D01*
X162706743Y-126563049D01*
X162142770Y-126328867D01*
X161532109Y-126328335D01*
X160967729Y-126561532D01*
X160565777Y-126962781D01*
X160166743Y-126563049D01*
X159602770Y-126328867D01*
X158992109Y-126328335D01*
X158427729Y-126561532D01*
X158025777Y-126962781D01*
X157626743Y-126563049D01*
X157062770Y-126328867D01*
X156452109Y-126328335D01*
X155887729Y-126561532D01*
X155485777Y-126962781D01*
X155086743Y-126563049D01*
X154522770Y-126328867D01*
X153912109Y-126328335D01*
X153347729Y-126561532D01*
X152945777Y-126962781D01*
X152546743Y-126563049D01*
X151982770Y-126328867D01*
X151372109Y-126328335D01*
X150807729Y-126561532D01*
X150405777Y-126962781D01*
X150006743Y-126563049D01*
X149442770Y-126328867D01*
X148832109Y-126328335D01*
X148267729Y-126561532D01*
X147865777Y-126962781D01*
X147466743Y-126563049D01*
X146902770Y-126328867D01*
X146292109Y-126328335D01*
X145727729Y-126561532D01*
X145325777Y-126962781D01*
X144926743Y-126563049D01*
X144362770Y-126328867D01*
X143752109Y-126328335D01*
X143187729Y-126561532D01*
X142785777Y-126962781D01*
X142386743Y-126563049D01*
X141822770Y-126328867D01*
X141212109Y-126328335D01*
X140647729Y-126561532D01*
X140245777Y-126962781D01*
X139846743Y-126563049D01*
X139282770Y-126328867D01*
X138672109Y-126328335D01*
X138107729Y-126561532D01*
X137705777Y-126962781D01*
X137306743Y-126563049D01*
X136742770Y-126328867D01*
X136132109Y-126328335D01*
X135567729Y-126561532D01*
X135165777Y-126962781D01*
X134766743Y-126563049D01*
X134202770Y-126328867D01*
X133592109Y-126328335D01*
X133027729Y-126561532D01*
X132625777Y-126962781D01*
X132226743Y-126563049D01*
X131662770Y-126328867D01*
X131052109Y-126328335D01*
X130487729Y-126561532D01*
X130085777Y-126962781D01*
X129686743Y-126563049D01*
X129122770Y-126328867D01*
X128512109Y-126328335D01*
X127947729Y-126561532D01*
X127545777Y-126962781D01*
X127146743Y-126563049D01*
X126582770Y-126328867D01*
X125972109Y-126328335D01*
X125407729Y-126561532D01*
X125158000Y-126810824D01*
X125158000Y-123114400D01*
X121988000Y-123114400D01*
X121988000Y-123250895D01*
X120078000Y-123250895D01*
X120078000Y-123120714D01*
X117639600Y-123120714D01*
X117639600Y-123108038D01*
X114469600Y-123108038D01*
X114469600Y-127437562D01*
X114630932Y-127437562D01*
X114581367Y-127556930D01*
X114581018Y-127957000D01*
X113168736Y-127957000D01*
X113510960Y-127615374D01*
X113956592Y-126542172D01*
X113957606Y-125380126D01*
X113513847Y-124306148D01*
X112692874Y-123483740D01*
X111619672Y-123038108D01*
X110457626Y-123037094D01*
X109383648Y-123480853D01*
X108561240Y-124301826D01*
X108115608Y-125375028D01*
X108114594Y-126537074D01*
X108558353Y-127611052D01*
X109379326Y-128433460D01*
X110214429Y-128780224D01*
X110214429Y-130026930D01*
X109326417Y-129433580D01*
X106963252Y-125896852D01*
X106106838Y-121591363D01*
X106045000Y-121442074D01*
X106045000Y-115628239D01*
X110379400Y-115628239D01*
X110379400Y-93667762D01*
X106045000Y-93667762D01*
X106045000Y-88567467D01*
X106893961Y-84299445D01*
X109273384Y-80738386D01*
X112834444Y-78358962D01*
X117168637Y-77496838D01*
X117197216Y-77485000D01*
X171589647Y-77485000D01*
X171580581Y-78056160D01*
X171096100Y-78056160D01*
X170853977Y-78103137D01*
X170769087Y-78158900D01*
X169985850Y-78161498D01*
X169762770Y-78068867D01*
X169152109Y-78068335D01*
X168918065Y-78165039D01*
X167465978Y-78169855D01*
X167222770Y-78068867D01*
X166612109Y-78068335D01*
X166357511Y-78173532D01*
X164946106Y-78178213D01*
X164682770Y-78068867D01*
X164072109Y-78068335D01*
X163796957Y-78182025D01*
X162426233Y-78186571D01*
X162142770Y-78068867D01*
X161532109Y-78068335D01*
X161236403Y-78190517D01*
X159906361Y-78194929D01*
X159602770Y-78068867D01*
X158992109Y-78068335D01*
X158675849Y-78199010D01*
X157386489Y-78203287D01*
X157062770Y-78068867D01*
X156452109Y-78068335D01*
X156115295Y-78207503D01*
X154866617Y-78211644D01*
X154522770Y-78068867D01*
X153912109Y-78068335D01*
X153554741Y-78215996D01*
X152346745Y-78220002D01*
X151982770Y-78068867D01*
X151372109Y-78068335D01*
X150994187Y-78224488D01*
X149826873Y-78228360D01*
X149442770Y-78068867D01*
X148832109Y-78068335D01*
X148433633Y-78232981D01*
X147307000Y-78236718D01*
X146902770Y-78068867D01*
X146292109Y-78068335D01*
X145873079Y-78241474D01*
X144787128Y-78245076D01*
X144362770Y-78068867D01*
X143752109Y-78068335D01*
X143312525Y-78249966D01*
X142267256Y-78253433D01*
X141822770Y-78068867D01*
X141212109Y-78068335D01*
X140647729Y-78301532D01*
X140245777Y-78702781D01*
X139846743Y-78303049D01*
X139282770Y-78068867D01*
X138672109Y-78068335D01*
X138107729Y-78301532D01*
X137705777Y-78702781D01*
X137306743Y-78303049D01*
X136742770Y-78068867D01*
X136132109Y-78068335D01*
X135567729Y-78301532D01*
X135165777Y-78702781D01*
X134766743Y-78303049D01*
X134202770Y-78068867D01*
X133592109Y-78068335D01*
X133027729Y-78301532D01*
X132625777Y-78702781D01*
X132226743Y-78303049D01*
X131662770Y-78068867D01*
X131052109Y-78068335D01*
X130487729Y-78301532D01*
X130085777Y-78702781D01*
X129686743Y-78303049D01*
X129122770Y-78068867D01*
X128512109Y-78068335D01*
X127947729Y-78301532D01*
X127545777Y-78702781D01*
X127146743Y-78303049D01*
X126582770Y-78068867D01*
X125972109Y-78068335D01*
X125407729Y-78301532D01*
X125005777Y-78702781D01*
X124606743Y-78303049D01*
X124042770Y-78068867D01*
X123432109Y-78068335D01*
X122867729Y-78301532D01*
X122465777Y-78702781D01*
X122066743Y-78303049D01*
X121502770Y-78068867D01*
X120892109Y-78068335D01*
X120327729Y-78301532D01*
X119925777Y-78702781D01*
X119526743Y-78303049D01*
X118962770Y-78068867D01*
X118352109Y-78068335D01*
X117787729Y-78301532D01*
X117355549Y-78732957D01*
X117346896Y-78753793D01*
X117196259Y-78703046D01*
X117016654Y-78882651D01*
X117016654Y-78523441D01*
X116930248Y-78266957D01*
X116356764Y-78057142D01*
X115746640Y-78082761D01*
X115301952Y-78266957D01*
X115215546Y-78523441D01*
X116116100Y-79423995D01*
X117016654Y-78523441D01*
X117016654Y-78882651D01*
X116295705Y-79603600D01*
X117196259Y-80504154D01*
X117346426Y-80453564D01*
X117354032Y-80471971D01*
X117755281Y-80873922D01*
X117355549Y-81272957D01*
X117346896Y-81293793D01*
X117196259Y-81243046D01*
X117016654Y-81422651D01*
X117016654Y-81063441D01*
X116952699Y-80873600D01*
X117016654Y-80683759D01*
X116116100Y-79783205D01*
X115936495Y-79962810D01*
X115936495Y-79603600D01*
X115035941Y-78703046D01*
X114779457Y-78789452D01*
X114569642Y-79362936D01*
X114595261Y-79973060D01*
X114779457Y-80417748D01*
X115035941Y-80504154D01*
X115936495Y-79603600D01*
X115936495Y-79962810D01*
X115215546Y-80683759D01*
X115279500Y-80873600D01*
X115215546Y-81063441D01*
X116116100Y-81963995D01*
X117016654Y-81063441D01*
X117016654Y-81422651D01*
X116295705Y-82143600D01*
X117196259Y-83044154D01*
X117346426Y-82993564D01*
X117354032Y-83011971D01*
X117785457Y-83444151D01*
X118349430Y-83678333D01*
X118960091Y-83678865D01*
X119524471Y-83445668D01*
X119926422Y-83044418D01*
X120325457Y-83444151D01*
X120889430Y-83678333D01*
X121500091Y-83678865D01*
X122064471Y-83445668D01*
X122466422Y-83044418D01*
X122865457Y-83444151D01*
X123429430Y-83678333D01*
X124040091Y-83678865D01*
X124604471Y-83445668D01*
X125006422Y-83044418D01*
X125405457Y-83444151D01*
X125969430Y-83678333D01*
X126580091Y-83678865D01*
X127144471Y-83445668D01*
X127546422Y-83044418D01*
X127945457Y-83444151D01*
X128509430Y-83678333D01*
X129120091Y-83678865D01*
X129684471Y-83445668D01*
X130086422Y-83044418D01*
X130485457Y-83444151D01*
X131049430Y-83678333D01*
X131660091Y-83678865D01*
X132224471Y-83445668D01*
X132626422Y-83044418D01*
X133025457Y-83444151D01*
X133589430Y-83678333D01*
X134200091Y-83678865D01*
X134764471Y-83445668D01*
X135166422Y-83044418D01*
X135565457Y-83444151D01*
X136129430Y-83678333D01*
X136740091Y-83678865D01*
X137304471Y-83445668D01*
X137706422Y-83044418D01*
X138105457Y-83444151D01*
X138669430Y-83678333D01*
X139280091Y-83678865D01*
X139844471Y-83445668D01*
X140246422Y-83044418D01*
X140645457Y-83444151D01*
X140949473Y-83570389D01*
X140950500Y-84663000D01*
X132969000Y-84663000D01*
X132611191Y-84734173D01*
X132307855Y-84936855D01*
X126084855Y-91159855D01*
X125882173Y-91463191D01*
X125811000Y-91821000D01*
X125811000Y-94276463D01*
X125770673Y-94215073D01*
X125559640Y-94072623D01*
X125310000Y-94022560D01*
X123610000Y-94022560D01*
X123367877Y-94069537D01*
X123186625Y-94188600D01*
X123129698Y-94131673D01*
X122896309Y-94035000D01*
X122205750Y-94035000D01*
X122047000Y-94193750D01*
X122047000Y-95293000D01*
X122067000Y-95293000D01*
X122067000Y-95547000D01*
X122047000Y-95547000D01*
X122047000Y-95567000D01*
X121793000Y-95567000D01*
X121793000Y-95547000D01*
X121793000Y-95293000D01*
X121793000Y-94193750D01*
X121634250Y-94035000D01*
X120943691Y-94035000D01*
X120710302Y-94131673D01*
X120531673Y-94310301D01*
X120435000Y-94543690D01*
X120435000Y-94796309D01*
X120435000Y-95134250D01*
X120593750Y-95293000D01*
X121793000Y-95293000D01*
X121793000Y-95547000D01*
X120593750Y-95547000D01*
X120435000Y-95705750D01*
X120435000Y-96043691D01*
X120435000Y-96296310D01*
X120531673Y-96529699D01*
X120532954Y-96530980D01*
X120472623Y-96620360D01*
X120422560Y-96870000D01*
X120422560Y-96900611D01*
X120229566Y-97029566D01*
X119424566Y-97834566D01*
X119243561Y-98105459D01*
X119180000Y-98425000D01*
X119180000Y-99949000D01*
X119243561Y-100268541D01*
X119424566Y-100539434D01*
X119915132Y-101030000D01*
X119833725Y-101030000D01*
X119566799Y-100919162D01*
X119194833Y-100918838D01*
X118851057Y-101060883D01*
X118587808Y-101323673D01*
X118445162Y-101667201D01*
X118444838Y-102039167D01*
X118586883Y-102382943D01*
X118849673Y-102646192D01*
X118953156Y-102689162D01*
X118952838Y-103055167D01*
X119094883Y-103398943D01*
X119325537Y-103630000D01*
X117016654Y-103630000D01*
X117016654Y-83223759D01*
X116116100Y-82323205D01*
X115936495Y-82502810D01*
X115936495Y-82143600D01*
X115035941Y-81243046D01*
X114779457Y-81329452D01*
X114569642Y-81902936D01*
X114595261Y-82513060D01*
X114779457Y-82957748D01*
X115035941Y-83044154D01*
X115936495Y-82143600D01*
X115936495Y-82502810D01*
X115215546Y-83223759D01*
X115301952Y-83480243D01*
X115875436Y-83690058D01*
X116485560Y-83664439D01*
X116930248Y-83480243D01*
X117016654Y-83223759D01*
X117016654Y-103630000D01*
X114991000Y-103630000D01*
X114671459Y-103693561D01*
X114400566Y-103874566D01*
X113957606Y-104317526D01*
X113957606Y-83470126D01*
X113513847Y-82396148D01*
X112692874Y-81573740D01*
X111619672Y-81128108D01*
X110457626Y-81127094D01*
X109383648Y-81570853D01*
X108561240Y-82391826D01*
X108115608Y-83465028D01*
X108114594Y-84627074D01*
X108558353Y-85701052D01*
X109379326Y-86523460D01*
X110452528Y-86969092D01*
X111614574Y-86970106D01*
X112688552Y-86526347D01*
X113510960Y-85705374D01*
X113956592Y-84632172D01*
X113957606Y-83470126D01*
X113957606Y-104317526D01*
X111042566Y-107232566D01*
X110861561Y-107503459D01*
X110798000Y-107823000D01*
X110798000Y-118364000D01*
X110861561Y-118683541D01*
X111042566Y-118954434D01*
X113534465Y-121446333D01*
X113633883Y-121686943D01*
X113896673Y-121950192D01*
X114240201Y-122092838D01*
X114612167Y-122093162D01*
X114955943Y-121951117D01*
X115219192Y-121688327D01*
X115361838Y-121344799D01*
X115361915Y-121256109D01*
X115547673Y-121442192D01*
X115891201Y-121584838D01*
X116263167Y-121585162D01*
X116606943Y-121443117D01*
X116870192Y-121180327D01*
X117012838Y-120836799D01*
X117013162Y-120464833D01*
X116871117Y-120121057D01*
X116608327Y-119857808D01*
X116366089Y-119757221D01*
X113738000Y-117129132D01*
X113738000Y-115934868D01*
X117852465Y-120049333D01*
X117951883Y-120289943D01*
X118214673Y-120553192D01*
X118558201Y-120695838D01*
X118930167Y-120696162D01*
X119273943Y-120554117D01*
X119537192Y-120291327D01*
X119679838Y-119947799D01*
X119680162Y-119575833D01*
X119538117Y-119232057D01*
X119275327Y-118968808D01*
X119033089Y-118868221D01*
X114881000Y-114716132D01*
X114881000Y-114156868D01*
X120265465Y-119541333D01*
X120364883Y-119781943D01*
X120627673Y-120045192D01*
X120971201Y-120187838D01*
X121343167Y-120188162D01*
X121686943Y-120046117D01*
X121950192Y-119783327D01*
X122092838Y-119439799D01*
X122093162Y-119067833D01*
X121951117Y-118724057D01*
X121688327Y-118460808D01*
X121446089Y-118360221D01*
X115897000Y-112811132D01*
X115897000Y-112201068D01*
X122134695Y-118438763D01*
X122269883Y-118765943D01*
X122532673Y-119029192D01*
X122876201Y-119171838D01*
X123248167Y-119172162D01*
X123591943Y-119030117D01*
X123855192Y-118767327D01*
X123997838Y-118423799D01*
X123998162Y-118051833D01*
X123856117Y-117708057D01*
X123593327Y-117444808D01*
X123437962Y-117380294D01*
X117101694Y-111044026D01*
X117210360Y-111117377D01*
X117460000Y-111167440D01*
X118760000Y-111167440D01*
X119002123Y-111120463D01*
X119177893Y-111005000D01*
X122621000Y-111005000D01*
X122940540Y-110941439D01*
X122940541Y-110941439D01*
X123211434Y-110760434D01*
X124796434Y-109175435D01*
X124796434Y-109175434D01*
X124886936Y-109039987D01*
X124977439Y-108904541D01*
X124977439Y-108904540D01*
X125040999Y-108585000D01*
X125041000Y-108585000D01*
X125041000Y-103886000D01*
X125041000Y-103815000D01*
X125041000Y-103251000D01*
X125041000Y-103197000D01*
X125222000Y-103197000D01*
X125541540Y-103133439D01*
X125541541Y-103133439D01*
X125812434Y-102952434D01*
X126669000Y-102095868D01*
X126669000Y-107692000D01*
X126732561Y-108011541D01*
X126913566Y-108282434D01*
X126936566Y-108305434D01*
X127207459Y-108486439D01*
X127207460Y-108486439D01*
X127527000Y-108550000D01*
X128417967Y-108550000D01*
X128480000Y-108562440D01*
X129946432Y-108562440D01*
X130016883Y-108732943D01*
X130279673Y-108996192D01*
X130623201Y-109138838D01*
X130995167Y-109139162D01*
X131338943Y-108997117D01*
X131602192Y-108734327D01*
X131744838Y-108390799D01*
X131745162Y-108018833D01*
X131603117Y-107675057D01*
X131340327Y-107411808D01*
X131098089Y-107311221D01*
X130911434Y-107124566D01*
X130640541Y-106943561D01*
X130615000Y-106938480D01*
X130615000Y-106937998D01*
X130612576Y-106937998D01*
X130537887Y-106923141D01*
X130577377Y-106864640D01*
X130582586Y-106838663D01*
X130615000Y-106806250D01*
X130615000Y-106738690D01*
X130606668Y-106718576D01*
X130627440Y-106615000D01*
X130627440Y-106215000D01*
X130602786Y-106087934D01*
X130627440Y-105965000D01*
X130627440Y-105565000D01*
X130602786Y-105437934D01*
X130627440Y-105315000D01*
X130627440Y-104915000D01*
X130602786Y-104787934D01*
X130627440Y-104665000D01*
X130627440Y-104650000D01*
X130881000Y-104650000D01*
X131200540Y-104586439D01*
X131200541Y-104586439D01*
X131379293Y-104467000D01*
X131379294Y-104467000D01*
X132047876Y-104467000D01*
X132130717Y-104501398D01*
X132867025Y-105329744D01*
X132886858Y-105344752D01*
X132900677Y-105365434D01*
X133016116Y-105442568D01*
X133126822Y-105526344D01*
X133150888Y-105532620D01*
X133171570Y-105546439D01*
X133307736Y-105573524D01*
X133442078Y-105608559D01*
X133466715Y-105605147D01*
X133491111Y-105610000D01*
X134550224Y-105610000D01*
X134447162Y-105858201D01*
X134446838Y-106230167D01*
X134588883Y-106573943D01*
X134720855Y-106706145D01*
X134851673Y-106837192D01*
X135195201Y-106979838D01*
X135382000Y-106980000D01*
X135567167Y-106980162D01*
X135567559Y-106980000D01*
X136199578Y-106980000D01*
X136192560Y-107015000D01*
X136192560Y-107615000D01*
X136239537Y-107857123D01*
X136294963Y-107941499D01*
X136205000Y-108158690D01*
X136205000Y-108299250D01*
X136363750Y-108458000D01*
X137463000Y-108458000D01*
X137463000Y-108438000D01*
X137717000Y-108438000D01*
X137717000Y-108458000D01*
X138816250Y-108458000D01*
X138975000Y-108299250D01*
X138975000Y-108158690D01*
X138885211Y-107941921D01*
X138937377Y-107864640D01*
X138987440Y-107615000D01*
X138987440Y-107015000D01*
X138940463Y-106772877D01*
X138879603Y-106680229D01*
X138937377Y-106594640D01*
X138987440Y-106345000D01*
X138987440Y-105745000D01*
X138940463Y-105502877D01*
X138879603Y-105410229D01*
X138937377Y-105324640D01*
X138987440Y-105075000D01*
X138987440Y-104475000D01*
X138940463Y-104232877D01*
X138879603Y-104140229D01*
X138937377Y-104054640D01*
X138987440Y-103805000D01*
X138987440Y-103205000D01*
X138940463Y-102962877D01*
X138879603Y-102870229D01*
X138937377Y-102784640D01*
X138987440Y-102535000D01*
X138987440Y-101935000D01*
X138940463Y-101692877D01*
X138885036Y-101608500D01*
X138975000Y-101391310D01*
X138975000Y-101250750D01*
X138816250Y-101092000D01*
X137717000Y-101092000D01*
X137717000Y-101112000D01*
X137463000Y-101112000D01*
X137463000Y-101092000D01*
X136363750Y-101092000D01*
X136205000Y-101250750D01*
X136205000Y-101391310D01*
X136208599Y-101400000D01*
X136017000Y-101400000D01*
X135697459Y-101463561D01*
X135426566Y-101644566D01*
X135301073Y-101770058D01*
X135301162Y-101668833D01*
X135246818Y-101537310D01*
X135240827Y-101507191D01*
X135223914Y-101481880D01*
X135159117Y-101325057D01*
X135038182Y-101203911D01*
X135038145Y-101203855D01*
X135027435Y-101193145D01*
X135027145Y-101192855D01*
X134896327Y-101061808D01*
X134552799Y-100919162D01*
X134180833Y-100918838D01*
X133911799Y-101030000D01*
X132052868Y-101030000D01*
X132552868Y-100530000D01*
X134727048Y-100530000D01*
X134770191Y-100558827D01*
X135128000Y-100630000D01*
X135485809Y-100558827D01*
X135528951Y-100530000D01*
X136208599Y-100530000D01*
X136205000Y-100538690D01*
X136205000Y-100679250D01*
X136363750Y-100838000D01*
X137463000Y-100838000D01*
X137463000Y-100818000D01*
X137717000Y-100818000D01*
X137717000Y-100838000D01*
X138816250Y-100838000D01*
X138975000Y-100679250D01*
X138975000Y-100538690D01*
X138885211Y-100321921D01*
X138937377Y-100244640D01*
X138987440Y-99995000D01*
X138987440Y-99395000D01*
X138940463Y-99152877D01*
X138800673Y-98940073D01*
X138589640Y-98797623D01*
X138340000Y-98747560D01*
X136840000Y-98747560D01*
X136597877Y-98794537D01*
X136498221Y-98860000D01*
X136294782Y-98860000D01*
X136350377Y-98777640D01*
X136400440Y-98528000D01*
X136400440Y-97528000D01*
X136353463Y-97285877D01*
X136213673Y-97073073D01*
X136149362Y-97029662D01*
X136291327Y-96887698D01*
X136388000Y-96654309D01*
X136388000Y-96313750D01*
X136388000Y-95742250D01*
X136388000Y-95401691D01*
X136291327Y-95168302D01*
X136112699Y-94989673D01*
X135879310Y-94893000D01*
X135626691Y-94893000D01*
X135413750Y-94893000D01*
X135255000Y-95051750D01*
X135255000Y-95901000D01*
X136229250Y-95901000D01*
X136388000Y-95742250D01*
X136388000Y-96313750D01*
X136229250Y-96155000D01*
X135255000Y-96155000D01*
X135255000Y-96175000D01*
X135001000Y-96175000D01*
X135001000Y-96155000D01*
X135001000Y-95901000D01*
X135001000Y-95051750D01*
X134842250Y-94893000D01*
X134629309Y-94893000D01*
X134376690Y-94893000D01*
X134143301Y-94989673D01*
X133964673Y-95168302D01*
X133868000Y-95401691D01*
X133868000Y-95742250D01*
X134026750Y-95901000D01*
X135001000Y-95901000D01*
X135001000Y-96155000D01*
X134026750Y-96155000D01*
X133868000Y-96313750D01*
X133868000Y-96654309D01*
X133964673Y-96887698D01*
X134106150Y-97029176D01*
X134048073Y-97067327D01*
X133905623Y-97278360D01*
X133855560Y-97528000D01*
X133855560Y-98528000D01*
X133902537Y-98770123D01*
X133961576Y-98860000D01*
X132207000Y-98860000D01*
X131887459Y-98923561D01*
X131709482Y-99042481D01*
X131603117Y-98785057D01*
X131340327Y-98521808D01*
X130996799Y-98379162D01*
X130624833Y-98378838D01*
X130281057Y-98520883D01*
X130017808Y-98783673D01*
X129875162Y-99127201D01*
X129874838Y-99499167D01*
X129965075Y-99717560D01*
X128480000Y-99717560D01*
X128237877Y-99764537D01*
X128025073Y-99904327D01*
X127882623Y-100115360D01*
X127856568Y-100245278D01*
X127681000Y-100069710D01*
X127681000Y-97790816D01*
X127681000Y-97790000D01*
X127681162Y-97604833D01*
X127681000Y-97604440D01*
X127681000Y-92208290D01*
X133356289Y-86533000D01*
X140952258Y-86533000D01*
X140970000Y-105410119D01*
X140972718Y-105423717D01*
X140973032Y-105437586D01*
X140977528Y-105447784D01*
X140979713Y-105458711D01*
X140987428Y-105470234D01*
X140993025Y-105482927D01*
X153820026Y-123770927D01*
X153828036Y-123778583D01*
X153834197Y-123787803D01*
X153845780Y-123795542D01*
X153855848Y-123805165D01*
X153866181Y-123809174D01*
X153875399Y-123815333D01*
X153889057Y-123818049D01*
X153902046Y-123823089D01*
X153913132Y-123822838D01*
X153924000Y-123825000D01*
X173863000Y-123825000D01*
X173911601Y-123815333D01*
X173952803Y-123787803D01*
X173980333Y-123746601D01*
X173990000Y-123698000D01*
X173990000Y-117085000D01*
X184700000Y-117085000D01*
X184725000Y-117085000D01*
X191065000Y-117085000D01*
X191065000Y-118326000D01*
X189261750Y-118326000D01*
X189103000Y-118484750D01*
X189103000Y-119734000D01*
X189123000Y-119734000D01*
X189123000Y-119988000D01*
X189103000Y-119988000D01*
X189103000Y-120008000D01*
X188849000Y-120008000D01*
X188849000Y-119988000D01*
X188849000Y-119734000D01*
X188849000Y-118484750D01*
X188690250Y-118326000D01*
X186349691Y-118326000D01*
X186116302Y-118422673D01*
X185937673Y-118601301D01*
X185841000Y-118834690D01*
X185841000Y-119087309D01*
X185841000Y-119575250D01*
X185999750Y-119734000D01*
X188849000Y-119734000D01*
X188849000Y-119988000D01*
X185999750Y-119988000D01*
X185841000Y-120146750D01*
X185841000Y-120634691D01*
X185841000Y-120887310D01*
X185854736Y-120920472D01*
X185828560Y-121051000D01*
X185828560Y-121166000D01*
X177800000Y-121166000D01*
X177365655Y-121252396D01*
X176997434Y-121498433D01*
X174662867Y-123833000D01*
X146682460Y-123833000D01*
X146682460Y-115914750D01*
X146682460Y-115662131D01*
X146682460Y-115474750D01*
X146682460Y-114903250D01*
X146682460Y-114715869D01*
X146682460Y-114463250D01*
X146585787Y-114229861D01*
X146407158Y-114051233D01*
X146173769Y-113954560D01*
X145733770Y-113954560D01*
X145575020Y-114113310D01*
X145575020Y-115062000D01*
X146523710Y-115062000D01*
X146682460Y-114903250D01*
X146682460Y-115474750D01*
X146523710Y-115316000D01*
X145575020Y-115316000D01*
X145575020Y-116264690D01*
X145733770Y-116423440D01*
X146173769Y-116423440D01*
X146407158Y-116326767D01*
X146585787Y-116148139D01*
X146682460Y-115914750D01*
X146682460Y-123833000D01*
X145321020Y-123833000D01*
X145321020Y-116264690D01*
X145321020Y-115316000D01*
X145301020Y-115316000D01*
X145301020Y-115062000D01*
X145321020Y-115062000D01*
X145321020Y-114113310D01*
X145162270Y-113954560D01*
X144722271Y-113954560D01*
X144488882Y-114051233D01*
X144407339Y-114132774D01*
X144199060Y-113992183D01*
X143949420Y-113942120D01*
X142750540Y-113942120D01*
X142508417Y-113989097D01*
X142295613Y-114128887D01*
X142278661Y-114154000D01*
X141605000Y-114154000D01*
X141208923Y-114232785D01*
X140873144Y-114457144D01*
X140648785Y-114792923D01*
X140570000Y-115189000D01*
X140648785Y-115585077D01*
X140873144Y-115920856D01*
X141208923Y-116145215D01*
X141605000Y-116224000D01*
X142277144Y-116224000D01*
X142289867Y-116243367D01*
X142500900Y-116385817D01*
X142750540Y-116435880D01*
X143949420Y-116435880D01*
X144191543Y-116388903D01*
X144404347Y-116249113D01*
X144407119Y-116245005D01*
X144488882Y-116326767D01*
X144722271Y-116423440D01*
X145162270Y-116423440D01*
X145321020Y-116264690D01*
X145321020Y-123833000D01*
X140335000Y-123833000D01*
X140039143Y-123891849D01*
X140039143Y-117551000D01*
X140039143Y-114101000D01*
X139722048Y-114101000D01*
X139722048Y-111797000D01*
X139567286Y-111797000D01*
X139567286Y-109384000D01*
X138739025Y-109384000D01*
X138878327Y-109244699D01*
X138975000Y-109011310D01*
X138975000Y-108870750D01*
X138816250Y-108712000D01*
X137717000Y-108712000D01*
X137717000Y-108732000D01*
X137463000Y-108732000D01*
X137463000Y-108712000D01*
X136363750Y-108712000D01*
X136205000Y-108870750D01*
X136205000Y-109011310D01*
X136301673Y-109244699D01*
X136440974Y-109384000D01*
X135768715Y-109384000D01*
X135768715Y-109750504D01*
X135688670Y-109717267D01*
X135078009Y-109716735D01*
X134513629Y-109949932D01*
X134081449Y-110381357D01*
X133847267Y-110945330D01*
X133846735Y-111555991D01*
X134079932Y-112120371D01*
X134417681Y-112458711D01*
X134081449Y-112794357D01*
X133847267Y-113358330D01*
X133846735Y-113968991D01*
X134079932Y-114533371D01*
X134227292Y-114680989D01*
X133954449Y-114953357D01*
X133720267Y-115517330D01*
X133719735Y-116127991D01*
X133952932Y-116692371D01*
X134384357Y-117124551D01*
X134948330Y-117358733D01*
X135558991Y-117359265D01*
X135804857Y-117257675D01*
X135804857Y-117551000D01*
X140039143Y-117551000D01*
X140039143Y-123891849D01*
X139900654Y-123919397D01*
X139532434Y-124165434D01*
X139286397Y-124533654D01*
X139200000Y-124968000D01*
X139286397Y-125402346D01*
X139532434Y-125770566D01*
X139900654Y-126016603D01*
X140335000Y-126103000D01*
X175133000Y-126103000D01*
X175567345Y-126016603D01*
X175567346Y-126016603D01*
X175935566Y-125770566D01*
X178270132Y-123436000D01*
X185828560Y-123436000D01*
X185828560Y-123551000D01*
X185854156Y-123682927D01*
X185841000Y-123714690D01*
X185841000Y-123967309D01*
X185841000Y-124455250D01*
X185999750Y-124614000D01*
X188849000Y-124614000D01*
X188849000Y-124594000D01*
X189103000Y-124594000D01*
X189103000Y-124614000D01*
X189123000Y-124614000D01*
X189123000Y-124868000D01*
X189103000Y-124868000D01*
X189103000Y-126117250D01*
X189261750Y-126276000D01*
X191065000Y-126276000D01*
X191065000Y-132649000D01*
M02*
