M48
;DRILL file {KiCad 0.201506030104+5696~23~ubuntu14.04.1-product} date Ter 17 Nov 2015 15:09:06 BRST
;FORMAT={-:-/ absolute / inch / decimal}
FMAT,2
INCH,TZ
T1C0.024
T2C0.032
T3C0.040
T4C0.043
T5C0.059
T6C0.125
T7C0.130
%
G90
G05
M72
T1
X4.505Y-4.77
X4.57Y-4.75
X4.675Y-4.715
X4.7Y-4.01
X4.71Y-3.97
X4.72Y-4.05
X4.72Y-4.27
X4.77Y-4.695
X4.845Y-4.655
X4.945Y-4.36
X4.99Y-3.85
X5.15Y-3.91
X5.15Y-4.26
X5.2156Y-4.08
X5.26Y-4.06
X5.285Y-3.64
X5.29Y-4.01
X5.33Y-4.175
X5.51Y-4.445
X5.525Y-4.92
X5.575Y-4.535
X5.89Y-4.275
X5.93Y-4.04
X5.965Y-3.68
X6.105Y-4.39
X6.25Y-4.055
X6.575Y-3.7
X6.625Y-3.32
X6.68Y-3.57
X6.69Y-3.625
T2
X6.9784Y-3.4738
X6.9784Y-3.5738
X6.9784Y-3.6738
X7.0784Y-3.4238
X7.0784Y-3.5238
X7.0784Y-3.6238
T3
X6.664Y-3.986
X6.664Y-4.086
T4
X4.5715Y-3.134
X4.5715Y-3.234
X4.5715Y-5.034
X4.5715Y-5.134
X4.6715Y-3.134
X4.6715Y-3.234
X4.6715Y-5.034
X4.6715Y-5.134
X4.7715Y-3.134
X4.7715Y-3.234
X4.7715Y-5.034
X4.7715Y-5.134
X4.8715Y-3.134
X4.8715Y-3.234
X4.8715Y-5.034
X4.8715Y-5.134
X4.9715Y-3.134
X4.9715Y-3.234
X4.9715Y-5.034
X4.9715Y-5.134
X5.0715Y-3.134
X5.0715Y-3.234
X5.0715Y-5.034
X5.0715Y-5.134
X5.1715Y-3.134
X5.1715Y-3.234
X5.1715Y-5.034
X5.1715Y-5.134
X5.2715Y-3.134
X5.2715Y-3.234
X5.2715Y-5.034
X5.2715Y-5.134
X5.3715Y-3.134
X5.3715Y-3.234
X5.3715Y-5.034
X5.3715Y-5.134
X5.4715Y-3.134
X5.4715Y-3.234
X5.4715Y-5.034
X5.4715Y-5.134
X5.5715Y-3.134
X5.5715Y-3.234
X5.5715Y-5.034
X5.5715Y-5.134
X5.6715Y-3.134
X5.6715Y-3.234
X5.6715Y-5.034
X5.6715Y-5.134
X5.7715Y-3.134
X5.7715Y-3.234
X5.7715Y-5.034
X5.7715Y-5.134
X5.8715Y-3.134
X5.8715Y-3.234
X5.8715Y-5.034
X5.8715Y-5.134
X5.9715Y-3.134
X5.9715Y-3.234
X5.9715Y-5.034
X5.9715Y-5.134
X6.0715Y-3.134
X6.0715Y-3.234
X6.0715Y-5.034
X6.0715Y-5.134
X6.1715Y-3.134
X6.1715Y-3.234
X6.1715Y-5.034
X6.1715Y-5.134
X6.2715Y-3.134
X6.2715Y-3.234
X6.2715Y-5.034
X6.2715Y-5.134
X6.3715Y-3.134
X6.3715Y-3.234
X6.3715Y-5.034
X6.3715Y-5.134
X6.4715Y-3.134
X6.4715Y-3.234
X6.4715Y-5.034
X6.4715Y-5.134
X6.5715Y-3.134
X6.5715Y-3.234
X6.5715Y-5.034
X6.5715Y-5.134
X6.6715Y-3.134
X6.6715Y-3.234
X6.6715Y-5.034
X6.6715Y-5.134
X6.7715Y-3.134
X6.7715Y-3.234
X6.7715Y-5.034
X6.7715Y-5.134
T5
X5.325Y-4.56
X5.33Y-4.38
X5.33Y-4.475
T6
X4.3715Y-3.309
X4.3715Y-4.959
X6.9715Y-3.184
X6.9715Y-5.084
T7
X7.3354Y-3.7542
X7.3355Y-3.3458
T0
M30
