G04 #@! TF.FileFunction,Copper,L2,Bot,Signal*
%FSLAX46Y46*%
G04 Gerber Fmt 4.6, Leading zero omitted, Abs format (unit mm)*
G04 Created by KiCad (PCBNEW 0.201506030104+5696~23~ubuntu14.04.1-product) date Ter 17 Nov 2015 15:08:57 BRST*
%MOMM*%
G01*
G04 APERTURE LIST*
%ADD10C,0.100000*%
%ADD11C,0.250000*%
%ADD12C,0.381000*%
%ADD13R,1.000000X1.250000*%
%ADD14R,1.250000X1.000000*%
%ADD15R,0.700000X1.300000*%
%ADD16C,1.524000*%
%ADD17C,3.300000*%
%ADD18R,5.000000X1.800000*%
%ADD19R,2.032000X2.032000*%
%ADD20O,2.032000X2.032000*%
%ADD21C,4.572000*%
%ADD22R,1.800000X1.800000*%
%ADD23C,1.800000*%
%ADD24C,0.600000*%
%ADD25C,0.800000*%
%ADD26C,1.000000*%
%ADD27C,0.400000*%
%ADD28C,0.600000*%
%ADD29C,0.254000*%
G04 APERTURE END LIST*
D10*
D11*
X110112819Y-104968705D02*
X111112819Y-104968705D01*
X111112819Y-104587752D01*
X111065200Y-104492514D01*
X111017581Y-104444895D01*
X110922343Y-104397276D01*
X110779486Y-104397276D01*
X110684248Y-104444895D01*
X110636629Y-104492514D01*
X110589010Y-104587752D01*
X110589010Y-104968705D01*
X110112819Y-103540133D02*
X110636629Y-103540133D01*
X110731867Y-103587752D01*
X110779486Y-103682990D01*
X110779486Y-103873467D01*
X110731867Y-103968705D01*
X110160438Y-103540133D02*
X110112819Y-103635371D01*
X110112819Y-103873467D01*
X110160438Y-103968705D01*
X110255676Y-104016324D01*
X110350914Y-104016324D01*
X110446152Y-103968705D01*
X110493771Y-103873467D01*
X110493771Y-103635371D01*
X110541390Y-103540133D01*
X110779486Y-103206800D02*
X110779486Y-102825848D01*
X111112819Y-103063943D02*
X110255676Y-103063943D01*
X110160438Y-103016324D01*
X110112819Y-102921086D01*
X110112819Y-102825848D01*
X110112819Y-102492514D02*
X110779486Y-102492514D01*
X110589010Y-102492514D02*
X110684248Y-102444895D01*
X110731867Y-102397276D01*
X110779486Y-102302038D01*
X110779486Y-102206799D01*
X110112819Y-101873466D02*
X110779486Y-101873466D01*
X111160438Y-101778228D02*
X111017581Y-101921085D01*
X110160438Y-100968704D02*
X110112819Y-101063942D01*
X110112819Y-101254419D01*
X110160438Y-101349657D01*
X110208057Y-101397276D01*
X110303295Y-101444895D01*
X110589010Y-101444895D01*
X110684248Y-101397276D01*
X110731867Y-101349657D01*
X110779486Y-101254419D01*
X110779486Y-101063942D01*
X110731867Y-100968704D01*
X110112819Y-100540133D02*
X110779486Y-100540133D01*
X111112819Y-100540133D02*
X111065200Y-100587752D01*
X111017581Y-100540133D01*
X111065200Y-100492514D01*
X111112819Y-100540133D01*
X111017581Y-100540133D01*
X110112819Y-99635371D02*
X110636629Y-99635371D01*
X110731867Y-99682990D01*
X110779486Y-99778228D01*
X110779486Y-99968705D01*
X110731867Y-100063943D01*
X110160438Y-99635371D02*
X110112819Y-99730609D01*
X110112819Y-99968705D01*
X110160438Y-100063943D01*
X110255676Y-100111562D01*
X110350914Y-100111562D01*
X110446152Y-100063943D01*
X110493771Y-99968705D01*
X110493771Y-99730609D01*
X110541390Y-99635371D01*
X110112819Y-98397276D02*
X111112819Y-98397276D01*
X110112819Y-97825847D01*
X111112819Y-97825847D01*
X110112819Y-96921085D02*
X110636629Y-96921085D01*
X110731867Y-96968704D01*
X110779486Y-97063942D01*
X110779486Y-97254419D01*
X110731867Y-97349657D01*
X110160438Y-96921085D02*
X110112819Y-97016323D01*
X110112819Y-97254419D01*
X110160438Y-97349657D01*
X110255676Y-97397276D01*
X110350914Y-97397276D01*
X110446152Y-97349657D01*
X110493771Y-97254419D01*
X110493771Y-97016323D01*
X110541390Y-96921085D01*
X110112819Y-96302038D02*
X110160438Y-96397276D01*
X110255676Y-96444895D01*
X111112819Y-96444895D01*
X110112819Y-95778228D02*
X110160438Y-95873466D01*
X110255676Y-95921085D01*
X111112819Y-95921085D01*
X110112819Y-95397275D02*
X110779486Y-95397275D01*
X111112819Y-95397275D02*
X111065200Y-95444894D01*
X111017581Y-95397275D01*
X111065200Y-95349656D01*
X111112819Y-95397275D01*
X111017581Y-95397275D01*
X110779486Y-94921085D02*
X110112819Y-94921085D01*
X110684248Y-94921085D02*
X110731867Y-94873466D01*
X110779486Y-94778228D01*
X110779486Y-94635370D01*
X110731867Y-94540132D01*
X110636629Y-94492513D01*
X110112819Y-94492513D01*
X106908057Y-104397276D02*
X106860438Y-104444895D01*
X106812819Y-104587752D01*
X106812819Y-104682990D01*
X106860438Y-104825848D01*
X106955676Y-104921086D01*
X107050914Y-104968705D01*
X107241390Y-105016324D01*
X107384248Y-105016324D01*
X107574724Y-104968705D01*
X107669962Y-104921086D01*
X107765200Y-104825848D01*
X107812819Y-104682990D01*
X107812819Y-104587752D01*
X107765200Y-104444895D01*
X107717581Y-104397276D01*
X107812819Y-103778229D02*
X107812819Y-103587752D01*
X107765200Y-103492514D01*
X107669962Y-103397276D01*
X107479486Y-103349657D01*
X107146152Y-103349657D01*
X106955676Y-103397276D01*
X106860438Y-103492514D01*
X106812819Y-103587752D01*
X106812819Y-103778229D01*
X106860438Y-103873467D01*
X106955676Y-103968705D01*
X107146152Y-104016324D01*
X107479486Y-104016324D01*
X107669962Y-103968705D01*
X107765200Y-103873467D01*
X107812819Y-103778229D01*
X106812819Y-102921086D02*
X107812819Y-102921086D01*
X106812819Y-102349657D01*
X107812819Y-102349657D01*
X107812819Y-102016324D02*
X107812819Y-101444895D01*
X106812819Y-101730610D02*
X107812819Y-101730610D01*
X106812819Y-100540133D02*
X107289010Y-100873467D01*
X106812819Y-101111562D02*
X107812819Y-101111562D01*
X107812819Y-100730609D01*
X107765200Y-100635371D01*
X107717581Y-100587752D01*
X107622343Y-100540133D01*
X107479486Y-100540133D01*
X107384248Y-100587752D01*
X107336629Y-100635371D01*
X107289010Y-100730609D01*
X107289010Y-101111562D01*
X107812819Y-99921086D02*
X107812819Y-99730609D01*
X107765200Y-99635371D01*
X107669962Y-99540133D01*
X107479486Y-99492514D01*
X107146152Y-99492514D01*
X106955676Y-99540133D01*
X106860438Y-99635371D01*
X106812819Y-99730609D01*
X106812819Y-99921086D01*
X106860438Y-100016324D01*
X106955676Y-100111562D01*
X107146152Y-100159181D01*
X107479486Y-100159181D01*
X107669962Y-100111562D01*
X107765200Y-100016324D01*
X107812819Y-99921086D01*
X106812819Y-98587752D02*
X106812819Y-99063943D01*
X107812819Y-99063943D01*
X107336629Y-98254419D02*
X107336629Y-97921085D01*
X106812819Y-97778228D02*
X106812819Y-98254419D01*
X107812819Y-98254419D01*
X107812819Y-97778228D01*
X107717581Y-96635371D02*
X107765200Y-96587752D01*
X107812819Y-96492514D01*
X107812819Y-96254418D01*
X107765200Y-96159180D01*
X107717581Y-96111561D01*
X107622343Y-96063942D01*
X107527105Y-96063942D01*
X107384248Y-96111561D01*
X106812819Y-96682990D01*
X106812819Y-96063942D01*
X107812819Y-95444895D02*
X107812819Y-95349656D01*
X107765200Y-95254418D01*
X107717581Y-95206799D01*
X107622343Y-95159180D01*
X107431867Y-95111561D01*
X107193771Y-95111561D01*
X107003295Y-95159180D01*
X106908057Y-95206799D01*
X106860438Y-95254418D01*
X106812819Y-95349656D01*
X106812819Y-95444895D01*
X106860438Y-95540133D01*
X106908057Y-95587752D01*
X107003295Y-95635371D01*
X107193771Y-95682990D01*
X107431867Y-95682990D01*
X107622343Y-95635371D01*
X107717581Y-95587752D01*
X107765200Y-95540133D01*
X107812819Y-95444895D01*
X106812819Y-94159180D02*
X106812819Y-94730609D01*
X106812819Y-94444895D02*
X107812819Y-94444895D01*
X107669962Y-94540133D01*
X107574724Y-94635371D01*
X107527105Y-94730609D01*
X107812819Y-93254418D02*
X107812819Y-93730609D01*
X107336629Y-93778228D01*
X107384248Y-93730609D01*
X107431867Y-93635371D01*
X107431867Y-93397275D01*
X107384248Y-93302037D01*
X107336629Y-93254418D01*
X107241390Y-93206799D01*
X107003295Y-93206799D01*
X106908057Y-93254418D01*
X106860438Y-93302037D01*
X106812819Y-93397275D01*
X106812819Y-93635371D01*
X106860438Y-93730609D01*
X106908057Y-93778228D01*
D12*
X107035600Y-106502200D02*
X106654600Y-106502200D01*
X106654600Y-106502200D02*
X106654600Y-106375200D01*
X107924600Y-107391200D02*
X107035600Y-106502200D01*
X107035600Y-106502200D02*
X107035600Y-106248200D01*
X111099600Y-112090200D02*
X110972600Y-112471200D01*
X111099600Y-112090200D02*
X111480600Y-112090200D01*
X110718600Y-111582200D02*
X111099600Y-112090200D01*
X107035600Y-111836200D02*
X106527600Y-111836200D01*
X107035600Y-111836200D02*
X107035600Y-112217200D01*
X107924600Y-110820200D02*
X107035600Y-111836200D01*
X111226600Y-106248200D02*
X111353600Y-105740200D01*
X111226600Y-106248200D02*
X111734600Y-106248200D01*
X110718600Y-106883200D02*
X111226600Y-106248200D01*
X107797600Y-109042200D02*
X107543600Y-109042200D01*
X107924600Y-109677200D02*
X107924600Y-108534200D01*
X107924600Y-108534200D02*
X107416600Y-108534200D01*
X107416600Y-108534200D02*
X107416600Y-109677200D01*
X107416600Y-109677200D02*
X107924600Y-109677200D01*
X109732581Y-110185200D02*
G75*
G03X109732581Y-110185200I-283981J0D01*
G01*
X109732581Y-108153200D02*
G75*
G03X109732581Y-108153200I-283981J0D01*
G01*
X109448600Y-109169200D02*
X108686600Y-108915200D01*
X108686600Y-108915200D02*
X108686600Y-109423200D01*
X108686600Y-109423200D02*
X109448600Y-109169200D01*
X107162600Y-110185200D02*
X106908600Y-110058200D01*
X106908600Y-110058200D02*
X106654600Y-109804200D01*
X106654600Y-109804200D02*
X106527600Y-109423200D01*
X108305600Y-108026200D02*
X107543600Y-108026200D01*
X107543600Y-108026200D02*
X107162600Y-108026200D01*
X107162600Y-108026200D02*
X106781600Y-108153200D01*
X106781600Y-108153200D02*
X106654600Y-108534200D01*
X106654600Y-108534200D02*
X106527600Y-109042200D01*
X106527600Y-109042200D02*
X106527600Y-109423200D01*
X107162600Y-110185200D02*
X107543600Y-110185200D01*
X107543600Y-110185200D02*
X108305600Y-110185200D01*
X109067600Y-111709200D02*
X108813600Y-111582200D01*
X108813600Y-111582200D02*
X108559600Y-111455200D01*
X108559600Y-111455200D02*
X108432600Y-110947200D01*
X108432600Y-110947200D02*
X108305600Y-110312200D01*
X108305600Y-110312200D02*
X108305600Y-109931200D01*
X109067600Y-111709200D02*
X109321600Y-111709200D01*
X109321600Y-111709200D02*
X109829600Y-111582200D01*
X109829600Y-111582200D02*
X110464600Y-111328200D01*
X110464600Y-111328200D02*
X110972600Y-110820200D01*
X110972600Y-110820200D02*
X111353600Y-110185200D01*
X111353600Y-110185200D02*
X111607600Y-109550200D01*
X111607600Y-109550200D02*
X111607600Y-109042200D01*
X111607600Y-109042200D02*
X111480600Y-108407200D01*
X111480600Y-108407200D02*
X111226600Y-107772200D01*
X111226600Y-107772200D02*
X110718600Y-107264200D01*
X110718600Y-107264200D02*
X110337600Y-107010200D01*
X110337600Y-107010200D02*
X109829600Y-106756200D01*
X109829600Y-106756200D02*
X109448600Y-106629200D01*
X109448600Y-106629200D02*
X109067600Y-106629200D01*
X109067600Y-106629200D02*
X108686600Y-106756200D01*
X108686600Y-106756200D02*
X108559600Y-107010200D01*
X108559600Y-107010200D02*
X108305600Y-107518200D01*
X108305600Y-107518200D02*
X108305600Y-107899200D01*
X108305600Y-107899200D02*
X108305600Y-108280200D01*
D13*
X130540000Y-110490000D03*
X128540000Y-110490000D03*
X117840000Y-99060000D03*
X115840000Y-99060000D03*
X117840000Y-101600000D03*
X115840000Y-101600000D03*
D14*
X130810000Y-95520000D03*
X130810000Y-97520000D03*
D13*
X122920000Y-110490000D03*
X120920000Y-110490000D03*
D14*
X128270000Y-97520000D03*
X128270000Y-95520000D03*
D15*
X145349000Y-115189000D03*
X143449000Y-115189000D03*
D16*
X177251340Y-90774520D03*
X177251340Y-88234520D03*
X177251340Y-93314520D03*
X179791340Y-86964520D03*
X179791340Y-89504520D03*
X179791340Y-92044520D03*
D17*
X186319140Y-95356680D03*
X186321680Y-84983320D03*
D18*
X188976000Y-119861000D03*
X188976000Y-124741000D03*
D15*
X142509200Y-124104400D03*
X144409200Y-124104400D03*
D19*
X169265600Y-103784400D03*
D20*
X169265600Y-101244400D03*
D21*
X111036100Y-84048600D03*
X177076100Y-80873600D03*
X177076100Y-129133600D03*
X111036100Y-125958600D03*
D22*
X171996100Y-79603600D03*
D23*
X171996100Y-82143600D03*
X169456100Y-79603600D03*
X169456100Y-82143600D03*
X166916100Y-79603600D03*
X166916100Y-82143600D03*
X164376100Y-79603600D03*
X164376100Y-82143600D03*
X161836100Y-79603600D03*
X161836100Y-82143600D03*
X159296100Y-79603600D03*
X159296100Y-82143600D03*
X156756100Y-79603600D03*
X156756100Y-82143600D03*
X154216100Y-79603600D03*
X154216100Y-82143600D03*
X151676100Y-79603600D03*
X151676100Y-82143600D03*
X149136100Y-79603600D03*
X149136100Y-82143600D03*
X146596100Y-79603600D03*
X146596100Y-82143600D03*
X144056100Y-79603600D03*
X144056100Y-82143600D03*
X141516100Y-79603600D03*
X141516100Y-82143600D03*
X138976100Y-79603600D03*
X138976100Y-82143600D03*
X136436100Y-79603600D03*
X136436100Y-82143600D03*
X133896100Y-79603600D03*
X133896100Y-82143600D03*
X131356100Y-79603600D03*
X131356100Y-82143600D03*
X128816100Y-79603600D03*
X128816100Y-82143600D03*
X126276100Y-79603600D03*
X126276100Y-82143600D03*
X123736100Y-79603600D03*
X123736100Y-82143600D03*
X121196100Y-79603600D03*
X121196100Y-82143600D03*
X118656100Y-79603600D03*
X118656100Y-82143600D03*
X116116100Y-79603600D03*
X116116100Y-82143600D03*
D22*
X171996100Y-127863600D03*
D23*
X171996100Y-130403600D03*
X169456100Y-127863600D03*
X169456100Y-130403600D03*
X166916100Y-127863600D03*
X166916100Y-130403600D03*
X164376100Y-127863600D03*
X164376100Y-130403600D03*
X161836100Y-127863600D03*
X161836100Y-130403600D03*
X159296100Y-127863600D03*
X159296100Y-130403600D03*
X156756100Y-127863600D03*
X156756100Y-130403600D03*
X154216100Y-127863600D03*
X154216100Y-130403600D03*
X151676100Y-127863600D03*
X151676100Y-130403600D03*
X149136100Y-127863600D03*
X149136100Y-130403600D03*
X146596100Y-127863600D03*
X146596100Y-130403600D03*
X144056100Y-127863600D03*
X144056100Y-130403600D03*
X141516100Y-127863600D03*
X141516100Y-130403600D03*
X138976100Y-127863600D03*
X138976100Y-130403600D03*
X136436100Y-127863600D03*
X136436100Y-130403600D03*
X133896100Y-127863600D03*
X133896100Y-130403600D03*
X131356100Y-127863600D03*
X131356100Y-130403600D03*
X128816100Y-127863600D03*
X128816100Y-130403600D03*
X126276100Y-127863600D03*
X126276100Y-130403600D03*
X123736100Y-127863600D03*
X123736100Y-130403600D03*
X121196100Y-127863600D03*
X121196100Y-130403600D03*
X118656100Y-127863600D03*
X118656100Y-130403600D03*
X116116100Y-127863600D03*
X116116100Y-130403600D03*
D24*
X158750000Y-102997000D03*
X151511000Y-93472000D03*
X149606000Y-108585000D03*
X150622000Y-102616000D03*
X167005000Y-93980000D03*
X130810000Y-99314000D03*
X126746000Y-97790000D03*
X119380000Y-101854000D03*
X130810000Y-108204000D03*
X168275000Y-84328000D03*
X139954000Y-112903000D03*
X155067000Y-111506000D03*
X119634000Y-100838000D03*
X134239000Y-92456000D03*
X125603000Y-110744000D03*
X119888000Y-102870000D03*
X119888000Y-108458000D03*
X141605000Y-115189000D03*
X169926000Y-92075000D03*
X169672000Y-90678000D03*
X132475111Y-103632000D03*
D23*
X135255000Y-115824000D03*
D24*
X133604000Y-103124000D03*
D23*
X135382000Y-113665000D03*
X135382000Y-111252000D03*
D24*
X134366000Y-101854000D03*
X135382000Y-106045000D03*
X123063000Y-118237000D03*
X121158000Y-119253000D03*
X118745000Y-119761000D03*
X116078000Y-120650000D03*
X114427000Y-121158000D03*
X140335000Y-124968000D03*
D25*
X156083000Y-99695000D02*
X157480000Y-101092000D01*
X149479000Y-99695000D02*
X156083000Y-99695000D01*
X148361400Y-98577400D02*
X149479000Y-99695000D01*
X148361400Y-94183200D02*
X148361400Y-98577400D01*
X151079200Y-91465400D02*
X148361400Y-94183200D01*
X156464000Y-91465400D02*
X151079200Y-91465400D01*
X157607000Y-101092000D02*
X158750000Y-102997000D01*
X157480000Y-101092000D02*
X157607000Y-101092000D01*
X149923500Y-112712500D02*
X149860000Y-112776000D01*
X158750000Y-103886000D02*
X149923500Y-112712500D01*
X158750000Y-102997000D02*
X158750000Y-103886000D01*
X148209000Y-114427000D02*
X147447000Y-115189000D01*
X147447000Y-115189000D02*
X145349000Y-115189000D01*
X149923500Y-112712500D02*
X148209000Y-114427000D01*
X164376100Y-79603600D02*
X164376100Y-82143600D01*
X164376100Y-82143600D02*
X164376100Y-83553300D01*
X164376100Y-83553300D02*
X156464000Y-91465400D01*
D26*
X169265600Y-101244400D02*
X169265600Y-98399600D01*
X169265600Y-98399600D02*
X169037000Y-98171000D01*
X156845000Y-93472000D02*
X151511000Y-93472000D01*
X161544000Y-98171000D02*
X156845000Y-93472000D01*
X169037000Y-98171000D02*
X161544000Y-98171000D01*
X171450000Y-96520000D02*
X179451000Y-96520000D01*
X179451000Y-96520000D02*
X182753000Y-93218000D01*
X182753000Y-93218000D02*
X182753000Y-88011000D01*
X182753000Y-88011000D02*
X181706520Y-86964520D01*
X179885340Y-86964520D02*
X181706520Y-86964520D01*
X169799000Y-97155000D02*
X169037000Y-98171000D01*
X170053000Y-96901000D02*
X169799000Y-97155000D01*
X170434000Y-96520000D02*
X170053000Y-96901000D01*
X171450000Y-96520000D02*
X170434000Y-96520000D01*
X149733000Y-108585000D02*
X149606000Y-108585000D01*
X150622000Y-107696000D02*
X149733000Y-108585000D01*
X150622000Y-107315000D02*
X150622000Y-107696000D01*
X150622000Y-102616000D02*
X150622000Y-107315000D01*
D25*
X167005000Y-93980000D02*
X167680817Y-93304183D01*
X167680817Y-93304183D02*
X177165000Y-93345000D01*
X179293520Y-89504520D02*
X178023520Y-88234520D01*
X167005000Y-90805000D02*
X167005000Y-93980000D01*
X169575480Y-88234520D02*
X167005000Y-90805000D01*
X177980340Y-88234520D02*
X169575480Y-88234520D01*
D27*
X130810000Y-99314000D02*
X130810000Y-97520000D01*
X127016000Y-97520000D02*
X128270000Y-97520000D01*
X126746000Y-97790000D02*
X127016000Y-97520000D01*
X118364000Y-99060000D02*
X117840000Y-99060000D01*
X118745000Y-99441000D02*
X118364000Y-99060000D01*
X118745000Y-100711000D02*
X118745000Y-99441000D01*
X119380000Y-101854000D02*
X118745000Y-100711000D01*
D25*
X130810000Y-108204000D02*
X131064000Y-108458000D01*
X131064000Y-108458000D02*
X131064000Y-109966000D01*
X131064000Y-109966000D02*
X130540000Y-110490000D01*
X169456100Y-82143600D02*
X169456100Y-79603600D01*
X169456100Y-83146900D02*
X168275000Y-84328000D01*
X169456100Y-82143600D02*
X169456100Y-83146900D01*
X171996100Y-127863600D02*
X171996100Y-126657100D01*
D26*
X171996100Y-130403600D02*
X171996100Y-127863600D01*
D25*
X148844000Y-117729000D02*
X155067000Y-111506000D01*
D27*
X130810000Y-95520000D02*
X131175000Y-95520000D01*
X131175000Y-95520000D02*
X134239000Y-92456000D01*
X125349000Y-110490000D02*
X125603000Y-110744000D01*
X122920000Y-110490000D02*
X125349000Y-110490000D01*
D25*
X148844000Y-119380000D02*
X148844000Y-117729000D01*
X153670000Y-124206000D02*
X148844000Y-119380000D01*
X169545000Y-124206000D02*
X153670000Y-124206000D01*
X171996100Y-126657100D02*
X169545000Y-124206000D01*
D27*
X118618000Y-102378000D02*
X117840000Y-101600000D01*
X118618000Y-102616000D02*
X118618000Y-102378000D01*
X118872000Y-102870000D02*
X118618000Y-102616000D01*
X119888000Y-102870000D02*
X118872000Y-102870000D01*
D25*
X123571000Y-107569000D02*
X120777000Y-107569000D01*
X124841000Y-106299000D02*
X123571000Y-107569000D01*
X124841000Y-95250000D02*
X124841000Y-106299000D01*
X120777000Y-107569000D02*
X119888000Y-108458000D01*
X119888000Y-110236000D02*
X120142000Y-110490000D01*
X120142000Y-110490000D02*
X120920000Y-110490000D01*
X119888000Y-108458000D02*
X119888000Y-110236000D01*
D27*
X161836100Y-82143600D02*
X162331400Y-82143600D01*
D25*
X132105400Y-87985600D02*
X124841000Y-95250000D01*
X156489400Y-87985600D02*
X132105400Y-87985600D01*
X162331400Y-82143600D02*
X156489400Y-87985600D01*
X143449000Y-115189000D02*
X141605000Y-115189000D01*
D28*
X169956480Y-92044520D02*
X179758340Y-92044520D01*
X169926000Y-92075000D02*
X169956480Y-92044520D01*
X169672000Y-90678000D02*
X169641520Y-90647520D01*
X169641520Y-90647520D02*
X177218340Y-90647520D01*
X135255000Y-115824000D02*
X134620000Y-115824000D01*
X132461000Y-113665000D02*
X134620000Y-115824000D01*
X132461000Y-103646111D02*
X132461000Y-113665000D01*
X132461000Y-103646111D02*
X132475111Y-103632000D01*
X135382000Y-113665000D02*
X135206154Y-113743154D01*
X133604000Y-112141000D02*
X135206154Y-113743154D01*
X133604000Y-112141000D02*
X133604000Y-103124000D01*
X135382000Y-106045000D02*
X135382000Y-111252000D01*
X134366000Y-101854000D02*
X135382000Y-102870000D01*
X135382000Y-102870000D02*
X135382000Y-106045000D01*
X123063000Y-118237000D02*
X123736100Y-118910100D01*
X123736100Y-118910100D02*
X123736100Y-127863600D01*
D27*
X121196100Y-119291100D02*
X121158000Y-119253000D01*
D28*
X121196100Y-127863600D02*
X121196100Y-119291100D01*
X118656100Y-119849900D02*
X118656100Y-127863600D01*
D27*
X118745000Y-119761000D02*
X118656100Y-119849900D01*
D28*
X116116100Y-127863600D02*
X116116100Y-120688100D01*
D27*
X116116100Y-120688100D02*
X116078000Y-120650000D01*
D28*
X114427000Y-121158000D02*
X114427000Y-128905000D01*
X114427000Y-128905000D02*
X115925600Y-130403600D01*
D27*
X115925600Y-130403600D02*
X116116100Y-130403600D01*
D26*
X142509200Y-124104400D02*
X141198600Y-124104400D01*
X141198600Y-124104400D02*
X140335000Y-124968000D01*
X138976100Y-126326900D02*
X140335000Y-124968000D01*
X138976100Y-127863600D02*
X138976100Y-126326900D01*
D28*
X146596100Y-79603600D02*
X146596100Y-78981300D01*
D29*
G36*
X160740688Y-85725000D02*
X156035288Y-90430400D01*
X151079205Y-90430400D01*
X151079200Y-90430399D01*
X150683123Y-90509185D01*
X150347344Y-90733544D01*
X150347341Y-90733547D01*
X147629544Y-93451344D01*
X147405185Y-93787123D01*
X147326399Y-94183200D01*
X147326400Y-94183205D01*
X147326400Y-98577394D01*
X147326399Y-98577400D01*
X147405185Y-98973477D01*
X147629544Y-99309256D01*
X148747141Y-100426852D01*
X148747144Y-100426856D01*
X149082923Y-100651215D01*
X149479000Y-100730001D01*
X149479000Y-100730000D01*
X149479005Y-100730000D01*
X155654288Y-100730000D01*
X156748141Y-101823852D01*
X156748144Y-101823856D01*
X156899977Y-101925306D01*
X156899977Y-101925307D01*
X157715000Y-103283678D01*
X157715000Y-103457288D01*
X149191644Y-111980644D01*
X149191641Y-111980647D01*
X149128144Y-112044144D01*
X149128142Y-112044146D01*
X148862896Y-112309391D01*
X143383000Y-104480967D01*
X143383000Y-89020600D01*
X156489394Y-89020600D01*
X156489400Y-89020601D01*
X156489400Y-89020600D01*
X156885477Y-88941815D01*
X157221256Y-88717456D01*
X160213711Y-85725000D01*
X160740688Y-85725000D01*
X160740688Y-85725000D01*
G37*
X160740688Y-85725000D02*
X156035288Y-90430400D01*
X151079205Y-90430400D01*
X151079200Y-90430399D01*
X150683123Y-90509185D01*
X150347344Y-90733544D01*
X150347341Y-90733547D01*
X147629544Y-93451344D01*
X147405185Y-93787123D01*
X147326399Y-94183200D01*
X147326400Y-94183205D01*
X147326400Y-98577394D01*
X147326399Y-98577400D01*
X147405185Y-98973477D01*
X147629544Y-99309256D01*
X148747141Y-100426852D01*
X148747144Y-100426856D01*
X149082923Y-100651215D01*
X149479000Y-100730001D01*
X149479000Y-100730000D01*
X149479005Y-100730000D01*
X155654288Y-100730000D01*
X156748141Y-101823852D01*
X156748144Y-101823856D01*
X156899977Y-101925306D01*
X156899977Y-101925307D01*
X157715000Y-103283678D01*
X157715000Y-103457288D01*
X149191644Y-111980644D01*
X149191641Y-111980647D01*
X149128144Y-112044144D01*
X149128142Y-112044146D01*
X148862896Y-112309391D01*
X143383000Y-104480967D01*
X143383000Y-89020600D01*
X156489394Y-89020600D01*
X156489400Y-89020601D01*
X156489400Y-89020600D01*
X156885477Y-88941815D01*
X157221256Y-88717456D01*
X160213711Y-85725000D01*
X160740688Y-85725000D01*
G36*
X191065000Y-97990000D02*
X190455000Y-97990000D01*
X190455000Y-80873600D01*
X190288677Y-80037437D01*
X189815028Y-79328572D01*
X189106163Y-78854923D01*
X188270000Y-78688600D01*
X187433837Y-78854923D01*
X186724972Y-79328572D01*
X186251323Y-80037437D01*
X186085000Y-80873600D01*
X186251323Y-81709763D01*
X186724972Y-82418628D01*
X187433837Y-82892277D01*
X188270000Y-83058600D01*
X189106163Y-82892277D01*
X189815028Y-82418628D01*
X190288677Y-81709763D01*
X190455000Y-80873600D01*
X190455000Y-97990000D01*
X188607076Y-97990000D01*
X188607076Y-84530799D01*
X188259938Y-83690662D01*
X187617719Y-83047321D01*
X186778189Y-82698717D01*
X185869159Y-82697924D01*
X185029022Y-83045062D01*
X184385681Y-83687281D01*
X184037077Y-84526811D01*
X184036284Y-85435841D01*
X184383422Y-86275978D01*
X185025641Y-86919319D01*
X185865171Y-87267923D01*
X186774201Y-87268716D01*
X187614338Y-86921578D01*
X188257679Y-86279359D01*
X188606283Y-85439829D01*
X188607076Y-84530799D01*
X188607076Y-97990000D01*
X188604536Y-97990000D01*
X188604536Y-94904159D01*
X188257398Y-94064022D01*
X187615179Y-93420681D01*
X186775649Y-93072077D01*
X185866619Y-93071284D01*
X185026482Y-93418422D01*
X184383141Y-94060641D01*
X184034537Y-94900171D01*
X184033744Y-95809201D01*
X184380882Y-96649338D01*
X185023101Y-97292679D01*
X185862631Y-97641283D01*
X186771661Y-97642076D01*
X187611798Y-97294938D01*
X188255139Y-96652719D01*
X188603743Y-95813189D01*
X188604536Y-94904159D01*
X188604536Y-97990000D01*
X171425000Y-97990000D01*
X171162862Y-98042143D01*
X170940632Y-98190632D01*
X170792143Y-98412862D01*
X170740000Y-98675000D01*
X170740000Y-100487967D01*
X170465378Y-100076967D01*
X170400600Y-100033683D01*
X170400600Y-98399600D01*
X170376220Y-98277038D01*
X170658604Y-97900528D01*
X170855566Y-97703566D01*
X170904132Y-97655000D01*
X171450000Y-97655000D01*
X179451000Y-97655000D01*
X179885345Y-97568603D01*
X179885346Y-97568603D01*
X180253566Y-97322566D01*
X183555566Y-94020566D01*
X183801603Y-93652346D01*
X183801603Y-93652345D01*
X183888000Y-93218000D01*
X183888000Y-88011000D01*
X183801603Y-87576655D01*
X183801603Y-87576654D01*
X183555566Y-87208434D01*
X182509086Y-86161954D01*
X182140866Y-85915917D01*
X181706520Y-85829520D01*
X180632254Y-85829520D01*
X180583710Y-85780891D01*
X180070440Y-85567763D01*
X179997606Y-85567699D01*
X179997606Y-80295126D01*
X179553847Y-79221148D01*
X178732874Y-78398740D01*
X177659672Y-77953108D01*
X176497626Y-77952094D01*
X175423648Y-78395853D01*
X174601240Y-79216826D01*
X174155608Y-80290028D01*
X174154594Y-81452074D01*
X174598353Y-82526052D01*
X175419326Y-83348460D01*
X176492528Y-83794092D01*
X177654574Y-83795106D01*
X178728552Y-83351347D01*
X179550960Y-82530374D01*
X179996592Y-81457172D01*
X179997606Y-80295126D01*
X179997606Y-85567699D01*
X179514679Y-85567278D01*
X179001037Y-85779510D01*
X178607711Y-86172150D01*
X178394583Y-86685420D01*
X178394098Y-87241181D01*
X178606330Y-87754823D01*
X178998970Y-88148149D01*
X179191067Y-88227914D01*
X179060197Y-88282123D01*
X178990732Y-88524307D01*
X179791340Y-89324915D01*
X180591948Y-88524307D01*
X180522483Y-88282123D01*
X180382022Y-88232011D01*
X180581643Y-88149530D01*
X180631740Y-88099520D01*
X181236388Y-88099520D01*
X181618000Y-88481132D01*
X181618000Y-92747868D01*
X181200484Y-93165384D01*
X181200484Y-89712218D01*
X181172702Y-89157152D01*
X181013737Y-88773377D01*
X180771553Y-88703912D01*
X179970945Y-89504520D01*
X180771553Y-90305128D01*
X181013737Y-90235663D01*
X181200484Y-89712218D01*
X181200484Y-93165384D01*
X181188582Y-93177286D01*
X181188582Y-91767859D01*
X180976350Y-91254217D01*
X180583710Y-90860891D01*
X180391612Y-90781125D01*
X180522483Y-90726917D01*
X180591948Y-90484733D01*
X179791340Y-89684125D01*
X179611735Y-89863730D01*
X179611735Y-89504520D01*
X178811127Y-88703912D01*
X178660484Y-88747120D01*
X178660484Y-88442218D01*
X178632702Y-87887152D01*
X178473737Y-87503377D01*
X178231553Y-87433912D01*
X178051948Y-87613517D01*
X178051948Y-87254307D01*
X177982483Y-87012123D01*
X177459038Y-86825376D01*
X176903972Y-86853158D01*
X176520197Y-87012123D01*
X176450732Y-87254307D01*
X177251340Y-88054915D01*
X178051948Y-87254307D01*
X178051948Y-87613517D01*
X177430945Y-88234520D01*
X178231553Y-89035128D01*
X178473737Y-88965663D01*
X178660484Y-88442218D01*
X178660484Y-88747120D01*
X178568943Y-88773377D01*
X178382196Y-89296822D01*
X178409978Y-89851888D01*
X178568943Y-90235663D01*
X178811127Y-90305128D01*
X179611735Y-89504520D01*
X179611735Y-89863730D01*
X178990732Y-90484733D01*
X179060197Y-90726917D01*
X179200657Y-90777028D01*
X179001037Y-90859510D01*
X178750590Y-91109520D01*
X178624885Y-91109520D01*
X178648097Y-91053620D01*
X178648582Y-90497859D01*
X178436350Y-89984217D01*
X178043710Y-89590891D01*
X177851612Y-89511125D01*
X177982483Y-89456917D01*
X178051948Y-89214733D01*
X177251340Y-88414125D01*
X177071735Y-88593730D01*
X177071735Y-88234520D01*
X176271127Y-87433912D01*
X176028943Y-87503377D01*
X175842196Y-88026822D01*
X175869978Y-88581888D01*
X176028943Y-88965663D01*
X176271127Y-89035128D01*
X177071735Y-88234520D01*
X177071735Y-88593730D01*
X176450732Y-89214733D01*
X176520197Y-89456917D01*
X176660657Y-89507028D01*
X176461037Y-89589510D01*
X176337812Y-89712520D01*
X169641520Y-89712520D01*
X169489092Y-89742839D01*
X169486833Y-89742838D01*
X169484726Y-89743708D01*
X169283711Y-89783693D01*
X168980375Y-89986375D01*
X168777693Y-90289711D01*
X168738029Y-90489111D01*
X168737162Y-90491201D01*
X168737160Y-90493483D01*
X168706520Y-90647520D01*
X168736892Y-90800213D01*
X168736838Y-90863167D01*
X168761090Y-90921862D01*
X168777693Y-91005329D01*
X168824559Y-91075470D01*
X168878883Y-91206943D01*
X168980268Y-91308505D01*
X168980375Y-91308665D01*
X169010564Y-91338854D01*
X169010855Y-91339145D01*
X169141673Y-91470192D01*
X169188811Y-91489765D01*
X169133808Y-91544673D01*
X168991162Y-91888201D01*
X168990838Y-92260167D01*
X169132883Y-92603943D01*
X169264855Y-92736145D01*
X169395673Y-92867192D01*
X169739201Y-93009838D01*
X169926000Y-93010000D01*
X170111167Y-93010162D01*
X170185326Y-92979520D01*
X175887612Y-92979520D01*
X175842196Y-93106822D01*
X175869978Y-93661888D01*
X176028943Y-94045663D01*
X176271127Y-94115128D01*
X177071735Y-93314520D01*
X177057592Y-93300377D01*
X177237197Y-93120772D01*
X177251340Y-93134915D01*
X177265482Y-93120772D01*
X177445087Y-93300377D01*
X177430945Y-93314520D01*
X178231553Y-94115128D01*
X178473737Y-94045663D01*
X178660484Y-93522218D01*
X178633321Y-92979520D01*
X178750774Y-92979520D01*
X178998970Y-93228149D01*
X179512240Y-93441277D01*
X180068001Y-93441762D01*
X180581643Y-93229530D01*
X180974969Y-92836890D01*
X181188097Y-92323620D01*
X181188582Y-91767859D01*
X181188582Y-93177286D01*
X178980868Y-95385000D01*
X178051948Y-95385000D01*
X178051948Y-94294733D01*
X177251340Y-93494125D01*
X176450732Y-94294733D01*
X176520197Y-94536917D01*
X177043642Y-94723664D01*
X177598708Y-94695882D01*
X177982483Y-94536917D01*
X178051948Y-94294733D01*
X178051948Y-95385000D01*
X171450000Y-95385000D01*
X170434000Y-95385000D01*
X169999654Y-95471397D01*
X169631434Y-95717434D01*
X169250434Y-96098434D01*
X168996434Y-96352434D01*
X168951380Y-96419861D01*
X168891000Y-96474000D01*
X168469500Y-97036000D01*
X162014132Y-97036000D01*
X157647566Y-92669434D01*
X157279346Y-92423397D01*
X156954203Y-92358722D01*
X156954203Y-92358721D01*
X157195856Y-92197256D01*
X163668111Y-85725000D01*
X173609000Y-85725000D01*
X173632718Y-85720282D01*
X173656465Y-85715797D01*
X173656987Y-85715454D01*
X173657601Y-85715333D01*
X173677727Y-85701885D01*
X173697931Y-85688666D01*
X173698282Y-85688150D01*
X173698803Y-85687803D01*
X173712249Y-85667677D01*
X173725858Y-85647732D01*
X173725985Y-85647120D01*
X173726333Y-85646601D01*
X173731050Y-85622884D01*
X173735994Y-85599227D01*
X173814391Y-77485000D01*
X191065000Y-77485000D01*
X191065000Y-97990000D01*
X191065000Y-97990000D01*
G37*
X191065000Y-97990000D02*
X190455000Y-97990000D01*
X190455000Y-80873600D01*
X190288677Y-80037437D01*
X189815028Y-79328572D01*
X189106163Y-78854923D01*
X188270000Y-78688600D01*
X187433837Y-78854923D01*
X186724972Y-79328572D01*
X186251323Y-80037437D01*
X186085000Y-80873600D01*
X186251323Y-81709763D01*
X186724972Y-82418628D01*
X187433837Y-82892277D01*
X188270000Y-83058600D01*
X189106163Y-82892277D01*
X189815028Y-82418628D01*
X190288677Y-81709763D01*
X190455000Y-80873600D01*
X190455000Y-97990000D01*
X188607076Y-97990000D01*
X188607076Y-84530799D01*
X188259938Y-83690662D01*
X187617719Y-83047321D01*
X186778189Y-82698717D01*
X185869159Y-82697924D01*
X185029022Y-83045062D01*
X184385681Y-83687281D01*
X184037077Y-84526811D01*
X184036284Y-85435841D01*
X184383422Y-86275978D01*
X185025641Y-86919319D01*
X185865171Y-87267923D01*
X186774201Y-87268716D01*
X187614338Y-86921578D01*
X188257679Y-86279359D01*
X188606283Y-85439829D01*
X188607076Y-84530799D01*
X188607076Y-97990000D01*
X188604536Y-97990000D01*
X188604536Y-94904159D01*
X188257398Y-94064022D01*
X187615179Y-93420681D01*
X186775649Y-93072077D01*
X185866619Y-93071284D01*
X185026482Y-93418422D01*
X184383141Y-94060641D01*
X184034537Y-94900171D01*
X184033744Y-95809201D01*
X184380882Y-96649338D01*
X185023101Y-97292679D01*
X185862631Y-97641283D01*
X186771661Y-97642076D01*
X187611798Y-97294938D01*
X188255139Y-96652719D01*
X188603743Y-95813189D01*
X188604536Y-94904159D01*
X188604536Y-97990000D01*
X171425000Y-97990000D01*
X171162862Y-98042143D01*
X170940632Y-98190632D01*
X170792143Y-98412862D01*
X170740000Y-98675000D01*
X170740000Y-100487967D01*
X170465378Y-100076967D01*
X170400600Y-100033683D01*
X170400600Y-98399600D01*
X170376220Y-98277038D01*
X170658604Y-97900528D01*
X170855566Y-97703566D01*
X170904132Y-97655000D01*
X171450000Y-97655000D01*
X179451000Y-97655000D01*
X179885345Y-97568603D01*
X179885346Y-97568603D01*
X180253566Y-97322566D01*
X183555566Y-94020566D01*
X183801603Y-93652346D01*
X183801603Y-93652345D01*
X183888000Y-93218000D01*
X183888000Y-88011000D01*
X183801603Y-87576655D01*
X183801603Y-87576654D01*
X183555566Y-87208434D01*
X182509086Y-86161954D01*
X182140866Y-85915917D01*
X181706520Y-85829520D01*
X180632254Y-85829520D01*
X180583710Y-85780891D01*
X180070440Y-85567763D01*
X179997606Y-85567699D01*
X179997606Y-80295126D01*
X179553847Y-79221148D01*
X178732874Y-78398740D01*
X177659672Y-77953108D01*
X176497626Y-77952094D01*
X175423648Y-78395853D01*
X174601240Y-79216826D01*
X174155608Y-80290028D01*
X174154594Y-81452074D01*
X174598353Y-82526052D01*
X175419326Y-83348460D01*
X176492528Y-83794092D01*
X177654574Y-83795106D01*
X178728552Y-83351347D01*
X179550960Y-82530374D01*
X179996592Y-81457172D01*
X179997606Y-80295126D01*
X179997606Y-85567699D01*
X179514679Y-85567278D01*
X179001037Y-85779510D01*
X178607711Y-86172150D01*
X178394583Y-86685420D01*
X178394098Y-87241181D01*
X178606330Y-87754823D01*
X178998970Y-88148149D01*
X179191067Y-88227914D01*
X179060197Y-88282123D01*
X178990732Y-88524307D01*
X179791340Y-89324915D01*
X180591948Y-88524307D01*
X180522483Y-88282123D01*
X180382022Y-88232011D01*
X180581643Y-88149530D01*
X180631740Y-88099520D01*
X181236388Y-88099520D01*
X181618000Y-88481132D01*
X181618000Y-92747868D01*
X181200484Y-93165384D01*
X181200484Y-89712218D01*
X181172702Y-89157152D01*
X181013737Y-88773377D01*
X180771553Y-88703912D01*
X179970945Y-89504520D01*
X180771553Y-90305128D01*
X181013737Y-90235663D01*
X181200484Y-89712218D01*
X181200484Y-93165384D01*
X181188582Y-93177286D01*
X181188582Y-91767859D01*
X180976350Y-91254217D01*
X180583710Y-90860891D01*
X180391612Y-90781125D01*
X180522483Y-90726917D01*
X180591948Y-90484733D01*
X179791340Y-89684125D01*
X179611735Y-89863730D01*
X179611735Y-89504520D01*
X178811127Y-88703912D01*
X178660484Y-88747120D01*
X178660484Y-88442218D01*
X178632702Y-87887152D01*
X178473737Y-87503377D01*
X178231553Y-87433912D01*
X178051948Y-87613517D01*
X178051948Y-87254307D01*
X177982483Y-87012123D01*
X177459038Y-86825376D01*
X176903972Y-86853158D01*
X176520197Y-87012123D01*
X176450732Y-87254307D01*
X177251340Y-88054915D01*
X178051948Y-87254307D01*
X178051948Y-87613517D01*
X177430945Y-88234520D01*
X178231553Y-89035128D01*
X178473737Y-88965663D01*
X178660484Y-88442218D01*
X178660484Y-88747120D01*
X178568943Y-88773377D01*
X178382196Y-89296822D01*
X178409978Y-89851888D01*
X178568943Y-90235663D01*
X178811127Y-90305128D01*
X179611735Y-89504520D01*
X179611735Y-89863730D01*
X178990732Y-90484733D01*
X179060197Y-90726917D01*
X179200657Y-90777028D01*
X179001037Y-90859510D01*
X178750590Y-91109520D01*
X178624885Y-91109520D01*
X178648097Y-91053620D01*
X178648582Y-90497859D01*
X178436350Y-89984217D01*
X178043710Y-89590891D01*
X177851612Y-89511125D01*
X177982483Y-89456917D01*
X178051948Y-89214733D01*
X177251340Y-88414125D01*
X177071735Y-88593730D01*
X177071735Y-88234520D01*
X176271127Y-87433912D01*
X176028943Y-87503377D01*
X175842196Y-88026822D01*
X175869978Y-88581888D01*
X176028943Y-88965663D01*
X176271127Y-89035128D01*
X177071735Y-88234520D01*
X177071735Y-88593730D01*
X176450732Y-89214733D01*
X176520197Y-89456917D01*
X176660657Y-89507028D01*
X176461037Y-89589510D01*
X176337812Y-89712520D01*
X169641520Y-89712520D01*
X169489092Y-89742839D01*
X169486833Y-89742838D01*
X169484726Y-89743708D01*
X169283711Y-89783693D01*
X168980375Y-89986375D01*
X168777693Y-90289711D01*
X168738029Y-90489111D01*
X168737162Y-90491201D01*
X168737160Y-90493483D01*
X168706520Y-90647520D01*
X168736892Y-90800213D01*
X168736838Y-90863167D01*
X168761090Y-90921862D01*
X168777693Y-91005329D01*
X168824559Y-91075470D01*
X168878883Y-91206943D01*
X168980268Y-91308505D01*
X168980375Y-91308665D01*
X169010564Y-91338854D01*
X169010855Y-91339145D01*
X169141673Y-91470192D01*
X169188811Y-91489765D01*
X169133808Y-91544673D01*
X168991162Y-91888201D01*
X168990838Y-92260167D01*
X169132883Y-92603943D01*
X169264855Y-92736145D01*
X169395673Y-92867192D01*
X169739201Y-93009838D01*
X169926000Y-93010000D01*
X170111167Y-93010162D01*
X170185326Y-92979520D01*
X175887612Y-92979520D01*
X175842196Y-93106822D01*
X175869978Y-93661888D01*
X176028943Y-94045663D01*
X176271127Y-94115128D01*
X177071735Y-93314520D01*
X177057592Y-93300377D01*
X177237197Y-93120772D01*
X177251340Y-93134915D01*
X177265482Y-93120772D01*
X177445087Y-93300377D01*
X177430945Y-93314520D01*
X178231553Y-94115128D01*
X178473737Y-94045663D01*
X178660484Y-93522218D01*
X178633321Y-92979520D01*
X178750774Y-92979520D01*
X178998970Y-93228149D01*
X179512240Y-93441277D01*
X180068001Y-93441762D01*
X180581643Y-93229530D01*
X180974969Y-92836890D01*
X181188097Y-92323620D01*
X181188582Y-91767859D01*
X181188582Y-93177286D01*
X178980868Y-95385000D01*
X178051948Y-95385000D01*
X178051948Y-94294733D01*
X177251340Y-93494125D01*
X176450732Y-94294733D01*
X176520197Y-94536917D01*
X177043642Y-94723664D01*
X177598708Y-94695882D01*
X177982483Y-94536917D01*
X178051948Y-94294733D01*
X178051948Y-95385000D01*
X171450000Y-95385000D01*
X170434000Y-95385000D01*
X169999654Y-95471397D01*
X169631434Y-95717434D01*
X169250434Y-96098434D01*
X168996434Y-96352434D01*
X168951380Y-96419861D01*
X168891000Y-96474000D01*
X168469500Y-97036000D01*
X162014132Y-97036000D01*
X157647566Y-92669434D01*
X157279346Y-92423397D01*
X156954203Y-92358722D01*
X156954203Y-92358721D01*
X157195856Y-92197256D01*
X163668111Y-85725000D01*
X173609000Y-85725000D01*
X173632718Y-85720282D01*
X173656465Y-85715797D01*
X173656987Y-85715454D01*
X173657601Y-85715333D01*
X173677727Y-85701885D01*
X173697931Y-85688666D01*
X173698282Y-85688150D01*
X173698803Y-85687803D01*
X173712249Y-85667677D01*
X173725858Y-85647732D01*
X173725985Y-85647120D01*
X173726333Y-85646601D01*
X173731050Y-85622884D01*
X173735994Y-85599227D01*
X173814391Y-77485000D01*
X191065000Y-77485000D01*
X191065000Y-97990000D01*
G36*
X191065000Y-132649000D02*
X190455000Y-132649000D01*
X190455000Y-129133600D01*
X190288677Y-128297437D01*
X189815028Y-127588572D01*
X189106163Y-127114923D01*
X188849000Y-127063770D01*
X188849000Y-126117250D01*
X188849000Y-124868000D01*
X188849000Y-124614000D01*
X188849000Y-123364750D01*
X188849000Y-121237250D01*
X188849000Y-119988000D01*
X188849000Y-119734000D01*
X188849000Y-118484750D01*
X188690250Y-118326000D01*
X186349691Y-118326000D01*
X186116302Y-118422673D01*
X185937673Y-118601301D01*
X185841000Y-118834690D01*
X185841000Y-119087309D01*
X185841000Y-119575250D01*
X185999750Y-119734000D01*
X188849000Y-119734000D01*
X188849000Y-119988000D01*
X185999750Y-119988000D01*
X185841000Y-120146750D01*
X185841000Y-120634691D01*
X185841000Y-120887310D01*
X185937673Y-121120699D01*
X186116302Y-121299327D01*
X186349691Y-121396000D01*
X188690250Y-121396000D01*
X188849000Y-121237250D01*
X188849000Y-123364750D01*
X188690250Y-123206000D01*
X186349691Y-123206000D01*
X186116302Y-123302673D01*
X185937673Y-123481301D01*
X185841000Y-123714690D01*
X185841000Y-123967309D01*
X185841000Y-124455250D01*
X185999750Y-124614000D01*
X188849000Y-124614000D01*
X188849000Y-124868000D01*
X185999750Y-124868000D01*
X185841000Y-125026750D01*
X185841000Y-125514691D01*
X185841000Y-125767310D01*
X185937673Y-126000699D01*
X186116302Y-126179327D01*
X186349691Y-126276000D01*
X188690250Y-126276000D01*
X188849000Y-126117250D01*
X188849000Y-127063770D01*
X188270000Y-126948600D01*
X187433837Y-127114923D01*
X186724972Y-127588572D01*
X186251323Y-128297437D01*
X186085000Y-129133600D01*
X186251323Y-129969763D01*
X186724972Y-130678628D01*
X187433837Y-131152277D01*
X188270000Y-131318600D01*
X189106163Y-131152277D01*
X189815028Y-130678628D01*
X190288677Y-129969763D01*
X190455000Y-129133600D01*
X190455000Y-132649000D01*
X179997606Y-132649000D01*
X179997606Y-128555126D01*
X179553847Y-127481148D01*
X178732874Y-126658740D01*
X177659672Y-126213108D01*
X176497626Y-126212094D01*
X175423648Y-126655853D01*
X174601240Y-127476826D01*
X174155608Y-128550028D01*
X174154594Y-129712074D01*
X174598353Y-130786052D01*
X175419326Y-131608460D01*
X176492528Y-132054092D01*
X177654574Y-132055106D01*
X178728552Y-131611347D01*
X179550960Y-130790374D01*
X179996592Y-129717172D01*
X179997606Y-128555126D01*
X179997606Y-132649000D01*
X173542558Y-132649000D01*
X173542558Y-130644264D01*
X173531100Y-130371388D01*
X173516939Y-130034140D01*
X173332743Y-129589452D01*
X173076261Y-129503046D01*
X173190818Y-129388490D01*
X173148640Y-129346312D01*
X173255798Y-129301927D01*
X173434427Y-129123299D01*
X173531100Y-128889910D01*
X173531100Y-128637291D01*
X173531100Y-128149350D01*
X173531100Y-127577850D01*
X173531100Y-127089909D01*
X173531100Y-126837290D01*
X173434427Y-126603901D01*
X173255798Y-126425273D01*
X173022409Y-126328600D01*
X172281850Y-126328600D01*
X172123100Y-126487350D01*
X172123100Y-127736600D01*
X173372350Y-127736600D01*
X173531100Y-127577850D01*
X173531100Y-128149350D01*
X173372350Y-127990600D01*
X172123100Y-127990600D01*
X172123100Y-128010600D01*
X171869100Y-128010600D01*
X171869100Y-127990600D01*
X171849100Y-127990600D01*
X171849100Y-127736600D01*
X171869100Y-127736600D01*
X171869100Y-126487350D01*
X171710350Y-126328600D01*
X170969791Y-126328600D01*
X170736402Y-126425273D01*
X170557773Y-126603901D01*
X170501981Y-126738593D01*
X170326743Y-126563049D01*
X169762770Y-126328867D01*
X169152109Y-126328335D01*
X168587729Y-126561532D01*
X168185777Y-126962781D01*
X167786743Y-126563049D01*
X167222770Y-126328867D01*
X166612109Y-126328335D01*
X166047729Y-126561532D01*
X165645777Y-126962781D01*
X165246743Y-126563049D01*
X164682770Y-126328867D01*
X164072109Y-126328335D01*
X163507729Y-126561532D01*
X163105777Y-126962781D01*
X162706743Y-126563049D01*
X162142770Y-126328867D01*
X161532109Y-126328335D01*
X160967729Y-126561532D01*
X160565777Y-126962781D01*
X160166743Y-126563049D01*
X159602770Y-126328867D01*
X158992109Y-126328335D01*
X158427729Y-126561532D01*
X158025777Y-126962781D01*
X157626743Y-126563049D01*
X157062770Y-126328867D01*
X156452109Y-126328335D01*
X155887729Y-126561532D01*
X155485777Y-126962781D01*
X155086743Y-126563049D01*
X154522770Y-126328867D01*
X153912109Y-126328335D01*
X153347729Y-126561532D01*
X152945777Y-126962781D01*
X152546743Y-126563049D01*
X151982770Y-126328867D01*
X151372109Y-126328335D01*
X150807729Y-126561532D01*
X150405777Y-126962781D01*
X150006743Y-126563049D01*
X149442770Y-126328867D01*
X148832109Y-126328335D01*
X148267729Y-126561532D01*
X147865777Y-126962781D01*
X147466743Y-126563049D01*
X146902770Y-126328867D01*
X146292109Y-126328335D01*
X145727729Y-126561532D01*
X145394200Y-126894477D01*
X145394200Y-124880710D01*
X145394200Y-124628091D01*
X145394200Y-124390150D01*
X145394200Y-123818650D01*
X145394200Y-123580709D01*
X145394200Y-123328090D01*
X145297527Y-123094701D01*
X145118898Y-122916073D01*
X144885509Y-122819400D01*
X144694950Y-122819400D01*
X144536200Y-122978150D01*
X144536200Y-123977400D01*
X145235450Y-123977400D01*
X145394200Y-123818650D01*
X145394200Y-124390150D01*
X145235450Y-124231400D01*
X144536200Y-124231400D01*
X144536200Y-125230650D01*
X144694950Y-125389400D01*
X144885509Y-125389400D01*
X145118898Y-125292727D01*
X145297527Y-125114099D01*
X145394200Y-124880710D01*
X145394200Y-126894477D01*
X145325777Y-126962781D01*
X144926743Y-126563049D01*
X144362770Y-126328867D01*
X143752109Y-126328335D01*
X143187729Y-126561532D01*
X142785777Y-126962781D01*
X142386743Y-126563049D01*
X141822770Y-126328867D01*
X141212109Y-126328335D01*
X140647729Y-126561532D01*
X140245777Y-126962781D01*
X140111100Y-126827868D01*
X140111100Y-126797032D01*
X141137566Y-125770566D01*
X141668732Y-125239400D01*
X141743078Y-125239400D01*
X141909560Y-125351777D01*
X142159200Y-125401840D01*
X142859200Y-125401840D01*
X143101323Y-125354863D01*
X143314127Y-125215073D01*
X143456577Y-125004040D01*
X143462679Y-124973608D01*
X143520873Y-125114099D01*
X143699502Y-125292727D01*
X143932891Y-125389400D01*
X144123450Y-125389400D01*
X144282200Y-125230650D01*
X144282200Y-124231400D01*
X144262200Y-124231400D01*
X144262200Y-123977400D01*
X144282200Y-123977400D01*
X144282200Y-122978150D01*
X144123450Y-122819400D01*
X143932891Y-122819400D01*
X143699502Y-122916073D01*
X143520873Y-123094701D01*
X143463653Y-123232842D01*
X143459663Y-123212277D01*
X143319873Y-122999473D01*
X143108840Y-122857023D01*
X142859200Y-122806960D01*
X142159200Y-122806960D01*
X141917077Y-122853937D01*
X141741306Y-122969400D01*
X141198600Y-122969400D01*
X140764254Y-123055797D01*
X140396034Y-123301834D01*
X139532434Y-124165434D01*
X138173534Y-125524334D01*
X137927497Y-125892554D01*
X137841100Y-126326900D01*
X137841100Y-126827695D01*
X137705777Y-126962781D01*
X137306743Y-126563049D01*
X136917265Y-126401323D01*
X136917265Y-113361009D01*
X136684068Y-112796629D01*
X136346318Y-112458288D01*
X136682551Y-112122643D01*
X136916733Y-111558670D01*
X136917265Y-110948009D01*
X136684068Y-110383629D01*
X136317000Y-110015918D01*
X136317000Y-106045816D01*
X136317000Y-106045000D01*
X136317162Y-105859833D01*
X136317000Y-105859440D01*
X136317000Y-102870000D01*
X136245827Y-102512191D01*
X136043145Y-102208855D01*
X135027435Y-101193145D01*
X135027145Y-101192855D01*
X134896327Y-101061808D01*
X134552799Y-100919162D01*
X134180833Y-100918838D01*
X133837057Y-101060883D01*
X133573808Y-101323673D01*
X133431162Y-101667201D01*
X133430838Y-102039167D01*
X133492707Y-102188902D01*
X133418833Y-102188838D01*
X133075057Y-102330883D01*
X132811808Y-102593673D01*
X132753110Y-102735031D01*
X132661910Y-102697162D01*
X132289944Y-102696838D01*
X131946168Y-102838883D01*
X131682919Y-103101673D01*
X131618967Y-103255683D01*
X131597173Y-103288302D01*
X131589586Y-103326441D01*
X131540273Y-103445201D01*
X131540160Y-103574924D01*
X131526000Y-103646111D01*
X131526000Y-107461549D01*
X131206077Y-107247785D01*
X130810000Y-107168999D01*
X130413923Y-107247785D01*
X130078144Y-107472144D01*
X129853785Y-107807923D01*
X129774999Y-108204000D01*
X129853785Y-108600077D01*
X130029000Y-108862306D01*
X130029000Y-109219694D01*
X129797877Y-109264537D01*
X129585073Y-109404327D01*
X129541662Y-109468637D01*
X129399698Y-109326673D01*
X129166309Y-109230000D01*
X128825750Y-109230000D01*
X128667000Y-109388750D01*
X128667000Y-110363000D01*
X128687000Y-110363000D01*
X128687000Y-110617000D01*
X128667000Y-110617000D01*
X128667000Y-111591250D01*
X128825750Y-111750000D01*
X129166309Y-111750000D01*
X129399698Y-111653327D01*
X129541176Y-111511849D01*
X129579327Y-111569927D01*
X129790360Y-111712377D01*
X130040000Y-111762440D01*
X131040000Y-111762440D01*
X131282123Y-111715463D01*
X131494927Y-111575673D01*
X131526000Y-111529639D01*
X131526000Y-113665000D01*
X131597173Y-114022809D01*
X131799855Y-114326145D01*
X133802846Y-116329136D01*
X133952932Y-116692371D01*
X134384357Y-117124551D01*
X134948330Y-117358733D01*
X135558991Y-117359265D01*
X136123371Y-117126068D01*
X136555551Y-116694643D01*
X136789733Y-116130670D01*
X136790265Y-115520009D01*
X136557068Y-114955629D01*
X136409707Y-114808010D01*
X136682551Y-114535643D01*
X136916733Y-113971670D01*
X136917265Y-113361009D01*
X136917265Y-126401323D01*
X136742770Y-126328867D01*
X136132109Y-126328335D01*
X135567729Y-126561532D01*
X135165777Y-126962781D01*
X134766743Y-126563049D01*
X134202770Y-126328867D01*
X133592109Y-126328335D01*
X133027729Y-126561532D01*
X132625777Y-126962781D01*
X132226743Y-126563049D01*
X131662770Y-126328867D01*
X131052109Y-126328335D01*
X130487729Y-126561532D01*
X130085777Y-126962781D01*
X129686743Y-126563049D01*
X129122770Y-126328867D01*
X128512109Y-126328335D01*
X128413000Y-126369285D01*
X128413000Y-111591250D01*
X128413000Y-110617000D01*
X128413000Y-110363000D01*
X128413000Y-109388750D01*
X128254250Y-109230000D01*
X127913691Y-109230000D01*
X127680302Y-109326673D01*
X127501673Y-109505301D01*
X127405000Y-109738690D01*
X127405000Y-109991309D01*
X127405000Y-110204250D01*
X127563750Y-110363000D01*
X128413000Y-110363000D01*
X128413000Y-110617000D01*
X127563750Y-110617000D01*
X127405000Y-110775750D01*
X127405000Y-110988691D01*
X127405000Y-111241310D01*
X127501673Y-111474699D01*
X127680302Y-111653327D01*
X127913691Y-111750000D01*
X128254250Y-111750000D01*
X128413000Y-111591250D01*
X128413000Y-126369285D01*
X127947729Y-126561532D01*
X127545777Y-126962781D01*
X127146743Y-126563049D01*
X126582770Y-126328867D01*
X125972109Y-126328335D01*
X125407729Y-126561532D01*
X125005777Y-126962781D01*
X124671100Y-126627518D01*
X124671100Y-118910100D01*
X124599927Y-118552291D01*
X124397245Y-118248955D01*
X124055000Y-117906710D01*
X124055000Y-111241310D01*
X124055000Y-110988691D01*
X124055000Y-110775750D01*
X124055000Y-110204250D01*
X124055000Y-109991309D01*
X124055000Y-109738690D01*
X123958327Y-109505301D01*
X123779698Y-109326673D01*
X123546309Y-109230000D01*
X123205750Y-109230000D01*
X123047000Y-109388750D01*
X123047000Y-110363000D01*
X123896250Y-110363000D01*
X124055000Y-110204250D01*
X124055000Y-110775750D01*
X123896250Y-110617000D01*
X123047000Y-110617000D01*
X123047000Y-111591250D01*
X123205750Y-111750000D01*
X123546309Y-111750000D01*
X123779698Y-111653327D01*
X123958327Y-111474699D01*
X124055000Y-111241310D01*
X124055000Y-117906710D01*
X123724435Y-117576145D01*
X123724145Y-117575855D01*
X123593327Y-117444808D01*
X123249799Y-117302162D01*
X122877833Y-117301838D01*
X122534057Y-117443883D01*
X122270808Y-117706673D01*
X122128162Y-118050201D01*
X122127838Y-118422167D01*
X122269883Y-118765943D01*
X122401855Y-118898145D01*
X122532673Y-119029192D01*
X122533064Y-119029354D01*
X122801100Y-119297390D01*
X122801100Y-126628044D01*
X122465777Y-126962781D01*
X122131100Y-126627518D01*
X122131100Y-119291100D01*
X122093133Y-119100231D01*
X122093162Y-119067833D01*
X122080680Y-119037625D01*
X122059927Y-118933291D01*
X122001343Y-118845613D01*
X121951117Y-118724057D01*
X121857378Y-118630154D01*
X121857245Y-118629955D01*
X121857047Y-118629822D01*
X121688327Y-118460808D01*
X121344799Y-118318162D01*
X120972833Y-118317838D01*
X120629057Y-118459883D01*
X120365808Y-118722673D01*
X120223162Y-119066201D01*
X120222838Y-119438167D01*
X120261100Y-119530768D01*
X120261100Y-126628044D01*
X119925777Y-126962781D01*
X119591100Y-126627518D01*
X119591100Y-120161502D01*
X119679838Y-119947799D01*
X119680162Y-119575833D01*
X119538117Y-119232057D01*
X119275327Y-118968808D01*
X118931799Y-118826162D01*
X118559833Y-118825838D01*
X118216057Y-118967883D01*
X117952808Y-119230673D01*
X117929597Y-119286569D01*
X117792273Y-119492091D01*
X117721100Y-119849900D01*
X117721100Y-126628044D01*
X117385777Y-126962781D01*
X117051100Y-126627518D01*
X117051100Y-120688100D01*
X117013133Y-120497231D01*
X117013162Y-120464833D01*
X117000680Y-120434625D01*
X116979927Y-120330291D01*
X116921343Y-120242613D01*
X116871117Y-120121057D01*
X116777378Y-120027154D01*
X116777245Y-120026955D01*
X116777047Y-120026822D01*
X116608327Y-119857808D01*
X116264799Y-119715162D01*
X115892833Y-119714838D01*
X115713000Y-119789143D01*
X115713000Y-102701250D01*
X115713000Y-101727000D01*
X115713000Y-101473000D01*
X115713000Y-100498750D01*
X115713000Y-100161250D01*
X115713000Y-99187000D01*
X115713000Y-98933000D01*
X115713000Y-97958750D01*
X115554250Y-97800000D01*
X115213691Y-97800000D01*
X114980302Y-97896673D01*
X114801673Y-98075301D01*
X114705000Y-98308690D01*
X114705000Y-98561309D01*
X114705000Y-98774250D01*
X114863750Y-98933000D01*
X115713000Y-98933000D01*
X115713000Y-99187000D01*
X114863750Y-99187000D01*
X114705000Y-99345750D01*
X114705000Y-99558691D01*
X114705000Y-99811310D01*
X114801673Y-100044699D01*
X114980302Y-100223327D01*
X115213691Y-100320000D01*
X115554250Y-100320000D01*
X115713000Y-100161250D01*
X115713000Y-100498750D01*
X115554250Y-100340000D01*
X115213691Y-100340000D01*
X114980302Y-100436673D01*
X114801673Y-100615301D01*
X114705000Y-100848690D01*
X114705000Y-101101309D01*
X114705000Y-101314250D01*
X114863750Y-101473000D01*
X115713000Y-101473000D01*
X115713000Y-101727000D01*
X114863750Y-101727000D01*
X114705000Y-101885750D01*
X114705000Y-102098691D01*
X114705000Y-102351310D01*
X114801673Y-102584699D01*
X114980302Y-102763327D01*
X115213691Y-102860000D01*
X115554250Y-102860000D01*
X115713000Y-102701250D01*
X115713000Y-119789143D01*
X115549057Y-119856883D01*
X115285808Y-120119673D01*
X115143162Y-120463201D01*
X115143084Y-120551890D01*
X115088145Y-120496855D01*
X114957327Y-120365808D01*
X114613799Y-120223162D01*
X114241833Y-120222838D01*
X113957606Y-120340277D01*
X113957606Y-83470126D01*
X113513847Y-82396148D01*
X112692874Y-81573740D01*
X111619672Y-81128108D01*
X110457626Y-81127094D01*
X109383648Y-81570853D01*
X108561240Y-82391826D01*
X108115608Y-83465028D01*
X108114594Y-84627074D01*
X108558353Y-85701052D01*
X109379326Y-86523460D01*
X110452528Y-86969092D01*
X111614574Y-86970106D01*
X112688552Y-86526347D01*
X113510960Y-85705374D01*
X113956592Y-84632172D01*
X113957606Y-83470126D01*
X113957606Y-120340277D01*
X113898057Y-120364883D01*
X113634808Y-120627673D01*
X113492162Y-120971201D01*
X113491838Y-121343167D01*
X113492000Y-121343559D01*
X113492000Y-124284262D01*
X112692874Y-123483740D01*
X111619672Y-123038108D01*
X110457626Y-123037094D01*
X109383648Y-123480853D01*
X108561240Y-124301826D01*
X108115608Y-125375028D01*
X108114594Y-126537074D01*
X108558353Y-127611052D01*
X109379326Y-128433460D01*
X110452528Y-128879092D01*
X111614574Y-128880106D01*
X112688552Y-128436347D01*
X113492000Y-127634300D01*
X113492000Y-128905000D01*
X113563173Y-129262809D01*
X113765855Y-129566145D01*
X114581119Y-130381409D01*
X114580835Y-130707591D01*
X114814032Y-131271971D01*
X115245457Y-131704151D01*
X115809430Y-131938333D01*
X116420091Y-131938865D01*
X116984471Y-131705668D01*
X117386422Y-131304418D01*
X117785457Y-131704151D01*
X118349430Y-131938333D01*
X118960091Y-131938865D01*
X119524471Y-131705668D01*
X119926422Y-131304418D01*
X120325457Y-131704151D01*
X120889430Y-131938333D01*
X121500091Y-131938865D01*
X122064471Y-131705668D01*
X122466422Y-131304418D01*
X122865457Y-131704151D01*
X123429430Y-131938333D01*
X124040091Y-131938865D01*
X124604471Y-131705668D01*
X125006422Y-131304418D01*
X125405457Y-131704151D01*
X125969430Y-131938333D01*
X126580091Y-131938865D01*
X127144471Y-131705668D01*
X127546422Y-131304418D01*
X127945457Y-131704151D01*
X128509430Y-131938333D01*
X129120091Y-131938865D01*
X129684471Y-131705668D01*
X130086422Y-131304418D01*
X130485457Y-131704151D01*
X131049430Y-131938333D01*
X131660091Y-131938865D01*
X132224471Y-131705668D01*
X132626422Y-131304418D01*
X133025457Y-131704151D01*
X133589430Y-131938333D01*
X134200091Y-131938865D01*
X134764471Y-131705668D01*
X135166422Y-131304418D01*
X135565457Y-131704151D01*
X136129430Y-131938333D01*
X136740091Y-131938865D01*
X137304471Y-131705668D01*
X137706422Y-131304418D01*
X138105457Y-131704151D01*
X138669430Y-131938333D01*
X139280091Y-131938865D01*
X139844471Y-131705668D01*
X140246422Y-131304418D01*
X140645457Y-131704151D01*
X141209430Y-131938333D01*
X141820091Y-131938865D01*
X142384471Y-131705668D01*
X142786422Y-131304418D01*
X143185457Y-131704151D01*
X143749430Y-131938333D01*
X144360091Y-131938865D01*
X144924471Y-131705668D01*
X145326422Y-131304418D01*
X145725457Y-131704151D01*
X146289430Y-131938333D01*
X146900091Y-131938865D01*
X147464471Y-131705668D01*
X147866422Y-131304418D01*
X148265457Y-131704151D01*
X148829430Y-131938333D01*
X149440091Y-131938865D01*
X150004471Y-131705668D01*
X150406422Y-131304418D01*
X150805457Y-131704151D01*
X151369430Y-131938333D01*
X151980091Y-131938865D01*
X152544471Y-131705668D01*
X152946422Y-131304418D01*
X153345457Y-131704151D01*
X153909430Y-131938333D01*
X154520091Y-131938865D01*
X155084471Y-131705668D01*
X155486422Y-131304418D01*
X155885457Y-131704151D01*
X156449430Y-131938333D01*
X157060091Y-131938865D01*
X157624471Y-131705668D01*
X158026422Y-131304418D01*
X158425457Y-131704151D01*
X158989430Y-131938333D01*
X159600091Y-131938865D01*
X160164471Y-131705668D01*
X160566422Y-131304418D01*
X160965457Y-131704151D01*
X161529430Y-131938333D01*
X162140091Y-131938865D01*
X162704471Y-131705668D01*
X163106422Y-131304418D01*
X163505457Y-131704151D01*
X164069430Y-131938333D01*
X164680091Y-131938865D01*
X165244471Y-131705668D01*
X165646422Y-131304418D01*
X166045457Y-131704151D01*
X166609430Y-131938333D01*
X167220091Y-131938865D01*
X167784471Y-131705668D01*
X168186422Y-131304418D01*
X168585457Y-131704151D01*
X169149430Y-131938333D01*
X169760091Y-131938865D01*
X170324471Y-131705668D01*
X170756651Y-131274243D01*
X170765303Y-131253406D01*
X170915941Y-131304154D01*
X171816495Y-130403600D01*
X171802352Y-130389457D01*
X171981957Y-130209852D01*
X171996100Y-130223995D01*
X172010242Y-130209852D01*
X172189847Y-130389457D01*
X172175705Y-130403600D01*
X173076259Y-131304154D01*
X173332743Y-131217748D01*
X173542558Y-130644264D01*
X173542558Y-132649000D01*
X172896654Y-132649000D01*
X172896654Y-131483759D01*
X171996100Y-130583205D01*
X171095546Y-131483759D01*
X171181952Y-131740243D01*
X171755436Y-131950058D01*
X172365560Y-131924439D01*
X172810248Y-131740243D01*
X172896654Y-131483759D01*
X172896654Y-132649000D01*
X117147713Y-132649000D01*
X112863144Y-131796746D01*
X109326417Y-129433580D01*
X106963252Y-125896852D01*
X106106838Y-121591363D01*
X106045000Y-121442074D01*
X106045000Y-112487481D01*
X106211695Y-112598863D01*
X106332997Y-112622991D01*
X106451883Y-112800917D01*
X106719695Y-112979863D01*
X107035600Y-113042700D01*
X107351505Y-112979863D01*
X107619317Y-112800917D01*
X107798263Y-112533105D01*
X107861100Y-112217200D01*
X107861100Y-112146369D01*
X107969704Y-112022249D01*
X108038638Y-112075748D01*
X108134883Y-112163060D01*
X108165081Y-112173880D01*
X108190425Y-112193550D01*
X108444423Y-112320548D01*
X108444425Y-112320550D01*
X108444426Y-112320550D01*
X108698426Y-112447550D01*
X108727032Y-112455383D01*
X108751695Y-112471863D01*
X108881462Y-112497675D01*
X109009081Y-112532624D01*
X109038511Y-112528913D01*
X109067600Y-112534700D01*
X109321600Y-112534700D01*
X109420793Y-112514969D01*
X109521813Y-112510053D01*
X110029813Y-112383053D01*
X110080773Y-112358978D01*
X110136183Y-112348658D01*
X110173903Y-112333569D01*
X110149176Y-112529719D01*
X110234250Y-112840375D01*
X110431731Y-113094828D01*
X110711554Y-113254338D01*
X111031119Y-113294624D01*
X111341775Y-113209550D01*
X111596228Y-113012069D01*
X111672974Y-112877434D01*
X111796505Y-112852863D01*
X112064317Y-112673917D01*
X112243263Y-112406105D01*
X112306100Y-112090200D01*
X112243263Y-111774295D01*
X112064317Y-111506483D01*
X111796505Y-111327537D01*
X111634704Y-111295353D01*
X111680460Y-111244916D01*
X112061460Y-110609916D01*
X112083851Y-110547426D01*
X112120058Y-110491783D01*
X112374058Y-109856783D01*
X112402647Y-109703294D01*
X112433100Y-109550200D01*
X112433100Y-109042200D01*
X112417154Y-108962037D01*
X112417069Y-108880306D01*
X112290069Y-108245306D01*
X112260955Y-108175225D01*
X112247058Y-108100617D01*
X111993058Y-107465617D01*
X111990261Y-107461319D01*
X111989262Y-107456294D01*
X111902560Y-107326535D01*
X111817391Y-107195644D01*
X111813162Y-107192743D01*
X111810316Y-107188483D01*
X111695533Y-107073700D01*
X111734600Y-107073700D01*
X112050505Y-107010863D01*
X112318317Y-106831917D01*
X112497263Y-106564105D01*
X112560100Y-106248200D01*
X112497263Y-105932295D01*
X112318317Y-105664483D01*
X112275200Y-105635673D01*
X112275200Y-92256323D01*
X106045000Y-92256323D01*
X106045000Y-88567467D01*
X106893961Y-84299445D01*
X109273384Y-80738386D01*
X112834444Y-78358962D01*
X117168637Y-77496838D01*
X117197216Y-77485000D01*
X171589647Y-77485000D01*
X171580581Y-78056160D01*
X171096100Y-78056160D01*
X170853977Y-78103137D01*
X170769087Y-78158900D01*
X169985850Y-78161498D01*
X169762770Y-78068867D01*
X169152109Y-78068335D01*
X168918065Y-78165039D01*
X167465978Y-78169855D01*
X167222770Y-78068867D01*
X166612109Y-78068335D01*
X166357511Y-78173532D01*
X164946106Y-78178213D01*
X164682770Y-78068867D01*
X164072109Y-78068335D01*
X163796957Y-78182025D01*
X162426233Y-78186571D01*
X162142770Y-78068867D01*
X161532109Y-78068335D01*
X161236403Y-78190517D01*
X159906361Y-78194929D01*
X159602770Y-78068867D01*
X158992109Y-78068335D01*
X158675849Y-78199010D01*
X157386489Y-78203287D01*
X157062770Y-78068867D01*
X156452109Y-78068335D01*
X156115295Y-78207503D01*
X154866617Y-78211644D01*
X154522770Y-78068867D01*
X153912109Y-78068335D01*
X153554741Y-78215996D01*
X152346745Y-78220002D01*
X151982770Y-78068867D01*
X151372109Y-78068335D01*
X150994187Y-78224488D01*
X149826873Y-78228360D01*
X149442770Y-78068867D01*
X148832109Y-78068335D01*
X148433633Y-78232981D01*
X147307000Y-78236718D01*
X146902770Y-78068867D01*
X146708701Y-78068697D01*
X146596100Y-78046300D01*
X146484480Y-78068502D01*
X146292109Y-78068335D01*
X145873079Y-78241474D01*
X144787128Y-78245076D01*
X144362770Y-78068867D01*
X143752109Y-78068335D01*
X143312525Y-78249966D01*
X142267256Y-78253433D01*
X141822770Y-78068867D01*
X141212109Y-78068335D01*
X140647729Y-78301532D01*
X140245777Y-78702781D01*
X139846743Y-78303049D01*
X139282770Y-78068867D01*
X138672109Y-78068335D01*
X138107729Y-78301532D01*
X137705777Y-78702781D01*
X137306743Y-78303049D01*
X136742770Y-78068867D01*
X136132109Y-78068335D01*
X135567729Y-78301532D01*
X135165777Y-78702781D01*
X134766743Y-78303049D01*
X134202770Y-78068867D01*
X133592109Y-78068335D01*
X133027729Y-78301532D01*
X132625777Y-78702781D01*
X132226743Y-78303049D01*
X131662770Y-78068867D01*
X131052109Y-78068335D01*
X130487729Y-78301532D01*
X130085777Y-78702781D01*
X129686743Y-78303049D01*
X129122770Y-78068867D01*
X128512109Y-78068335D01*
X127947729Y-78301532D01*
X127545777Y-78702781D01*
X127146743Y-78303049D01*
X126582770Y-78068867D01*
X125972109Y-78068335D01*
X125407729Y-78301532D01*
X125005777Y-78702781D01*
X124606743Y-78303049D01*
X124042770Y-78068867D01*
X123432109Y-78068335D01*
X122867729Y-78301532D01*
X122465777Y-78702781D01*
X122066743Y-78303049D01*
X121502770Y-78068867D01*
X120892109Y-78068335D01*
X120327729Y-78301532D01*
X119925777Y-78702781D01*
X119526743Y-78303049D01*
X118962770Y-78068867D01*
X118352109Y-78068335D01*
X117787729Y-78301532D01*
X117355549Y-78732957D01*
X117346896Y-78753793D01*
X117196259Y-78703046D01*
X117016654Y-78882651D01*
X117016654Y-78523441D01*
X116930248Y-78266957D01*
X116356764Y-78057142D01*
X115746640Y-78082761D01*
X115301952Y-78266957D01*
X115215546Y-78523441D01*
X116116100Y-79423995D01*
X117016654Y-78523441D01*
X117016654Y-78882651D01*
X116295705Y-79603600D01*
X117196259Y-80504154D01*
X117346426Y-80453564D01*
X117354032Y-80471971D01*
X117755281Y-80873922D01*
X117355549Y-81272957D01*
X117346896Y-81293793D01*
X117196259Y-81243046D01*
X117016654Y-81422651D01*
X117016654Y-81063441D01*
X116952699Y-80873600D01*
X117016654Y-80683759D01*
X116116100Y-79783205D01*
X115936495Y-79962810D01*
X115936495Y-79603600D01*
X115035941Y-78703046D01*
X114779457Y-78789452D01*
X114569642Y-79362936D01*
X114595261Y-79973060D01*
X114779457Y-80417748D01*
X115035941Y-80504154D01*
X115936495Y-79603600D01*
X115936495Y-79962810D01*
X115215546Y-80683759D01*
X115279500Y-80873600D01*
X115215546Y-81063441D01*
X116116100Y-81963995D01*
X117016654Y-81063441D01*
X117016654Y-81422651D01*
X116295705Y-82143600D01*
X117196259Y-83044154D01*
X117346426Y-82993564D01*
X117354032Y-83011971D01*
X117785457Y-83444151D01*
X118349430Y-83678333D01*
X118960091Y-83678865D01*
X119524471Y-83445668D01*
X119926422Y-83044418D01*
X120325457Y-83444151D01*
X120889430Y-83678333D01*
X121500091Y-83678865D01*
X122064471Y-83445668D01*
X122466422Y-83044418D01*
X122865457Y-83444151D01*
X123429430Y-83678333D01*
X124040091Y-83678865D01*
X124604471Y-83445668D01*
X125006422Y-83044418D01*
X125405457Y-83444151D01*
X125969430Y-83678333D01*
X126580091Y-83678865D01*
X127144471Y-83445668D01*
X127546422Y-83044418D01*
X127945457Y-83444151D01*
X128509430Y-83678333D01*
X129120091Y-83678865D01*
X129684471Y-83445668D01*
X130086422Y-83044418D01*
X130485457Y-83444151D01*
X131049430Y-83678333D01*
X131660091Y-83678865D01*
X132224471Y-83445668D01*
X132626422Y-83044418D01*
X133025457Y-83444151D01*
X133589430Y-83678333D01*
X134200091Y-83678865D01*
X134764471Y-83445668D01*
X135166422Y-83044418D01*
X135565457Y-83444151D01*
X136129430Y-83678333D01*
X136740091Y-83678865D01*
X137304471Y-83445668D01*
X137706422Y-83044418D01*
X138105457Y-83444151D01*
X138669430Y-83678333D01*
X139280091Y-83678865D01*
X139844471Y-83445668D01*
X140246422Y-83044418D01*
X140645457Y-83444151D01*
X140967277Y-83577782D01*
X140970000Y-84201325D01*
X140970000Y-86950600D01*
X132105405Y-86950600D01*
X132105400Y-86950599D01*
X131709323Y-87029385D01*
X131373544Y-87253744D01*
X124109144Y-94518144D01*
X123884785Y-94853923D01*
X123805999Y-95250000D01*
X123806000Y-95250005D01*
X123806000Y-105870288D01*
X123142288Y-106534000D01*
X120823162Y-106534000D01*
X120823162Y-102684833D01*
X120681117Y-102341057D01*
X120418327Y-102077808D01*
X120314843Y-102034837D01*
X120315162Y-101668833D01*
X120173117Y-101325057D01*
X119910327Y-101061808D01*
X119890532Y-101053588D01*
X119580000Y-100494630D01*
X119580000Y-99441000D01*
X119516439Y-99121460D01*
X119516439Y-99121459D01*
X119335434Y-98850566D01*
X118987440Y-98502572D01*
X118987440Y-98435000D01*
X118940463Y-98192877D01*
X118800673Y-97980073D01*
X118589640Y-97837623D01*
X118340000Y-97787560D01*
X117340000Y-97787560D01*
X117097877Y-97834537D01*
X117016654Y-97887892D01*
X117016654Y-83223759D01*
X116116100Y-82323205D01*
X115936495Y-82502810D01*
X115936495Y-82143600D01*
X115035941Y-81243046D01*
X114779457Y-81329452D01*
X114569642Y-81902936D01*
X114595261Y-82513060D01*
X114779457Y-82957748D01*
X115035941Y-83044154D01*
X115936495Y-82143600D01*
X115936495Y-82502810D01*
X115215546Y-83223759D01*
X115301952Y-83480243D01*
X115875436Y-83690058D01*
X116485560Y-83664439D01*
X116930248Y-83480243D01*
X117016654Y-83223759D01*
X117016654Y-97887892D01*
X116885073Y-97974327D01*
X116841662Y-98038637D01*
X116699698Y-97896673D01*
X116466309Y-97800000D01*
X116125750Y-97800000D01*
X115967000Y-97958750D01*
X115967000Y-98933000D01*
X115987000Y-98933000D01*
X115987000Y-99187000D01*
X115967000Y-99187000D01*
X115967000Y-100161250D01*
X116125750Y-100320000D01*
X116466309Y-100320000D01*
X116699698Y-100223327D01*
X116841176Y-100081849D01*
X116879327Y-100139927D01*
X117090360Y-100282377D01*
X117327631Y-100329959D01*
X117097877Y-100374537D01*
X116885073Y-100514327D01*
X116841662Y-100578637D01*
X116699698Y-100436673D01*
X116466309Y-100340000D01*
X116125750Y-100340000D01*
X115967000Y-100498750D01*
X115967000Y-101473000D01*
X115987000Y-101473000D01*
X115987000Y-101727000D01*
X115967000Y-101727000D01*
X115967000Y-102701250D01*
X116125750Y-102860000D01*
X116466309Y-102860000D01*
X116699698Y-102763327D01*
X116841176Y-102621849D01*
X116879327Y-102679927D01*
X117090360Y-102822377D01*
X117340000Y-102872440D01*
X117834009Y-102872440D01*
X117846561Y-102935541D01*
X118027566Y-103206434D01*
X118281566Y-103460434D01*
X118552459Y-103641439D01*
X118552460Y-103641439D01*
X118872000Y-103705000D01*
X119460765Y-103705000D01*
X119701201Y-103804838D01*
X120073167Y-103805162D01*
X120416943Y-103663117D01*
X120680192Y-103400327D01*
X120822838Y-103056799D01*
X120823162Y-102684833D01*
X120823162Y-106534000D01*
X120777005Y-106534000D01*
X120777000Y-106533999D01*
X120380923Y-106612785D01*
X120045144Y-106837144D01*
X120045141Y-106837147D01*
X119156144Y-107726144D01*
X118931785Y-108061923D01*
X118852999Y-108458000D01*
X118853000Y-108458005D01*
X118853000Y-110235994D01*
X118852999Y-110236000D01*
X118931785Y-110632077D01*
X119156144Y-110967856D01*
X119410141Y-111221852D01*
X119410144Y-111221856D01*
X119611428Y-111356349D01*
X119745922Y-111446215D01*
X119745923Y-111446215D01*
X119897922Y-111476450D01*
X119959327Y-111569927D01*
X120170360Y-111712377D01*
X120420000Y-111762440D01*
X121420000Y-111762440D01*
X121662123Y-111715463D01*
X121874927Y-111575673D01*
X121918337Y-111511362D01*
X122060302Y-111653327D01*
X122293691Y-111750000D01*
X122634250Y-111750000D01*
X122793000Y-111591250D01*
X122793000Y-110617000D01*
X122773000Y-110617000D01*
X122773000Y-110363000D01*
X122793000Y-110363000D01*
X122793000Y-109388750D01*
X122634250Y-109230000D01*
X122293691Y-109230000D01*
X122060302Y-109326673D01*
X121918823Y-109468150D01*
X121880673Y-109410073D01*
X121669640Y-109267623D01*
X121420000Y-109217560D01*
X120923000Y-109217560D01*
X120923000Y-108886711D01*
X121205711Y-108604000D01*
X123570994Y-108604000D01*
X123571000Y-108604001D01*
X123571000Y-108604000D01*
X123967077Y-108525215D01*
X124302856Y-108300856D01*
X125572852Y-107030858D01*
X125572855Y-107030856D01*
X125572856Y-107030856D01*
X125707349Y-106829571D01*
X125797215Y-106695078D01*
X125797215Y-106695077D01*
X125876000Y-106299000D01*
X125876001Y-106299000D01*
X125876000Y-106298994D01*
X125876000Y-98132871D01*
X125952883Y-98318943D01*
X126215673Y-98582192D01*
X126559201Y-98724838D01*
X126931167Y-98725162D01*
X127274943Y-98583117D01*
X127303045Y-98555063D01*
X127395360Y-98617377D01*
X127645000Y-98667440D01*
X128895000Y-98667440D01*
X129137123Y-98620463D01*
X129349927Y-98480673D01*
X129492377Y-98269640D01*
X129539959Y-98032368D01*
X129584537Y-98262123D01*
X129724327Y-98474927D01*
X129935360Y-98617377D01*
X129975000Y-98625326D01*
X129975000Y-98886765D01*
X129875162Y-99127201D01*
X129874838Y-99499167D01*
X130016883Y-99842943D01*
X130279673Y-100106192D01*
X130623201Y-100248838D01*
X130995167Y-100249162D01*
X131338943Y-100107117D01*
X131602192Y-99844327D01*
X131744838Y-99500799D01*
X131745162Y-99128833D01*
X131645000Y-98886421D01*
X131645000Y-98626695D01*
X131677123Y-98620463D01*
X131889927Y-98480673D01*
X132032377Y-98269640D01*
X132082440Y-98020000D01*
X132082440Y-97020000D01*
X132035463Y-96777877D01*
X131895673Y-96565073D01*
X131831362Y-96521662D01*
X131973327Y-96379698D01*
X132070000Y-96146309D01*
X132070000Y-95805750D01*
X132070000Y-95234250D01*
X132070000Y-94893691D01*
X131973327Y-94660302D01*
X131794699Y-94481673D01*
X131561310Y-94385000D01*
X131308691Y-94385000D01*
X131095750Y-94385000D01*
X130937000Y-94543750D01*
X130937000Y-95393000D01*
X131911250Y-95393000D01*
X132070000Y-95234250D01*
X132070000Y-95805750D01*
X131911250Y-95647000D01*
X130937000Y-95647000D01*
X130937000Y-95667000D01*
X130683000Y-95667000D01*
X130683000Y-95647000D01*
X130683000Y-95393000D01*
X130683000Y-94543750D01*
X130524250Y-94385000D01*
X130311309Y-94385000D01*
X130058690Y-94385000D01*
X129825301Y-94481673D01*
X129646673Y-94660302D01*
X129550000Y-94893691D01*
X129550000Y-95234250D01*
X129708750Y-95393000D01*
X130683000Y-95393000D01*
X130683000Y-95647000D01*
X129708750Y-95647000D01*
X129550000Y-95805750D01*
X129550000Y-96146309D01*
X129646673Y-96379698D01*
X129788150Y-96521176D01*
X129730073Y-96559327D01*
X129587623Y-96770360D01*
X129540040Y-97007631D01*
X129495463Y-96777877D01*
X129355673Y-96565073D01*
X129291362Y-96521662D01*
X129433327Y-96379698D01*
X129530000Y-96146309D01*
X129530000Y-95805750D01*
X129530000Y-95234250D01*
X129530000Y-94893691D01*
X129433327Y-94660302D01*
X129254699Y-94481673D01*
X129021310Y-94385000D01*
X128768691Y-94385000D01*
X128555750Y-94385000D01*
X128397000Y-94543750D01*
X128397000Y-95393000D01*
X129371250Y-95393000D01*
X129530000Y-95234250D01*
X129530000Y-95805750D01*
X129371250Y-95647000D01*
X128397000Y-95647000D01*
X128397000Y-95667000D01*
X128143000Y-95667000D01*
X128143000Y-95647000D01*
X128143000Y-95393000D01*
X128143000Y-94543750D01*
X127984250Y-94385000D01*
X127771309Y-94385000D01*
X127518690Y-94385000D01*
X127285301Y-94481673D01*
X127106673Y-94660302D01*
X127010000Y-94893691D01*
X127010000Y-95234250D01*
X127168750Y-95393000D01*
X128143000Y-95393000D01*
X128143000Y-95647000D01*
X127168750Y-95647000D01*
X127010000Y-95805750D01*
X127010000Y-96146309D01*
X127106673Y-96379698D01*
X127248150Y-96521176D01*
X127190073Y-96559327D01*
X127105242Y-96685000D01*
X127016000Y-96685000D01*
X126696460Y-96748560D01*
X126499439Y-96880205D01*
X126217057Y-96996883D01*
X125953808Y-97259673D01*
X125876000Y-97447054D01*
X125876000Y-95678712D01*
X132534112Y-89020600D01*
X140970000Y-89020600D01*
X140970000Y-105410000D01*
X140972656Y-105423355D01*
X140972897Y-105436972D01*
X140977443Y-105447421D01*
X140979667Y-105458601D01*
X140987234Y-105469926D01*
X140992666Y-105482411D01*
X147011007Y-114154000D01*
X146205607Y-114154000D01*
X146159673Y-114084073D01*
X145948640Y-113941623D01*
X145699000Y-113891560D01*
X144999000Y-113891560D01*
X144756877Y-113938537D01*
X144544073Y-114078327D01*
X144401623Y-114289360D01*
X144399783Y-114298530D01*
X144399463Y-114296877D01*
X144259673Y-114084073D01*
X144048640Y-113941623D01*
X143799000Y-113891560D01*
X143099000Y-113891560D01*
X142856877Y-113938537D01*
X142644073Y-114078327D01*
X142592992Y-114154000D01*
X141605000Y-114154000D01*
X141208923Y-114232785D01*
X140873144Y-114457144D01*
X140648785Y-114792923D01*
X140570000Y-115189000D01*
X140648785Y-115585077D01*
X140873144Y-115920856D01*
X141208923Y-116145215D01*
X141605000Y-116224000D01*
X142592392Y-116224000D01*
X142638327Y-116293927D01*
X142849360Y-116436377D01*
X143099000Y-116486440D01*
X143799000Y-116486440D01*
X144041123Y-116439463D01*
X144253927Y-116299673D01*
X144396377Y-116088640D01*
X144398216Y-116079469D01*
X144398537Y-116081123D01*
X144538327Y-116293927D01*
X144749360Y-116436377D01*
X144999000Y-116486440D01*
X145699000Y-116486440D01*
X145941123Y-116439463D01*
X146153927Y-116299673D01*
X146205007Y-116224000D01*
X147446994Y-116224000D01*
X147447000Y-116224001D01*
X147447000Y-116224000D01*
X147843077Y-116145215D01*
X148178856Y-115920856D01*
X148213331Y-115886380D01*
X152803666Y-122500411D01*
X152811863Y-122508324D01*
X152818197Y-122517803D01*
X152829520Y-122525368D01*
X152839318Y-122534827D01*
X152849924Y-122539002D01*
X152859399Y-122545333D01*
X152872751Y-122547988D01*
X152885427Y-122552979D01*
X152896826Y-122552777D01*
X152908000Y-122555000D01*
X173863000Y-122555000D01*
X173911601Y-122545333D01*
X173952803Y-122517803D01*
X173980333Y-122476601D01*
X173990000Y-122428000D01*
X173990000Y-117085000D01*
X184700000Y-117085000D01*
X184725000Y-117085000D01*
X191065000Y-117085000D01*
X191065000Y-118326000D01*
X189261750Y-118326000D01*
X189103000Y-118484750D01*
X189103000Y-119734000D01*
X189123000Y-119734000D01*
X189123000Y-119988000D01*
X189103000Y-119988000D01*
X189103000Y-121237250D01*
X189261750Y-121396000D01*
X191065000Y-121396000D01*
X191065000Y-123206000D01*
X189261750Y-123206000D01*
X189103000Y-123364750D01*
X189103000Y-124614000D01*
X189123000Y-124614000D01*
X189123000Y-124868000D01*
X189103000Y-124868000D01*
X189103000Y-126117250D01*
X189261750Y-126276000D01*
X191065000Y-126276000D01*
X191065000Y-132649000D01*
X191065000Y-132649000D01*
G37*
X191065000Y-132649000D02*
X190455000Y-132649000D01*
X190455000Y-129133600D01*
X190288677Y-128297437D01*
X189815028Y-127588572D01*
X189106163Y-127114923D01*
X188849000Y-127063770D01*
X188849000Y-126117250D01*
X188849000Y-124868000D01*
X188849000Y-124614000D01*
X188849000Y-123364750D01*
X188849000Y-121237250D01*
X188849000Y-119988000D01*
X188849000Y-119734000D01*
X188849000Y-118484750D01*
X188690250Y-118326000D01*
X186349691Y-118326000D01*
X186116302Y-118422673D01*
X185937673Y-118601301D01*
X185841000Y-118834690D01*
X185841000Y-119087309D01*
X185841000Y-119575250D01*
X185999750Y-119734000D01*
X188849000Y-119734000D01*
X188849000Y-119988000D01*
X185999750Y-119988000D01*
X185841000Y-120146750D01*
X185841000Y-120634691D01*
X185841000Y-120887310D01*
X185937673Y-121120699D01*
X186116302Y-121299327D01*
X186349691Y-121396000D01*
X188690250Y-121396000D01*
X188849000Y-121237250D01*
X188849000Y-123364750D01*
X188690250Y-123206000D01*
X186349691Y-123206000D01*
X186116302Y-123302673D01*
X185937673Y-123481301D01*
X185841000Y-123714690D01*
X185841000Y-123967309D01*
X185841000Y-124455250D01*
X185999750Y-124614000D01*
X188849000Y-124614000D01*
X188849000Y-124868000D01*
X185999750Y-124868000D01*
X185841000Y-125026750D01*
X185841000Y-125514691D01*
X185841000Y-125767310D01*
X185937673Y-126000699D01*
X186116302Y-126179327D01*
X186349691Y-126276000D01*
X188690250Y-126276000D01*
X188849000Y-126117250D01*
X188849000Y-127063770D01*
X188270000Y-126948600D01*
X187433837Y-127114923D01*
X186724972Y-127588572D01*
X186251323Y-128297437D01*
X186085000Y-129133600D01*
X186251323Y-129969763D01*
X186724972Y-130678628D01*
X187433837Y-131152277D01*
X188270000Y-131318600D01*
X189106163Y-131152277D01*
X189815028Y-130678628D01*
X190288677Y-129969763D01*
X190455000Y-129133600D01*
X190455000Y-132649000D01*
X179997606Y-132649000D01*
X179997606Y-128555126D01*
X179553847Y-127481148D01*
X178732874Y-126658740D01*
X177659672Y-126213108D01*
X176497626Y-126212094D01*
X175423648Y-126655853D01*
X174601240Y-127476826D01*
X174155608Y-128550028D01*
X174154594Y-129712074D01*
X174598353Y-130786052D01*
X175419326Y-131608460D01*
X176492528Y-132054092D01*
X177654574Y-132055106D01*
X178728552Y-131611347D01*
X179550960Y-130790374D01*
X179996592Y-129717172D01*
X179997606Y-128555126D01*
X179997606Y-132649000D01*
X173542558Y-132649000D01*
X173542558Y-130644264D01*
X173531100Y-130371388D01*
X173516939Y-130034140D01*
X173332743Y-129589452D01*
X173076261Y-129503046D01*
X173190818Y-129388490D01*
X173148640Y-129346312D01*
X173255798Y-129301927D01*
X173434427Y-129123299D01*
X173531100Y-128889910D01*
X173531100Y-128637291D01*
X173531100Y-128149350D01*
X173531100Y-127577850D01*
X173531100Y-127089909D01*
X173531100Y-126837290D01*
X173434427Y-126603901D01*
X173255798Y-126425273D01*
X173022409Y-126328600D01*
X172281850Y-126328600D01*
X172123100Y-126487350D01*
X172123100Y-127736600D01*
X173372350Y-127736600D01*
X173531100Y-127577850D01*
X173531100Y-128149350D01*
X173372350Y-127990600D01*
X172123100Y-127990600D01*
X172123100Y-128010600D01*
X171869100Y-128010600D01*
X171869100Y-127990600D01*
X171849100Y-127990600D01*
X171849100Y-127736600D01*
X171869100Y-127736600D01*
X171869100Y-126487350D01*
X171710350Y-126328600D01*
X170969791Y-126328600D01*
X170736402Y-126425273D01*
X170557773Y-126603901D01*
X170501981Y-126738593D01*
X170326743Y-126563049D01*
X169762770Y-126328867D01*
X169152109Y-126328335D01*
X168587729Y-126561532D01*
X168185777Y-126962781D01*
X167786743Y-126563049D01*
X167222770Y-126328867D01*
X166612109Y-126328335D01*
X166047729Y-126561532D01*
X165645777Y-126962781D01*
X165246743Y-126563049D01*
X164682770Y-126328867D01*
X164072109Y-126328335D01*
X163507729Y-126561532D01*
X163105777Y-126962781D01*
X162706743Y-126563049D01*
X162142770Y-126328867D01*
X161532109Y-126328335D01*
X160967729Y-126561532D01*
X160565777Y-126962781D01*
X160166743Y-126563049D01*
X159602770Y-126328867D01*
X158992109Y-126328335D01*
X158427729Y-126561532D01*
X158025777Y-126962781D01*
X157626743Y-126563049D01*
X157062770Y-126328867D01*
X156452109Y-126328335D01*
X155887729Y-126561532D01*
X155485777Y-126962781D01*
X155086743Y-126563049D01*
X154522770Y-126328867D01*
X153912109Y-126328335D01*
X153347729Y-126561532D01*
X152945777Y-126962781D01*
X152546743Y-126563049D01*
X151982770Y-126328867D01*
X151372109Y-126328335D01*
X150807729Y-126561532D01*
X150405777Y-126962781D01*
X150006743Y-126563049D01*
X149442770Y-126328867D01*
X148832109Y-126328335D01*
X148267729Y-126561532D01*
X147865777Y-126962781D01*
X147466743Y-126563049D01*
X146902770Y-126328867D01*
X146292109Y-126328335D01*
X145727729Y-126561532D01*
X145394200Y-126894477D01*
X145394200Y-124880710D01*
X145394200Y-124628091D01*
X145394200Y-124390150D01*
X145394200Y-123818650D01*
X145394200Y-123580709D01*
X145394200Y-123328090D01*
X145297527Y-123094701D01*
X145118898Y-122916073D01*
X144885509Y-122819400D01*
X144694950Y-122819400D01*
X144536200Y-122978150D01*
X144536200Y-123977400D01*
X145235450Y-123977400D01*
X145394200Y-123818650D01*
X145394200Y-124390150D01*
X145235450Y-124231400D01*
X144536200Y-124231400D01*
X144536200Y-125230650D01*
X144694950Y-125389400D01*
X144885509Y-125389400D01*
X145118898Y-125292727D01*
X145297527Y-125114099D01*
X145394200Y-124880710D01*
X145394200Y-126894477D01*
X145325777Y-126962781D01*
X144926743Y-126563049D01*
X144362770Y-126328867D01*
X143752109Y-126328335D01*
X143187729Y-126561532D01*
X142785777Y-126962781D01*
X142386743Y-126563049D01*
X141822770Y-126328867D01*
X141212109Y-126328335D01*
X140647729Y-126561532D01*
X140245777Y-126962781D01*
X140111100Y-126827868D01*
X140111100Y-126797032D01*
X141137566Y-125770566D01*
X141668732Y-125239400D01*
X141743078Y-125239400D01*
X141909560Y-125351777D01*
X142159200Y-125401840D01*
X142859200Y-125401840D01*
X143101323Y-125354863D01*
X143314127Y-125215073D01*
X143456577Y-125004040D01*
X143462679Y-124973608D01*
X143520873Y-125114099D01*
X143699502Y-125292727D01*
X143932891Y-125389400D01*
X144123450Y-125389400D01*
X144282200Y-125230650D01*
X144282200Y-124231400D01*
X144262200Y-124231400D01*
X144262200Y-123977400D01*
X144282200Y-123977400D01*
X144282200Y-122978150D01*
X144123450Y-122819400D01*
X143932891Y-122819400D01*
X143699502Y-122916073D01*
X143520873Y-123094701D01*
X143463653Y-123232842D01*
X143459663Y-123212277D01*
X143319873Y-122999473D01*
X143108840Y-122857023D01*
X142859200Y-122806960D01*
X142159200Y-122806960D01*
X141917077Y-122853937D01*
X141741306Y-122969400D01*
X141198600Y-122969400D01*
X140764254Y-123055797D01*
X140396034Y-123301834D01*
X139532434Y-124165434D01*
X138173534Y-125524334D01*
X137927497Y-125892554D01*
X137841100Y-126326900D01*
X137841100Y-126827695D01*
X137705777Y-126962781D01*
X137306743Y-126563049D01*
X136917265Y-126401323D01*
X136917265Y-113361009D01*
X136684068Y-112796629D01*
X136346318Y-112458288D01*
X136682551Y-112122643D01*
X136916733Y-111558670D01*
X136917265Y-110948009D01*
X136684068Y-110383629D01*
X136317000Y-110015918D01*
X136317000Y-106045816D01*
X136317000Y-106045000D01*
X136317162Y-105859833D01*
X136317000Y-105859440D01*
X136317000Y-102870000D01*
X136245827Y-102512191D01*
X136043145Y-102208855D01*
X135027435Y-101193145D01*
X135027145Y-101192855D01*
X134896327Y-101061808D01*
X134552799Y-100919162D01*
X134180833Y-100918838D01*
X133837057Y-101060883D01*
X133573808Y-101323673D01*
X133431162Y-101667201D01*
X133430838Y-102039167D01*
X133492707Y-102188902D01*
X133418833Y-102188838D01*
X133075057Y-102330883D01*
X132811808Y-102593673D01*
X132753110Y-102735031D01*
X132661910Y-102697162D01*
X132289944Y-102696838D01*
X131946168Y-102838883D01*
X131682919Y-103101673D01*
X131618967Y-103255683D01*
X131597173Y-103288302D01*
X131589586Y-103326441D01*
X131540273Y-103445201D01*
X131540160Y-103574924D01*
X131526000Y-103646111D01*
X131526000Y-107461549D01*
X131206077Y-107247785D01*
X130810000Y-107168999D01*
X130413923Y-107247785D01*
X130078144Y-107472144D01*
X129853785Y-107807923D01*
X129774999Y-108204000D01*
X129853785Y-108600077D01*
X130029000Y-108862306D01*
X130029000Y-109219694D01*
X129797877Y-109264537D01*
X129585073Y-109404327D01*
X129541662Y-109468637D01*
X129399698Y-109326673D01*
X129166309Y-109230000D01*
X128825750Y-109230000D01*
X128667000Y-109388750D01*
X128667000Y-110363000D01*
X128687000Y-110363000D01*
X128687000Y-110617000D01*
X128667000Y-110617000D01*
X128667000Y-111591250D01*
X128825750Y-111750000D01*
X129166309Y-111750000D01*
X129399698Y-111653327D01*
X129541176Y-111511849D01*
X129579327Y-111569927D01*
X129790360Y-111712377D01*
X130040000Y-111762440D01*
X131040000Y-111762440D01*
X131282123Y-111715463D01*
X131494927Y-111575673D01*
X131526000Y-111529639D01*
X131526000Y-113665000D01*
X131597173Y-114022809D01*
X131799855Y-114326145D01*
X133802846Y-116329136D01*
X133952932Y-116692371D01*
X134384357Y-117124551D01*
X134948330Y-117358733D01*
X135558991Y-117359265D01*
X136123371Y-117126068D01*
X136555551Y-116694643D01*
X136789733Y-116130670D01*
X136790265Y-115520009D01*
X136557068Y-114955629D01*
X136409707Y-114808010D01*
X136682551Y-114535643D01*
X136916733Y-113971670D01*
X136917265Y-113361009D01*
X136917265Y-126401323D01*
X136742770Y-126328867D01*
X136132109Y-126328335D01*
X135567729Y-126561532D01*
X135165777Y-126962781D01*
X134766743Y-126563049D01*
X134202770Y-126328867D01*
X133592109Y-126328335D01*
X133027729Y-126561532D01*
X132625777Y-126962781D01*
X132226743Y-126563049D01*
X131662770Y-126328867D01*
X131052109Y-126328335D01*
X130487729Y-126561532D01*
X130085777Y-126962781D01*
X129686743Y-126563049D01*
X129122770Y-126328867D01*
X128512109Y-126328335D01*
X128413000Y-126369285D01*
X128413000Y-111591250D01*
X128413000Y-110617000D01*
X128413000Y-110363000D01*
X128413000Y-109388750D01*
X128254250Y-109230000D01*
X127913691Y-109230000D01*
X127680302Y-109326673D01*
X127501673Y-109505301D01*
X127405000Y-109738690D01*
X127405000Y-109991309D01*
X127405000Y-110204250D01*
X127563750Y-110363000D01*
X128413000Y-110363000D01*
X128413000Y-110617000D01*
X127563750Y-110617000D01*
X127405000Y-110775750D01*
X127405000Y-110988691D01*
X127405000Y-111241310D01*
X127501673Y-111474699D01*
X127680302Y-111653327D01*
X127913691Y-111750000D01*
X128254250Y-111750000D01*
X128413000Y-111591250D01*
X128413000Y-126369285D01*
X127947729Y-126561532D01*
X127545777Y-126962781D01*
X127146743Y-126563049D01*
X126582770Y-126328867D01*
X125972109Y-126328335D01*
X125407729Y-126561532D01*
X125005777Y-126962781D01*
X124671100Y-126627518D01*
X124671100Y-118910100D01*
X124599927Y-118552291D01*
X124397245Y-118248955D01*
X124055000Y-117906710D01*
X124055000Y-111241310D01*
X124055000Y-110988691D01*
X124055000Y-110775750D01*
X124055000Y-110204250D01*
X124055000Y-109991309D01*
X124055000Y-109738690D01*
X123958327Y-109505301D01*
X123779698Y-109326673D01*
X123546309Y-109230000D01*
X123205750Y-109230000D01*
X123047000Y-109388750D01*
X123047000Y-110363000D01*
X123896250Y-110363000D01*
X124055000Y-110204250D01*
X124055000Y-110775750D01*
X123896250Y-110617000D01*
X123047000Y-110617000D01*
X123047000Y-111591250D01*
X123205750Y-111750000D01*
X123546309Y-111750000D01*
X123779698Y-111653327D01*
X123958327Y-111474699D01*
X124055000Y-111241310D01*
X124055000Y-117906710D01*
X123724435Y-117576145D01*
X123724145Y-117575855D01*
X123593327Y-117444808D01*
X123249799Y-117302162D01*
X122877833Y-117301838D01*
X122534057Y-117443883D01*
X122270808Y-117706673D01*
X122128162Y-118050201D01*
X122127838Y-118422167D01*
X122269883Y-118765943D01*
X122401855Y-118898145D01*
X122532673Y-119029192D01*
X122533064Y-119029354D01*
X122801100Y-119297390D01*
X122801100Y-126628044D01*
X122465777Y-126962781D01*
X122131100Y-126627518D01*
X122131100Y-119291100D01*
X122093133Y-119100231D01*
X122093162Y-119067833D01*
X122080680Y-119037625D01*
X122059927Y-118933291D01*
X122001343Y-118845613D01*
X121951117Y-118724057D01*
X121857378Y-118630154D01*
X121857245Y-118629955D01*
X121857047Y-118629822D01*
X121688327Y-118460808D01*
X121344799Y-118318162D01*
X120972833Y-118317838D01*
X120629057Y-118459883D01*
X120365808Y-118722673D01*
X120223162Y-119066201D01*
X120222838Y-119438167D01*
X120261100Y-119530768D01*
X120261100Y-126628044D01*
X119925777Y-126962781D01*
X119591100Y-126627518D01*
X119591100Y-120161502D01*
X119679838Y-119947799D01*
X119680162Y-119575833D01*
X119538117Y-119232057D01*
X119275327Y-118968808D01*
X118931799Y-118826162D01*
X118559833Y-118825838D01*
X118216057Y-118967883D01*
X117952808Y-119230673D01*
X117929597Y-119286569D01*
X117792273Y-119492091D01*
X117721100Y-119849900D01*
X117721100Y-126628044D01*
X117385777Y-126962781D01*
X117051100Y-126627518D01*
X117051100Y-120688100D01*
X117013133Y-120497231D01*
X117013162Y-120464833D01*
X117000680Y-120434625D01*
X116979927Y-120330291D01*
X116921343Y-120242613D01*
X116871117Y-120121057D01*
X116777378Y-120027154D01*
X116777245Y-120026955D01*
X116777047Y-120026822D01*
X116608327Y-119857808D01*
X116264799Y-119715162D01*
X115892833Y-119714838D01*
X115713000Y-119789143D01*
X115713000Y-102701250D01*
X115713000Y-101727000D01*
X115713000Y-101473000D01*
X115713000Y-100498750D01*
X115713000Y-100161250D01*
X115713000Y-99187000D01*
X115713000Y-98933000D01*
X115713000Y-97958750D01*
X115554250Y-97800000D01*
X115213691Y-97800000D01*
X114980302Y-97896673D01*
X114801673Y-98075301D01*
X114705000Y-98308690D01*
X114705000Y-98561309D01*
X114705000Y-98774250D01*
X114863750Y-98933000D01*
X115713000Y-98933000D01*
X115713000Y-99187000D01*
X114863750Y-99187000D01*
X114705000Y-99345750D01*
X114705000Y-99558691D01*
X114705000Y-99811310D01*
X114801673Y-100044699D01*
X114980302Y-100223327D01*
X115213691Y-100320000D01*
X115554250Y-100320000D01*
X115713000Y-100161250D01*
X115713000Y-100498750D01*
X115554250Y-100340000D01*
X115213691Y-100340000D01*
X114980302Y-100436673D01*
X114801673Y-100615301D01*
X114705000Y-100848690D01*
X114705000Y-101101309D01*
X114705000Y-101314250D01*
X114863750Y-101473000D01*
X115713000Y-101473000D01*
X115713000Y-101727000D01*
X114863750Y-101727000D01*
X114705000Y-101885750D01*
X114705000Y-102098691D01*
X114705000Y-102351310D01*
X114801673Y-102584699D01*
X114980302Y-102763327D01*
X115213691Y-102860000D01*
X115554250Y-102860000D01*
X115713000Y-102701250D01*
X115713000Y-119789143D01*
X115549057Y-119856883D01*
X115285808Y-120119673D01*
X115143162Y-120463201D01*
X115143084Y-120551890D01*
X115088145Y-120496855D01*
X114957327Y-120365808D01*
X114613799Y-120223162D01*
X114241833Y-120222838D01*
X113957606Y-120340277D01*
X113957606Y-83470126D01*
X113513847Y-82396148D01*
X112692874Y-81573740D01*
X111619672Y-81128108D01*
X110457626Y-81127094D01*
X109383648Y-81570853D01*
X108561240Y-82391826D01*
X108115608Y-83465028D01*
X108114594Y-84627074D01*
X108558353Y-85701052D01*
X109379326Y-86523460D01*
X110452528Y-86969092D01*
X111614574Y-86970106D01*
X112688552Y-86526347D01*
X113510960Y-85705374D01*
X113956592Y-84632172D01*
X113957606Y-83470126D01*
X113957606Y-120340277D01*
X113898057Y-120364883D01*
X113634808Y-120627673D01*
X113492162Y-120971201D01*
X113491838Y-121343167D01*
X113492000Y-121343559D01*
X113492000Y-124284262D01*
X112692874Y-123483740D01*
X111619672Y-123038108D01*
X110457626Y-123037094D01*
X109383648Y-123480853D01*
X108561240Y-124301826D01*
X108115608Y-125375028D01*
X108114594Y-126537074D01*
X108558353Y-127611052D01*
X109379326Y-128433460D01*
X110452528Y-128879092D01*
X111614574Y-128880106D01*
X112688552Y-128436347D01*
X113492000Y-127634300D01*
X113492000Y-128905000D01*
X113563173Y-129262809D01*
X113765855Y-129566145D01*
X114581119Y-130381409D01*
X114580835Y-130707591D01*
X114814032Y-131271971D01*
X115245457Y-131704151D01*
X115809430Y-131938333D01*
X116420091Y-131938865D01*
X116984471Y-131705668D01*
X117386422Y-131304418D01*
X117785457Y-131704151D01*
X118349430Y-131938333D01*
X118960091Y-131938865D01*
X119524471Y-131705668D01*
X119926422Y-131304418D01*
X120325457Y-131704151D01*
X120889430Y-131938333D01*
X121500091Y-131938865D01*
X122064471Y-131705668D01*
X122466422Y-131304418D01*
X122865457Y-131704151D01*
X123429430Y-131938333D01*
X124040091Y-131938865D01*
X124604471Y-131705668D01*
X125006422Y-131304418D01*
X125405457Y-131704151D01*
X125969430Y-131938333D01*
X126580091Y-131938865D01*
X127144471Y-131705668D01*
X127546422Y-131304418D01*
X127945457Y-131704151D01*
X128509430Y-131938333D01*
X129120091Y-131938865D01*
X129684471Y-131705668D01*
X130086422Y-131304418D01*
X130485457Y-131704151D01*
X131049430Y-131938333D01*
X131660091Y-131938865D01*
X132224471Y-131705668D01*
X132626422Y-131304418D01*
X133025457Y-131704151D01*
X133589430Y-131938333D01*
X134200091Y-131938865D01*
X134764471Y-131705668D01*
X135166422Y-131304418D01*
X135565457Y-131704151D01*
X136129430Y-131938333D01*
X136740091Y-131938865D01*
X137304471Y-131705668D01*
X137706422Y-131304418D01*
X138105457Y-131704151D01*
X138669430Y-131938333D01*
X139280091Y-131938865D01*
X139844471Y-131705668D01*
X140246422Y-131304418D01*
X140645457Y-131704151D01*
X141209430Y-131938333D01*
X141820091Y-131938865D01*
X142384471Y-131705668D01*
X142786422Y-131304418D01*
X143185457Y-131704151D01*
X143749430Y-131938333D01*
X144360091Y-131938865D01*
X144924471Y-131705668D01*
X145326422Y-131304418D01*
X145725457Y-131704151D01*
X146289430Y-131938333D01*
X146900091Y-131938865D01*
X147464471Y-131705668D01*
X147866422Y-131304418D01*
X148265457Y-131704151D01*
X148829430Y-131938333D01*
X149440091Y-131938865D01*
X150004471Y-131705668D01*
X150406422Y-131304418D01*
X150805457Y-131704151D01*
X151369430Y-131938333D01*
X151980091Y-131938865D01*
X152544471Y-131705668D01*
X152946422Y-131304418D01*
X153345457Y-131704151D01*
X153909430Y-131938333D01*
X154520091Y-131938865D01*
X155084471Y-131705668D01*
X155486422Y-131304418D01*
X155885457Y-131704151D01*
X156449430Y-131938333D01*
X157060091Y-131938865D01*
X157624471Y-131705668D01*
X158026422Y-131304418D01*
X158425457Y-131704151D01*
X158989430Y-131938333D01*
X159600091Y-131938865D01*
X160164471Y-131705668D01*
X160566422Y-131304418D01*
X160965457Y-131704151D01*
X161529430Y-131938333D01*
X162140091Y-131938865D01*
X162704471Y-131705668D01*
X163106422Y-131304418D01*
X163505457Y-131704151D01*
X164069430Y-131938333D01*
X164680091Y-131938865D01*
X165244471Y-131705668D01*
X165646422Y-131304418D01*
X166045457Y-131704151D01*
X166609430Y-131938333D01*
X167220091Y-131938865D01*
X167784471Y-131705668D01*
X168186422Y-131304418D01*
X168585457Y-131704151D01*
X169149430Y-131938333D01*
X169760091Y-131938865D01*
X170324471Y-131705668D01*
X170756651Y-131274243D01*
X170765303Y-131253406D01*
X170915941Y-131304154D01*
X171816495Y-130403600D01*
X171802352Y-130389457D01*
X171981957Y-130209852D01*
X171996100Y-130223995D01*
X172010242Y-130209852D01*
X172189847Y-130389457D01*
X172175705Y-130403600D01*
X173076259Y-131304154D01*
X173332743Y-131217748D01*
X173542558Y-130644264D01*
X173542558Y-132649000D01*
X172896654Y-132649000D01*
X172896654Y-131483759D01*
X171996100Y-130583205D01*
X171095546Y-131483759D01*
X171181952Y-131740243D01*
X171755436Y-131950058D01*
X172365560Y-131924439D01*
X172810248Y-131740243D01*
X172896654Y-131483759D01*
X172896654Y-132649000D01*
X117147713Y-132649000D01*
X112863144Y-131796746D01*
X109326417Y-129433580D01*
X106963252Y-125896852D01*
X106106838Y-121591363D01*
X106045000Y-121442074D01*
X106045000Y-112487481D01*
X106211695Y-112598863D01*
X106332997Y-112622991D01*
X106451883Y-112800917D01*
X106719695Y-112979863D01*
X107035600Y-113042700D01*
X107351505Y-112979863D01*
X107619317Y-112800917D01*
X107798263Y-112533105D01*
X107861100Y-112217200D01*
X107861100Y-112146369D01*
X107969704Y-112022249D01*
X108038638Y-112075748D01*
X108134883Y-112163060D01*
X108165081Y-112173880D01*
X108190425Y-112193550D01*
X108444423Y-112320548D01*
X108444425Y-112320550D01*
X108444426Y-112320550D01*
X108698426Y-112447550D01*
X108727032Y-112455383D01*
X108751695Y-112471863D01*
X108881462Y-112497675D01*
X109009081Y-112532624D01*
X109038511Y-112528913D01*
X109067600Y-112534700D01*
X109321600Y-112534700D01*
X109420793Y-112514969D01*
X109521813Y-112510053D01*
X110029813Y-112383053D01*
X110080773Y-112358978D01*
X110136183Y-112348658D01*
X110173903Y-112333569D01*
X110149176Y-112529719D01*
X110234250Y-112840375D01*
X110431731Y-113094828D01*
X110711554Y-113254338D01*
X111031119Y-113294624D01*
X111341775Y-113209550D01*
X111596228Y-113012069D01*
X111672974Y-112877434D01*
X111796505Y-112852863D01*
X112064317Y-112673917D01*
X112243263Y-112406105D01*
X112306100Y-112090200D01*
X112243263Y-111774295D01*
X112064317Y-111506483D01*
X111796505Y-111327537D01*
X111634704Y-111295353D01*
X111680460Y-111244916D01*
X112061460Y-110609916D01*
X112083851Y-110547426D01*
X112120058Y-110491783D01*
X112374058Y-109856783D01*
X112402647Y-109703294D01*
X112433100Y-109550200D01*
X112433100Y-109042200D01*
X112417154Y-108962037D01*
X112417069Y-108880306D01*
X112290069Y-108245306D01*
X112260955Y-108175225D01*
X112247058Y-108100617D01*
X111993058Y-107465617D01*
X111990261Y-107461319D01*
X111989262Y-107456294D01*
X111902560Y-107326535D01*
X111817391Y-107195644D01*
X111813162Y-107192743D01*
X111810316Y-107188483D01*
X111695533Y-107073700D01*
X111734600Y-107073700D01*
X112050505Y-107010863D01*
X112318317Y-106831917D01*
X112497263Y-106564105D01*
X112560100Y-106248200D01*
X112497263Y-105932295D01*
X112318317Y-105664483D01*
X112275200Y-105635673D01*
X112275200Y-92256323D01*
X106045000Y-92256323D01*
X106045000Y-88567467D01*
X106893961Y-84299445D01*
X109273384Y-80738386D01*
X112834444Y-78358962D01*
X117168637Y-77496838D01*
X117197216Y-77485000D01*
X171589647Y-77485000D01*
X171580581Y-78056160D01*
X171096100Y-78056160D01*
X170853977Y-78103137D01*
X170769087Y-78158900D01*
X169985850Y-78161498D01*
X169762770Y-78068867D01*
X169152109Y-78068335D01*
X168918065Y-78165039D01*
X167465978Y-78169855D01*
X167222770Y-78068867D01*
X166612109Y-78068335D01*
X166357511Y-78173532D01*
X164946106Y-78178213D01*
X164682770Y-78068867D01*
X164072109Y-78068335D01*
X163796957Y-78182025D01*
X162426233Y-78186571D01*
X162142770Y-78068867D01*
X161532109Y-78068335D01*
X161236403Y-78190517D01*
X159906361Y-78194929D01*
X159602770Y-78068867D01*
X158992109Y-78068335D01*
X158675849Y-78199010D01*
X157386489Y-78203287D01*
X157062770Y-78068867D01*
X156452109Y-78068335D01*
X156115295Y-78207503D01*
X154866617Y-78211644D01*
X154522770Y-78068867D01*
X153912109Y-78068335D01*
X153554741Y-78215996D01*
X152346745Y-78220002D01*
X151982770Y-78068867D01*
X151372109Y-78068335D01*
X150994187Y-78224488D01*
X149826873Y-78228360D01*
X149442770Y-78068867D01*
X148832109Y-78068335D01*
X148433633Y-78232981D01*
X147307000Y-78236718D01*
X146902770Y-78068867D01*
X146708701Y-78068697D01*
X146596100Y-78046300D01*
X146484480Y-78068502D01*
X146292109Y-78068335D01*
X145873079Y-78241474D01*
X144787128Y-78245076D01*
X144362770Y-78068867D01*
X143752109Y-78068335D01*
X143312525Y-78249966D01*
X142267256Y-78253433D01*
X141822770Y-78068867D01*
X141212109Y-78068335D01*
X140647729Y-78301532D01*
X140245777Y-78702781D01*
X139846743Y-78303049D01*
X139282770Y-78068867D01*
X138672109Y-78068335D01*
X138107729Y-78301532D01*
X137705777Y-78702781D01*
X137306743Y-78303049D01*
X136742770Y-78068867D01*
X136132109Y-78068335D01*
X135567729Y-78301532D01*
X135165777Y-78702781D01*
X134766743Y-78303049D01*
X134202770Y-78068867D01*
X133592109Y-78068335D01*
X133027729Y-78301532D01*
X132625777Y-78702781D01*
X132226743Y-78303049D01*
X131662770Y-78068867D01*
X131052109Y-78068335D01*
X130487729Y-78301532D01*
X130085777Y-78702781D01*
X129686743Y-78303049D01*
X129122770Y-78068867D01*
X128512109Y-78068335D01*
X127947729Y-78301532D01*
X127545777Y-78702781D01*
X127146743Y-78303049D01*
X126582770Y-78068867D01*
X125972109Y-78068335D01*
X125407729Y-78301532D01*
X125005777Y-78702781D01*
X124606743Y-78303049D01*
X124042770Y-78068867D01*
X123432109Y-78068335D01*
X122867729Y-78301532D01*
X122465777Y-78702781D01*
X122066743Y-78303049D01*
X121502770Y-78068867D01*
X120892109Y-78068335D01*
X120327729Y-78301532D01*
X119925777Y-78702781D01*
X119526743Y-78303049D01*
X118962770Y-78068867D01*
X118352109Y-78068335D01*
X117787729Y-78301532D01*
X117355549Y-78732957D01*
X117346896Y-78753793D01*
X117196259Y-78703046D01*
X117016654Y-78882651D01*
X117016654Y-78523441D01*
X116930248Y-78266957D01*
X116356764Y-78057142D01*
X115746640Y-78082761D01*
X115301952Y-78266957D01*
X115215546Y-78523441D01*
X116116100Y-79423995D01*
X117016654Y-78523441D01*
X117016654Y-78882651D01*
X116295705Y-79603600D01*
X117196259Y-80504154D01*
X117346426Y-80453564D01*
X117354032Y-80471971D01*
X117755281Y-80873922D01*
X117355549Y-81272957D01*
X117346896Y-81293793D01*
X117196259Y-81243046D01*
X117016654Y-81422651D01*
X117016654Y-81063441D01*
X116952699Y-80873600D01*
X117016654Y-80683759D01*
X116116100Y-79783205D01*
X115936495Y-79962810D01*
X115936495Y-79603600D01*
X115035941Y-78703046D01*
X114779457Y-78789452D01*
X114569642Y-79362936D01*
X114595261Y-79973060D01*
X114779457Y-80417748D01*
X115035941Y-80504154D01*
X115936495Y-79603600D01*
X115936495Y-79962810D01*
X115215546Y-80683759D01*
X115279500Y-80873600D01*
X115215546Y-81063441D01*
X116116100Y-81963995D01*
X117016654Y-81063441D01*
X117016654Y-81422651D01*
X116295705Y-82143600D01*
X117196259Y-83044154D01*
X117346426Y-82993564D01*
X117354032Y-83011971D01*
X117785457Y-83444151D01*
X118349430Y-83678333D01*
X118960091Y-83678865D01*
X119524471Y-83445668D01*
X119926422Y-83044418D01*
X120325457Y-83444151D01*
X120889430Y-83678333D01*
X121500091Y-83678865D01*
X122064471Y-83445668D01*
X122466422Y-83044418D01*
X122865457Y-83444151D01*
X123429430Y-83678333D01*
X124040091Y-83678865D01*
X124604471Y-83445668D01*
X125006422Y-83044418D01*
X125405457Y-83444151D01*
X125969430Y-83678333D01*
X126580091Y-83678865D01*
X127144471Y-83445668D01*
X127546422Y-83044418D01*
X127945457Y-83444151D01*
X128509430Y-83678333D01*
X129120091Y-83678865D01*
X129684471Y-83445668D01*
X130086422Y-83044418D01*
X130485457Y-83444151D01*
X131049430Y-83678333D01*
X131660091Y-83678865D01*
X132224471Y-83445668D01*
X132626422Y-83044418D01*
X133025457Y-83444151D01*
X133589430Y-83678333D01*
X134200091Y-83678865D01*
X134764471Y-83445668D01*
X135166422Y-83044418D01*
X135565457Y-83444151D01*
X136129430Y-83678333D01*
X136740091Y-83678865D01*
X137304471Y-83445668D01*
X137706422Y-83044418D01*
X138105457Y-83444151D01*
X138669430Y-83678333D01*
X139280091Y-83678865D01*
X139844471Y-83445668D01*
X140246422Y-83044418D01*
X140645457Y-83444151D01*
X140967277Y-83577782D01*
X140970000Y-84201325D01*
X140970000Y-86950600D01*
X132105405Y-86950600D01*
X132105400Y-86950599D01*
X131709323Y-87029385D01*
X131373544Y-87253744D01*
X124109144Y-94518144D01*
X123884785Y-94853923D01*
X123805999Y-95250000D01*
X123806000Y-95250005D01*
X123806000Y-105870288D01*
X123142288Y-106534000D01*
X120823162Y-106534000D01*
X120823162Y-102684833D01*
X120681117Y-102341057D01*
X120418327Y-102077808D01*
X120314843Y-102034837D01*
X120315162Y-101668833D01*
X120173117Y-101325057D01*
X119910327Y-101061808D01*
X119890532Y-101053588D01*
X119580000Y-100494630D01*
X119580000Y-99441000D01*
X119516439Y-99121460D01*
X119516439Y-99121459D01*
X119335434Y-98850566D01*
X118987440Y-98502572D01*
X118987440Y-98435000D01*
X118940463Y-98192877D01*
X118800673Y-97980073D01*
X118589640Y-97837623D01*
X118340000Y-97787560D01*
X117340000Y-97787560D01*
X117097877Y-97834537D01*
X117016654Y-97887892D01*
X117016654Y-83223759D01*
X116116100Y-82323205D01*
X115936495Y-82502810D01*
X115936495Y-82143600D01*
X115035941Y-81243046D01*
X114779457Y-81329452D01*
X114569642Y-81902936D01*
X114595261Y-82513060D01*
X114779457Y-82957748D01*
X115035941Y-83044154D01*
X115936495Y-82143600D01*
X115936495Y-82502810D01*
X115215546Y-83223759D01*
X115301952Y-83480243D01*
X115875436Y-83690058D01*
X116485560Y-83664439D01*
X116930248Y-83480243D01*
X117016654Y-83223759D01*
X117016654Y-97887892D01*
X116885073Y-97974327D01*
X116841662Y-98038637D01*
X116699698Y-97896673D01*
X116466309Y-97800000D01*
X116125750Y-97800000D01*
X115967000Y-97958750D01*
X115967000Y-98933000D01*
X115987000Y-98933000D01*
X115987000Y-99187000D01*
X115967000Y-99187000D01*
X115967000Y-100161250D01*
X116125750Y-100320000D01*
X116466309Y-100320000D01*
X116699698Y-100223327D01*
X116841176Y-100081849D01*
X116879327Y-100139927D01*
X117090360Y-100282377D01*
X117327631Y-100329959D01*
X117097877Y-100374537D01*
X116885073Y-100514327D01*
X116841662Y-100578637D01*
X116699698Y-100436673D01*
X116466309Y-100340000D01*
X116125750Y-100340000D01*
X115967000Y-100498750D01*
X115967000Y-101473000D01*
X115987000Y-101473000D01*
X115987000Y-101727000D01*
X115967000Y-101727000D01*
X115967000Y-102701250D01*
X116125750Y-102860000D01*
X116466309Y-102860000D01*
X116699698Y-102763327D01*
X116841176Y-102621849D01*
X116879327Y-102679927D01*
X117090360Y-102822377D01*
X117340000Y-102872440D01*
X117834009Y-102872440D01*
X117846561Y-102935541D01*
X118027566Y-103206434D01*
X118281566Y-103460434D01*
X118552459Y-103641439D01*
X118552460Y-103641439D01*
X118872000Y-103705000D01*
X119460765Y-103705000D01*
X119701201Y-103804838D01*
X120073167Y-103805162D01*
X120416943Y-103663117D01*
X120680192Y-103400327D01*
X120822838Y-103056799D01*
X120823162Y-102684833D01*
X120823162Y-106534000D01*
X120777005Y-106534000D01*
X120777000Y-106533999D01*
X120380923Y-106612785D01*
X120045144Y-106837144D01*
X120045141Y-106837147D01*
X119156144Y-107726144D01*
X118931785Y-108061923D01*
X118852999Y-108458000D01*
X118853000Y-108458005D01*
X118853000Y-110235994D01*
X118852999Y-110236000D01*
X118931785Y-110632077D01*
X119156144Y-110967856D01*
X119410141Y-111221852D01*
X119410144Y-111221856D01*
X119611428Y-111356349D01*
X119745922Y-111446215D01*
X119745923Y-111446215D01*
X119897922Y-111476450D01*
X119959327Y-111569927D01*
X120170360Y-111712377D01*
X120420000Y-111762440D01*
X121420000Y-111762440D01*
X121662123Y-111715463D01*
X121874927Y-111575673D01*
X121918337Y-111511362D01*
X122060302Y-111653327D01*
X122293691Y-111750000D01*
X122634250Y-111750000D01*
X122793000Y-111591250D01*
X122793000Y-110617000D01*
X122773000Y-110617000D01*
X122773000Y-110363000D01*
X122793000Y-110363000D01*
X122793000Y-109388750D01*
X122634250Y-109230000D01*
X122293691Y-109230000D01*
X122060302Y-109326673D01*
X121918823Y-109468150D01*
X121880673Y-109410073D01*
X121669640Y-109267623D01*
X121420000Y-109217560D01*
X120923000Y-109217560D01*
X120923000Y-108886711D01*
X121205711Y-108604000D01*
X123570994Y-108604000D01*
X123571000Y-108604001D01*
X123571000Y-108604000D01*
X123967077Y-108525215D01*
X124302856Y-108300856D01*
X125572852Y-107030858D01*
X125572855Y-107030856D01*
X125572856Y-107030856D01*
X125707349Y-106829571D01*
X125797215Y-106695078D01*
X125797215Y-106695077D01*
X125876000Y-106299000D01*
X125876001Y-106299000D01*
X125876000Y-106298994D01*
X125876000Y-98132871D01*
X125952883Y-98318943D01*
X126215673Y-98582192D01*
X126559201Y-98724838D01*
X126931167Y-98725162D01*
X127274943Y-98583117D01*
X127303045Y-98555063D01*
X127395360Y-98617377D01*
X127645000Y-98667440D01*
X128895000Y-98667440D01*
X129137123Y-98620463D01*
X129349927Y-98480673D01*
X129492377Y-98269640D01*
X129539959Y-98032368D01*
X129584537Y-98262123D01*
X129724327Y-98474927D01*
X129935360Y-98617377D01*
X129975000Y-98625326D01*
X129975000Y-98886765D01*
X129875162Y-99127201D01*
X129874838Y-99499167D01*
X130016883Y-99842943D01*
X130279673Y-100106192D01*
X130623201Y-100248838D01*
X130995167Y-100249162D01*
X131338943Y-100107117D01*
X131602192Y-99844327D01*
X131744838Y-99500799D01*
X131745162Y-99128833D01*
X131645000Y-98886421D01*
X131645000Y-98626695D01*
X131677123Y-98620463D01*
X131889927Y-98480673D01*
X132032377Y-98269640D01*
X132082440Y-98020000D01*
X132082440Y-97020000D01*
X132035463Y-96777877D01*
X131895673Y-96565073D01*
X131831362Y-96521662D01*
X131973327Y-96379698D01*
X132070000Y-96146309D01*
X132070000Y-95805750D01*
X132070000Y-95234250D01*
X132070000Y-94893691D01*
X131973327Y-94660302D01*
X131794699Y-94481673D01*
X131561310Y-94385000D01*
X131308691Y-94385000D01*
X131095750Y-94385000D01*
X130937000Y-94543750D01*
X130937000Y-95393000D01*
X131911250Y-95393000D01*
X132070000Y-95234250D01*
X132070000Y-95805750D01*
X131911250Y-95647000D01*
X130937000Y-95647000D01*
X130937000Y-95667000D01*
X130683000Y-95667000D01*
X130683000Y-95647000D01*
X130683000Y-95393000D01*
X130683000Y-94543750D01*
X130524250Y-94385000D01*
X130311309Y-94385000D01*
X130058690Y-94385000D01*
X129825301Y-94481673D01*
X129646673Y-94660302D01*
X129550000Y-94893691D01*
X129550000Y-95234250D01*
X129708750Y-95393000D01*
X130683000Y-95393000D01*
X130683000Y-95647000D01*
X129708750Y-95647000D01*
X129550000Y-95805750D01*
X129550000Y-96146309D01*
X129646673Y-96379698D01*
X129788150Y-96521176D01*
X129730073Y-96559327D01*
X129587623Y-96770360D01*
X129540040Y-97007631D01*
X129495463Y-96777877D01*
X129355673Y-96565073D01*
X129291362Y-96521662D01*
X129433327Y-96379698D01*
X129530000Y-96146309D01*
X129530000Y-95805750D01*
X129530000Y-95234250D01*
X129530000Y-94893691D01*
X129433327Y-94660302D01*
X129254699Y-94481673D01*
X129021310Y-94385000D01*
X128768691Y-94385000D01*
X128555750Y-94385000D01*
X128397000Y-94543750D01*
X128397000Y-95393000D01*
X129371250Y-95393000D01*
X129530000Y-95234250D01*
X129530000Y-95805750D01*
X129371250Y-95647000D01*
X128397000Y-95647000D01*
X128397000Y-95667000D01*
X128143000Y-95667000D01*
X128143000Y-95647000D01*
X128143000Y-95393000D01*
X128143000Y-94543750D01*
X127984250Y-94385000D01*
X127771309Y-94385000D01*
X127518690Y-94385000D01*
X127285301Y-94481673D01*
X127106673Y-94660302D01*
X127010000Y-94893691D01*
X127010000Y-95234250D01*
X127168750Y-95393000D01*
X128143000Y-95393000D01*
X128143000Y-95647000D01*
X127168750Y-95647000D01*
X127010000Y-95805750D01*
X127010000Y-96146309D01*
X127106673Y-96379698D01*
X127248150Y-96521176D01*
X127190073Y-96559327D01*
X127105242Y-96685000D01*
X127016000Y-96685000D01*
X126696460Y-96748560D01*
X126499439Y-96880205D01*
X126217057Y-96996883D01*
X125953808Y-97259673D01*
X125876000Y-97447054D01*
X125876000Y-95678712D01*
X132534112Y-89020600D01*
X140970000Y-89020600D01*
X140970000Y-105410000D01*
X140972656Y-105423355D01*
X140972897Y-105436972D01*
X140977443Y-105447421D01*
X140979667Y-105458601D01*
X140987234Y-105469926D01*
X140992666Y-105482411D01*
X147011007Y-114154000D01*
X146205607Y-114154000D01*
X146159673Y-114084073D01*
X145948640Y-113941623D01*
X145699000Y-113891560D01*
X144999000Y-113891560D01*
X144756877Y-113938537D01*
X144544073Y-114078327D01*
X144401623Y-114289360D01*
X144399783Y-114298530D01*
X144399463Y-114296877D01*
X144259673Y-114084073D01*
X144048640Y-113941623D01*
X143799000Y-113891560D01*
X143099000Y-113891560D01*
X142856877Y-113938537D01*
X142644073Y-114078327D01*
X142592992Y-114154000D01*
X141605000Y-114154000D01*
X141208923Y-114232785D01*
X140873144Y-114457144D01*
X140648785Y-114792923D01*
X140570000Y-115189000D01*
X140648785Y-115585077D01*
X140873144Y-115920856D01*
X141208923Y-116145215D01*
X141605000Y-116224000D01*
X142592392Y-116224000D01*
X142638327Y-116293927D01*
X142849360Y-116436377D01*
X143099000Y-116486440D01*
X143799000Y-116486440D01*
X144041123Y-116439463D01*
X144253927Y-116299673D01*
X144396377Y-116088640D01*
X144398216Y-116079469D01*
X144398537Y-116081123D01*
X144538327Y-116293927D01*
X144749360Y-116436377D01*
X144999000Y-116486440D01*
X145699000Y-116486440D01*
X145941123Y-116439463D01*
X146153927Y-116299673D01*
X146205007Y-116224000D01*
X147446994Y-116224000D01*
X147447000Y-116224001D01*
X147447000Y-116224000D01*
X147843077Y-116145215D01*
X148178856Y-115920856D01*
X148213331Y-115886380D01*
X152803666Y-122500411D01*
X152811863Y-122508324D01*
X152818197Y-122517803D01*
X152829520Y-122525368D01*
X152839318Y-122534827D01*
X152849924Y-122539002D01*
X152859399Y-122545333D01*
X152872751Y-122547988D01*
X152885427Y-122552979D01*
X152896826Y-122552777D01*
X152908000Y-122555000D01*
X173863000Y-122555000D01*
X173911601Y-122545333D01*
X173952803Y-122517803D01*
X173980333Y-122476601D01*
X173990000Y-122428000D01*
X173990000Y-117085000D01*
X184700000Y-117085000D01*
X184725000Y-117085000D01*
X191065000Y-117085000D01*
X191065000Y-118326000D01*
X189261750Y-118326000D01*
X189103000Y-118484750D01*
X189103000Y-119734000D01*
X189123000Y-119734000D01*
X189123000Y-119988000D01*
X189103000Y-119988000D01*
X189103000Y-121237250D01*
X189261750Y-121396000D01*
X191065000Y-121396000D01*
X191065000Y-123206000D01*
X189261750Y-123206000D01*
X189103000Y-123364750D01*
X189103000Y-124614000D01*
X189123000Y-124614000D01*
X189123000Y-124868000D01*
X189103000Y-124868000D01*
X189103000Y-126117250D01*
X189261750Y-126276000D01*
X191065000Y-126276000D01*
X191065000Y-132649000D01*
M02*
